<svg xmlns="http://www.w3.org/2000/svg" xmlns:xlink="http://www.w3.org/1999/xlink" width="178.867" height="98.106"
    viewBox="0 0 178.867 98.106">
    <defs>
        <clipPath id="clip-path">
            <rect id="Rectángulo_2711" data-name="Rectángulo 2711" width="46.231" height="51.451" fill="#5f6d7e" />
        </clipPath>
    </defs>
    <g id="Grupo_32806" data-name="Grupo 32806" transform="translate(-695.922 -578.316)">
        <path id="Trazado_20020" data-name="Trazado 20020" d="M7803.652,4467h14.675v91.593h-14.675"
            transform="translate(-6944.539 -3883.17)" fill="none" stroke="#e06c4c" stroke-linejoin="round"
            stroke-width="2" />
        <path id="Trazado_20021" data-name="Trazado 20021" d="M7817.8,4467h-14.151v91.593H7817.8"
            transform="translate(-7106.73 -3883.17)" fill="none" stroke="#e06c4c" stroke-linejoin="round"
            stroke-width="2" />
        <g id="Grupo_32806-2" data-name="Grupo 32806" transform="translate(728.587 603.901)">
            <g id="Grupo_8069" data-name="Grupo 8069">
                <g id="Grupo_8068" data-name="Grupo 8068" clip-path="url(#clip-path)">
                    <path id="Trazado_4456" data-name="Trazado 4456"
                        d="M125.03,12.749,112.589.308A1.05,1.05,0,0,0,111.846,0h-18.8a5.109,5.109,0,0,0-5.1,5.1V46.348a5.109,5.109,0,0,0,5.1,5.1h27.187a5.109,5.109,0,0,0,5.1-5.1V13.491a1.051,1.051,0,0,0-.308-.743M112.9,3.585l8.856,8.856H115.9a3,3,0,0,1-3-3Zm10.341,42.762a3.006,3.006,0,0,1-3,3H93.047a3.006,3.006,0,0,1-3-3V5.1a3.007,3.007,0,0,1,3-3H110.8V9.438a5.1,5.1,0,0,0,5.1,5.1h7.338V46.348Z"
                        transform="translate(-79.107)" fill="#5f6d7e" />
                    <path id="Trazado_4457" data-name="Trazado 4457"
                        d="M25.173,321.365H1.96A1.959,1.959,0,0,1,0,319.406V309.96A1.959,1.959,0,0,1,1.96,308H25.173a1.959,1.959,0,0,1,1.96,1.96v9.446a1.959,1.959,0,0,1-1.96,1.96"
                        transform="translate(0 -277.049)" fill="#c76043" />
                </g>
            </g>
            <text id="DTS" transform="translate(4.02 41.786)" fill="#fcfcfc" font-size="11"
                font-family="MyriadPro-Semibold, Myriad Pro" font-weight="600">
                <tspan x="0" y="0" letter-spacing="-0.027em">D</tspan>
                <tspan y="0" letter-spacing="-0.008em">T</tspan>
                <tspan y="0">S</tspan>
            </text>
        </g>
        <g id="Grupo_32807" data-name="Grupo 32807" transform="translate(786.798 526.179)">
            <g id="Grupo_8069-2" data-name="Grupo 8069" transform="translate(0 77.723)">
                <g id="Grupo_8068-2" data-name="Grupo 8068" clip-path="url(#clip-path)">
                    <path id="Trazado_4456-2" data-name="Trazado 4456"
                        d="M125.03,12.749,112.589.308A1.05,1.05,0,0,0,111.846,0h-18.8a5.109,5.109,0,0,0-5.1,5.1V46.348a5.109,5.109,0,0,0,5.1,5.1h27.187a5.109,5.109,0,0,0,5.1-5.1V13.491a1.051,1.051,0,0,0-.308-.743M112.9,3.585l8.856,8.856H115.9a3,3,0,0,1-3-3Zm10.341,42.762a3.006,3.006,0,0,1-3,3H93.047a3.006,3.006,0,0,1-3-3V5.1a3.007,3.007,0,0,1,3-3H110.8V9.438a5.1,5.1,0,0,0,5.1,5.1h7.338V46.348Z"
                        transform="translate(-79.107)" fill="#5f6d7e" />
                    <path id="Trazado_4457-2" data-name="Trazado 4457"
                        d="M25.173,321.365H1.96A1.959,1.959,0,0,1,0,319.406V309.96A1.959,1.959,0,0,1,1.96,308H25.173a1.959,1.959,0,0,1,1.96,1.96v9.446a1.959,1.959,0,0,1-1.96,1.96"
                        transform="translate(0 -277.049)" fill="#5f6d7e" />
                </g>
            </g>
            <text id="JS" transform="translate(8.02 119.509)" fill="#fcfcfc" font-size="11"
                font-family="MyriadPro-Semibold, Myriad Pro" font-weight="600" letter-spacing="-0.027em">
                <tspan x="0" y="0">JS</tspan>
            </text>
        </g>
        <text id="Your_module_package" data-name="Your module package" transform="translate(784.713 586.316)"
            fill="#e06c4c" font-size="9" font-family="Rubik-Light, Rubik" font-weight="300" letter-spacing="0.02em">
            <tspan x="-45" y="0">Your module package</tspan>
        </text>
    </g>
</svg>