<svg xmlns="http://www.w3.org/2000/svg" width="4" height="7.398" viewBox="0 0 4 7.398">
  <g id="facebook-logo" transform="translate(-22.077)">
    <path id="Trazado_129" data-name="Trazado 129" d="M25.926,0l-.959,0a1.685,1.685,0,0,0-1.774,1.821v.84h-.965a.151.151,0,0,0-.151.151V4.028a.151.151,0,0,0,.151.151h.965V7.248a.151.151,0,0,0,.151.151H24.6a.151.151,0,0,0,.151-.151V4.178h1.128a.151.151,0,0,0,.151-.151V2.811a.151.151,0,0,0-.151-.151H24.753V1.949c0-.342.082-.516.527-.516h.646a.151.151,0,0,0,.151-.151V.152A.151.151,0,0,0,25.926,0Z" transform="translate(0)" fill="#bdbdbd"/>
  </g>
</svg>
