<svg xmlns="http://www.w3.org/2000/svg" width="23.013" height="25.413" viewBox="0 0 23.013 25.413">
  <path id="Icon_simple-webpack" data-name="Icon simple-webpack" d="M25.805,22.159,15.46,27.985V23.447l6.445-3.53,3.9,2.242Zm.708-.638V9.337l-3.786,2.175v7.831Zm-22.306.638,10.345,5.826V23.447l-6.445-3.53-3.9,2.242ZM3.5,21.521V9.337l3.786,2.175v7.831L3.5,21.521ZM3.942,8.548l10.61-5.976V6.959l-6.8,3.722-.052.03L3.942,8.548Zm22.127,0L15.46,2.572V6.959l6.8,3.722.052.03L26.07,8.548ZM14.552,22.415,8.193,18.934v-6.9l6.359,3.656v6.723Zm.908,0,6.359-3.481v-6.9L15.46,15.692v6.723ZM8.624,11.238l6.384-3.5,6.384,3.5-6.384,3.671Z" transform="translate(-3.5 -2.572)" fill="#99a3b1"/>
</svg>
