<svg id="Ilustracion_.02" data-name="Ilustracion .02" xmlns="http://www.w3.org/2000/svg" xmlns:xlink="http://www.w3.org/1999/xlink" width="271.079" height="163.331" viewBox="0 0 271.079 163.331">
  <defs>
    <clipPath id="clip-path">
      <rect id="Rect치ngulo_2713" data-name="Rect치ngulo 2713" width="251.716" height="163.331" fill="#fff"/>
    </clipPath>
    <clipPath id="clip-path-2">
      <rect id="Rect치ngulo_2714" data-name="Rect치ngulo 2714" width="156.868" height="39.523" fill="none"/>
    </clipPath>
  </defs>
  <g id="Grupo_8081" data-name="Grupo 8081">
    <g id="Grupo_8079" data-name="Grupo 8079" clip-path="url(#clip-path)">
      <path id="Trazado_4465" data-name="Trazado 4465" d="M240.693,81.088A54.323,54.323,0,0,0,215.7,63.815c-.407-22.661-19.912-40.978-43.828-40.978a45.626,45.626,0,0,0-11.134,1.383A68.062,68.062,0,0,0,138.888,7.17,69.608,69.608,0,0,0,107.853,0C71.125,0,41.121,27.91,40.041,62.6,16.659,68.486,0,88.844,0,112.115c0,28.24,24.151,51.216,53.838,51.216h144.04c29.687,0,53.838-22.975,53.838-51.216a49.092,49.092,0,0,0-11.023-31.027m-42.815,74.968" fill="#fff"/>
    </g>
  </g>
  <g id="Grupo_8080" data-name="Grupo 8080" transform="translate(16.134 3.043)">
    <text id="CDN" transform="translate(123.698 137.885)" font-size="24" font-family="Rubik-Medium, Rubik" font-weight="500" letter-spacing="-0.01em"><tspan x="-24" y="0">CDN</tspan></text>
    <g id="Grupo_8083" data-name="Grupo 8083" transform="translate(47.007 73.47)" clip-path="url(#clip-path-2)">
      <path id="Trazado_4466" data-name="Trazado 4466" d="M144.706,7.413a7.661,7.661,0,0,0-5.155,1.644,5.178,5.178,0,0,0-1.894,4.07,4.5,4.5,0,0,0,.639,2.424,4.98,4.98,0,0,0,1.7,1.589,15.338,15.338,0,0,0,2.312.975q1.282.418,2.536.726t2.286.641q2.367.752,2.368,2.34,0,3.234-4.877,3.233a13.317,13.317,0,0,1-6.6-1.616h-.139V25.92a15.44,15.44,0,0,0,6.687,1.506,8.747,8.747,0,0,0,5.46-1.506,4.762,4.762,0,0,0,1.979-3.93,4.522,4.522,0,0,0-.893-2.871,4.782,4.782,0,0,0-2.173-1.673,29.172,29.172,0,0,0-2.87-.92q-1.533-.446-2.842-.725a5.381,5.381,0,0,1-2.2-1.031,2.3,2.3,0,0,1-.865-1.84,2.606,2.606,0,0,1,1.394-2.341,7.162,7.162,0,0,1,3.789-.865,13.462,13.462,0,0,1,5.044,1.059h.2V8.415a16.342,16.342,0,0,0-5.879-1m-14.475.28V20.9q0,2.4-.947,3.262a3.761,3.761,0,0,1-2.676.865,5.772,5.772,0,0,1-3.456-1.255h-.111v2.51a7.807,7.807,0,0,0,4.153,1.143,5.554,5.554,0,0,0,3.927-1.506q1.647-1.533,1.647-5.186V7.692Z" transform="translate(4.858 0.293)" fill="#99a3b1"/>
      <path id="Trazado_4467" data-name="Trazado 4467" d="M0,7.411V27.147H8.082q7.236,0,7.237-5.54,0-3.449-3.8-4.665v-.084a4.358,4.358,0,0,0,2.7-4.324A4.614,4.614,0,0,0,12.558,8.8,6.977,6.977,0,0,0,7.913,7.416Zm21.118,0V27.147H34.747v-2.4H23.679V18.466H33.732v-2.4H23.679V9.815H34.747v-2.4Zm16.593,0,8,11.392v8.344h2.562V18.8l8-11.392H53.143l-6.082,9.018h-.14L40.838,7.411Zm47.035,0V27.147h2.562V10.889h.056L98.74,27.147h3.154V7.414H99.331V23.639h-.084L87.9,7.414Zm24.2,0V27.147h6.928a11.168,11.168,0,0,0,3.6-.565,8.866,8.866,0,0,0,4.758-3.787,10.454,10.454,0,0,0-.844-12.213,8.162,8.162,0,0,0-3.155-2.289,10.481,10.481,0,0,0-4.364-.875ZM2.562,9.816H7.716a4.882,4.882,0,0,1,2.955.792,2.6,2.6,0,0,1,1.1,2.234A2.8,2.8,0,0,1,10.758,15.1a5.576,5.576,0,0,1-3.521.848H2.562Zm108.943,0h4.055a7.67,7.67,0,0,1,5.6,2.064,7.959,7.959,0,0,1,0,10.8,7.678,7.678,0,0,1-5.6,2.064h-4.055ZM2.562,18.268H7.856q4.985,0,4.985,3.222a2.805,2.805,0,0,1-1.155,2.4,6.6,6.6,0,0,1-3.856.848H2.562Z" transform="translate(0 0.293)" fill="#e46f4e"/>
      <path id="Trazado_4468" data-name="Trazado 4468" d="M64.11,27.605a10.675,10.675,0,1,1,13.072-7.553A10.687,10.687,0,0,1,64.11,27.605M68.967,9.453a8.116,8.116,0,1,0,5.743,9.939,8.125,8.125,0,0,0-5.743-9.939" transform="translate(2.219 0.261)" fill="#e46f4e"/>
      <path id="Trazado_4469" data-name="Trazado 4469" d="M70.524,0a4.961,4.961,0,0,0-1.956.534,7.388,7.388,0,0,0-2.2,1.674,19.022,19.022,0,0,0-2.629,3.66A11.9,11.9,0,0,1,67.1,5.528,13.568,13.568,0,0,1,68.47,3.755c1.5-1.559,2.742-1.706,3.416.857a13.661,13.661,0,0,1,.385,2.353,11.947,11.947,0,0,1,2.794,2.088,19.62,19.62,0,0,0-.6-4.814,7.4,7.4,0,0,0-1.15-2.511A4.085,4.085,0,0,0,71.207.076,2.617,2.617,0,0,0,70.524,0" transform="translate(2.517 0)" fill="#e46f4e"/>
      <path id="Trazado_4470" data-name="Trazado 4470" d="M57.027,23.411a22.32,22.32,0,0,0-.913,6.483c.121,1.451.7,1.608,1.533.411a18.036,18.036,0,0,0,1.888-4.228,12.035,12.035,0,0,1-2.508-2.666" transform="translate(2.215 0.924)" fill="#99a3b1"/>
      <path id="Trazado_4471" data-name="Trazado 4471" d="M71.56,27.268a12.005,12.005,0,0,1-3.5,1.056,18.039,18.039,0,0,0-.472,4.607c.121,1.451.7,1.607,1.532.41A22.262,22.262,0,0,0,71.56,27.268Z" transform="translate(2.668 1.077)" fill="#99a3b1"/>
      <path id="Trazado_4472" data-name="Trazado 4472" d="M62.11,27.5a50.2,50.2,0,0,0-1.638,9.181c-.076,2.185.508,2.341,1.532.41a50.2,50.2,0,0,0,3.159-8.774A10.673,10.673,0,0,1,62.11,27.5" transform="translate(2.387 1.086)" fill="#99a3b1"/>
    </g>
    <path id="Trazado_4473" data-name="Trazado 4473" d="M54.149,159.132s-55.03,3.415-56.6-44.675S42.753,66.082,42.753,66.082s1.8-51.22,48.282-61.18S160.61,28.236,160.61,28.236s23.766-9.675,40.56,6.26S213.09,67.5,213.09,67.5s38.087,3.983,37.861,48.375-54,43.252-54,43.252Z" transform="translate(2.493 -3.043)" fill="none" stroke="#99a3b1" stroke-width="3"/>
  </g>
</svg>
