<svg xmlns="http://www.w3.org/2000/svg" xmlns:xlink="http://www.w3.org/1999/xlink" width="1339" height="37.242" viewBox="0 0 1339 37.242">
  <defs>
    <clipPath id="clip-path">
      <rect id="Rectángulo_2642" data-name="Rectángulo 2642" width="66.45" height="16.742" fill="none"/>
    </clipPath>
  </defs>
  <g id="LT_.Footer" data-name="LT .Footer" transform="translate(0 0.5)">
    <text id="_Copyright_BeyondJS_2021_·_Buenos_Aires_Argentina_·_Mail:_support_beyondjs.com_._54_9_11_5317_1534" data-name="©Copyright BeyondJS 2021 · Buenos Aires, Argentina · Mail: support@beyondjs.com .  +54 9 11 5317 1534" transform="translate(89 20)" fill="#8e99bb" font-size="12" font-family="Rubik-Light, Rubik" font-weight="300"><tspan x="0" y="11" xml:space="preserve">©Copyright BeyondJS 2021 · Buenos Aires, Argentina · Mail: support@beyondjs.com .  +54 9 11 5317 1534</tspan></text>
    <g id="_Btn_Round_.Small_.Line_.Gray" data-name="[Btn] Round .Small .Line .Gray" transform="translate(1319 14)">
      <g id="Trazado_137" data-name="Trazado 137" fill="none">
        <path d="M10,0A10,10,0,1,1,0,10,10,10,0,0,1,10,0Z" stroke="none"/>
        <path d="M 10 1 C 5.037380218505859 1 1 5.037380218505859 1 10 C 1 14.96261978149414 5.037380218505859 19 10 19 C 14.96261978149414 19 19 14.96261978149414 19 10 C 19 5.037380218505859 14.96261978149414 1 10 1 M 10 0 C 15.52284049987793 0 20 4.477149963378906 20 10 C 20 15.52284049987793 15.52284049987793 20 10 20 C 4.477149963378906 20 0 15.52284049987793 0 10 C 0 4.477149963378906 4.477149963378906 0 10 0 Z" stroke="none" fill="#bdbdbd"/>
      </g>
      <g id="facebook-logo" transform="translate(-14.077 6.652)">
        <path id="Trazado_129" data-name="Trazado 129" d="M25.926,0l-.959,0a1.685,1.685,0,0,0-1.774,1.821v.84h-.965a.151.151,0,0,0-.151.151V4.028a.151.151,0,0,0,.151.151h.965V7.248a.151.151,0,0,0,.151.151H24.6a.151.151,0,0,0,.151-.151V4.178h1.128a.151.151,0,0,0,.151-.151V2.811a.151.151,0,0,0-.151-.151H24.753V1.949c0-.342.082-.516.527-.516h.646a.151.151,0,0,0,.151-.151V.152A.151.151,0,0,0,25.926,0Z" transform="translate(0)" fill="#bdbdbd"/>
      </g>
    </g>
    <path id="Trazado_4114" data-name="Trazado 4114" d="M0,0H1339" fill="none" stroke="#e0e0e0" stroke-width="1"/>
    <g id="Grupo_7838" data-name="Grupo 7838" transform="translate(0 20)">
      <g id="Grupo_7834" data-name="Grupo 7834" transform="translate(0 0)" clip-path="url(#clip-path)">
        <path id="Trazado_4250" data-name="Trazado 4250" d="M132.218,7.411a3.245,3.245,0,0,0-2.184.7,2.193,2.193,0,0,0-.8,1.724,1.9,1.9,0,0,0,.271,1.027,2.11,2.11,0,0,0,.72.673,6.5,6.5,0,0,0,.979.413q.543.177,1.074.307t.968.272q1,.318,1,.991,0,1.37-2.066,1.369a5.641,5.641,0,0,1-2.8-.685h-.059v1.051a6.541,6.541,0,0,0,2.833.638,3.705,3.705,0,0,0,2.313-.638,2.017,2.017,0,0,0,.838-1.665,1.916,1.916,0,0,0-.378-1.216,2.026,2.026,0,0,0-.92-.708,12.356,12.356,0,0,0-1.216-.39q-.649-.189-1.2-.307a2.279,2.279,0,0,1-.932-.437.976.976,0,0,1-.366-.779,1.1,1.1,0,0,1,.59-.992,3.034,3.034,0,0,1,1.6-.366,5.7,5.7,0,0,1,2.136.449h.083v-1a6.923,6.923,0,0,0-2.491-.425m-6.132.118v5.6a1.845,1.845,0,0,1-.4,1.382,1.593,1.593,0,0,1-1.133.366,2.445,2.445,0,0,1-1.464-.531h-.047v1.063a3.307,3.307,0,0,0,1.759.484,2.353,2.353,0,0,0,1.664-.638,2.9,2.9,0,0,0,.7-2.2V7.529Z" transform="translate(-68.862 -4.147)" fill="#99a3b1"/>
        <path id="Trazado_4251" data-name="Trazado 4251" d="M0,7.411v8.36H3.424q3.065,0,3.066-2.347a1.987,1.987,0,0,0-1.611-1.976v-.036A1.846,1.846,0,0,0,6.024,9.581,1.955,1.955,0,0,0,5.32,8a2.956,2.956,0,0,0-1.968-.586Zm8.946,0v8.36h5.773V14.754H10.031v-2.66h4.258V11.076H10.031V8.429h4.688V7.412Zm7.029,0,3.388,4.826v3.535h1.085V12.237l3.387-4.826H22.512l-2.576,3.82h-.059L17.3,7.411Zm19.924,0v8.36h1.085V8.884h.024l4.819,6.887h1.336V7.412H42.077v6.873h-.036L37.234,7.412Zm10.25,0v8.36h2.935a4.731,4.731,0,0,0,1.527-.24,3.756,3.756,0,0,0,2.015-1.6,4.428,4.428,0,0,0-.358-5.173,3.457,3.457,0,0,0-1.336-.97,4.44,4.44,0,0,0-1.849-.371ZM1.085,8.43H3.269a2.068,2.068,0,0,1,1.252.336,1.1,1.1,0,0,1,.465.946,1.186,1.186,0,0,1-.429.958,2.362,2.362,0,0,1-1.491.359H1.085Zm46.149,0h1.718a3.249,3.249,0,0,1,2.373.874,3.372,3.372,0,0,1,0,4.574,3.253,3.253,0,0,1-2.373.874H47.234ZM1.085,12.01H3.328q2.112,0,2.112,1.365a1.188,1.188,0,0,1-.489,1.018,2.8,2.8,0,0,1-1.634.359H1.085Z" transform="translate(0 -4.148)" fill="#e46f4e"/>
        <path id="Trazado_4252" data-name="Trazado 4252" d="M59.547,15.508a4.522,4.522,0,1,1,5.537-3.2,4.527,4.527,0,0,1-5.537,3.2M61.6,7.818a3.438,3.438,0,1,0,2.433,4.21A3.442,3.442,0,0,0,61.6,7.818" transform="translate(-31.45 -3.703)" fill="#e46f4e"/>
        <path id="Trazado_4253" data-name="Trazado 4253" d="M66.614,0a2.1,2.1,0,0,0-.829.226,3.13,3.13,0,0,0-.931.709,8.058,8.058,0,0,0-1.114,1.55,5.039,5.039,0,0,1,1.424-.144,5.748,5.748,0,0,1,.579-.751c.635-.66,1.162-.723,1.447.363a5.786,5.786,0,0,1,.163,1,5.061,5.061,0,0,1,1.184.885A8.311,8.311,0,0,0,68.284,1.8,3.132,3.132,0,0,0,67.8.732a1.73,1.73,0,0,0-.893-.7A1.109,1.109,0,0,0,66.614,0" transform="translate(-35.674 0)" fill="#e46f4e"/>
        <path id="Trazado_4254" data-name="Trazado 4254" d="M56.487,23.411a9.455,9.455,0,0,0-.387,2.746c.051.615.3.681.649.174a7.64,7.64,0,0,0,.8-1.791,5.1,5.1,0,0,1-1.063-1.129" transform="translate(-31.393 -13.102)" fill="#99a3b1"/>
        <path id="Trazado_4255" data-name="Trazado 4255" d="M69.255,27.268a5.085,5.085,0,0,1-1.484.447,7.641,7.641,0,0,0-.2,1.952c.051.615.3.681.649.173A9.43,9.43,0,0,0,69.255,27.268Z" transform="translate(-37.812 -15.261)" fill="#99a3b1"/>
        <path id="Trazado_4256" data-name="Trazado 4256" d="M61.162,27.5a21.263,21.263,0,0,0-.694,3.889c-.032.926.215.992.649.173a21.264,21.264,0,0,0,1.338-3.717,4.521,4.521,0,0,1-1.293-.346" transform="translate(-33.841 -15.391)" fill="#99a3b1"/>
      </g>
    </g>
  </g>
</svg>
