<svg id="nodejs-seeklogo.com" xmlns="http://www.w3.org/2000/svg" width="24.912" height="28.071" viewBox="0 0 24.912 28.071">
  <path id="Trazado_3973" data-name="Trazado 3973" d="M12.456,28.071a2.262,2.262,0,0,1-1.083-.284L7.943,25.75c-.516-.284-.258-.387-.1-.438a6.248,6.248,0,0,0,1.547-.7.237.237,0,0,1,.258.026l2.63,1.573a.328.328,0,0,0,.309,0l10.29-5.957a.3.3,0,0,0,.155-.284V8.085a.3.3,0,0,0-.155-.284L12.585,1.87a.328.328,0,0,0-.309,0L1.986,7.8a.324.324,0,0,0-.155.284V19.974a.324.324,0,0,0,.155.284L4.8,21.882c1.522.774,2.476-.129,2.476-1.032V9.116a.314.314,0,0,1,.309-.309H8.9a.314.314,0,0,1,.309.309V20.85c0,2.037-1.109,3.224-3.043,3.224a4.424,4.424,0,0,1-2.373-.645L1.083,21.882A2.176,2.176,0,0,1,0,20V8.111A2.176,2.176,0,0,1,1.083,6.228L11.373.271a2.3,2.3,0,0,1,2.166,0l10.29,5.957a2.176,2.176,0,0,1,1.083,1.883V20a2.176,2.176,0,0,1-1.083,1.883l-10.29,5.957a2.639,2.639,0,0,1-1.083.232ZM15.628,19.9c-4.513,0-5.441-2.063-5.441-3.817a.314.314,0,0,1,.309-.309h1.341a.265.265,0,0,1,.284.258c.206,1.367.8,2.037,3.533,2.037,2.166,0,3.095-.49,3.095-1.651,0-.671-.258-1.161-3.636-1.5-2.811-.284-4.565-.9-4.565-3.146,0-2.089,1.754-3.327,4.694-3.327,3.3,0,4.926,1.135,5.132,3.61a.416.416,0,0,1-.077.232.318.318,0,0,1-.206.1H18.749a.3.3,0,0,1-.284-.232c-.309-1.418-1.109-1.883-3.224-1.883-2.373,0-2.656.825-2.656,1.444,0,.748.335.98,3.533,1.393,3.172.413,4.668,1.006,4.668,3.224C20.76,18.607,18.9,19.9,15.628,19.9Z" transform="translate(0 0)" fill="#539e43"/>
</svg>
