<svg xmlns="http://www.w3.org/2000/svg" width="37.503" height="28.125" viewBox="0 0 37.503 28.125">
  <path id="Sass_Logo_Color" d="M32.267,16.142a7.765,7.765,0,0,0-3.4.788,7.16,7.16,0,0,1-.76-1.76,4.728,4.728,0,0,1-.069-1.48,13.142,13.142,0,0,1,.445-1.6c-.007-.069-.082-.39-.836-.4s-1.4.144-1.48.343a8.266,8.266,0,0,0-.315,1.117,26.367,26.367,0,0,1-2.295,4.411,4.758,4.758,0,0,1-.521-1.288,4.727,4.727,0,0,1-.069-1.48,13.142,13.142,0,0,1,.445-1.6c-.007-.069-.082-.39-.836-.4s-1.4.144-1.48.343-.158.664-.315,1.117S18.8,18.8,18.32,19.854c-.247.541-.459.973-.61,1.267h0a.312.312,0,0,1-.027.055c-.13.253-.206.39-.206.39v.007c-.1.185-.212.356-.267.356a2.292,2.292,0,0,1,.014-1.165c.274-1.418.925-3.624.918-3.7,0-.041.123-.425-.425-.623a.68.68,0,0,0-.774.13c-.048,0-.082.116-.082.116s.6-2.48-1.137-2.48c-1.082,0-2.576,1.185-3.315,2.254-.466.253-1.459.795-2.521,1.377-.4.226-.822.452-1.212.664-.027-.027-.055-.062-.082-.089-2.1-2.24-5.973-3.822-5.809-6.83.062-1.1.438-3.973,7.446-7.467C16,1.277,20.587,2.065,21.382,3.811c1.137,2.493-2.459,7.124-8.419,7.8A4.489,4.489,0,0,1,9.2,10.655c-.315-.343-.363-.363-.48-.295-.192.1-.069.411,0,.589a3.518,3.518,0,0,0,2.151,1.692,11.452,11.452,0,0,0,6.987-.692c3.61-1.4,6.432-5.281,5.6-8.535C22.629.112,17.149-.977,11.963.866a26.12,26.12,0,0,0-8.83,5.069C.277,8.607-.175,10.929.01,11.9c.664,3.452,5.425,5.7,7.33,7.364-.1.055-.185.1-.26.144-.952.473-4.583,2.37-5.487,4.377-1.028,2.274.164,3.9.952,4.124a5.858,5.858,0,0,0,6.309-2.555,6.328,6.328,0,0,0,.562-5.829.143.143,0,0,0-.027-.041l.747-.438c.486-.288.966-.555,1.377-.774a9.028,9.028,0,0,0-.486,2.493,5.206,5.206,0,0,0,1.117,3.617,1.234,1.234,0,0,0,.9.295c.808,0,1.171-.671,1.576-1.466.493-.973.938-2.1.938-2.1s-.555,3.055.952,3.055c.548,0,1.1-.712,1.349-1.075v.007s.014-.021.041-.068l.089-.144v-.014c.219-.384.712-1.254,1.445-2.7.945-1.863,1.856-4.192,1.856-4.192a11.905,11.905,0,0,0,.363,1.514,14.255,14.255,0,0,0,.781,1.754c-.219.308-.356.48-.356.48l.007.007c-.178.233-.37.486-.582.733a21.835,21.835,0,0,0-1.76,2.206.6.6,0,0,0,.164.808,1.5,1.5,0,0,0,.918.151,4.215,4.215,0,0,0,1.377-.315,4.621,4.621,0,0,0,1.185-.623,2.652,2.652,0,0,0,1.137-2.336,4.716,4.716,0,0,0-.432-1.651c.068-.1.13-.192.2-.288a31.379,31.379,0,0,0,2.055-3.548,11.9,11.9,0,0,0,.363,1.514,10.14,10.14,0,0,0,.664,1.507,6.511,6.511,0,0,0-2,2.582c-.432,1.247-.1,1.808.541,1.939a1.909,1.909,0,0,0,1-.206,4.555,4.555,0,0,0,1.267-.651,2.848,2.848,0,0,0,1.4-2.315,4.377,4.377,0,0,0-.315-1.37A7.174,7.174,0,0,1,32.9,17.45c3.261.384,3.9,2.418,3.781,3.274a2.167,2.167,0,0,1-1.034,1.466c-.226.144-.3.192-.281.295.027.151.137.144.329.116a2.547,2.547,0,0,0,1.774-2.267C37.576,18.32,35.658,16.121,32.267,16.142ZM7.113,24.622c-1.082,1.178-2.589,1.623-3.24,1.247-.7-.4-.425-2.144.9-3.391a17.257,17.257,0,0,1,2.541-1.9c.158-.1.39-.233.671-.4.048-.027.075-.041.075-.041h0l.164-.1A4.679,4.679,0,0,1,7.113,24.622Zm7.878-5.357c-.377.918-1.165,3.268-1.644,3.137-.411-.11-.664-1.891-.082-3.651a8.3,8.3,0,0,1,1.281-2.35c.589-.658,1.24-.877,1.4-.61C16.142,16.142,15.224,18.69,14.991,19.265Zm6.5,3.11c-.158.082-.308.137-.377.1-.048-.027.068-.137.068-.137s.815-.877,1.137-1.274c.185-.233.4-.507.637-.815v.089C22.958,21.382,21.944,22.088,21.492,22.375Zm5.014-1.144c-.116-.082-.1-.356.295-1.212a4.564,4.564,0,0,1,1.117-1.439,1.939,1.939,0,0,1,.11.63A2.072,2.072,0,0,1,26.506,21.231Z" transform="translate(0.026 0.026)" fill="#cd6799"/>
</svg>
