<svg xmlns="http://www.w3.org/2000/svg" width="30.091" height="30.091" viewBox="0 0 30.091 30.091">
  <path id="Trazado_4405" data-name="Trazado 4405" d="M17.031,2A15.046,15.046,0,1,0,32.091,17.046,15.038,15.038,0,0,0,17.031,2Zm10.427,9.027H23.019a23.545,23.545,0,0,0-2.076-5.356A12.081,12.081,0,0,1,27.457,11.027ZM17.046,5.069a21.194,21.194,0,0,1,2.874,5.958H14.172A21.194,21.194,0,0,1,17.046,5.069ZM5.4,20.055a11.769,11.769,0,0,1,0-6.018h5.085a24.848,24.848,0,0,0-.211,3.009,24.848,24.848,0,0,0,.211,3.009Zm1.234,3.009h4.438a23.545,23.545,0,0,0,2.076,5.356,12.017,12.017,0,0,1-6.515-5.356Zm4.438-12.037H6.634a12.017,12.017,0,0,1,6.515-5.356,23.545,23.545,0,0,0-2.076,5.356Zm5.973,17.995a21.194,21.194,0,0,1-2.874-5.958h5.747A21.194,21.194,0,0,1,17.046,29.022Zm3.521-8.967H13.525a22.137,22.137,0,0,1-.241-3.009,21.944,21.944,0,0,1,.241-3.009h7.041a21.944,21.944,0,0,1,.241,3.009A22.137,22.137,0,0,1,20.566,20.055Zm.376,8.365a23.546,23.546,0,0,0,2.076-5.356h4.438A12.081,12.081,0,0,1,20.943,28.42Zm2.663-8.365a24.848,24.848,0,0,0,.211-3.009,24.848,24.848,0,0,0-.211-3.009h5.085a11.769,11.769,0,0,1,0,6.018Z" transform="translate(-2 -2)" fill="#5f6d7e"/>
</svg>
