<svg xmlns="http://www.w3.org/2000/svg" width="26.382" height="26.388" viewBox="0 0 26.382 26.388">
  <path id="Icon_awesome-compress-arrows-alt" data-name="Icon awesome-compress-arrows-alt" d="M10.309,14.844H4.536a1.238,1.238,0,0,0-.876,2.113l1.7,1.6L.243,23.672a.827.827,0,0,0,0,1.165l1.309,1.309a.827.827,0,0,0,1.165,0l5.118-5.118,1.6,1.7a1.235,1.235,0,0,0,2.108-.876V16.081A1.234,1.234,0,0,0,10.309,14.844Zm5.772-3.3h5.772a1.239,1.239,0,0,0,.876-2.113l-1.7-1.6,5.118-5.118a.827.827,0,0,0,0-1.165L24.837.243a.827.827,0,0,0-1.165,0L18.555,5.361l-1.6-1.7a1.235,1.235,0,0,0-2.108.876v5.772A1.234,1.234,0,0,0,16.081,11.546Zm4.948,7.009,1.7-1.6a1.235,1.235,0,0,0-.876-2.108H16.081a1.234,1.234,0,0,0-1.237,1.237v5.772a1.239,1.239,0,0,0,2.113.876l1.6-1.7,5.118,5.118a.827.827,0,0,0,1.165,0l1.309-1.309a.827.827,0,0,0,0-1.165ZM9.432,3.665l-1.6,1.7L2.717.243a.827.827,0,0,0-1.165,0L.243,1.552a.827.827,0,0,0,0,1.165L5.361,7.835l-1.7,1.6a1.235,1.235,0,0,0,.876,2.108h5.772a1.234,1.234,0,0,0,1.237-1.237V4.536A1.238,1.238,0,0,0,9.432,3.665Z" transform="translate(-0.004 -0.003)" fill="#99a3b1"/>
</svg>
