<svg xmlns="http://www.w3.org/2000/svg" width="27.023" height="27" viewBox="0 0 27.023 27">
  <g id="Icon_ionic-ios-rocket" data-name="Icon ionic-ios-rocket" transform="translate(-3.366 -3.372)">
    <path id="Trazado_20009" data-name="Trazado 20009" d="M30.246,3.738a.287.287,0,0,0-.214-.221c-3.533-.864-11.7,2.214-16.118,6.637a19.116,19.116,0,0,0-2.15,2.539,8,8,0,0,0-3.89.487c-3.279,1.442-4.234,5.208-4.5,6.825a.582.582,0,0,0,.636.675L9.277,20.1a11.708,11.708,0,0,0,.071,1.188,1.179,1.179,0,0,0,.344.721l2.039,2.039a1.179,1.179,0,0,0,.721.344,11.686,11.686,0,0,0,1.182.071l-.578,5.26a.582.582,0,0,0,.675.636c1.617-.26,5.39-1.214,6.825-4.494a8.035,8.035,0,0,0,.494-3.877,19.146,19.146,0,0,0,2.546-2.15C28.038,15.428,31.1,7.447,30.246,3.738Zm-10.6,10.384a2.774,2.774,0,1,1,3.922,0A2.771,2.771,0,0,1,19.648,14.122Z" transform="translate(0 0)" fill="#99a3b1"/>
    <path id="Trazado_20010" data-name="Trazado 20010" d="M11.774,26.493h0a2.464,2.464,0,0,1-1.286.52A1.748,1.748,0,0,1,8.475,25a2.415,2.415,0,0,1,.513-1.279l.006-.006a.217.217,0,0,0-.182-.37,2.985,2.985,0,0,0-1.747.851C5.9,25.363,5.787,29.7,5.787,29.7s4.344-.11,5.513-1.279a2.966,2.966,0,0,0,.851-1.747A.222.222,0,0,0,11.774,26.493Z" transform="translate(-0.185 -1.526)" fill="#99a3b1"/>
  </g>
</svg>
