<svg xmlns="http://www.w3.org/2000/svg" width="43.5" height="43.5" viewBox="0 0 43.5 43.5">
  <path id="Icon_material-settings-applications" data-name="Icon material-settings-applications"
    d="M26.25,21.417a4.833,4.833,0,1,0,4.833,4.833A4.848,4.848,0,0,0,26.25,21.417ZM43.167,4.5H9.333A4.832,4.832,0,0,0,4.5,9.333V43.167A4.832,4.832,0,0,0,9.333,48H43.167A4.832,4.832,0,0,0,48,43.167V9.333A4.832,4.832,0,0,0,43.167,4.5ZM38.938,26.25a12.23,12.23,0,0,1-.121,1.643l3.577,2.8a.854.854,0,0,1,.193,1.088L39.2,37.632a.855.855,0,0,1-1.039.362L33.959,36.3a12.961,12.961,0,0,1-2.852,1.667l-.628,4.471a.877.877,0,0,1-.846.725H22.867a.879.879,0,0,1-.846-.7L21.392,38a12.427,12.427,0,0,1-2.852-1.667l-4.2,1.692a.855.855,0,0,1-1.039-.362L9.913,31.808a.854.854,0,0,1,.193-1.087l3.577-2.8a12.9,12.9,0,0,1-.121-1.667,12.231,12.231,0,0,1,.121-1.643l-3.577-2.8a.854.854,0,0,1-.193-1.088L13.3,14.868a.855.855,0,0,1,1.039-.362l4.2,1.692a12.961,12.961,0,0,1,2.852-1.667l.628-4.471a.877.877,0,0,1,.846-.725h6.767a.879.879,0,0,1,.846.7l.628,4.471a12.427,12.427,0,0,1,2.852,1.667l4.205-1.692a.855.855,0,0,1,1.039.363l3.383,5.848a.854.854,0,0,1-.193,1.087l-3.577,2.8a12.9,12.9,0,0,1,.121,1.667Z"
    transform="translate(-4.5 -4.5)" fill="#e06c4c" />
</svg>