<svg xmlns="http://www.w3.org/2000/svg" width="50.679" height="41.465" viewBox="0 0 50.679 41.465">
  <path id="Icon_material-photo-size-select-small" data-name="Icon material-photo-size-select-small"
    d="M52.179,32.143H47.572V36.75h4.607Zm0-9.214H47.572v4.607h4.607Zm0,18.429H47.572v4.607A4.955,4.955,0,0,0,52.179,41.358ZM33.75,4.5H29.143V9.107H33.75Zm18.429,9.214H47.572v4.607h4.607ZM47.572,4.5V9.107h4.607A4.955,4.955,0,0,0,47.572,4.5ZM6.107,45.965H24.536V32.143H1.5v9.214A4.621,4.621,0,0,0,6.107,45.965Zm0-32.25H1.5v4.607H6.107ZM33.75,41.358H29.143v4.607H33.75ZM42.965,4.5H38.358V9.107h4.607Zm0,36.858H38.358v4.607h4.607ZM6.107,4.5A4.955,4.955,0,0,0,1.5,9.107H6.107Zm0,18.429H1.5v4.607H6.107ZM24.536,4.5H19.929V9.107h4.607Zm-9.214,0H10.714V9.107h4.607Z"
    transform="translate(-1.5 -4.5)" fill="#e06c4c" />
</svg>