<svg id="deno-icon" xmlns="http://www.w3.org/2000/svg" width="30.088" height="30.092" viewBox="0 0 30.088 30.092">
  <path id="Trazado_4402" data-name="Trazado 4402" d="M13.856.007c-.071.007-.3.034-.5.051A15.146,15.146,0,0,0,5.29,3.533,19.912,19.912,0,0,0,3.53,5.294,15.142,15.142,0,0,0,.065,13.226a23.783,23.783,0,0,0,0,3.641A15.123,15.123,0,0,0,3.527,24.8a19.912,19.912,0,0,0,1.761,1.761,15.151,15.151,0,0,0,7.932,3.465,23.784,23.784,0,0,0,3.641,0,15.123,15.123,0,0,0,7.929-3.463A19.912,19.912,0,0,0,26.551,24.8a15.112,15.112,0,0,0,3.463-7.929,23.784,23.784,0,0,0,0-3.641A15.123,15.123,0,0,0,26.551,5.3,19.912,19.912,0,0,0,24.79,3.538,15.1,15.1,0,0,0,16.883.073,14.7,14.7,0,0,0,15.206,0c-.669,0-1.278,0-1.349,0Zm.186,1.6c0,.433.029,1.374.071,2.265.022.436.049,1.063.059,1.388.042,1.153.164,4.185.181,4.454l.02.269-.167-.02a.568.568,0,0,1-.193-.042,4.048,4.048,0,0,1-.051-.571c-.066-1.317-.284-6.428-.306-7.175l-.022-.82.1-.015c.056-.007.147-.02.208-.022l.1,0,0,.289Zm3.541-.088S17.6,2.639,17.61,4s.034,2.591.044,2.723a.534.534,0,0,1-.012.262.507.507,0,0,1-.2,0l-.171-.015-.027-1.077c-.015-.6-.034-1.254-.042-1.469-.029-.654-.056-2.88-.034-2.934s.061-.044.215-.017c.108.022.2.039.2.044ZM9.025,2.757c.022.034.2,2.072.411,4.741.071.906.14,1.736.152,1.839.02.189.015.2-.1.269a.58.58,0,0,1-.147.073.519.519,0,0,1-.044-.215c-.051-.48-.252-2.8-.392-4.484-.081-.987-.154-1.873-.167-1.969-.02-.164-.015-.179.081-.23.115-.061.181-.073.208-.024ZM19.212,3.5c.1.037.115.056.137.267a18.531,18.531,0,0,1-.015,2.138.516.516,0,0,1-.348-.2c-.012-.044-.022-.571-.022-1.166,0-1.2-.017-1.134.247-1.043Zm-6.835.174c0,.1.027.651.056,1.232s.064,1.317.078,1.636c.027.644.034.622-.215.637-.122,0-.122,0-.13-.181-.007-.1-.027-.426-.049-.722s-.064-.935-.093-1.425-.066-.972-.078-1.077c-.022-.186-.02-.193.081-.23a.8.8,0,0,1,.23-.042c.12,0,.12,0,.12.174Zm10.263.507.125.051.027.495c.012.269.02.855.012,1.3l-.012.806-.154-.078-.154-.073-.012-1.229c-.007-.678,0-1.251,0-1.276.012-.054.012-.054.164.01Zm-6.756.485c.022.022.073,1.817.078,2.728l0,.549-.174-.027a1.573,1.573,0,0,1-.186-.027c-.012-.007-.122-2.75-.122-3.017V4.6l.189.022a.845.845,0,0,1,.211.047Zm8.522.262c.044.051.051.862.064,5.331.012,5.133.012,5.265-.056,5.265a.236.236,0,0,1-.13-.049A39.453,39.453,0,0,1,24.2,10.6c-.015-2.657-.034-5.069-.044-5.363l-.022-.534.108.078a1.508,1.508,0,0,1,.162.144Zm-3.318.759a1.835,1.835,0,0,1,.042.465c.02.818.022,5.831,0,5.848a.394.394,0,0,1-.147-.042l-.132-.056V5.61l.1.022a.374.374,0,0,1,.135.056Zm-10.214.206c.012.1.029.326.042.512s.037.6.059.918c.044.651.037.693-.174.693-.11,0-.125-.012-.14-.122-.037-.218-.167-2.04-.147-2.069a.811.811,0,0,1,.3-.1c.022,0,.051.073.061.169Zm-6.12.945c.042.392.122,1.215.181,1.824s.115,1.129.115,1.151c0,.044-.284.186-.313.154s-.389-3.294-.389-3.441c0-.088.284-.463.321-.421a7.18,7.18,0,0,1,.086.732Zm14.509.387.108.064,0,.8c0,.436.012.926.012,1.085.007.333-.034.389-.233.318L19.04,9.45V9.131c0-.179-.012-.693-.027-1.146l-.022-.82h.086a.514.514,0,0,1,.186.061ZM6.378,8.663c.066.71.174,1.91.245,2.664L6.748,12.7l-.144.144-.14.144-.027-.291c-.015-.164-.088-.918-.167-1.68s-.189-1.868-.245-2.456l-.1-1.065.144-.132c.13-.122.144-.125.171-.059.015.032.078.646.14,1.362Zm-2.772.446c.081.73.3,2.667.48,4.307s.36,3.22.392,3.516.081.744.11,1c.051.433.051.463-.007.507-.088.066-.125.059-.125-.02,0-.034-.034-.313-.073-.617-.066-.507-.179-1.366-.426-3.294-.051-.389-.152-1.161-.223-1.721s-.181-1.391-.24-1.851S3.334,9.692,3.27,9.185a8.5,8.5,0,0,1-.1-1,1.362,1.362,0,0,1,.267-.426c.01.015.083.617.164,1.349Zm-1.131,1.6c.056.443.159,1.254.23,1.8s.159,1.232.2,1.518l.071.519-.078.066c-.044.037-.088.051-.1.037a1.5,1.5,0,0,1-.066-.326c-.022-.164-.159-1.114-.306-2.108L2.161,10.4l.086-.252a.97.97,0,0,1,.1-.247c.01,0,.066.36.125.8Zm20.315-.485a8.02,8.02,0,0,1,.059,1.979v1.92h-.1c-.225,0-.223.056-.238-2.047L22.5,10.16h.118a.281.281,0,0,1,.176.061Zm-8.1.661a7.231,7.231,0,0,1,2.287.73,4.358,4.358,0,0,1,1.207.9,7.477,7.477,0,0,1,1.687,2.29c.646,1.325.9,2.5,1.217,5.642.144,1.41.333,3.967.375,5.015.012.3.037.8.059,1.109.042.651.088.563-.485.84a12.4,12.4,0,0,1-2.571.9,12.237,12.237,0,0,1-3.257.4l-.889,0,.007-.426c0-.233.022-.776.044-1.2a47.49,47.49,0,0,0-.056-6.1,13.087,13.087,0,0,0-.331-2.057c-.02-.049.066-.088.433-.215a3.878,3.878,0,0,0,1.339-.669c.159-.274-.125-.666-.487-.666a1.665,1.665,0,0,0-.426.144,13.881,13.881,0,0,1-3.448.928,9.762,9.762,0,0,1-2.4-.1,7.224,7.224,0,0,1-1.665-.632,2.113,2.113,0,0,1-1.2-1.359,3.333,3.333,0,0,1,.037-1.222,3.986,3.986,0,0,1,.588-1.21,9.39,9.39,0,0,1,5.461-3.012,8.319,8.319,0,0,1,2.481-.032ZM26.105,11c.132.056.147.071.147.2.007,1.011-.015,3.318-.034,3.416,0,.034-.2.037-.277.007-.051-.02-.059-.218-.059-1.851,0-1.168.015-1.827.037-1.827a.832.832,0,0,1,.186.059Zm1.616,2.032.132.056-.027,3.063c-.029,3.9-.034,4.018-.174,4.356-.23.551-.218.661-.2-1.758.007-1.21.027-2.434.034-2.721s.015-1.087.02-1.788a8.207,8.207,0,0,1,.037-1.266.87.87,0,0,1,.174.056ZM5.467,13.95a.815.815,0,0,1-.093.566l-.118.252-.044-.37c-.071-.593-.071-.617.071-.708a.305.305,0,0,1,.14-.066,1.278,1.278,0,0,1,.044.326ZM3.182,16.181c.034.3.291,2.317.426,3.3.2,1.528.215,1.746.125,1.653-.012-.012-.1-.526-.186-1.144C2.969,16,2.974,16.032,3.02,16c.1-.066.135-.029.162.179Zm2.664,1.695c.022.093.13,1.095.13,1.217,0,.1-.132.2-.193.14a4.312,4.312,0,0,1-.1-.7c-.042-.367-.081-.747-.093-.847L5.565,17.5l.13.147a.958.958,0,0,1,.152.225Zm2.985,1.4c.042.037.066.186.1.585.056.722.064.666-.088.666s-.152.012-.2-.639-.051-.654.049-.654a.276.276,0,0,1,.142.042Zm2.931.056c.007.037.027.26.042.492s.044.759.073,1.166c.1,1.494.108,1.685.044,1.685s-.078-.056-.159-1.109c-.029-.436-.086-1.124-.122-1.528a6.8,6.8,0,0,1-.044-.747c.042-.049.147-.015.167.042Zm-6.957.71c.022.034.164,1.217.335,2.833.051.487.1.957.115,1.048l.02.159-.093-.059a.19.19,0,0,1-.1-.181c0-.233-.159-1.768-.282-2.708-.071-.534-.125-1-.125-1.048,0-.078.088-.108.125-.044Zm21.356,1.545-.027,1.548-.093.137c-.211.311-.2.37-.189-1.362l.007-1.587L26,20.18a.682.682,0,0,1,.164-.137c.01,0,.01.693,0,1.54Zm-3.423,2.454a9.3,9.3,0,0,1-.044,2.383c-.037.042-.071.066-.081.056-.027-.029-.064-4.719-.034-4.743a.124.124,0,0,1,.086-.02,10.7,10.7,0,0,1,.073,2.324ZM10.653,22.565c.027.23.118,1.327.154,1.846.022.348.022.36-.059.384-.044.015-.1.012-.11-.007s-.108-.847-.208-2.113l-.027-.3h.115c.108,0,.115.007.135.193Zm-2.909,1.3a.378.378,0,0,1,.044.211c0,.1.044.6.093,1.114.14,1.418.152,1.609.088,1.572-.1-.056-.181-.14-.164-.164a2.587,2.587,0,0,0-.037-.411c-.027-.215-.059-.563-.073-.776s-.049-.607-.078-.869c-.071-.646-.066-.722.015-.722a.173.173,0,0,1,.113.047ZM9.5,26.351c.012.081.034.384.049.673.027.556.015.6-.137.48-.044-.034-.073-.174-.118-.6-.078-.762-.081-.732.064-.717.1.01.12.024.142.159Z" transform="translate(0.005 0)" fill="#5f6d7e"/>
  <path id="Trazado_4403" data-name="Trazado 4403" d="M32.445,51.542a.492.492,0,1,0,.615.715.491.491,0,0,0-.615-.715Zm2.51.355a.568.568,0,0,0,0,.962.547.547,0,1,0,0-.962Z" transform="translate(-24.267 -38.887)" fill="#5f6d7e"/>
</svg>
