<svg xmlns="http://www.w3.org/2000/svg" width="26.68" height="30.091" viewBox="0 0 26.68 30.091">
  <path id="Icon_awesome-node-js" data-name="Icon awesome-node-js" d="M13.383,30.376a2.339,2.339,0,0,1-1.158-.31L8.541,27.886c-.549-.31-.281-.418-.1-.478a7.258,7.258,0,0,0,1.666-.758.269.269,0,0,1,.275.024l2.83,1.678a.346.346,0,0,0,.34,0L24.58,21.987a.354.354,0,0,0,.167-.3V8.958a.356.356,0,0,0-.173-.3L13.551,2.294a.346.346,0,0,0-.34,0L2.193,8.659a.349.349,0,0,0-.173.3V21.688a.33.33,0,0,0,.173.293l3.022,1.744c1.642.818,2.645-.143,2.645-1.117V10.045a.316.316,0,0,1,.322-.316h1.4a.32.32,0,0,1,.322.316V22.614c0,2.185-1.194,3.439-3.266,3.439A4.69,4.69,0,0,1,4.1,25.36l-2.89-1.666A2.322,2.322,0,0,1,.049,21.682V8.958A2.329,2.329,0,0,1,1.208,6.946L12.225.58a2.418,2.418,0,0,1,2.317,0L25.571,6.952a2.322,2.322,0,0,1,1.158,2.012V21.688A2.336,2.336,0,0,1,25.571,23.7L14.542,30.066A2.322,2.322,0,0,1,13.383,30.376Zm8.9-12.545c0-2.382-1.612-3.015-5-3.463-3.428-.454-3.774-.687-3.774-1.487,0-.663.293-1.547,2.83-1.547,2.263,0,3.1.49,3.445,2.018a.32.32,0,0,0,.311.251h1.433a.312.312,0,0,0,.233-.1.332.332,0,0,0,.084-.245C21.63,10.624,19.88,9.4,16.345,9.4c-3.147,0-5.022,1.326-5.022,3.553,0,2.412,1.869,3.081,4.885,3.38,3.613.352,3.893.884,3.893,1.594,0,1.23-.991,1.756-3.314,1.756-2.92,0-3.559-.734-3.774-2.185a.316.316,0,0,0-.316-.269H11.269a.315.315,0,0,0-.316.316c0,1.857,1.009,4.072,5.84,4.072,3.487-.006,5.494-1.385,5.494-3.786Z" transform="translate(-0.049 -0.285)" fill="#5f6d7e"/>
</svg>
