<svg id="Npm-logo" xmlns="http://www.w3.org/2000/svg" width="38.313" height="14.899" viewBox="0 0 38.313 14.899">
  <path id="Trazado_3956" data-name="Trazado 3956" d="M0,0H38.313V12.771H19.156V14.9H10.642V12.771H0ZM2.128,10.642H6.385V4.257H8.514v6.385h2.128V2.128H2.128ZM12.771,2.128V12.771h4.257V10.642h4.257V2.128Zm4.257,2.128h2.128V8.514H17.028Zm6.385-2.128v8.514H27.67V4.257H29.8v6.385h2.128V4.257h2.128v6.385h2.128V2.128Z" transform="translate(0 0)" fill="#cb3837"/>
  <path id="Trazado_3957" data-name="Trazado 3957" d="M1,9.514H5.257V3.128H7.385V9.514H9.514V1H1Z" transform="translate(1.128 1.128)" fill="#fff"/>
  <path id="Trazado_3958" data-name="Trazado 3958" d="M6,1V11.642h4.257V9.514h4.257V1Zm6.385,6.385H10.257V3.128h2.128Z" transform="translate(6.771 1.128)" fill="#fff"/>
  <path id="Trazado_3959" data-name="Trazado 3959" d="M11,1V9.514h4.257V3.128h2.128V9.514h2.128V3.128h2.128V9.514h2.128V1Z" transform="translate(12.413 1.128)" fill="#fff"/>
</svg>
