<svg id="React" xmlns="http://www.w3.org/2000/svg" width="30.377" height="27.027" viewBox="0 0 30.377 27.027">
  <path id="Trazado_3960" data-name="Trazado 3960" d="M24.976,8.76h0q-.485-.166-.978-.308.082-.332.151-.667c.74-3.593.256-6.488-1.4-7.441-1.585-.914-4.176.039-6.794,2.317q-.387.337-.756.694-.247-.237-.5-.465C11.956.454,9.206-.572,7.555.384,5.972,1.3,5.5,4.022,6.17,7.427q.1.506.225,1.006c-.389.111-.765.228-1.124.354C2.054,9.908,0,11.665,0,13.488c0,1.883,2.2,3.771,5.555,4.916q.407.139.821.257-.134.539-.239,1.085c-.635,3.346-.139,6,1.44,6.914,1.631.94,4.368-.026,7.033-2.356q.316-.276.634-.584.4.386.821.749c2.582,2.222,5.131,3.119,6.709,2.205,1.629-.943,2.159-3.8,1.471-7.27q-.079-.4-.182-.812.288-.085.565-.176c3.482-1.154,5.748-3.019,5.748-4.927C30.377,11.659,28.257,9.889,24.976,8.76ZM16.811,3.64C19.054,1.688,21.15.917,22.1,1.468h0c1.017.587,1.413,2.952.774,6.055q-.063.3-.137.6a31.087,31.087,0,0,0-4.062-.642,30.484,30.484,0,0,0-2.568-3.2Q16.454,3.951,16.811,3.64ZM8.969,15.045q.412.8.861,1.572.458.791.954,1.56a27.632,27.632,0,0,1-2.8-.45C8.253,16.861,8.583,15.96,8.969,15.045Zm0-3.052c-.378-.9-.7-1.778-.965-2.629.867-.194,1.791-.352,2.754-.473q-.484.754-.931,1.53T8.968,11.993Zm.69,1.526q.6-1.248,1.292-2.449h0q.692-1.2,1.473-2.345c.9-.068,1.83-.1,2.766-.1s1.868.036,2.771.1q.773,1.142,1.464,2.337t1.31,2.437q-.609,1.252-1.305,2.459h0q-.69,1.2-1.457,2.351c-.9.064-1.833.1-2.782.1s-1.865-.029-2.75-.087q-.787-1.149-1.485-2.355t-1.3-2.448Zm10.894,3.089q.458-.795.881-1.609h0a27.561,27.561,0,0,1,1.02,2.672,27.539,27.539,0,0,1-2.834.483q.482-.764.933-1.546Zm.869-4.614q-.421-.8-.874-1.581h0q-.445-.769-.924-1.519c.969.122,1.9.285,2.77.484a27.68,27.68,0,0,1-.972,2.616ZM15.2,5.208a27.753,27.753,0,0,1,1.788,2.158q-1.794-.085-3.59,0C13.991,6.587,14.6,5.864,15.2,5.208Zm-7-3.7c1.016-.588,3.263.251,5.632,2.354.151.134.3.275.456.421a31.1,31.1,0,0,0-2.588,3.2,31.708,31.708,0,0,0-4.054.63q-.116-.465-.209-.936h0C6.872,4.26,7.251,2.059,8.206,1.507ZM6.724,17.41q-.378-.108-.75-.235a10.994,10.994,0,0,1-3.543-1.882A2.682,2.682,0,0,1,1.3,13.488c0-1.106,1.649-2.517,4.4-3.476q.518-.18,1.046-.329a31.123,31.123,0,0,0,1.481,3.836,31.6,31.6,0,0,0-1.5,3.891Zm7.032,5.915a10.991,10.991,0,0,1-3.4,2.129h0a2.682,2.682,0,0,1-2.13.08c-.958-.553-1.356-2.686-.813-5.548q.1-.507.222-1.009a30.514,30.514,0,0,0,4.094.593,31.579,31.579,0,0,0,2.608,3.222Q14.053,23.066,13.757,23.326Zm1.482-1.467c-.615-.664-1.228-1.4-1.828-2.187q.872.034,1.777.034.929,0,1.834-.041a27.6,27.6,0,0,1-1.783,2.194Zm7.88,1.805a2.682,2.682,0,0,1-.995,1.886c-.957.554-3-.166-5.212-2.066q-.38-.327-.764-.7a30.5,30.5,0,0,0,2.546-3.233,30.293,30.293,0,0,0,4.114-.634q.093.375.164.735h0a10.989,10.989,0,0,1,.146,4.009Zm1.1-6.481h0c-.166.055-.336.108-.51.16a30.458,30.458,0,0,0-1.538-3.848A30.445,30.445,0,0,0,23.651,9.7c.311.09.612.185.9.285,2.811.968,4.526,2.4,4.526,3.5,0,1.174-1.852,2.7-4.859,3.7Z" transform="translate(0 0)" fill="#61dafb"/>
  <path id="Trazado_3961" data-name="Trazado 3961" d="M12.159,8.158a2.713,2.713,0,1,1-2.713,2.713,2.713,2.713,0,0,1,2.713-2.713" transform="translate(3.03 2.617)" fill="#61dafb"/>
</svg>
