<svg id="Typescript_logo_2020" xmlns="http://www.w3.org/2000/svg" width="27.43" height="26.726" viewBox="0 0 27.43 26.726">
  <rect id="Rectángulo_2422" data-name="Rectángulo 2422" width="27.43" height="26.726" rx="7" transform="translate(0 0)" fill="#3178c6"/>
  <path id="Trazado_3975" data-name="Trazado 3975" d="M128.654,246.518v2.677a5.746,5.746,0,0,0,1.553.5,10.122,10.122,0,0,0,1.874.166,8.748,8.748,0,0,0,1.82-.182,4.617,4.617,0,0,0,1.5-.589,2.647,2.647,0,0,0,1.017-1.124,4.047,4.047,0,0,0,.38-1.713,3.531,3.531,0,0,0-.22-1.285,2.522,2.522,0,0,0-.642-.964,4.251,4.251,0,0,0-.964-.749,11.957,11.957,0,0,0-1.285-.642c-.353-.145-.642-.284-.964-.423a4.179,4.179,0,0,1-.7-.418,1.911,1.911,0,0,1-.455-.45.94.94,0,0,1-.161-.535.9.9,0,0,1,.145-.5,1.252,1.252,0,0,1,.4-.38,2.09,2.09,0,0,1,.642-.246,3.738,3.738,0,0,1,.857-.086,4.945,4.945,0,0,1,.7.05,5.744,5.744,0,0,1,.749.155,5.947,5.947,0,0,1,.75.262,3.539,3.539,0,0,1,.642.369V237.9a6.616,6.616,0,0,0-1.338-.348,10.733,10.733,0,0,0-1.66-.112,8.072,8.072,0,0,0-1.82.2,4.237,4.237,0,0,0-1.5.642,3.082,3.082,0,0,0-1.017,1.124,3.182,3.182,0,0,0-.375,1.606,3.018,3.018,0,0,0,.7,2.034,5.576,5.576,0,0,0,2.088,1.445c.369.15.7.3,1.017.444a4.566,4.566,0,0,1,.8.45,1.961,1.961,0,0,1,.535.509,1.057,1.057,0,0,1,.2.642,1,1,0,0,1-.123.482,1.053,1.053,0,0,1-.38.385,2.171,2.171,0,0,1-.642.257,3.911,3.911,0,0,1-.91.091,4.853,4.853,0,0,1-1.713-.305,5.088,5.088,0,0,1-1.606-.91Zm-4.5-6.585h3.426v-2.195H118v2.195h3.426v9.8h2.73Z" transform="translate(-111.612 -225.075)" fill="#fff" fill-rule="evenodd"/>
</svg>
