<svg xmlns="http://www.w3.org/2000/svg" width="26.387" height="26.387" viewBox="0 0 26.387 26.387">
  <path id="Icon_simple-typescript" data-name="Icon simple-typescript" d="M0,13.194V26.387H26.387V0H0Zm21.265-1.051a3.281,3.281,0,0,1,1.65.951,4.266,4.266,0,0,1,.632.847c.009.033-1.139.8-1.834,1.235-.025.016-.126-.092-.239-.259a1.5,1.5,0,0,0-1.24-.745c-.8-.055-1.315.364-1.311,1.063a.968.968,0,0,0,.112.495c.176.364.5.583,1.528,1.026,1.89.814,2.7,1.349,3.2,2.111a3.83,3.83,0,0,1,.306,3.217,3.532,3.532,0,0,1-2.919,2.089,8.052,8.052,0,0,1-2.01-.02,4.852,4.852,0,0,1-2.685-1.4,4.648,4.648,0,0,1-.687-1.017,1.738,1.738,0,0,1,.242-.155c.119-.067.562-.323.981-.566l.759-.44.159.235a3.545,3.545,0,0,0,1,.959,2.449,2.449,0,0,0,2.567-.13,1.145,1.145,0,0,0,.146-1.462c-.2-.292-.623-.539-1.813-1.055a6.526,6.526,0,0,1-2.484-1.528,3.48,3.48,0,0,1-.725-1.319,5.307,5.307,0,0,1-.046-1.683,3.215,3.215,0,0,1,2.706-2.5,6.679,6.679,0,0,1,2,.058Zm-6.194,1.1.009,1.081H11.643v9.759H9.214V14.325H5.781v-1.06a10.545,10.545,0,0,1,.029-1.088c.013-.018,2.1-.026,4.636-.022l4.612.013Z" fill="#99a3b1"/>
</svg>
