<svg id="Desktop.Squares" xmlns="http://www.w3.org/2000/svg" width="137.721" height="136.132" viewBox="0 0 137.721 136.132">
  <path id="Trazado_4097" data-name="Trazado 4097" d="M.1,62.54,0,26.777a10.38,10.38,0,0,1,4.676-8.142L35.657.666A4.383,4.383,0,0,1,37.841,0c1.716,0,2.83,1.4,2.836,3.569l.1,35.763A10.38,10.38,0,0,1,36.1,47.474L5.123,65.443a4.384,4.384,0,0,1-2.185.666c-1.717,0-2.831-1.4-2.837-3.568M35.975,1.292,4.993,19.26A9.585,9.585,0,0,0,.667,26.775l.1,35.764C.773,64.3,1.6,65.4,2.938,65.4a3.83,3.83,0,0,0,1.868-.579L35.787,46.848a9.587,9.587,0,0,0,4.324-7.513l-.1-35.763c0-1.764-.837-2.859-2.17-2.859a3.824,3.824,0,0,0-1.866.579" transform="translate(96.943)" fill="#41b883"/>
  <path id="Trazado_4104" data-name="Trazado 4104" d="M.1,62.54,0,26.777a10.38,10.38,0,0,1,4.676-8.142L35.657.666A4.383,4.383,0,0,1,37.841,0c1.716,0,2.83,1.4,2.836,3.569l.1,35.763A10.38,10.38,0,0,1,36.1,47.474L5.123,65.443a4.384,4.384,0,0,1-2.185.666c-1.717,0-2.831-1.4-2.837-3.568M35.975,1.292,4.993,19.26A9.585,9.585,0,0,0,.667,26.775l.1,35.764C.773,64.3,1.6,65.4,2.938,65.4a3.83,3.83,0,0,0,1.868-.579L35.787,46.848a9.587,9.587,0,0,0,4.324-7.513l-.1-35.763c0-1.764-.837-2.859-2.17-2.859a3.824,3.824,0,0,0-1.866.579" transform="translate(-0.001 62.938)" fill="#61dafb"/>
  <path id="Trazado_4107" data-name="Trazado 4107" d="M.1,62.54,0,26.777a10.38,10.38,0,0,1,4.676-8.142L35.657.666A4.383,4.383,0,0,1,37.841,0c1.716,0,2.83,1.4,2.836,3.569l.1,35.763A10.38,10.38,0,0,1,36.1,47.474L5.123,65.443a4.384,4.384,0,0,1-2.185.666c-1.717,0-2.831-1.4-2.837-3.568M35.975,1.292,4.993,19.26A9.585,9.585,0,0,0,.667,26.775l.1,35.764C.773,64.3,1.6,65.4,2.938,65.4a3.83,3.83,0,0,0,1.868-.579L35.787,46.848a9.587,9.587,0,0,0,4.324-7.513l-.1-35.763c0-1.764-.837-2.859-2.17-2.859a3.824,3.824,0,0,0-1.866.579" transform="translate(68.037 70.024)" fill="#9e533e"/>
</svg>
