<svg xmlns="http://www.w3.org/2000/svg" width="155.084" height="217.146" viewBox="0 0 155.084 217.146">
  <g id="Desktop.Devise" transform="translate(0 0)">
    <g id="Grupo_7418" data-name="Grupo 7418" transform="translate(0 0)">
      <path id="Trazado_3799" data-name="Trazado 3799" d="M167.232,30.8V136.338A11.166,11.166,0,0,1,161.66,146L19.82,227.9a3.4,3.4,0,0,1-3.465.281l-.039-.023c-1.124-.656-1.826-2.154-1.826-4.292V118.7L167.232,30.514Z" transform="translate(-13.319 -12.556)" fill="#030405" opacity="0.634"/>
      <path id="Trazado_3803" data-name="Trazado 3803" d="M17.9,224.753a3.838,3.838,0,0,1-1.936-.511,1.17,1.17,0,1,1,1.17-2.027,2.384,2.384,0,0,0,2.3-.283l141.836-81.9a10.014,10.014,0,0,0,4.987-8.648V13.437c0-1.605-.464-2.831-1.24-3.279a1.171,1.171,0,1,1,1.17-2.028c1.533.883,2.411,2.817,2.411,5.307V131.388a12.365,12.365,0,0,1-6.156,10.675L20.6,223.96a5.464,5.464,0,0,1-2.7.793" transform="translate(-13.514 -7.607)" fill="#acb6d4"/>
      <path id="Trazado_3804" data-name="Trazado 3804" d="M15.986,224.272a1.167,1.167,0,0,1-.588-.159c-1.552-.905-2.408-2.789-2.408-5.3V101.52c0-4.363,2.6-9.278,5.916-11.191L161,8.293a4.582,4.582,0,0,1,4.543-.33,1.171,1.171,0,0,1-1.108,2.063,2.407,2.407,0,0,0-2.266.3L20.076,92.358c-2.572,1.484-4.745,5.679-4.745,9.163V218.809c0,1.6.466,2.826,1.246,3.281a1.171,1.171,0,0,1-.591,2.182" transform="translate(-12.989 -7.504)" fill="#acb6d4"/>
      <path id="Trazado_3805" data-name="Trazado 3805" d="M14.161,119.542a1.171,1.171,0,0,1-.586-2.184L166.317,29.171a1.171,1.171,0,0,1,1.171,2.028L14.746,119.385a1.164,1.164,0,0,1-.585.157" transform="translate(-12.989 -12.227)" fill="#acb6d4"/>
    </g>
    <g id="Grupo_7417" data-name="Grupo 7417" transform="translate(11.599 76.474)">
      <path id="Trazado_3808" data-name="Trazado 3808" d="M48.94,110.516c0,1.714,1.2,2.408,2.687,1.551a5.939,5.939,0,0,0,2.687-4.654c0-1.713-1.2-2.408-2.687-1.551a5.941,5.941,0,0,0-2.687,4.654" transform="translate(-29.939 -105.495)" fill="#030405"/>
      <path id="Trazado_3809" data-name="Trazado 3809" d="M36.767,117.544c0,1.714,1.2,2.408,2.687,1.551a5.939,5.939,0,0,0,2.687-4.654c0-1.713-1.2-2.408-2.687-1.551a5.939,5.939,0,0,0-2.687,4.654" transform="translate(-27.266 -107.039)" fill="#030405"/>
      <path id="Trazado_3810" data-name="Trazado 3810" d="M24.593,124.573c0,1.714,1.2,2.408,2.687,1.551a5.939,5.939,0,0,0,2.687-4.654c0-1.713-1.2-2.408-2.687-1.551a5.939,5.939,0,0,0-2.687,4.654" transform="translate(-24.593 -108.582)" fill="#030405"/>
    </g>
  </g>
</svg>
