<svg id="Illustration.Mobile" xmlns="http://www.w3.org/2000/svg" width="267.45" height="150.715" viewBox="0 0 267.45 150.715">
  <path id="Mobile.Background.Black" d="M285.918,73.879c2.112,1.221,3.143,2.85,3.143,4.561,0,2.061-1.506,4.239-4.444,5.935L155.263,159.053,60.655,104.429,190,29.75c5.379-3.106,13.521-3.442,18.176-.753Z" transform="translate(-43.642 -10.566)" fill="#030405" opacity="0.709"/>
  <g id="Mobile.squares" transform="translate(111.094 0.001)">
    <path id="Trazado_3859" data-name="Trazado 3859" d="M307.928,180.284a.976.976,0,0,1-.489-.131l-61.012-35.22a.977.977,0,0,1,0-1.692l14.72-8.5a.98.98,0,0,1,.977,0l61,35.221a.976.976,0,0,1,0,1.691l-14.712,8.5a.976.976,0,0,1-.488.131m-59.058-36.2,59.058,34.092,12.759-7.372-59.051-34.092Z" transform="translate(-245.939 -41.747)" fill="#424f6e"/>
    <path id="Trazado_3921" data-name="Trazado 3921" d="M488,207.714a7.888,7.888,0,0,1-3.859-.976l-23.993-13.85a3.11,3.11,0,0,1-1.812-2.519,2.379,2.379,0,0,1,1.354-2.036l24.909-14.383a7.546,7.546,0,0,1,6.889.265l23.993,13.853a3.11,3.11,0,0,1,1.812,2.52,2.38,2.38,0,0,1-1.354,2.036L491.025,207a6.136,6.136,0,0,1-3.03.711m-.384-33.464a5.159,5.159,0,0,0-2.516.566L460.186,189.2a1.457,1.457,0,0,0-.854,1.169,2.213,2.213,0,0,0,1.312,1.652l23.993,13.85a6.654,6.654,0,0,0,5.887.265l24.91-14.38a1.458,1.458,0,0,0,.853-1.169,2.212,2.212,0,0,0-1.312-1.653L490.983,175.08a6.966,6.966,0,0,0-3.372-.831" transform="translate(-443.388 -165.147)" fill="#424f6e"/>
    <path id="Trazado_3934" data-name="Trazado 3934" d="M516.233,240.531a15.4,15.4,0,0,1-7.532-1.906l-46.832-27.034c-2.249-1.3-3.538-3.09-3.538-4.917a4.644,4.644,0,0,1,2.644-3.975L509.6,174.625c3.52-2.033,9.428-1.8,13.447.517l46.832,27.04c2.248,1.3,3.538,3.09,3.538,4.918a4.646,4.646,0,0,1-2.644,3.975l-48.621,28.068a11.978,11.978,0,0,1-5.915,1.389m-.75-65.319a10.069,10.069,0,0,0-4.911,1.1l-48.621,28.075a2.844,2.844,0,0,0-1.666,2.282c0,1.094.957,2.3,2.561,3.225l46.832,27.035c3.362,1.941,8.624,2.177,11.491.518l48.623-28.069a2.845,2.845,0,0,0,1.665-2.282c0-1.095-.957-2.3-2.56-3.226l-46.832-27.04a13.6,13.6,0,0,0-6.582-1.622" transform="translate(-417.056 -173.238)" fill="#424f6e"/>
  </g>
  <g id="Mobile.Device" transform="translate(0 0)">
    <path id="Trazado_3850" data-name="Trazado 3850" d="M291.775,181.32v7.749c0,2.061-1.505,4.239-4.443,5.935L146.539,276.29c-5.386,3.106-13.521,3.442-18.176.753L50.622,232.161c-2.112-1.221-3.143-2.851-3.143-4.561v-7.589c.059,1.652,1.1,3.216,3.143,4.4l77.741,44.881c4.656,2.69,12.79,2.354,18.176-.752l140.793-81.286c2.938-1.7,4.443-3.874,4.443-5.935" transform="translate(-46.502 -129.102)" fill="#acb6d4"/>
    <path id="Trazado_3855" data-name="Trazado 3855" d="M157.977,275.847l-11.438,6.607c-5.386,3.106-13.521,3.442-18.176.753L50.622,238.324c-2.046-1.184-3.084-2.748-3.143-4.4v-.161c0-2.069,1.5-4.239,4.444-5.935l11.445-6.607Z" transform="translate(-46.502 -143.015)" fill="#424f6e"/>
    <path id="Trazado_3856" data-name="Trazado 3856" d="M135.73,244.113a17.079,17.079,0,0,1-8.378-1.928L49.611,197.3c-2.269-1.314-3.558-3.164-3.63-5.211a.97.97,0,0,1,0-.115c0-.026,0-.053,0-.08,0-2.5,1.8-4.977,4.933-6.781L191.7,103.83c5.642-3.258,14.235-3.6,19.153-.752L288.6,147.959c2.342,1.353,3.631,3.274,3.631,5.407,0,2.5-1.8,4.972-4.932,6.781L146.506,241.433a22.169,22.169,0,0,1-10.776,2.68m-87.8-52.135c0,.015,0,.031,0,.046.048,1.37.967,2.611,2.655,3.589l77.74,44.881c4.379,2.53,12.1,2.192,17.2-.753l140.791-81.285c2.513-1.45,3.955-3.305,3.955-5.089,0-1.426-.918-2.711-2.655-3.715L209.88,104.769c-4.381-2.531-12.1-2.194-17.2.753L51.889,186.808c-2.513,1.447-3.955,3.3-3.955,5.089,0,.027,0,.054,0,.081" transform="translate(-45.979 -101.148)" fill="#acb6d4"/>
    <path id="Trazado_3857" data-name="Trazado 3857" d="M165.96,276.3a.969.969,0,0,1-.488-.131l-94.61-54.625a.977.977,0,0,1,.977-1.692l94.61,54.625a.977.977,0,0,1-.489,1.823" transform="translate(-54.485 -142.492)" fill="#acb6d4"/>
    <path id="Trazado_3858" data-name="Trazado 3858" d="M132.2,275.152a.968.968,0,0,1-.488-.131l-17.665-10.2a.977.977,0,1,1,.977-1.691l17.665,10.2a.977.977,0,0,1-.489,1.823" transform="translate(-69.544 -157.582)" fill="#acb6d4"/>
    <path id="Trazado_3860" data-name="Trazado 3860" d="M135.729,279.293a17.076,17.076,0,0,1-8.378-1.928L49.61,232.484c-2.342-1.353-3.631-3.274-3.631-5.407v-7.749a.977.977,0,0,1,1.954,0v7.749c0,1.426.918,2.711,2.655,3.715l77.741,44.881c4.378,2.53,12.1,2.192,17.2-.753L286.32,193.635c2.513-1.451,3.955-3.305,3.955-5.089V180.8a.977.977,0,1,1,1.954,0v7.749c0,2.5-1.8,4.972-4.932,6.781L146.5,276.613a22.167,22.167,0,0,1-10.775,2.68" transform="translate(-45.979 -128.578)" fill="#acb6d4"/>
  </g>
  <g id="Mobile.Orange" transform="translate(177.329 8.926)">
    <path id="Trazado_3916" data-name="Trazado 3916" d="M528.753,224.832v7.416a2.251,2.251,0,0,1-1.313,1.906l-29.622,17.1c-1.947,1.127-5.351.987-7.6-.315l-28.532-16.471a3.126,3.126,0,0,1-1.858-2.48v-7.416a3.126,3.126,0,0,0,1.858,2.48l28.532,16.471c2.247,1.3,5.651,1.442,7.6.315l29.622-17.1a2.251,2.251,0,0,0,1.313-1.906" transform="translate(-459.831 -204.766)" fill="#d9684a"/>
    <path id="Trazado_3917" data-name="Trazado 3917" d="M527.44,196.688l-29.622,17.1c-1.947,1.127-5.351.983-7.6-.315L461.689,197a3.127,3.127,0,0,1-1.858-2.48,2.251,2.251,0,0,1,1.313-1.906l29.622-17.1c1.947-1.124,5.351-.983,7.6.315L526.9,192.3a3.126,3.126,0,0,1,1.857,2.48" transform="translate(-459.831 -174.754)" fill="#9e533e"/>
  </g>
  <path id="Mobile.Green2" d="M307.928,180.284a.976.976,0,0,1-.489-.131l-61.012-35.22a.977.977,0,0,1,0-1.692l14.72-8.5a.98.98,0,0,1,.977,0l61,35.221a.976.976,0,0,1,0,1.691l-14.712,8.5a.976.976,0,0,1-.488.131" transform="translate(-200.491 -60.708)" fill="#6aac7d" opacity="0.201"/>
  <path id="Mobile.Green1" d="M307.928,180.284a.976.976,0,0,1-.489-.131l-61.012-35.22a.977.977,0,0,1,0-1.692l14.72-8.5a.98.98,0,0,1,.977,0l61,35.221a.976.976,0,0,1,0,1.691l-14.712,8.5a.976.976,0,0,1-.488.131" transform="translate(-225.921 -83.144)" fill="#6aac7d" opacity="0.755"/>
  <path id="Mobile.Blue2" d="M527.44,196.688l-29.622,17.1c-1.947,1.127-5.351.983-7.6-.315L461.689,197a3.127,3.127,0,0,1-1.858-2.48,2.251,2.251,0,0,1,1.313-1.906l29.622-17.1c1.947-1.124,5.351-.983,7.6.315L526.9,192.3a3.126,3.126,0,0,1,1.857,2.48" transform="translate(-358.245 -127.358)" fill="#50b3d0" opacity="0.295"/>
  <path id="Mobile.Blue1" d="M527.44,196.688l-29.622,17.1c-1.947,1.127-5.351.983-7.6-.315L461.689,197a3.127,3.127,0,0,1-1.858-2.48,2.251,2.251,0,0,1,1.313-1.906l29.622-17.1c1.947-1.124,5.351-.983,7.6.315L526.9,192.3a3.126,3.126,0,0,1,1.857,2.48" transform="translate(-400.974 -158.373)" fill="#50b3d0" opacity="0.838"/>
  <g id="Mobile.icons" transform="translate(97.697 23.606)">
    <g id="Vue.js_Logo_2" transform="translate(0 70.241)">
      <g id="Grupo_7433" data-name="Grupo 7433" transform="translate(0 0)">
        <path id="Trazado_3962" data-name="Trazado 3962" d="M-150.93,0l-1.908,3.305L-154.747,0H-161.1l8.263,14.312L-144.576,0Z" transform="translate(161.101)" fill="#41b883"/>
      </g>
      <g id="Grupo_7434" data-name="Grupo 7434" transform="translate(3.305 0)">
        <path id="Trazado_3963" data-name="Trazado 3963" d="M-101.885,0l-1.908,3.305L-105.7,0h-3.049l4.958,8.587L-98.835,0Z" transform="translate(108.751)" fill="#34495e"/>
      </g>
    </g>
    <g id="Npm-logo" transform="translate(102.65 0)">
      <path id="Trazado_3956" data-name="Trazado 3956" d="M0,0H22.886V7.629H11.443V8.9H6.357V7.629H0ZM1.271,6.357H3.814V2.543H5.086V6.357H6.357V1.271H1.271ZM7.629,1.271V7.629h2.543V6.357h2.543V1.271Zm2.543,1.271h1.271V5.086H10.172Zm3.814-1.271V6.357h2.543V2.543H17.8V6.357h1.271V2.543h1.271V6.357h1.271V1.271Z" transform="translate(0 0)" fill="#cb3837"/>
      <path id="Trazado_3957" data-name="Trazado 3957" d="M1,6.086H3.543V2.271H4.814V6.086H6.086V1H1Z" transform="translate(0.271 0.271)" fill="#fff"/>
      <path id="Trazado_3958" data-name="Trazado 3958" d="M6,1V7.357H8.543V6.086h2.543V1ZM9.814,4.814H8.543V2.271H9.814Z" transform="translate(1.629 0.271)" fill="#fff"/>
      <path id="Trazado_3959" data-name="Trazado 3959" d="M11,1V6.086h2.543V2.271h1.271V6.086h1.271V2.271h1.271V6.086h1.271V1Z" transform="translate(2.986 0.271)" fill="#fff"/>
    </g>
    <g id="React" transform="translate(13.398 16.718)">
      <path id="Trazado_3960" data-name="Trazado 3960" d="M13.07,4.584h0q-.254-.087-.512-.161.043-.174.079-.349c.387-1.88.134-3.4-.731-3.894C11.077-.3,9.721.2,8.351,1.392q-.2.177-.4.363-.129-.124-.263-.243C6.257.238,4.818-.3,3.954.2,3.125.68,2.88,2.1,3.229,3.886q.052.265.117.527c-.2.058-.4.119-.588.185C1.075,5.185,0,6.1,0,7.058c0,.985,1.154,1.973,2.907,2.572q.213.073.43.134-.07.282-.125.568c-.332,1.751-.073,3.141.753,3.618.853.492,2.286-.014,3.681-1.233q.165-.145.332-.306.209.2.43.392c1.351,1.163,2.685,1.632,3.511,1.154.853-.494,1.13-1.987.77-3.8q-.041-.208-.1-.425.151-.045.3-.092c1.822-.6,3.008-1.58,3.008-2.578C15.9,6.1,14.787,5.175,13.07,4.584ZM8.8,1.9C9.971.883,11.068.48,11.567.768h0c.532.307.739,1.545.4,3.169q-.033.159-.071.316a16.268,16.268,0,0,0-2.125-.336A15.952,15.952,0,0,0,8.432,2.24Q8.61,2.068,8.8,1.9Zm-4.1,5.968q.216.417.451.823t.5.816a14.46,14.46,0,0,1-1.465-.236C4.319,8.823,4.492,8.352,4.694,7.873Zm0-1.6c-.2-.469-.367-.93-.505-1.376.454-.1.937-.184,1.441-.247q-.253.395-.487.8T4.693,6.276Zm.361.8q.314-.653.676-1.282h0q.362-.628.771-1.227c.473-.036.957-.054,1.447-.054s.978.019,1.45.055q.4.6.766,1.223t.685,1.275q-.319.655-.683,1.287h0q-.361.627-.763,1.23c-.472.034-.959.051-1.456.051s-.976-.015-1.439-.045q-.412-.6-.777-1.232T5.054,7.075Zm5.7,1.616q.24-.416.461-.842h0a14.422,14.422,0,0,1,.534,1.4,14.411,14.411,0,0,1-1.483.253q.252-.4.488-.809Zm.455-2.414q-.22-.418-.457-.827h0q-.233-.4-.483-.795c.507.064.993.149,1.449.253a14.486,14.486,0,0,1-.509,1.369ZM7.956,2.726a14.524,14.524,0,0,1,.935,1.129q-.939-.044-1.879,0C7.321,3.447,7.638,3.069,7.956,2.726ZM4.294.788C4.826.481,6,.92,7.241,2.02c.079.07.159.144.238.22A16.274,16.274,0,0,0,6.126,3.916,16.593,16.593,0,0,0,4,4.246Q3.944,4,3.9,3.756h0C3.6,2.229,3.795,1.077,4.294.788ZM3.519,9.111q-.2-.057-.392-.123A5.753,5.753,0,0,1,1.272,8a1.4,1.4,0,0,1-.593-.945c0-.579.863-1.317,2.3-1.819q.271-.094.547-.172A16.287,16.287,0,0,0,4.3,7.075a16.534,16.534,0,0,0-.784,2.036Zm3.68,3.1A5.751,5.751,0,0,1,5.419,13.32h0a1.4,1.4,0,0,1-1.115.042c-.5-.289-.71-1.406-.426-2.9q.051-.265.116-.528a15.969,15.969,0,0,0,2.142.31A16.525,16.525,0,0,0,7.5,11.928Q7.354,12.071,7.2,12.206Zm.776-.768c-.322-.347-.643-.731-.956-1.145q.457.018.93.018t.96-.021a14.442,14.442,0,0,1-.933,1.148Zm4.124.945a1.4,1.4,0,0,1-.52.987c-.5.29-1.572-.087-2.728-1.081q-.2-.171-.4-.364a15.959,15.959,0,0,0,1.332-1.692A15.852,15.852,0,0,0,11.936,9.9q.049.2.086.385h0a5.75,5.75,0,0,1,.076,2.1Zm.577-3.392h0c-.087.029-.176.057-.267.084a15.939,15.939,0,0,0-.8-2.014,15.932,15.932,0,0,0,.774-1.984c.163.047.32.1.473.149,1.471.506,2.368,1.255,2.368,1.832,0,.615-.969,1.412-2.543,1.934Z" transform="translate(0 0)" fill="#61dafb"/>
      <path id="Trazado_3961" data-name="Trazado 3961" d="M10.866,8.158a1.42,1.42,0,1,1-1.419,1.42,1.42,1.42,0,0,1,1.419-1.42" transform="translate(-2.917 -2.52)" fill="#61dafb"/>
    </g>
  </g>
</svg>
