<svg id="Ilustraiton.Desktop" xmlns="http://www.w3.org/2000/svg" xmlns:xlink="http://www.w3.org/1999/xlink" width="228.218" height="217.146" viewBox="0 0 228.218 217.146">
  <defs>
    <linearGradient id="linear-gradient" x1="0.5" x2="0.5" y2="1" gradientUnits="objectBoundingBox">
      <stop offset="0" stop-color="#d7684f"/>
      <stop offset="1" stop-color="#a23921"/>
    </linearGradient>
  </defs>
  <g id="Desktop.Devise" transform="translate(0 0)">
    <g id="Grupo_7418" data-name="Grupo 7418" transform="translate(0 0)">
      <path id="Trazado_3799" data-name="Trazado 3799" d="M167.232,30.8V136.338A11.166,11.166,0,0,1,161.66,146L19.82,227.9a3.4,3.4,0,0,1-3.465.281l-.039-.023c-1.124-.656-1.826-2.154-1.826-4.292V118.7L167.232,30.514Z" transform="translate(-13.319 -12.556)" fill="#030405" opacity="0.634"/>
      <path id="Trazado_3803" data-name="Trazado 3803" d="M17.9,224.753a3.838,3.838,0,0,1-1.936-.511,1.17,1.17,0,1,1,1.17-2.027,2.384,2.384,0,0,0,2.3-.283l141.836-81.9a10.014,10.014,0,0,0,4.987-8.648V13.437c0-1.605-.464-2.831-1.24-3.279a1.171,1.171,0,1,1,1.17-2.028c1.533.883,2.411,2.817,2.411,5.307V131.388a12.365,12.365,0,0,1-6.156,10.675L20.6,223.96a5.464,5.464,0,0,1-2.7.793" transform="translate(-13.514 -7.607)" fill="#acb6d4"/>
      <path id="Trazado_3804" data-name="Trazado 3804" d="M15.986,224.272a1.167,1.167,0,0,1-.588-.159c-1.552-.905-2.408-2.789-2.408-5.3V101.52c0-4.363,2.6-9.278,5.916-11.191L161,8.293a4.582,4.582,0,0,1,4.543-.33,1.171,1.171,0,0,1-1.108,2.063,2.407,2.407,0,0,0-2.266.3L20.076,92.358c-2.572,1.484-4.745,5.679-4.745,9.163V218.809c0,1.6.466,2.826,1.246,3.281a1.171,1.171,0,0,1-.591,2.182" transform="translate(-12.989 -7.504)" fill="#acb6d4"/>
      <path id="Trazado_3805" data-name="Trazado 3805" d="M14.161,119.542a1.171,1.171,0,0,1-.586-2.184L166.317,29.171a1.171,1.171,0,0,1,1.171,2.028L14.746,119.385a1.164,1.164,0,0,1-.585.157" transform="translate(-12.989 -12.227)" fill="#acb6d4"/>
    </g>
    <g id="Grupo_7417" data-name="Grupo 7417" transform="translate(11.599 76.474)">
      <path id="Trazado_3808" data-name="Trazado 3808" d="M48.94,110.516c0,1.714,1.2,2.408,2.687,1.551a5.939,5.939,0,0,0,2.687-4.654c0-1.713-1.2-2.408-2.687-1.551a5.941,5.941,0,0,0-2.687,4.654" transform="translate(-29.939 -105.495)" fill="#030405"/>
      <path id="Trazado_3809" data-name="Trazado 3809" d="M36.767,117.544c0,1.714,1.2,2.408,2.687,1.551a5.939,5.939,0,0,0,2.687-4.654c0-1.713-1.2-2.408-2.687-1.551a5.939,5.939,0,0,0-2.687,4.654" transform="translate(-27.266 -107.039)" fill="#030405"/>
      <path id="Trazado_3810" data-name="Trazado 3810" d="M24.593,124.573c0,1.714,1.2,2.408,2.687,1.551a5.939,5.939,0,0,0,2.687-4.654c0-1.713-1.2-2.408-2.687-1.551a5.939,5.939,0,0,0-2.687,4.654" transform="translate(-24.593 -108.582)" fill="#030405"/>
    </g>
  </g>
  <path id="Desktop.Green2" d="M.1,62.54,0,26.777a10.38,10.38,0,0,1,4.676-8.142L35.657.666A4.383,4.383,0,0,1,37.841,0c1.716,0,2.83,1.4,2.836,3.569l.1,35.763A10.38,10.38,0,0,1,36.1,47.474L5.123,65.443a4.384,4.384,0,0,1-2.185.666c-1.717,0-2.831-1.4-2.837-3.568" transform="translate(107.815 29.116)" fill="#41b883" opacity="0.565"/>
  <path id="Desktop.Green1" d="M.1,62.54,0,26.777a10.38,10.38,0,0,1,4.676-8.142L35.657.666A4.383,4.383,0,0,1,37.841,0c1.716,0,2.83,1.4,2.836,3.569l.1,35.763A10.38,10.38,0,0,1,36.1,47.474L5.123,65.443a4.384,4.384,0,0,1-2.185.666c-1.717,0-2.831-1.4-2.837-3.568" transform="translate(131.436 29.116)" fill="#41b883" opacity="0.376"/>
  <g id="Desktop.icons" transform="translate(179.312 21.961)">
    <g id="Npm-logo" transform="translate(26.019 61.194)">
      <path id="Trazado_3956" data-name="Trazado 3956" d="M0,0H22.886V7.629H11.443V8.9H6.357V7.629H0ZM1.271,6.357H3.814V2.543H5.086V6.357H6.357V1.271H1.271ZM7.629,1.271V7.629h2.543V6.357h2.543V1.271Zm2.543,1.271h1.271V5.086H10.172Zm3.814-1.271V6.357h2.543V2.543H17.8V6.357h1.271V2.543h1.271V6.357h1.271V1.271Z" transform="translate(0 0)" fill="#cb3837"/>
      <path id="Trazado_3957" data-name="Trazado 3957" d="M1,6.086H3.543V2.271H4.814V6.086H6.086V1H1Z" transform="translate(0.271 0.271)" fill="#fff"/>
      <path id="Trazado_3958" data-name="Trazado 3958" d="M6,1V7.357H8.543V6.086h2.543V1ZM9.814,4.814H8.543V2.271H9.814Z" transform="translate(1.629 0.271)" fill="#fff"/>
      <path id="Trazado_3959" data-name="Trazado 3959" d="M11,1V6.086h2.543V2.271h1.271V6.086h1.271V2.271h1.271V6.086h1.271V1Z" transform="translate(2.986 0.271)" fill="#fff"/>
    </g>
    <g id="React" transform="translate(8.263 27.99)">
      <path id="Trazado_3960" data-name="Trazado 3960" d="M13.07,4.584h0q-.254-.087-.512-.161.043-.174.079-.349c.387-1.88.134-3.4-.731-3.894C11.077-.3,9.721.2,8.351,1.392q-.2.177-.4.363-.129-.124-.263-.243C6.257.238,4.818-.3,3.954.2,3.125.68,2.88,2.1,3.229,3.886q.052.265.117.527c-.2.058-.4.119-.588.185C1.075,5.185,0,6.1,0,7.058c0,.985,1.154,1.973,2.907,2.572q.213.073.43.134-.07.282-.125.568c-.332,1.751-.073,3.141.753,3.618.853.492,2.286-.014,3.681-1.233q.165-.145.332-.306.209.2.43.392c1.351,1.163,2.685,1.632,3.511,1.154.853-.494,1.13-1.987.77-3.8q-.041-.208-.1-.425.151-.045.3-.092c1.822-.6,3.008-1.58,3.008-2.578C15.9,6.1,14.787,5.175,13.07,4.584ZM8.8,1.9C9.971.883,11.068.48,11.567.768h0c.532.307.739,1.545.4,3.169q-.033.159-.071.316a16.268,16.268,0,0,0-2.125-.336A15.952,15.952,0,0,0,8.432,2.24Q8.61,2.068,8.8,1.9Zm-4.1,5.968q.216.417.451.823t.5.816a14.46,14.46,0,0,1-1.465-.236C4.319,8.823,4.492,8.352,4.694,7.873Zm0-1.6c-.2-.469-.367-.93-.505-1.376.454-.1.937-.184,1.441-.247q-.253.395-.487.8T4.693,6.276Zm.361.8q.314-.653.676-1.282h0q.362-.628.771-1.227c.473-.036.957-.054,1.447-.054s.978.019,1.45.055q.4.6.766,1.223t.685,1.275q-.319.655-.683,1.287h0q-.361.627-.763,1.23c-.472.034-.959.051-1.456.051s-.976-.015-1.439-.045q-.412-.6-.777-1.232T5.054,7.075Zm5.7,1.616q.24-.416.461-.842h0a14.422,14.422,0,0,1,.534,1.4,14.411,14.411,0,0,1-1.483.253q.252-.4.488-.809Zm.455-2.414q-.22-.418-.457-.827h0q-.233-.4-.483-.795c.507.064.993.149,1.449.253a14.486,14.486,0,0,1-.509,1.369ZM7.956,2.726a14.524,14.524,0,0,1,.935,1.129q-.939-.044-1.879,0C7.321,3.447,7.638,3.069,7.956,2.726ZM4.294.788C4.826.481,6,.92,7.241,2.02c.079.07.159.144.238.22A16.274,16.274,0,0,0,6.126,3.916,16.593,16.593,0,0,0,4,4.246Q3.944,4,3.9,3.756h0C3.6,2.229,3.795,1.077,4.294.788ZM3.519,9.111q-.2-.057-.392-.123A5.753,5.753,0,0,1,1.272,8a1.4,1.4,0,0,1-.593-.945c0-.579.863-1.317,2.3-1.819q.271-.094.547-.172A16.287,16.287,0,0,0,4.3,7.075a16.534,16.534,0,0,0-.784,2.036Zm3.68,3.1A5.751,5.751,0,0,1,5.419,13.32h0a1.4,1.4,0,0,1-1.115.042c-.5-.289-.71-1.406-.426-2.9q.051-.265.116-.528a15.969,15.969,0,0,0,2.142.31A16.525,16.525,0,0,0,7.5,11.928Q7.354,12.071,7.2,12.206Zm.776-.768c-.322-.347-.643-.731-.956-1.145q.457.018.93.018t.96-.021a14.442,14.442,0,0,1-.933,1.148Zm4.124.945a1.4,1.4,0,0,1-.52.987c-.5.29-1.572-.087-2.728-1.081q-.2-.171-.4-.364a15.959,15.959,0,0,0,1.332-1.692A15.852,15.852,0,0,0,11.936,9.9q.049.2.086.385h0a5.75,5.75,0,0,1,.076,2.1Zm.577-3.392h0c-.087.029-.176.057-.267.084a15.939,15.939,0,0,0-.8-2.014,15.932,15.932,0,0,0,.774-1.984c.163.047.32.1.473.149,1.471.506,2.368,1.255,2.368,1.832,0,.615-.969,1.412-2.543,1.934Z" transform="translate(0 0)" fill="#61dafb"/>
      <path id="Trazado_3961" data-name="Trazado 3961" d="M10.866,8.158a1.42,1.42,0,1,1-1.419,1.42,1.42,1.42,0,0,1,1.419-1.42" transform="translate(-2.917 -2.52)" fill="#61dafb"/>
    </g>
    <g id="Vue.js_Logo_2" transform="translate(0 0)">
      <g id="Grupo_7433" data-name="Grupo 7433" transform="translate(0 0)">
        <path id="Trazado_3962" data-name="Trazado 3962" d="M-150.93,0l-1.908,3.305L-154.747,0H-161.1l8.263,14.312L-144.576,0Z" transform="translate(161.101)" fill="#41b883"/>
      </g>
      <g id="Grupo_7434" data-name="Grupo 7434" transform="translate(3.305 0)">
        <path id="Trazado_3963" data-name="Trazado 3963" d="M-101.885,0l-1.908,3.305L-105.7,0h-3.049l4.958,8.587L-98.835,0Z" transform="translate(108.751)" fill="#34495e"/>
      </g>
    </g>
  </g>
  <path id="Desktop.Blue2" d="M.1,62.54,0,26.777a10.38,10.38,0,0,1,4.676-8.142L35.657.666A4.383,4.383,0,0,1,37.841,0c1.716,0,2.83,1.4,2.836,3.569l.1,35.763A10.38,10.38,0,0,1,36.1,47.474L5.123,65.443a4.384,4.384,0,0,1-2.185.666c-1.717,0-2.831-1.4-2.837-3.568" transform="translate(10.872 92.054)" fill="#61dafb" opacity="0.565"/>
  <path id="Desktop.Blue1" d="M.1,62.54,0,26.777a10.38,10.38,0,0,1,4.676-8.142L35.657.666A4.383,4.383,0,0,1,37.841,0c1.716,0,2.83,1.4,2.836,3.569l.1,35.763A10.38,10.38,0,0,1,36.1,47.474L5.123,65.443a4.384,4.384,0,0,1-2.185.666c-1.717,0-2.831-1.4-2.837-3.568" transform="translate(34.493 92.054)" fill="#61dafb" opacity="0.376"/>
  <path id="Desktop.Orange1" d="M.1,62.54,0,26.777a10.38,10.38,0,0,1,4.676-8.142L35.657.666A4.383,4.383,0,0,1,37.841,0c1.716,0,2.83,1.4,2.836,3.569l.1,35.763A10.38,10.38,0,0,1,36.1,47.474L5.123,65.443a4.384,4.384,0,0,1-2.185.666c-1.717,0-2.831-1.4-2.837-3.568" transform="translate(78.91 99.141)" opacity="0.565" fill="url(#linear-gradient)"/>
  <g id="Desktop.Squares" transform="translate(22.683 29.116)">
    <path id="Trazado_4097" data-name="Trazado 4097" d="M.1,62.54,0,26.777a10.38,10.38,0,0,1,4.676-8.142L35.657.666A4.383,4.383,0,0,1,37.841,0c1.716,0,2.83,1.4,2.836,3.569l.1,35.763A10.38,10.38,0,0,1,36.1,47.474L5.123,65.443a4.384,4.384,0,0,1-2.185.666c-1.717,0-2.831-1.4-2.837-3.568M35.975,1.292,4.993,19.26A9.585,9.585,0,0,0,.667,26.775l.1,35.764C.773,64.3,1.6,65.4,2.938,65.4a3.83,3.83,0,0,0,1.868-.579L35.787,46.848a9.587,9.587,0,0,0,4.324-7.513l-.1-35.763c0-1.764-.837-2.859-2.17-2.859a3.824,3.824,0,0,0-1.866.579" transform="translate(96.943)" fill="#41b883"/>
    <path id="Trazado_4104" data-name="Trazado 4104" d="M.1,62.54,0,26.777a10.38,10.38,0,0,1,4.676-8.142L35.657.666A4.383,4.383,0,0,1,37.841,0c1.716,0,2.83,1.4,2.836,3.569l.1,35.763A10.38,10.38,0,0,1,36.1,47.474L5.123,65.443a4.384,4.384,0,0,1-2.185.666c-1.717,0-2.831-1.4-2.837-3.568M35.975,1.292,4.993,19.26A9.585,9.585,0,0,0,.667,26.775l.1,35.764C.773,64.3,1.6,65.4,2.938,65.4a3.83,3.83,0,0,0,1.868-.579L35.787,46.848a9.587,9.587,0,0,0,4.324-7.513l-.1-35.763c0-1.764-.837-2.859-2.17-2.859a3.824,3.824,0,0,0-1.866.579" transform="translate(-0.001 62.938)" fill="#61dafb"/>
    <path id="Trazado_4107" data-name="Trazado 4107" d="M.1,62.54,0,26.777a10.38,10.38,0,0,1,4.676-8.142L35.657.666A4.383,4.383,0,0,1,37.841,0c1.716,0,2.83,1.4,2.836,3.569l.1,35.763A10.38,10.38,0,0,1,36.1,47.474L5.123,65.443a4.384,4.384,0,0,1-2.185.666c-1.717,0-2.831-1.4-2.837-3.568M35.975,1.292,4.993,19.26A9.585,9.585,0,0,0,.667,26.775l.1,35.764C.773,64.3,1.6,65.4,2.938,65.4a3.83,3.83,0,0,0,1.868-.579L35.787,46.848a9.587,9.587,0,0,0,4.324-7.513l-.1-35.763c0-1.764-.837-2.859-2.17-2.859a3.824,3.824,0,0,0-1.866.579" transform="translate(68.037 70.024)" fill="#9e533e"/>
  </g>
  <path id="Desktop.Orange2" d="M.1,62.54,0,26.777a10.38,10.38,0,0,1,4.676-8.142L35.657.666A4.383,4.383,0,0,1,37.841,0c1.716,0,2.83,1.4,2.836,3.569l.1,35.763A10.38,10.38,0,0,1,36.1,47.474L5.123,65.443a4.384,4.384,0,0,1-2.185.666c-1.717,0-2.831-1.4-2.837-3.568" transform="translate(102.531 99.141)" fill="#fff" opacity="0.376"/>
</svg>
