<svg id="Ilustration.Background.Square" xmlns="http://www.w3.org/2000/svg" width="380.797" height="242.845" viewBox="0 0 380.797 242.845">
  <path id="Trazado_3888" data-name="Trazado 3888" d="M840.628,285.411c0,3.953-2.377,7.724-7.253,10.53L669.713,390.424c-10.756,6.229-29.563,5.429-41.976-1.741l-157.641-91c-6.781-3.913-10.265-8.952-10.265-13.7,0-3.953,2.377-7.724,7.253-10.53l163.663-94.5c10.756-6.209,29.562-5.431,41.978,1.741l157.641,91.02c6.779,3.913,10.263,8.952,10.263,13.7" transform="translate(-459.831 -151.777)" fill="#acb6d4" opacity="0.254"/>
  <path id="Trazado_3889" data-name="Trazado 3889" d="M840.628,285.411c0,3.953-2.377,7.724-7.253,10.53L669.713,390.424c-10.756,6.229-29.563,5.429-41.976-1.741l-157.641-91c-6.781-3.913-10.265-8.952-10.265-13.7,0-3.953,2.377-7.724,7.253-10.53l163.663-94.5c10.756-6.209,29.562-5.431,41.978,1.741l157.641,91.02c6.779,3.913,10.263,8.952,10.263,13.7" transform="translate(-459.831 -174.754)" fill="#acb6d4" opacity="0.254"/>
</svg>
