<svg xmlns="http://www.w3.org/2000/svg" width="246.251" height="150.715" viewBox="0 0 246.251 150.715">
  <g id="Mobile.Device" transform="translate(0 0)">
    <path id="Trazado_3850" data-name="Trazado 3850" d="M291.775,181.32v7.749c0,2.061-1.505,4.239-4.443,5.935L146.539,276.29c-5.386,3.106-13.521,3.442-18.176.753L50.622,232.161c-2.112-1.221-3.143-2.851-3.143-4.561v-7.589c.059,1.652,1.1,3.216,3.143,4.4l77.741,44.881c4.656,2.69,12.79,2.354,18.176-.752l140.793-81.286c2.938-1.7,4.443-3.874,4.443-5.935" transform="translate(-46.502 -129.102)" fill="#acb6d4"/>
    <path id="Trazado_3855" data-name="Trazado 3855" d="M157.977,275.847l-11.438,6.607c-5.386,3.106-13.521,3.442-18.176.753L50.622,238.324c-2.046-1.184-3.084-2.748-3.143-4.4v-.161c0-2.069,1.5-4.239,4.444-5.935l11.445-6.607Z" transform="translate(-46.502 -143.015)" fill="#424f6e"/>
    <path id="Trazado_3856" data-name="Trazado 3856" d="M135.73,244.113a17.079,17.079,0,0,1-8.378-1.928L49.611,197.3c-2.269-1.314-3.558-3.164-3.63-5.211a.97.97,0,0,1,0-.115c0-.026,0-.053,0-.08,0-2.5,1.8-4.977,4.933-6.781L191.7,103.83c5.642-3.258,14.235-3.6,19.153-.752L288.6,147.959c2.342,1.353,3.631,3.274,3.631,5.407,0,2.5-1.8,4.972-4.932,6.781L146.506,241.433a22.169,22.169,0,0,1-10.776,2.68m-87.8-52.135c0,.015,0,.031,0,.046.048,1.37.967,2.611,2.655,3.589l77.74,44.881c4.379,2.53,12.1,2.192,17.2-.753l140.791-81.285c2.513-1.45,3.955-3.305,3.955-5.089,0-1.426-.918-2.711-2.655-3.715L209.88,104.769c-4.381-2.531-12.1-2.194-17.2.753L51.889,186.808c-2.513,1.447-3.955,3.3-3.955,5.089,0,.027,0,.054,0,.081" transform="translate(-45.979 -101.148)" fill="#acb6d4"/>
    <path id="Trazado_3857" data-name="Trazado 3857" d="M165.96,276.3a.969.969,0,0,1-.488-.131l-94.61-54.625a.977.977,0,0,1,.977-1.692l94.61,54.625a.977.977,0,0,1-.489,1.823" transform="translate(-54.485 -142.492)" fill="#acb6d4"/>
    <path id="Trazado_3858" data-name="Trazado 3858" d="M132.2,275.152a.968.968,0,0,1-.488-.131l-17.665-10.2a.977.977,0,1,1,.977-1.691l17.665,10.2a.977.977,0,0,1-.489,1.823" transform="translate(-69.544 -157.582)" fill="#acb6d4"/>
    <path id="Trazado_3860" data-name="Trazado 3860" d="M135.729,279.293a17.076,17.076,0,0,1-8.378-1.928L49.61,232.484c-2.342-1.353-3.631-3.274-3.631-5.407v-7.749a.977.977,0,0,1,1.954,0v7.749c0,1.426.918,2.711,2.655,3.715l77.741,44.881c4.378,2.53,12.1,2.192,17.2-.753L286.32,193.635c2.513-1.451,3.955-3.305,3.955-5.089V180.8a.977.977,0,1,1,1.954,0v7.749c0,2.5-1.8,4.972-4.932,6.781L146.5,276.613a22.167,22.167,0,0,1-10.775,2.68" transform="translate(-45.979 -128.578)" fill="#acb6d4"/>
  </g>
</svg>
