<svg xmlns="http://www.w3.org/2000/svg" width="125.537" height="84.553" viewBox="0 0 125.537 84.553">
  <g id="Mobile.icons" transform="translate(0)">
    <g id="Vue.js_Logo_2" transform="translate(0 70.241)">
      <g id="Grupo_7433" data-name="Grupo 7433" transform="translate(0 0)">
        <path id="Trazado_3962" data-name="Trazado 3962" d="M-150.93,0l-1.908,3.305L-154.747,0H-161.1l8.263,14.312L-144.576,0Z" transform="translate(161.101)" fill="#41b883"/>
      </g>
      <g id="Grupo_7434" data-name="Grupo 7434" transform="translate(3.305 0)">
        <path id="Trazado_3963" data-name="Trazado 3963" d="M-101.885,0l-1.908,3.305L-105.7,0h-3.049l4.958,8.587L-98.835,0Z" transform="translate(108.751)" fill="#34495e"/>
      </g>
    </g>
    <g id="Npm-logo" transform="translate(102.65 0)">
      <path id="Trazado_3956" data-name="Trazado 3956" d="M0,0H22.886V7.629H11.443V8.9H6.357V7.629H0ZM1.271,6.357H3.814V2.543H5.086V6.357H6.357V1.271H1.271ZM7.629,1.271V7.629h2.543V6.357h2.543V1.271Zm2.543,1.271h1.271V5.086H10.172Zm3.814-1.271V6.357h2.543V2.543H17.8V6.357h1.271V2.543h1.271V6.357h1.271V1.271Z" transform="translate(0 0)" fill="#cb3837"/>
      <path id="Trazado_3957" data-name="Trazado 3957" d="M1,6.086H3.543V2.271H4.814V6.086H6.086V1H1Z" transform="translate(0.271 0.271)" fill="#fff"/>
      <path id="Trazado_3958" data-name="Trazado 3958" d="M6,1V7.357H8.543V6.086h2.543V1ZM9.814,4.814H8.543V2.271H9.814Z" transform="translate(1.629 0.271)" fill="#fff"/>
      <path id="Trazado_3959" data-name="Trazado 3959" d="M11,1V6.086h2.543V2.271h1.271V6.086h1.271V2.271h1.271V6.086h1.271V1Z" transform="translate(2.986 0.271)" fill="#fff"/>
    </g>
    <g id="React" transform="translate(13.398 16.718)">
      <path id="Trazado_3960" data-name="Trazado 3960" d="M13.07,4.584h0q-.254-.087-.512-.161.043-.174.079-.349c.387-1.88.134-3.4-.731-3.894C11.077-.3,9.721.2,8.351,1.392q-.2.177-.4.363-.129-.124-.263-.243C6.257.238,4.818-.3,3.954.2,3.125.68,2.88,2.1,3.229,3.886q.052.265.117.527c-.2.058-.4.119-.588.185C1.075,5.185,0,6.1,0,7.058c0,.985,1.154,1.973,2.907,2.572q.213.073.43.134-.07.282-.125.568c-.332,1.751-.073,3.141.753,3.618.853.492,2.286-.014,3.681-1.233q.165-.145.332-.306.209.2.43.392c1.351,1.163,2.685,1.632,3.511,1.154.853-.494,1.13-1.987.77-3.8q-.041-.208-.1-.425.151-.045.3-.092c1.822-.6,3.008-1.58,3.008-2.578C15.9,6.1,14.787,5.175,13.07,4.584ZM8.8,1.9C9.971.883,11.068.48,11.567.768h0c.532.307.739,1.545.4,3.169q-.033.159-.071.316a16.268,16.268,0,0,0-2.125-.336A15.952,15.952,0,0,0,8.432,2.24Q8.61,2.068,8.8,1.9Zm-4.1,5.968q.216.417.451.823t.5.816a14.46,14.46,0,0,1-1.465-.236C4.319,8.823,4.492,8.352,4.694,7.873Zm0-1.6c-.2-.469-.367-.93-.505-1.376.454-.1.937-.184,1.441-.247q-.253.395-.487.8T4.693,6.276Zm.361.8q.314-.653.676-1.282h0q.362-.628.771-1.227c.473-.036.957-.054,1.447-.054s.978.019,1.45.055q.4.6.766,1.223t.685,1.275q-.319.655-.683,1.287h0q-.361.627-.763,1.23c-.472.034-.959.051-1.456.051s-.976-.015-1.439-.045q-.412-.6-.777-1.232T5.054,7.075Zm5.7,1.616q.24-.416.461-.842h0a14.422,14.422,0,0,1,.534,1.4,14.411,14.411,0,0,1-1.483.253q.252-.4.488-.809Zm.455-2.414q-.22-.418-.457-.827h0q-.233-.4-.483-.795c.507.064.993.149,1.449.253a14.486,14.486,0,0,1-.509,1.369ZM7.956,2.726a14.524,14.524,0,0,1,.935,1.129q-.939-.044-1.879,0C7.321,3.447,7.638,3.069,7.956,2.726ZM4.294.788C4.826.481,6,.92,7.241,2.02c.079.07.159.144.238.22A16.274,16.274,0,0,0,6.126,3.916,16.593,16.593,0,0,0,4,4.246Q3.944,4,3.9,3.756h0C3.6,2.229,3.795,1.077,4.294.788ZM3.519,9.111q-.2-.057-.392-.123A5.753,5.753,0,0,1,1.272,8a1.4,1.4,0,0,1-.593-.945c0-.579.863-1.317,2.3-1.819q.271-.094.547-.172A16.287,16.287,0,0,0,4.3,7.075a16.534,16.534,0,0,0-.784,2.036Zm3.68,3.1A5.751,5.751,0,0,1,5.419,13.32h0a1.4,1.4,0,0,1-1.115.042c-.5-.289-.71-1.406-.426-2.9q.051-.265.116-.528a15.969,15.969,0,0,0,2.142.31A16.525,16.525,0,0,0,7.5,11.928Q7.354,12.071,7.2,12.206Zm.776-.768c-.322-.347-.643-.731-.956-1.145q.457.018.93.018t.96-.021a14.442,14.442,0,0,1-.933,1.148Zm4.124.945a1.4,1.4,0,0,1-.52.987c-.5.29-1.572-.087-2.728-1.081q-.2-.171-.4-.364a15.959,15.959,0,0,0,1.332-1.692A15.852,15.852,0,0,0,11.936,9.9q.049.2.086.385h0a5.75,5.75,0,0,1,.076,2.1Zm.577-3.392h0c-.087.029-.176.057-.267.084a15.939,15.939,0,0,0-.8-2.014,15.932,15.932,0,0,0,.774-1.984c.163.047.32.1.473.149,1.471.506,2.368,1.255,2.368,1.832,0,.615-.969,1.412-2.543,1.934Z" transform="translate(0 0)" fill="#61dafb"/>
      <path id="Trazado_3961" data-name="Trazado 3961" d="M10.866,8.158a1.42,1.42,0,1,1-1.419,1.42,1.42,1.42,0,0,1,1.419-1.42" transform="translate(-2.917 -2.52)" fill="#61dafb"/>
    </g>
  </g>
</svg>
