<svg xmlns="http://www.w3.org/2000/svg" width="156.356" height="138.538" viewBox="0 0 156.356 138.538">
  <g id="Mobile.squares" transform="translate(0 0)">
    <path id="Trazado_3859" data-name="Trazado 3859" d="M307.928,180.284a.976.976,0,0,1-.489-.131l-61.012-35.22a.977.977,0,0,1,0-1.692l14.72-8.5a.98.98,0,0,1,.977,0l61,35.221a.976.976,0,0,1,0,1.691l-14.712,8.5a.976.976,0,0,1-.488.131m-59.058-36.2,59.058,34.092,12.759-7.372-59.051-34.092Z" transform="translate(-245.939 -41.747)" fill="#424f6e"/>
    <path id="Trazado_3921" data-name="Trazado 3921" d="M488,207.714a7.888,7.888,0,0,1-3.859-.976l-23.993-13.85a3.11,3.11,0,0,1-1.812-2.519,2.379,2.379,0,0,1,1.354-2.036l24.909-14.383a7.546,7.546,0,0,1,6.889.265l23.993,13.853a3.11,3.11,0,0,1,1.812,2.52,2.38,2.38,0,0,1-1.354,2.036L491.025,207a6.136,6.136,0,0,1-3.03.711m-.384-33.464a5.159,5.159,0,0,0-2.516.566L460.186,189.2a1.457,1.457,0,0,0-.854,1.169,2.213,2.213,0,0,0,1.312,1.652l23.993,13.85a6.654,6.654,0,0,0,5.887.265l24.91-14.38a1.458,1.458,0,0,0,.853-1.169,2.212,2.212,0,0,0-1.312-1.653L490.983,175.08a6.966,6.966,0,0,0-3.372-.831" transform="translate(-443.388 -165.147)" fill="#424f6e"/>
    <path id="Trazado_3934" data-name="Trazado 3934" d="M516.233,240.531a15.4,15.4,0,0,1-7.532-1.906l-46.832-27.034c-2.249-1.3-3.538-3.09-3.538-4.917a4.644,4.644,0,0,1,2.644-3.975L509.6,174.625c3.52-2.033,9.428-1.8,13.447.517l46.832,27.04c2.248,1.3,3.538,3.09,3.538,4.918a4.646,4.646,0,0,1-2.644,3.975l-48.621,28.068a11.978,11.978,0,0,1-5.915,1.389m-.75-65.319a10.069,10.069,0,0,0-4.911,1.1l-48.621,28.075a2.844,2.844,0,0,0-1.666,2.282c0,1.094.957,2.3,2.561,3.225l46.832,27.035c3.362,1.941,8.624,2.177,11.491.518l48.623-28.069a2.845,2.845,0,0,0,1.665-2.282c0-1.095-.957-2.3-2.56-3.226l-46.832-27.04a13.6,13.6,0,0,0-6.582-1.622" transform="translate(-417.056 -173.238)" fill="#424f6e"/>
  </g>
</svg>
