<svg xmlns="http://www.w3.org/2000/svg" width="68.922" height="47.25" viewBox="0 0 68.922 47.25">
  <g id="Mobile.Orange" transform="translate(0 0)">
    <path id="Trazado_3916" data-name="Trazado 3916" d="M528.753,224.832v7.416a2.251,2.251,0,0,1-1.313,1.906l-29.622,17.1c-1.947,1.127-5.351.987-7.6-.315l-28.532-16.471a3.126,3.126,0,0,1-1.858-2.48v-7.416a3.126,3.126,0,0,0,1.858,2.48l28.532,16.471c2.247,1.3,5.651,1.442,7.6.315l29.622-17.1a2.251,2.251,0,0,0,1.313-1.906" transform="translate(-459.831 -204.766)" fill="#d9684a"/>
    <path id="Trazado_3917" data-name="Trazado 3917" d="M527.44,196.688l-29.622,17.1c-1.947,1.127-5.351.983-7.6-.315L461.689,197a3.127,3.127,0,0,1-1.858-2.48,2.251,2.251,0,0,1,1.313-1.906l29.622-17.1c1.947-1.124,5.351-.983,7.6.315L526.9,192.3a3.126,3.126,0,0,1,1.857,2.48" transform="translate(-459.831 -174.754)" fill="#9e533e"/>
  </g>
</svg>
