<svg id="Grupo_7710" data-name="Grupo 7710" xmlns="http://www.w3.org/2000/svg" width="1455.339" height="193.635" viewBox="0 0 1455.339 193.635">
  <path id="Trazado_3888" data-name="Trazado 3888" d="M606.458,221.725a5.322,5.322,0,0,1-2.793,4.47L540.646,266.3c-4.142,2.644-11.383,2.3-16.163-.739l-60.7-38.627c-2.611-1.661-3.953-3.8-3.953-5.817a5.322,5.322,0,0,1,2.793-4.47l63.019-40.114c4.142-2.636,11.383-2.305,16.164.739l60.7,38.636c2.61,1.661,3.952,3.8,3.952,5.817" transform="translate(455.709 -119.349)" fill="#8e99bb" opacity="0.254"/>
  <path id="Trazado_3889" data-name="Trazado 3889" d="M735.644,263.11c0,3.156-1.721,6.167-5.253,8.408l-118.542,75.44c-7.791,4.973-21.412,4.334-30.4-1.39l-114.18-72.66c-4.911-3.125-7.435-7.148-7.435-10.943,0-3.156,1.721-6.167,5.253-8.408L583.626,178.1c7.791-4.958,21.412-4.336,30.4,1.39l114.18,72.676c4.91,3.125,7.433,7.147,7.433,10.943" transform="translate(470.834 -172.25)" fill="#8e99bb" opacity="0.254"/>
  <path id="Trazado_4085" data-name="Trazado 4085" d="M606.458,221.725a5.322,5.322,0,0,1-2.793,4.47L540.646,266.3c-4.142,2.644-11.383,2.3-16.163-.739l-60.7-38.627c-2.611-1.661-3.953-3.8-3.953-5.817a5.322,5.322,0,0,1,2.793-4.47l63.019-40.114c4.142-2.636,11.383-2.305,16.164.739l60.7,38.636c2.61,1.661,3.952,3.8,3.952,5.817" transform="translate(-50.979 -166.013)" fill="#8e99bb" opacity="0.254"/>
  <path id="Trazado_4086" data-name="Trazado 4086" d="M735.644,263.11c0,3.156-1.721,6.167-5.253,8.408l-118.542,75.44c-7.791,4.973-21.412,4.334-30.4-1.39l-114.18-72.66c-4.911-3.125-7.435-7.148-7.435-10.943,0-3.156,1.721-6.167,5.253-8.408L583.626,178.1c7.791-4.958,21.412-4.336,30.4,1.39l114.18,72.676c4.91,3.125,7.433,7.147,7.433,10.943" transform="translate(-20.729 -174.754)" fill="#8e99bb" opacity="0.254"/>
  <path id="Trazado_4087" data-name="Trazado 4087" d="M559.7,206.747a3.625,3.625,0,0,1-1.9,3.044l-42.923,27.316c-2.821,1.8-7.753,1.569-11.009-.5l-41.344-26.31c-1.778-1.131-2.692-2.588-2.692-3.962a3.625,3.625,0,0,1,1.9-3.044l42.923-27.322c2.821-1.8,7.753-1.57,11.009.5l41.344,26.316c1.778,1.131,2.692,2.588,2.692,3.962" transform="translate(-172.456 -44.687)" fill="#8e99bb" opacity="0.254"/>
  <path id="Trazado_4088" data-name="Trazado 4088" d="M559.7,206.747a3.625,3.625,0,0,1-1.9,3.044l-42.923,27.316c-2.821,1.8-7.753,1.569-11.009-.5l-41.344-26.31c-1.778-1.131-2.692-2.588-2.692-3.962a3.625,3.625,0,0,1,1.9-3.044l42.923-27.322c2.821-1.8,7.753-1.57,11.009.5l41.344,26.316c1.778,1.131,2.692,2.588,2.692,3.962" transform="translate(-172.456 -65.025)" fill="#8e99bb" opacity="0.254"/>
  <path id="Trazado_4089" data-name="Trazado 4089" d="M640.19,232.531a6.546,6.546,0,0,1-3.435,5.5L559.238,287.36c-5.094,3.252-14,2.834-19.881-.909l-74.664-47.514c-3.212-2.043-4.862-4.674-4.862-7.156a6.546,6.546,0,0,1,3.435-5.5l77.516-49.342c5.094-3.242,14-2.835,19.882.909l74.664,47.524c3.211,2.043,4.861,4.674,4.861,7.156" transform="translate(-459.831 -172.25)" fill="#8e99bb" opacity="0.254"/>
  <path id="Trazado_4090" data-name="Trazado 4090" d="M640.19,232.531a6.546,6.546,0,0,1-3.435,5.5L559.238,287.36c-5.094,3.252-14,2.834-19.881-.909l-74.664-47.514c-3.212-2.043-4.862-4.674-4.862-7.156a6.546,6.546,0,0,1,3.435-5.5l77.516-49.342c5.094-3.242,14-2.835,19.882.909l74.664,47.524c3.211,2.043,4.861,4.674,4.861,7.156" transform="translate(-450.108 -148.04)" fill="#8e99bb" opacity="0.254"/>
  <path id="Trazado_4091" data-name="Trazado 4091" d="M558.639,202.936a3.167,3.167,0,0,1-1.882,2.682L514.29,229.679c-2.791,1.586-7.671,1.383-10.892-.443l-40.9-23.175c-1.76-1-2.664-2.28-2.664-3.49a3.167,3.167,0,0,1,1.882-2.682l42.467-24.067c2.791-1.581,7.671-1.383,10.892.443l40.9,23.18c1.759,1,2.663,2.28,2.663,3.49" transform="translate(286.093 -100.682)" fill="#8e99bb" opacity="0.254"/>
  <path id="Trazado_4092" data-name="Trazado 4092" d="M558.639,202.936a3.167,3.167,0,0,1-1.882,2.682L514.29,229.679c-2.791,1.586-7.671,1.383-10.892-.443l-40.9-23.175c-1.76-1-2.664-2.28-2.664-3.49a3.167,3.167,0,0,1,1.882-2.682l42.467-24.067c2.791-1.581,7.671-1.383,10.892.443l40.9,23.18c1.759,1,2.663,2.28,2.663,3.49" transform="translate(286.093 -84.472)" fill="#8e99bb" opacity="0.254"/>
  <path id="Trazado_4093" data-name="Trazado 4093" d="M604.22,215.936c0,1.471-.9,2.875-2.75,3.919l-62.057,35.162c-4.078,2.318-11.209,2.02-15.916-.648L463.723,220.5c-2.571-1.456-3.892-3.331-3.892-5.1,0-1.471.9-2.874,2.75-3.919l62.057-35.169c4.079-2.311,11.209-2.021,15.917.648l59.773,33.874c2.57,1.456,3.891,3.331,3.891,5.1" transform="translate(851.12 -132.265)" fill="#8e99bb" opacity="0.254"/>
  <path id="Trazado_4094" data-name="Trazado 4094" d="M558.639,202.936a3.167,3.167,0,0,1-1.882,2.682L514.29,229.679c-2.791,1.586-7.671,1.383-10.892-.443l-40.9-23.175c-1.76-1-2.664-2.28-2.664-3.49a3.167,3.167,0,0,1,1.882-2.682l42.467-24.067c2.791-1.581,7.671-1.383,10.892.443l40.9,23.18c1.759,1,2.663,2.28,2.663,3.49" transform="translate(880.289 -147.347)" fill="#8e99bb" opacity="0.254"/>
</svg>
