<svg id="Server2" xmlns="http://www.w3.org/2000/svg" width="129.049" height="95.177" viewBox="0 0 129.049 95.177">
  <path id="Trazado_4109" data-name="Trazado 4109" d="M523.261,248.7a17.265,17.265,0,0,1-8.446-2.137L462.3,216.246c-2.522-1.455-3.967-3.465-3.967-5.514a5.208,5.208,0,0,1,2.965-4.458l54.522-31.481c3.948-2.28,10.572-2.024,15.079.58l52.516,30.322c2.521,1.454,3.967,3.465,3.967,5.515a5.209,5.209,0,0,1-2.965,4.458l-54.522,31.474a13.431,13.431,0,0,1-6.633,1.557m-.841-73.247a11.291,11.291,0,0,0-5.507,1.239L462.39,208.173a3.189,3.189,0,0,0-1.868,2.559c0,1.226,1.074,2.579,2.872,3.617l52.516,30.316c3.77,2.177,9.671,2.442,12.886.581l54.525-31.476a3.19,3.19,0,0,0,1.867-2.559c0-1.228-1.073-2.58-2.871-3.618L529.8,177.27a15.246,15.246,0,0,0-7.381-1.819" transform="translate(-458.331 -153.521)" fill="#acb6d4"/>
  <g id="Grupo_7429" data-name="Grupo 7429" transform="translate(16.774 0)">
    <path id="Trazado_3841" data-name="Trazado 3841" d="M288.159,102.8a1.171,1.171,0,0,1-1.171-1.171V77.608a1.171,1.171,0,1,1,2.341,0v24.017a1.171,1.171,0,0,1-1.171,1.171" transform="translate(-240.628 -22.9)" fill="#3a3a3a"/>
    <path id="Trazado_3829" data-name="Trazado 3829" d="M334.855,52.92V67.658L288.488,94.423V70.406l46.367-26.765Z" transform="translate(-240.957 -15.698)" fill="#f6f6f6"/>
    <path id="Trazado_3831" data-name="Trazado 3831" d="M275.443,70.406V94.423l-46.36-26.765V43.641Z" transform="translate(-227.913 -15.698)" fill="#d7dce0"/>
    <path id="Trazado_3834" data-name="Trazado 3834" d="M294.356,34.556c4.71,2.726,4.71,7.134,0,9.852s-12.35,2.719-17.067,0-4.71-7.126,0-9.852,12.358-2.718,17.067,0" transform="translate(-237.722 -13.255)" fill="#d7dce0"/>
    <path id="Trazado_3842" data-name="Trazado 3842" d="M275.114,95.265a1.17,1.17,0,0,1-.585-.157l-46.36-26.765a1.171,1.171,0,0,1-.585-1.014V43.312a1.171,1.171,0,0,1,2.341,0V66.653l45.189,26.089,45.2-26.089V43.312a1.171,1.171,0,1,1,2.341,0V67.329a1.171,1.171,0,0,1-.585,1.014L275.7,95.108a1.172,1.172,0,0,1-.585.157" transform="translate(-227.583 -15.369)" fill="#acb6d4"/>
    <g id="Grupo_7421" data-name="Grupo 7421" transform="translate(0 0)">
      <path id="Trazado_3840" data-name="Trazado 3840" d="M275.113,63.714a1.182,1.182,0,0,1-.585-.157l-46.36-26.765a1.171,1.171,0,0,1,0-2.028l46.36-26.773a1.174,1.174,0,0,1,1.171,0l46.367,26.773a1.171,1.171,0,0,1,0,2.028L275.7,63.558a1.178,1.178,0,0,1-.585.157M231.095,35.779l44.018,25.413,44.025-25.413-44.025-25.42Z" transform="translate(-227.583 -7.836)" fill="#acb6d4"/>
      <path id="Trazado_3843" data-name="Trazado 3843" d="M285.5,47.3a18.607,18.607,0,0,1-9.121-2.212c-2.654-1.532-4.116-3.639-4.117-5.935s1.46-4.408,4.117-5.944c5.118-2.95,13.13-2.952,18.238,0,2.657,1.535,4.119,3.648,4.117,5.944s-1.464,4.4-4.117,5.934A18.576,18.576,0,0,1,285.5,47.3m0-13.96a16.28,16.28,0,0,0-7.952,1.9c-1.9,1.1-2.947,2.49-2.946,3.916s1.047,2.812,2.946,3.908c4.386,2.527,11.517,2.527,15.9,0,1.9-1.1,2.946-2.484,2.947-3.908s-1.046-2.817-2.947-3.917a16.257,16.257,0,0,0-7.945-1.9" transform="translate(-237.393 -12.922)" fill="#acb6d4"/>
    </g>
  </g>
</svg>
