<svg xmlns="http://www.w3.org/2000/svg" width="149.848" height="96.786" viewBox="0 0 149.848 96.786">
  <g id="Server" transform="translate(0)">
    <path id="Trazado_3910" data-name="Trazado 3910" d="M288.159,102.8a1.171,1.171,0,0,1-1.171-1.171V77.608a1.171,1.171,0,1,1,2.341,0v24.017a1.171,1.171,0,0,1-1.171,1.171" transform="translate(-213.238 -22.9)" fill="#3a3a3a"/>
    <g id="Grupo_7422" data-name="Grupo 7422" transform="translate(0 36.05)">
      <path id="Trazado_3836" data-name="Trazado 3836" d="M211.687,82.6a1.16,1.16,0,0,1-.585-.157l-18.03-10.411a1.171,1.171,0,0,1,0-2.028l27.389-15.818a1.17,1.17,0,1,1,1.171,2.027L196,71.02l16.274,9.4a1.171,1.171,0,0,1-.586,2.184" transform="translate(-192.487 -54.03)" fill="#acb6d4"/>
      <path id="Trazado_3837" data-name="Trazado 3837" d="M283.7,114.766a1.169,1.169,0,0,1-.585-.156l-15.833-9.14a1.171,1.171,0,1,1,1.171-2.028l15.248,8.8,71.416-41.225-25.634-14.8a1.17,1.17,0,1,1,1.171-2.027l27.39,15.819a1.17,1.17,0,0,1,0,2.027L284.289,114.61a1.171,1.171,0,0,1-.585.156" transform="translate(-208.783 -54.03)" fill="#acb6d4"/>
      <path id="Trazado_3844" data-name="Trazado 3844" d="M256.647,113.006a1.16,1.16,0,0,1-.585-.157L216.176,89.824a1.171,1.171,0,0,1,1.171-2.028l39.886,23.025a1.171,1.171,0,0,1-.586,2.184" transform="translate(-197.56 -61.41)" fill="#acb6d4"/>
    </g>
    <path id="Trazado_3911" data-name="Trazado 3911" d="M334.855,52.92V67.658L288.488,94.423V70.406l46.367-26.765Z" transform="translate(-213.568 -15.698)" fill="#f6f6f6"/>
    <path id="Trazado_3912" data-name="Trazado 3912" d="M275.443,70.406V94.423l-46.36-26.765V43.641Z" transform="translate(-200.523 -15.698)" fill="#d7dce0"/>
    <path id="Trazado_3913" data-name="Trazado 3913" d="M300.149,35.13c6.034,3.493,6.034,9.14,0,12.622s-15.823,3.484-21.866,0-6.034-9.13,0-12.622,15.833-3.483,21.866,0" transform="translate(-213.124 -15.798)" fill="#f5f5f5"/>
    <path id="Trazado_3914" data-name="Trazado 3914" d="M321.81,36.107,275.444,62.872l-46.36-26.765,46.36-26.773Zm-37.264,3.211c4.71-2.718,4.71-7.127,0-9.852s-12.35-2.719-17.067,0-4.71,7.134,0,9.852,12.358,2.718,17.067,0" transform="translate(-200.523 -8.165)" fill="#fff"/>
    <path id="Trazado_3915" data-name="Trazado 3915" d="M275.114,95.265a1.17,1.17,0,0,1-.585-.157l-46.36-26.765a1.171,1.171,0,0,1-.585-1.014V43.312a1.171,1.171,0,0,1,2.341,0V66.653l45.189,26.089,45.2-26.089V43.312a1.171,1.171,0,1,1,2.341,0V67.329a1.171,1.171,0,0,1-.585,1.014L275.7,95.108a1.172,1.172,0,0,1-.585.157" transform="translate(-200.194 -15.369)" fill="#acb6d4"/>
    <g id="Grupo_7423" data-name="Grupo 7423" transform="translate(27.389 0)">
      <path id="Trazado_3840" data-name="Trazado 3840" d="M275.113,63.714a1.182,1.182,0,0,1-.585-.157l-46.36-26.765a1.171,1.171,0,0,1,0-2.028l46.36-26.773a1.174,1.174,0,0,1,1.171,0l46.367,26.773a1.171,1.171,0,0,1,0,2.028L275.7,63.558a1.178,1.178,0,0,1-.585.157M231.095,35.779l44.018,25.413,44.025-25.413-44.025-25.42Z" transform="translate(-227.583 -7.836)" fill="#acb6d4"/>
    </g>
  </g>
</svg>
