<?xml version="1.0" encoding="utf-8"?>
<!-- Generator: Adobe Illustrator 26.3.1, SVG Export Plug-In . SVG Version: 6.00 Build 0)  -->
<svg version="1.1" id="Layer_1" xmlns="http://www.w3.org/2000/svg" xmlns:xlink="http://www.w3.org/1999/xlink" x="0px" y="0px"
	 viewBox="0 0 554.1 326" enable-background="new 0 0 554.1 326" xml:space="preserve">
<g id="React" transform="translate(310.14 157.83)">
	<g transform="matrix(1, 0, 0, 1, -378.99, -178.26)">
		<path id="Path_3960-2" fill="#61DAFB" d="M484.5,219.3L484.5,219.3c-0.5-0.2-1-0.3-1.5-0.5c0.1-0.3,0.2-0.7,0.2-1
			c1.1-5.3,0.4-9.6-2.1-11c-2.4-1.4-6.2,0.1-10.1,3.4c-0.4,0.3-0.8,0.7-1.1,1c-0.2-0.2-0.5-0.5-0.7-0.7c-4.1-3.6-8.2-5.1-10.6-3.7
			c-2.4,1.4-3,5.4-2.1,10.5c0.1,0.5,0.2,1,0.3,1.5c-0.6,0.2-1.1,0.3-1.7,0.5c-4.8,1.7-7.8,4.3-7.8,7c0,2.8,3.3,5.6,8.2,7.3
			c0.4,0.1,0.8,0.3,1.2,0.4c-0.1,0.5-0.3,1.1-0.4,1.6c-0.9,5-0.2,8.9,2.1,10.3c2.4,1.4,6.5,0,10.4-3.5c0.3-0.3,0.6-0.6,0.9-0.9
			c0.4,0.4,0.8,0.8,1.2,1.1c3.8,3.3,7.6,4.6,10,3.3c2.4-1.4,3.2-5.6,2.2-10.8c-0.1-0.4-0.2-0.8-0.3-1.2c0.3-0.1,0.6-0.2,0.8-0.3
			c5.2-1.7,8.5-4.5,8.5-7.3C492.5,223.6,489.3,221,484.5,219.3z M472.3,211.7c3.3-2.9,6.4-4,7.9-3.2l0,0c1.5,0.9,2.1,4.4,1.1,9
			c-0.1,0.3-0.1,0.6-0.2,0.9c-2-0.5-4-0.8-6-1c-1.2-1.7-2.4-3.3-3.8-4.8C471.6,212.4,472,212,472.3,211.7L472.3,211.7z M460.7,228.7
			c0.4,0.8,0.8,1.6,1.3,2.3c0.5,0.8,0.9,1.6,1.4,2.3c-1.4-0.2-2.8-0.4-4.2-0.7C459.6,231.4,460.1,230,460.7,228.7z M460.7,224.1
			c-0.6-1.3-1-2.6-1.4-3.9c1.3-0.3,2.7-0.5,4.1-0.7c-0.5,0.7-0.9,1.5-1.4,2.3C461.5,222.6,461.1,223.4,460.7,224.1L460.7,224.1z
			 M461.7,226.4c0.6-1.2,1.2-2.4,1.9-3.6l0,0c0.7-1.2,1.4-2.3,2.2-3.5c1.3-0.1,2.7-0.2,4.1-0.2s2.8,0.1,4.1,0.2
			c0.8,1.1,1.5,2.3,2.2,3.5s1.3,2.4,1.9,3.6c-0.6,1.2-1.2,2.5-1.9,3.7l0,0c-0.7,1.2-1.4,2.4-2.2,3.5c-1.3,0.1-2.7,0.1-4.1,0.1
			s-2.8,0-4.1-0.1c-0.8-1.1-1.5-2.3-2.2-3.5C463,228.8,462.3,227.6,461.7,226.4L461.7,226.4z M477.9,231c0.5-0.8,0.9-1.6,1.3-2.4
			l0,0c0.6,1.3,1.1,2.6,1.5,4c-1.4,0.3-2.8,0.6-4.2,0.7C477,232.5,477.5,231.8,477.9,231L477.9,231z M479.2,224.1
			c-0.4-0.8-0.9-1.6-1.3-2.3l0,0c-0.4-0.8-0.9-1.5-1.4-2.3c1.4,0.2,2.8,0.4,4.1,0.7C480.2,221.6,479.7,222.9,479.2,224.1
			L479.2,224.1z M470,214.1c0.9,1,1.8,2.1,2.7,3.2c-1.8-0.1-3.6-0.1-5.3,0C468.2,216.1,469.1,215,470,214.1z M459.6,208.6
			c1.5-0.9,4.8,0.4,8.4,3.5c0.2,0.2,0.5,0.4,0.7,0.6c-1.4,1.5-2.7,3.1-3.8,4.8c-2,0.2-4,0.5-6,0.9c-0.1-0.5-0.2-0.9-0.3-1.4l0,0
			C457.6,212.6,458.1,209.4,459.6,208.6L459.6,208.6z M457.4,232.2c-0.4-0.1-0.7-0.2-1.1-0.3c-1.9-0.6-3.7-1.6-5.3-2.8
			c-0.9-0.6-1.5-1.6-1.7-2.7c0-1.6,2.4-3.7,6.5-5.2c0.5-0.2,1-0.3,1.6-0.5c0.6,1.9,1.3,3.9,2.2,5.7
			C458.7,228.3,458,230.2,457.4,232.2L457.4,232.2z M467.8,241c-1.5,1.4-3.2,2.4-5.1,3.2l0,0c-1,0.5-2.1,0.5-3.2,0.1
			c-1.4-0.8-2-4-1.2-8.2c0.1-0.5,0.2-1,0.3-1.5c2,0.4,4,0.7,6.1,0.9c1.2,1.7,2.5,3.3,3.9,4.8C468.4,240.4,468.1,240.7,467.8,241
			L467.8,241z M470,238.8c-0.9-1-1.8-2.1-2.7-3.2c0.9,0,1.7,0.1,2.6,0.1s1.8,0,2.7-0.1C471.8,236.7,470.9,237.7,470,238.8L470,238.8
			z M481.7,241.5c-0.1,1.1-0.6,2.1-1.5,2.8c-1.4,0.8-4.5-0.2-7.7-3.1c-0.4-0.3-0.8-0.7-1.1-1c1.4-1.5,2.6-3.1,3.8-4.8
			c2.1-0.2,4.1-0.5,6.1-0.9c0.1,0.4,0.2,0.7,0.2,1.1l0,0C481.9,237.5,482,239.5,481.7,241.5L481.7,241.5z M483.3,231.8L483.3,231.8
			c-0.2,0.1-0.5,0.2-0.8,0.2c-0.6-2-1.4-3.9-2.3-5.7c0.9-1.8,1.6-3.7,2.2-5.6c0.5,0.1,0.9,0.3,1.3,0.4c4.2,1.4,6.7,3.6,6.7,5.2
			C490.6,228.1,487.8,230.4,483.3,231.8L483.3,231.8z"/>
	</g>
	<path id="Path_3961" fill="#61DAFB" d="M90.9,44.1c2.2,0,4,1.8,4,4s-1.8,4-4,4c-2.2,0-4-1.8-4-4l0,0C87,45.9,88.8,44.1,90.9,44.1"
		/>
</g>
<g transform="matrix(1, 0, 0, 1, -68.85, -20.43)">
	<path id="Icon_awesome-android-2" fill="#8E99BB" d="M193,75.7v8.2c0,1.1-0.9,2-1.9,2l0,0c-1.1,0-2.1-0.9-2.1-2v-8.2
		c0.1-1.1,1-2,2.1-2C192.1,73.8,193,74.7,193,75.7z M193.8,86.9c0,1.2,0.9,2.1,2.1,2.1l0,0h1.4v4.3c0,1.1,0.9,2,2,2s2-0.9,2-2V89
		h2.6v4.4c0,1.1,0.9,2,2,1.9c1.1,0,1.9-0.9,1.9-1.9v-4.3h1.4c1.2,0,2.1-0.9,2.1-2.1V74.1h-17.6v12.8H193.8z M211.4,73.4h-17.7
		c0.1-3,1.8-5.8,4.5-7.1l-1.4-2.5c-0.1-0.1,0-0.3,0.1-0.4c0.1-0.1,0.3,0,0.4,0.1l1.4,2.5c2.5-1.1,5.2-1.1,7.7,0l1.4-2.5
		c0.1-0.1,0.2-0.2,0.4-0.1s0.2,0.2,0.1,0.4l-1.4,2.6C209.6,67.7,211.3,70.4,211.4,73.4z M199.3,69.5c0-0.4-0.3-0.7-0.7-0.7
		s-0.7,0.3-0.7,0.7s0.3,0.7,0.7,0.7C198.9,70.2,199.3,69.9,199.3,69.5z M207.3,69.5c0-0.4-0.3-0.7-0.7-0.7s-0.7,0.3-0.7,0.7
		s0.3,0.7,0.7,0.7l0,0C207,70.2,207.3,69.9,207.3,69.5z M214.1,73.8c-1.1,0-2,0.9-2,1.9l0,0v8.2c0,1.1,0.9,2,2,2l0,0
		c1.1,0,2.1-0.8,2.1-2v-8.2C216.1,74.6,215.2,73.8,214.1,73.8L214.1,73.8z"/>
</g>
<g transform="matrix(1, 0, 0, 1, -68.85, -20.43)">
	<path id="Icon_awesome-app-store-ios-2" fill="#8E99BB" d="M138.9,134.9h-22.6c-1.7,0-3.1,1.4-3.1,3.1v22.6c0,1.7,1.4,3.1,3.1,3.1
		h22.6c1.7,0,3.1-1.4,3.1-3.1V138C142,136.2,140.6,134.9,138.9,134.9z M121.4,157.5c-0.4,0.6-1.1,0.8-1.8,0.5
		c-0.6-0.4-0.8-1.1-0.5-1.7l0.9-1.6c0.9-0.3,2-0.1,2.5,0.7L121.4,157.5z M130.3,154.1h-11.7c-0.7,0-1.3-0.6-1.3-1.3s0.6-1.3,1.3-1.3
		h3.3l4.2-7.3l-1.3-2.3c-0.3-0.6-0.1-1.4,0.5-1.8c0.6-0.3,1.4-0.1,1.7,0.5l0.6,1l0.6-1c0.4-0.6,1.1-0.8,1.8-0.5
		c0.6,0.4,0.8,1.1,0.5,1.7l-5.5,9.6h4c1,0.1,1.7,0.9,1.7,1.9C130.5,153.6,130.4,153.8,130.3,154.1L130.3,154.1z M136.6,154.1h-1.9
		l1.3,2.2c0.3,0.6,0.1,1.4-0.5,1.8c-0.6,0.3-1.4,0.1-1.7-0.5c-2.1-3.7-3.7-6.4-4.8-8.2c-0.9-1.4-0.7-3.2,0.5-4.4
		c0.8,1.5,2.1,3.6,3.8,6.6h3.3c0.7,0,1.3,0.6,1.3,1.3C137.9,153.5,137.3,154.1,136.6,154.1L136.6,154.1z"/>
</g>
<g transform="matrix(1, 0, 0, 1, -68.85, -20.43)">
	<g>
		<path fill="#FF3E00" d="M203.9,209c-3.7-5.4-11.1-6.9-16.5-3.6l-9.4,6c-2.6,1.6-4.3,4.2-4.9,7.2c-0.4,2.5-0.1,5.1,1.1,7.3
			c-0.8,1.2-1.4,2.6-1.6,4c-0.5,3,0.2,6.2,1.9,8.7c3.8,5.4,11.1,6.9,16.5,3.6l9.4-6c2.6-1.6,4.3-4.2,4.9-7.2
			c0.4-2.5,0.1-5.1-1.1-7.3c0.8-1.2,1.4-2.6,1.6-4C206.4,214.6,205.7,211.5,203.9,209"/>
		<path fill="#FFFFFF" d="M186.5,239.2c-3,0.8-6.2-0.4-8-3c-1.1-1.5-1.5-3.4-1.2-5.2c0.1-0.3,0.1-0.6,0.2-0.9l0.2-0.5l0.5,0.3
			c1.1,0.8,2.4,1.4,3.7,1.8l0.3,0.1v0.3c0,0.5,0.1,1,0.4,1.4c0.5,0.8,1.5,1.2,2.4,0.9c0.2-0.1,0.4-0.1,0.6-0.2l9.4-6
			c0.5-0.3,0.8-0.8,0.9-1.3c0.1-0.5,0-1.1-0.3-1.6c-0.5-0.8-1.5-1.1-2.4-0.9c-0.2,0.1-0.4,0.1-0.6,0.2l-3.6,2.3
			c-0.6,0.4-1.2,0.6-1.9,0.8c-3,0.8-6.2-0.4-8-3c-1.1-1.5-1.5-3.4-1.2-5.2s1.4-3.4,2.9-4.3l9.4-6c0.6-0.4,1.2-0.6,1.9-0.9
			c3-0.8,6.2,0.4,8,3c1.1,1.5,1.5,3.4,1.2,5.2c-0.1,0.3-0.1,0.6-0.2,0.9l-0.2,0.5l-0.5-0.3c-1.1-0.8-2.4-1.4-3.7-1.8l-0.3-0.1v-0.3
			c0-0.5-0.1-1-0.4-1.4c-0.5-0.8-1.5-1.1-2.4-0.9c-0.2,0.1-0.4,0.1-0.6,0.2l-9.4,6c-0.5,0.3-0.8,0.8-0.9,1.3c-0.1,0.5,0,1.1,0.3,1.6
			c0.5,0.8,1.5,1.1,2.4,0.9c0.2-0.1,0.4-0.1,0.6-0.2l3.6-2.3c0.6-0.4,1.2-0.6,1.9-0.9c3-0.8,6.2,0.4,8,3c1.1,1.5,1.5,3.4,1.2,5.2
			s-1.4,3.4-2.9,4.3l-9.4,6C187.8,238.7,187.2,239,186.5,239.2"/>
	</g>
</g>
<g id="nodejs-seeklogo.com" transform="translate(251.281)">
	<path id="Path_3973" fill="#539E43" d="M131.9,71.5c-0.5,0-1-0.1-1.4-0.4l-4.6-2.6c-0.7-0.4-0.3-0.5-0.1-0.6c0.7-0.2,1.4-0.5,2-0.9
		c0.1-0.1,0.2,0,0.3,0l3.5,2.1c0.1,0.1,0.3,0.1,0.4,0l13.6-7.9c0.1-0.1,0.2-0.2,0.2-0.4V45.1c0-0.2-0.1-0.3-0.2-0.4L132,36.9
		c-0.1-0.1-0.3-0.1-0.4,0L118,44.7c-0.1,0.1-0.1,0.2-0.1,0.4v15.7c0,0.2,0.1,0.3,0.2,0.4l3.7,2.1c2,1,3.3-0.2,3.3-1.4V46.5
		c0-0.2,0.2-0.4,0.4-0.4h1.7c0.2,0,0.4,0.2,0.4,0.4V62c0,2.7-1.5,4.3-4,4.3c-1.1,0-2.2-0.3-3.1-0.9l-3.6-2c-0.9-0.5-1.4-1.5-1.4-2.5
		V45.1c0-1,0.5-2,1.4-2.5l13.6-7.9c0.9-0.5,2-0.5,2.9,0l13.6,7.9c0.9,0.5,1.4,1.5,1.4,2.5v15.7c0,1-0.5,2-1.4,2.5l-13.6,7.9
		C132.9,71.4,132.4,71.5,131.9,71.5L131.9,71.5z M136.1,60.7c-6,0-7.2-2.7-7.2-5c0-0.2,0.2-0.4,0.4-0.4h1.8c0.2,0,0.4,0.1,0.4,0.3
		l0,0c0.3,1.8,1.1,2.7,4.7,2.7c2.9,0,4.1-0.6,4.1-2.2c0-0.9-0.3-1.5-4.8-2c-3.7-0.4-6-1.2-6-4.2c0-2.8,2.3-4.4,6.2-4.4
		c4.4,0,6.5,1.5,6.8,4.8c0,0.1,0,0.2-0.1,0.3c-0.1,0.1-0.2,0.1-0.3,0.1h-1.8c-0.2,0-0.3-0.1-0.4-0.3c-0.4-1.9-1.5-2.5-4.3-2.5
		c-3.1,0-3.5,1.1-3.5,1.9c0,1,0.4,1.3,4.7,1.8c4.2,0.5,6.2,1.3,6.2,4.3C142.9,59,140.4,60.7,136.1,60.7L136.1,60.7z"/>
</g>
<g id="Npm-logo" transform="translate(347.408 72.672)">
	<path id="Path_3956" fill="#CB3837" d="M78.6,48.3h50.7v16.9h-25.4V68H92.6v-2.8h-14V48.3z M81.4,62.4H87V54h2.8v8.4h2.8V51.1H81.4
		V62.4z M95.4,51.1v14.1h5.6v-2.8h5.6V51.1H95.4z M101.1,53.9h2.8v5.6h-2.8V53.9z M109.5,51.1v11.3h5.6V54h2.8v8.4h2.8V54h2.8v8.4
		h2.8V51.1H109.5z"/>
	<path id="Path_3957" fill="#FFFFFF" d="M81.4,62.4H87V54h2.8v8.4h2.8V51.1H81.4V62.4z"/>
	<path id="Path_3958" fill="#FFFFFF" d="M95.4,51.1v14.1h5.6v-2.8h5.6V51.1H95.4z M103.9,59.6h-2.8V54h2.8V59.6z"/>
	<path id="Path_3959" fill="#FFFFFF" d="M109.5,51.1v11.3h5.6V54h2.8v8.4h2.8V54h2.8v8.4h2.8V51.1H109.5z"/>
</g>
<g id="Vue.js_Logo_2" transform="translate(171.559 202.832)">
	<g id="Group_7433" transform="translate(0 0)">
		<g transform="matrix(1, 0, 0, 1, -240.41, -223.26)">
			<path id="Path_3962-2" fill="#41B883" d="M337.1,243.7l-5.2,9l-5.2-9h-17.3l22.6,39.1l22.6-39.1L337.1,243.7L337.1,243.7z"/>
		</g>
	</g>
	<g id="Group_7434" transform="translate(9.627 0)">
		<path id="Path_3963" fill="#34495E" d="M86.8,20.4l-5,8.6l-4.9-8.6h-8l12.9,22.4l13-22.4H86.8z"/>
	</g>
</g>
<g>
	<path d="M258.7,10.3c10.1,0,18.2,8.1,18.2,18.2s-8.1,18.2-18.2,18.2c-10.1,0-18.2-8.1-18.2-18.2S248.6,10.3,258.7,10.3z"/>
	<path fill="#FFFFFF" d="M258,20.6c-5.3,0-9.4,3.3-9.4,7.5c0,3.9,3.8,6.4,9.7,6.3h0.2h0.6l-0.2,0.4l0,0c0,0.1,0.1,0.2,0.1,0.3l0,0
		v0.1v0.1v0.1v0.1v0.1v0.1v0.1v0.1V36v0.1v0.1v0.1v0.1v0.2v0.2V37v0.1v0.2v0.2v0.2V38v0.2l0.1,0.3v0.1v0.2V39l0.1,0.3l0.1,0.3
		l0.1,0.4l0.1,0.4l0.1,0.4l0.1,0.4l0.1,0.4v0.3l0.1,0.5v0.2l0.1,0.5l0.1,0.4l0.1,0.3l0.1,0.5v0.2c3.9-0.5,7.4-2.4,9.9-5.2l0.1-0.1
		l-0.4-1.4l-1-3.6l-0.6-2.2l-0.5-2l-0.3-1.2l-0.2-0.8l-0.1-0.5l-0.1-0.4v-0.2v-0.1l0,0l0,0c-0.6-1.8-1.6-3.4-3.1-4.5
		C262.7,21.3,260.5,20.6,258,20.6z M253.3,39.6c-0.5-0.1-0.9,0.1-1.1,0.6l0,0l-0.8,3c0.5,0.2,1,0.5,1.5,0.7h0.1l0.9-3.2l0,0
		C254,40.2,253.8,39.7,253.3,39.6z M258.3,37.4c-0.5-0.1-1,0.1-1.1,0.6l0,0l-1.2,4.5l0,0c-0.1,0.5,0.2,1,0.7,1.1
		c0.4,0.1,0.9-0.2,1-0.6l0,0l1.2-4.5l0,0v-0.1l0,0v-0.1v-0.2V38C258.7,37.6,258.5,37.5,258.3,37.4z M249.8,32.8l-0.1,0.1l0,0
		l-1.2,4.5l0,0c-0.1,0.5,0.2,1,0.7,1.1s0.9-0.2,1.1-0.6l0,0l1.1-4.1C250.8,33.5,250.3,33.2,249.8,32.8z M247,27.6
		c-0.5-0.1-1,0.1-1.1,0.6l0,0l-1.2,4.5l0,0c-0.1,0.5,0.2,1,0.7,1.1s0.9-0.2,1.1-0.6l0,0l1.2-4.5l0,0C247.7,28.2,247.4,27.8,247,27.6
		z M274,26.6c-0.5-0.1-0.9,0.1-1.1,0.6l0,0l-1.2,4.5l0,0c-0.1,0.5,0.2,1,0.6,1.1s1-0.2,1.1-0.6l0,0l1.2-4.5l0,0
		C274.8,27.2,274.5,26.8,274,26.6z M244.3,20.6c-1,1.8-1.7,3.9-1.9,6c0.1,0.1,0.3,0.2,0.4,0.3c0.5,0.1,0.9-0.1,1.1-0.6l0,0l1.2-4.5
		l0,0c0.1-0.5-0.2-0.9-0.6-1.1C244.5,20.7,244.4,20.6,244.3,20.6z M271,20.7c-0.5-0.1-0.9,0.1-1.1,0.6l0,0l-1.2,4.5l0,0
		c-0.1,0.5,0.2,1,0.7,1.1s0.9-0.2,1.1-0.6l0,0l1.2-4.5l0,0C271.7,21.3,271.5,20.8,271,20.7z"/>
	<path d="M259.1,23.6c0.6,0,1.1,0.5,1.1,1.1s-0.5,1.1-1.1,1.1s-1.1-0.5-1.1-1.1C258,24.1,258.5,23.6,259.1,23.6z"/>
	<path fill="#FFFFFF" d="M249.6,16.4c-0.5-0.1-0.9,0.1-1.1,0.6l0,0l-1.2,4.5l0,0c-0.1,0.5,0.2,1,0.7,1.1s0.9-0.2,1.1-0.6l0,0
		l1.2-4.5l0,0C250.3,17,250,16.5,249.6,16.4z M265.1,17.3c-0.5-0.1-1,0.1-1.1,0.6l0,0l-0.8,3c0.5,0.3,1,0.6,1.5,0.9l0.1,0.1l1-3.5
		l0,0C265.8,17.9,265.6,17.4,265.1,17.3z M257.2,12.2c-0.6,0.1-1.1,0.1-1.7,0.2h-0.1l-1.1,4.2l0,0c-0.1,0.5,0.2,1,0.7,1.1
		c0.4,0.1,0.9-0.2,1-0.6l0,0l1.2-4.5l0,0C257.2,12.5,257.2,12.3,257.2,12.2z M268.3,15.3l-0.2,0.9l0,0c-0.1,0.5,0.2,1,0.7,1.1
		c0.4,0.1,0.9-0.2,1-0.6l0,0v-0.1C269.4,16.2,268.9,15.8,268.3,15.3L268.3,15.3z M261.3,12.4l-0.4,1.6l0,0c-0.1,0.5,0.2,1,0.7,1.1
		c0.4,0.1,0.9-0.2,1-0.6l0,0l0.4-1.7c-0.5-0.1-1.1-0.3-1.6-0.4L261.3,12.4z"/>
</g>
</svg>
