<?xml version="1.0" encoding="utf-8"?>
<!-- Generator: Adobe Illustrator 26.3.1, SVG Export Plug-In . SVG Version: 6.00 Build 0)  -->
<svg version="1.1" id="Layer_1" xmlns="http://www.w3.org/2000/svg" xmlns:xlink="http://www.w3.org/1999/xlink" x="0px" y="0px"
	 viewBox="0 0 554.1 326" enable-background="new 0 0 554.1 326" xml:space="preserve">
<g id="Group_7777" transform="translate(435.056 238.608)" opacity="0.67">
	<g id="Group_7776" transform="translate(554.11 326) rotate(180)">
		<g id="Group_7751" transform="translate(130.157 30.851)">
			<g>
				<g>
					<g>
						<defs>
							<path id="SVGID_1_" d="M435.1,275.6l3.3,1.9c74.6-38.8,179.3-46.4,265.7-22.6c1.2,0.3,2.4,0.7,3.6,1
								c18.5,5.2,36.5,12.2,53.6,20.9c49.6,25.5,76.9,60.2,80.9,95.8c-1.7,0.3-3.4,0.9-5,1.8c-0.2,0.1-0.4,0.2-0.5,0.3
								c-4.7,3.1-4.2,7.8,1.1,10.5c1.5,0.8,3.1,1.3,4.8,1.6c-0.2,2.9-0.5,5.8-1,8.6c1.6,0,3.1,0.1,4.7,0.4c0.5-2.9,0.8-5.8,1-8.7
								c2.8-0.1,5.6-0.8,8-2.1c0.2-0.1,0.4-0.2,0.5-0.3c4.7-3.1,4.2-7.8-1.1-10.5c-2.5-1.2-5.2-1.8-7.9-1.9
								c-4.2-36.3-31.9-71.6-82.4-97.5c-18-9.1-36.8-16.4-56.2-21.8c-1.2-0.3-2.4-0.7-3.6-1c-33.9-9-68.9-13.5-104-13.4
								C541.4,238.6,482.3,251,435.1,275.6"/>
						</defs>
						<clipPath id="SVGID_00000085961911562159438260000007725892640295299458_">
							<use xlink:href="#SVGID_1_"  overflow="visible"/>
						</clipPath>
						<g id="Group_7750" clip-path="url(#SVGID_00000085961911562159438260000007725892640295299458_)">
							
								<linearGradient id="Rectangle_2540_00000049900217520664164000000012497140036496377010_" gradientUnits="userSpaceOnUse" x1="878.6499" y1="-155.0977" x2="878.6499" y2="-154.0977" gradientTransform="matrix(-425.417 0 0 164.712 374440.4062 25777.4453)">
								<stop  offset="0" style="stop-color:#617096"/>
								<stop  offset="1" style="stop-color:#1F2940"/>
							</linearGradient>
							
								<rect id="Rectangle_2540" x="435.1" y="231" fill="url(#Rectangle_2540_00000049900217520664164000000012497140036496377010_)" width="425.4" height="164.7"/>
						</g>
					</g>
				</g>
			</g>
		</g>
		<g id="Group_7755" transform="translate(5.627 187.186)">
			<g>
				<g>
					<g>
						<defs>
							<path id="SVGID_00000129200711300709337400000016020985574823125427_" d="M437.2,240.2c-0.8-0.4-1.5-0.9-2.1-1.6
								C435.6,239.3,436.4,239.8,437.2,240.2"/>
						</defs>
						<clipPath id="SVGID_00000096780936040797085970000005278921613813099136_">
							<use xlink:href="#SVGID_00000129200711300709337400000016020985574823125427_"  overflow="visible"/>
						</clipPath>
						<g id="Group_7754" clip-path="url(#SVGID_00000096780936040797085970000005278921613813099136_)">
							
								<linearGradient id="Rectangle_2542_00000183964739285711112250000002451681039263084686_" gradientUnits="userSpaceOnUse" x1="1031.2465" y1="-1095.1255" x2="1031.2465" y2="-1094.1255" gradientTransform="matrix(-2.126 0 0 1.627 2628.5798 2020.3773)">
								<stop  offset="0" style="stop-color:#617096"/>
								<stop  offset="1" style="stop-color:#1F2940"/>
							</linearGradient>
							
								<rect id="Rectangle_2542" x="435.1" y="238.6" fill="url(#Rectangle_2542_00000183964739285711112250000002451681039263084686_)" width="2.1" height="1.6"/>
						</g>
					</g>
				</g>
			</g>
		</g>
		<g id="Group_7759" transform="translate(38.106 135.046)">
			<g>
				<g>
					<g>
						<defs>
							<path id="SVGID_00000109022304412695847440000013815762743616547764_" d="M438.7,240.7c-1.6,0.8-2.9,2.2-3.5,3.9
								c-1,3.5,2.6,6.9,8.3,7.9c-6.6,39.9,15.6,79.1,61.8,109l-9.9,5.7l31.7,4.9l-8.5-18.3l-10,5.8c-45.2-29.2-66.9-67.6-60.4-106.7
								c2.8-0.1,5.5-0.8,7.9-2.1c1.6-0.8,2.9-2.2,3.5-3.9c1.1-3.9-3.5-7.6-10.2-8.2c-0.7-0.1-1.3-0.1-2-0.1
								C444.4,238.6,441.4,239.3,438.7,240.7"/>
						</defs>
						<clipPath id="SVGID_00000090260542594603411840000007477884154979538576_">
							<use xlink:href="#SVGID_00000109022304412695847440000013815762743616547764_"  overflow="visible"/>
						</clipPath>
						<g id="Group_7758" clip-path="url(#SVGID_00000090260542594603411840000007477884154979538576_)">
							
								<linearGradient id="Rectangle_2544_00000134209727222240610450000014498359284920477868_" gradientUnits="userSpaceOnUse" x1="971.2062" y1="-468.7806" x2="971.2062" y2="-467.7807" gradientTransform="matrix(-92.883 0 0 133.512 90689.1953 62826.4336)">
								<stop  offset="0" style="stop-color:#617096"/>
								<stop  offset="1" style="stop-color:#1F2940"/>
							</linearGradient>
							
								<rect id="Rectangle_2544" x="434.2" y="238.6" fill="url(#Rectangle_2544_00000134209727222240610450000014498359284920477868_)" width="92.9" height="133.5"/>
						</g>
					</g>
				</g>
			</g>
		</g>
		<g id="Group_7761" transform="translate(479.625 255.154)">
			<g>
				<g>
					<g>
						<defs>
							<path id="SVGID_00000131333441027063568060000006108936704780630430_" d="M435.1,239.1c0.3-0.2,0.5-0.4,0.8-0.5
								C435.6,238.8,435.3,239,435.1,239.1"/>
						</defs>
						<clipPath id="SVGID_00000150788623181550144320000003387999524646763414_">
							<use xlink:href="#SVGID_00000131333441027063568060000006108936704780630430_"  overflow="visible"/>
						</clipPath>
						<g id="Group_7760" clip-path="url(#SVGID_00000150788623181550144320000003387999524646763414_)">
							
								<linearGradient id="Rectangle_2545_00000158745804690598323100000013913639544485562029_" gradientUnits="userSpaceOnUse" x1="605.7971" y1="-2286.4453" x2="605.7971" y2="-2285.4453" gradientTransform="matrix(-0.781 0 0 0.529 908.6275 1448.1376)">
								<stop  offset="0" style="stop-color:#617096"/>
								<stop  offset="1" style="stop-color:#1F2940"/>
							</linearGradient>
							
								<rect id="Rectangle_2545" x="435.1" y="238.6" fill="url(#Rectangle_2545_00000158745804690598323100000013913639544485562029_)" width="0.8" height="0.5"/>
						</g>
					</g>
				</g>
			</g>
		</g>
		<g id="Group_7763" transform="translate(84.132 54.797)">
			<g>
				<g>
					<g>
						<defs>
							<path id="SVGID_00000003801277935101080880000004008126929300002958_" d="M641.2,468.5L641.2,468.5 M509.6,441.2
								C547.4,459.4,547.4,459.4,509.6,441.2 M508,440.4c0.2,0.1,0.4,0.2,0.6,0.3C508.3,440.6,508.2,440.5,508,440.4 M499.3,274.3
								c-3,1.7-5.9,3.4-8.7,5.2C493.4,277.8,496.3,276,499.3,274.3 M524.5,429.2c-72.7-36.2-79.3-99-14.6-140c2.4-1.6,5-3.1,7.6-4.6
								c65.9-36.9,172-38.7,241.5-4.1c20.4,10.2,35.6,22.4,45.5,35.7c0.1,0.1,0.1,0.2,0.2,0.3c0.9,1.2,1.8,2.5,2.6,3.7
								c0.2,0.3,0.4,0.6,0.6,0.9c20.9,33,10,71.3-34.2,99.3c-2.4,1.5-5,3.1-7.6,4.6c-34.3,19.2-79.5,28.9-124.8,28.9
								C599.6,454,557.9,445.8,524.5,429.2 M496.1,272.5c-3.1,1.7-6.1,3.5-8.9,5.3c-75.8,48-68.1,121.7,17.1,164.1
								c14.6,7.2,30,13,45.7,17.2c1.2,0.3,2.4,0.7,3.6,1c76.8,20.2,170.9,12.2,233.8-23c3.1-1.7,6.1-3.5,8.9-5.3
								c75.8-48.1,68.1-121.7-17.1-164.1c-11.3-5.6-23-10.3-35-14c-1.1-0.4-2.3-0.7-3.5-1.1c-30.6-9.3-64.5-14-98.4-14
								C589.4,238.6,536.4,250,496.1,272.5"/>
						</defs>
						<clipPath id="SVGID_00000065072532623944484990000012783612530816672932_">
							<use xlink:href="#SVGID_00000003801277935101080880000004008126929300002958_"  overflow="visible"/>
						</clipPath>
						<g id="Group_7762" clip-path="url(#SVGID_00000065072532623944484990000012783612530816672932_)">
							
								<linearGradient id="Rectangle_2546_00000040542436275256506700000018360434008967390856_" gradientUnits="userSpaceOnUse" x1="924.6326" y1="-225.4508" x2="924.6326" y2="-224.4509" gradientTransform="matrix(-460.69 0 0 241.717 426625.3438 54730.8945)">
								<stop  offset="0" style="stop-color:#617096"/>
								<stop  offset="1" style="stop-color:#1F2940"/>
							</linearGradient>
							
								<rect id="Rectangle_2546" x="426" y="235.6" fill="url(#Rectangle_2546_00000040542436275256506700000018360434008967390856_)" width="460.7" height="241.7"/>
						</g>
					</g>
				</g>
			</g>
		</g>
		<g id="Group_7765" transform="translate(458.586 127.701)">
			<g>
				<g>
					<g>
						<defs>
							<path id="SVGID_00000128484695144910944810000012803950780011109253_" d="M435.6,239.5c-0.2-0.3-0.4-0.6-0.6-0.9
								C435.3,238.9,435.4,239.2,435.6,239.5"/>
						</defs>
						<clipPath id="SVGID_00000009582378978144358110000014259792186244818316_">
							<use xlink:href="#SVGID_00000128484695144910944810000012803950780011109253_"  overflow="visible"/>
						</clipPath>
						<g id="Group_7764" clip-path="url(#SVGID_00000009582378978144358110000014259792186244818316_)">
							
								<linearGradient id="Rectangle_2547_00000147923096126400786820000005042766074848836518_" gradientUnits="userSpaceOnUse" x1="655.0563" y1="-1304.7876" x2="655.0563" y2="-1303.7876" gradientTransform="matrix(-0.571 0 0 0.896 809.4371 1407.6978)">
								<stop  offset="0" style="stop-color:#617096"/>
								<stop  offset="1" style="stop-color:#1F2940"/>
							</linearGradient>
							
								<rect id="Rectangle_2547" x="435.1" y="238.6" fill="url(#Rectangle_2547_00000147923096126400786820000005042766074848836518_)" width="0.6" height="0.9"/>
						</g>
					</g>
				</g>
			</g>
		</g>
		<g id="Group_7767" transform="translate(455.794 123.591)">
			<g>
				<g>
					<g>
						<defs>
							<path id="SVGID_00000093891903376494567670000018384209483309029253_" d="M435.2,238.9c-0.1-0.1-0.1-0.2-0.2-0.3
								C435.1,238.7,435.2,238.8,435.2,238.9"/>
						</defs>
						<clipPath id="SVGID_00000076574156168135885630000011981796302939143345_">
							<use xlink:href="#SVGID_00000093891903376494567670000018384209483309029253_"  overflow="visible"/>
						</clipPath>
						<g id="Group_7766" clip-path="url(#SVGID_00000076574156168135885630000011981796302939143345_)">
							
								<linearGradient id="Rectangle_2548_00000007410322089095250640000011933376540707277738_" gradientUnits="userSpaceOnUse" x1="865.1219" y1="-3125.4824" x2="865.1219" y2="-3124.4824" gradientTransform="matrix(-0.192 0 0 0.287 601.3034 1135.6215)">
								<stop  offset="0" style="stop-color:#617096"/>
								<stop  offset="1" style="stop-color:#1F2940"/>
							</linearGradient>
							
								<rect id="Rectangle_2548" x="435.1" y="238.6" fill="url(#Rectangle_2548_00000007410322089095250640000011933376540707277738_)" width="0.2" height="0.3"/>
						</g>
					</g>
				</g>
			</g>
		</g>
		<g id="Group_7769" transform="translate(159.222 90.333)">
			<g>
				<g>
					<g>
						<defs>
							<path id="SVGID_00000093156259558101423870000018284463086149701819_" d="M435.1,243.4c0.1-0.1,0.3-0.2,0.4-0.3
								C435.4,243.2,435.2,243.3,435.1,243.4 M435.5,243.1L435.5,243.1L435.5,243.1 M435.6,243c0.1-0.1,0.2-0.1,0.3-0.2
								C435.8,242.9,435.7,243,435.6,243 M435.9,242.8c0.1-0.1,0.2-0.1,0.3-0.2C436.1,242.7,436,242.8,435.9,242.8 M436.2,242.6
								L436.2,242.6L436.2,242.6 M436.3,242.6c2.1-1.4,4.3-2.7,6.5-4C440.6,239.9,438.4,241.2,436.3,242.6"/>
						</defs>
						<clipPath id="SVGID_00000130647079030009176450000000204329431328042909_">
							<use xlink:href="#SVGID_00000093156259558101423870000018284463086149701819_"  overflow="visible"/>
						</clipPath>
						<g id="Group_7768" clip-path="url(#SVGID_00000130647079030009176450000000204329431328042909_)">
							
								<linearGradient id="Rectangle_2549_00000140699690046385922740000010166690039154415502_" gradientUnits="userSpaceOnUse" x1="857.1761" y1="-491.4153" x2="857.1761" y2="-490.4153" gradientTransform="matrix(-7.751 0 0 4.761 7082.9717 2578.2356)">
								<stop  offset="0" style="stop-color:#617096"/>
								<stop  offset="1" style="stop-color:#1F2940"/>
							</linearGradient>
							
								<rect id="Rectangle_2549" x="435.1" y="238.6" fill="url(#Rectangle_2549_00000140699690046385922740000010166690039154415502_)" width="7.8" height="4.8"/>
						</g>
					</g>
				</g>
			</g>
		</g>
		<g id="Group_7771" transform="translate(485.534 267.966)">
			<g>
				<g>
					<g>
						<defs>
							<path id="SVGID_00000083054666510158316210000009058339522733764019_" d="M436.6,238.6c0,0-0.4,0.3-1.5,1
								C435.8,239.1,436.6,238.6,436.6,238.6L436.6,238.6"/>
						</defs>
						<clipPath id="SVGID_00000090281328453165587140000016101770068391468952_">
							<use xlink:href="#SVGID_00000083054666510158316210000009058339522733764019_"  overflow="visible"/>
						</clipPath>
						<g id="Group_7770" clip-path="url(#SVGID_00000090281328453165587140000016101770068391468952_)">
							
								<linearGradient id="Rectangle_2550_00000026121696828768339180000011048982514466618279_" gradientUnits="userSpaceOnUse" x1="561.8294" y1="-1669.6764" x2="561.8294" y2="-1668.6764" gradientTransform="matrix(-1.55 0 0 0.958 1306.6855 1838.1581)">
								<stop  offset="0" style="stop-color:#617096"/>
								<stop  offset="1" style="stop-color:#1F2940"/>
							</linearGradient>
							
								<rect id="Rectangle_2550" x="435.1" y="238.6" fill="url(#Rectangle_2550_00000026121696828768339180000011048982514466618279_)" width="1.5" height="1"/>
						</g>
					</g>
				</g>
			</g>
		</g>
		<g id="Group_7773" transform="translate(484.036 268.924)">
			<g>
				<g>
					<g>
						<defs>
							<path id="SVGID_00000156565607471744049880000016914367300626503063_" d="M435.1,239.6c0,0,0.8-0.5,1.5-1
								C435.4,239.3,435,239.6,435.1,239.6"/>
						</defs>
						<clipPath id="SVGID_00000010999424475768454940000009564818017942950845_">
							<use xlink:href="#SVGID_00000156565607471744049880000016914367300626503063_"  overflow="visible"/>
						</clipPath>
						<g id="Group_7772" clip-path="url(#SVGID_00000010999424475768454940000009564818017942950845_)">
							
								<linearGradient id="Rectangle_2551_00000137854295372550313130000013940640046191498911_" gradientUnits="userSpaceOnUse" x1="563.9499" y1="-1665.8595" x2="563.9499" y2="-1664.8595" gradientTransform="matrix(-1.527 0 0 0.966 1296.9015 1847.8282)">
								<stop  offset="0" style="stop-color:#617096"/>
								<stop  offset="1" style="stop-color:#1F2940"/>
							</linearGradient>
							
								<rect id="Rectangle_2551" x="435" y="238.6" fill="url(#Rectangle_2551_00000137854295372550313130000013940640046191498911_)" width="1.5" height="1"/>
						</g>
					</g>
				</g>
			</g>
		</g>
		<g id="Group_7775" transform="translate(307.362 208.331)">
			<g>
				<g>
					<g>
						<defs>
							<path id="SVGID_00000146462629855449410990000000188095953217150098_" d="M602.2,283.4c-3.4,2.2-6.8,4.3-10.4,6.4
								c-36.1,20.9-82.4,34.6-132.6,39.3c-1.7-3.2-7.1-5.3-13.1-5c-2.6,0.1-5.1,0.8-7.4,2.1c-2.6,1.5-4,3.6-3.6,5.8
								c0.7,3.9,6.8,6.8,13.6,6.3c2.6-0.1,5.1-0.8,7.4-2.1c2-1.2,3.4-2.8,3.6-4.5c51.3-4.8,98.6-18.8,135.4-40.1
								c3.6-2.1,7.2-4.3,10.6-6.5c21.1-13.8,36.8-29.2,47.1-45.5c-1.5-0.2-2.9-0.6-4.3-1.1C638.4,254.7,623,269.9,602.2,283.4"/>
						</defs>
						<clipPath id="SVGID_00000044178115191843689980000009042386324847947168_">
							<use xlink:href="#SVGID_00000146462629855449410990000000188095953217150098_"  overflow="visible"/>
						</clipPath>
						<g id="Group_7774" clip-path="url(#SVGID_00000044178115191843689980000009042386324847947168_)">
							
								<linearGradient id="Rectangle_2552_00000036973779588914507590000001114394522810424963_" gradientUnits="userSpaceOnUse" x1="701.579" y1="-690.5606" x2="701.579" y2="-689.5609" gradientTransform="matrix(-218.157 0 0 100.23 153598.1719 69453.4922)">
								<stop  offset="0" style="stop-color:#617096"/>
								<stop  offset="1" style="stop-color:#1F2940"/>
							</linearGradient>
							
								<rect id="Rectangle_2552" x="434.7" y="238.6" fill="url(#Rectangle_2552_00000036973779588914507590000001114394522810424963_)" width="218.2" height="100.2"/>
						</g>
					</g>
				</g>
			</g>
		</g>
	</g>
</g>
</svg>
