<?xml version="1.0" encoding="utf-8"?>
<!-- Generator: Adobe Illustrator 26.3.1, SVG Export Plug-In . SVG Version: 6.00 Build 0)  -->
<svg version="1.1" id="Layer_1" xmlns="http://www.w3.org/2000/svg" xmlns:xlink="http://www.w3.org/1999/xlink" x="0px" y="0px"
	 viewBox="0 0 554.1 326" enable-background="new 0 0 554.1 326" xml:space="preserve">
<g id="Group_7753" transform="translate(0)">
	<g>
		<g>
			<g>
				<defs>
					<path id="SVGID_1_" d="M260.3,326c10.1,0,20.3-0.3,30.5-1c64.9-4,124.9-20.5,170.9-46.7c4.6-2.7,9.1-5.4,13.5-8.2
						c53.2-34.8,75.9-78.9,69.5-121.6c1.4-0.3,2.8-0.7,4.1-1.2l-0.8-0.5l2.7-1.5l0.8,0.5c2-1.5,2.9-3.3,2.7-5.2
						c-0.2-2.1-1.8-4-4.6-5.4c-2.7-1.3-5.6-1.9-8.5-2c-0.7-2.3-1.6-4.6-2.5-6.9c1.3-0.4,2.6-0.9,3.7-1.5c0.2-0.1,0.4-0.3,0.6-0.4
						c2.4-1.6,3.7-3.6,3.5-5.7s-1.8-4-4.6-5.4c-3.3-1.5-6.9-2.2-10.5-1.9c-15.4-26.7-43-51.4-82.5-71.1c-11-5.5-22.4-10.4-33.9-14.6
						c-1.1-0.4-2.2-0.8-3.3-1.2C303.4-14,161.5-6.6,66.6,44.6c-5.5-2.3-13.2-1.9-18,0.9c-0.1,0.1-0.3,0.2-0.4,0.3
						c-5.2,3.3-4.9,8.3,0.8,11.3c5.5,2.9,14.1,2.8,19.4-0.2c0.1-0.1,0.3-0.2,0.4-0.3c4.5-2.8,4.9-7,1.2-10
						c92.8-50.2,231.5-57.5,337.8-20.2c1.1,0.4,2.2,0.8,3.4,1.2c11.9,4.3,23.5,9.2,34.7,14.8c38.8,19.4,65.9,43.7,81,69.8
						c-1.3,0.3-2.6,0.9-3.8,1.5c-0.2,0.1-0.4,0.2-0.6,0.4c-5,3.3-4.5,8.2,1.2,11.1c3.3,1.5,6.9,2.2,10.5,1.9
						c0.9,2.2,1.6,4.4,2.3,6.5c-2,0.3-3.9,1-5.6,1.9c-0.2,0.1-0.4,0.2-0.6,0.4c-5,3.3-4.5,8.2,1.1,11.1c2.7,1.3,5.7,2,8.7,2
						c6.2,41.9-16.1,85.3-68.3,119.4c-4.3,2.8-8.7,5.5-13.3,8.1c-45.2,25.8-104.2,42-168,45.9c-47,2.9-93.7-1-136.4-11
						c-1.2-0.3-2.4-0.6-3.7-0.9c-12.7-3.1-25.3-6.9-37.6-11.3c0.1,1.1,0.1,2.1,0.1,3.2c12,4.2,24.5,7.9,37.3,11
						c1.2,0.3,2.4,0.6,3.7,0.9c34.7,7.9,70.2,11.9,105.8,11.8L260.3,326L260.3,326z"/>
				</defs>
				<clipPath id="SVGID_00000167393012044703484120000009936662208148961182_">
					<use xlink:href="#SVGID_1_"  overflow="visible"/>
				</clipPath>
				<g id="Group_7752" clip-path="url(#SVGID_00000167393012044703484120000009936662208148961182_)">
					
						<linearGradient id="Rectangle_2541_00000093140268544707027950000011190975934937713577_" gradientUnits="userSpaceOnUse" x1="968.7833" y1="-21.5574" x2="968.7833" y2="-20.5575" gradientTransform="matrix(511.523 0 0 -340.124 -495256.4062 -7006.1914)">
						<stop  offset="0" style="stop-color:#617096"/>
						<stop  offset="1" style="stop-color:#1F2940"/>
					</linearGradient>
					
						<rect id="Rectangle_2541" x="42.8" y="-14.1" fill="url(#Rectangle_2541_00000093140268544707027950000011190975934937713577_)" width="511.5" height="340.1"/>
				</g>
			</g>
		</g>
	</g>
</g>
</svg>
