<svg xmlns="http://www.w3.org/2000/svg" xmlns:xlink="http://www.w3.org/1999/xlink" width="1453.255" height="1573.743" viewBox="0 0 1453.255 1573.743">
  <defs>
    <clipPath id="clip-path">
      <rect id="Rect치ngulo_5593" data-name="Rect치ngulo 5593" width="1367.08" height="1214.722" fill="#f5f5f5"/>
    </clipPath>
  </defs>
  <g id="Grupo_32855" data-name="Grupo 32855" transform="translate(260.851 1573.743) rotate(-101)" clip-path="url(#clip-path)">
    <path id="Uni칩n_6" data-name="Uni칩n 6" d="M363.985,1214.611a.117.117,0,1,1,.233,0,.117.117,0,0,1-.233,0Zm421.045-8.163a3.677,3.677,0,1,1,3.687,3.678A3.683,3.683,0,0,1,785.03,1206.448Zm-32.023,0a3.678,3.678,0,1,1,3.679,3.678A3.677,3.677,0,0,1,753.007,1206.448Zm-31.295-1.309a2.969,2.969,0,1,1,2.97,2.969A2.977,2.977,0,0,1,721.712,1205.14Zm97.808,0a1.192,1.192,0,1,1,1.193,1.193A1.194,1.194,0,0,1,819.52,1205.14Zm-292.37-.1a1.068,1.068,0,1,1,1.064,1.069A1.068,1.068,0,0,1,527.149,1205.04Zm162.637-2.512a2.972,2.972,0,1,1,2.975,2.972A2.971,2.971,0,0,1,689.786,1202.528Zm162.5,0a.353.353,0,0,1,.35-.354.355.355,0,1,1,0,.709A.351.351,0,0,1,852.281,1202.531Zm-194.636-3.909a3.322,3.322,0,1,1,3.326,3.324A3.324,3.324,0,0,1,657.646,1198.622Zm226.425,0a.365.365,0,0,1,.35-.365.359.359,0,0,1,.359.365.348.348,0,0,1-.359.35A.353.353,0,0,1,884.07,1198.622Zm-258.991-5.212a4.281,4.281,0,1,1,4.282,4.28A4.269,4.269,0,0,1,625.079,1193.409Zm-127.6,1.492a.35.35,0,0,1,.35-.354.357.357,0,1,1,0,.715A.354.354,0,0,1,497.483,1194.9Zm-96.508-1.733a.116.116,0,1,1,.231,0,.115.115,0,0,1-.121.115A.113.113,0,0,1,400.976,1193.168Zm191.315-6.245a5.7,5.7,0,1,1,5.7,5.7A5.7,5.7,0,0,1,592.291,1186.923Zm-124.539-3.329a.118.118,0,0,1,.123-.121.12.12,0,0,1,0,.239A.117.117,0,0,1,467.752,1183.594Zm95.364-4.432a3.8,3.8,0,1,1,3.8,3.8A3.807,3.807,0,0,1,563.116,1179.162Zm-39.274-9.022a12.349,12.349,0,1,1,12.352,12.351A12.35,12.35,0,0,1,523.842,1170.14Zm230.755.741a10.09,10.09,0,1,1,10.094,10.1A10.086,10.086,0,0,1,754.6,1170.881Zm-32.969-1.032a11.042,11.042,0,1,1,11.053,11.047A11.052,11.052,0,0,1,721.628,1169.849Zm65,.688a10.09,10.09,0,1,1,10.083,10.1A10.086,10.086,0,0,1,786.633,1170.537Zm31.269-1.707a10.8,10.8,0,1,1,10.8,10.8A10.8,10.8,0,0,1,817.9,1168.83Zm-128.93-1.372a11.762,11.762,0,1,1,11.763,11.757A11.758,11.758,0,0,1,688.972,1167.458Zm-316.593,11.281a.116.116,0,0,1,.11-.124.118.118,0,0,1,.121.124.114.114,0,0,1-.121.11A.111.111,0,0,1,372.379,1178.739Zm477.627-12.989a10.572,10.572,0,1,1,10.572,10.569A10.564,10.564,0,0,1,850.006,1165.75Zm-192.36-2.044a11.285,11.285,0,1,1,11.283,11.281A11.286,11.286,0,0,1,657.646,1163.706Zm-220.109,7.415a.83.83,0,1,1,.825.83A.828.828,0,0,1,437.536,1171.121Zm570.95-.98a.715.715,0,0,1,1.43,0,.715.715,0,0,1-1.43,0Zm-124.615-8.825a8.428,8.428,0,1,1,8.433,8.434A8.432,8.432,0,0,1,883.871,1161.315ZM626.387,1158.6a10.92,10.92,0,1,1,10.919,10.927A10.922,10.922,0,0,1,626.387,1158.6Zm-129.909,1.274a9.375,9.375,0,1,1,9.368,9.382A9.373,9.373,0,0,1,496.478,1159.871Zm-277.02,6.594a.117.117,0,0,1,.123-.118.117.117,0,0,1,0,.234A.117.117,0,0,1,219.458,1166.465Zm374.362-14.323a12.117,12.117,0,1,1,12.122,12.111A12.116,12.116,0,0,1,593.82,1152.142Zm-249.479,11.1c0-.068.115-.121.115-.121a.113.113,0,0,1,.118.121.119.119,0,0,1-.118.121A.129.129,0,0,1,344.342,1163.241Zm573.522-7.708a5.941,5.941,0,1,1,5.942,5.94A5.946,5.946,0,0,1,917.864,1155.533Zm121.57,4.337a.118.118,0,0,1,.11-.121.121.121,0,1,1,0,.242A.117.117,0,0,1,1039.435,1159.871Zm-630.887-2.365a.83.83,0,1,1,.825.831A.831.831,0,0,1,408.548,1157.506Zm154.329-13.165a12,12,0,1,1,11.99,12A11.987,11.987,0,0,1,562.877,1144.341Zm-91.432,4.033a4.514,4.514,0,1,1,4.508,4.514A4.506,4.506,0,0,1,471.445,1148.374Zm480.62.026a2.968,2.968,0,1,1,2.968,2.974A2.968,2.968,0,0,1,952.065,1148.4Zm-518.213-12.729a12.7,12.7,0,1,1,12.7,12.7A12.7,12.7,0,0,1,433.853,1135.671Zm-239.778,11.263a.124.124,0,0,1,.126-.126.12.12,0,0,1,.112.126.113.113,0,0,1-.112.11A.118.118,0,0,1,194.074,1146.934Zm122.835-.229a.121.121,0,0,1,.12-.116.113.113,0,0,1,.11.116.115.115,0,0,1-.11.124A.122.122,0,0,1,316.909,1146.706Zm215.976-11.481a11.285,11.285,0,1,1,11.284,11.282A11.28,11.28,0,0,1,532.885,1135.225Zm229.008.011a10.8,10.8,0,1,1,10.808,10.811A10.807,10.807,0,0,1,761.893,1135.235Zm32.015-.712a10.81,10.81,0,1,1,10.809,10.8A10.813,10.813,0,0,1,793.907,1134.523Zm-62.969,0a9.735,9.735,0,1,1,9.737,9.734A9.745,9.745,0,0,1,730.938,1134.523Zm-33.146-2.16a10.926,10.926,0,1,1,10.932,10.929A10.924,10.924,0,0,1,697.792,1132.364Zm-316.97,10.406a.114.114,0,0,1,.111-.121.116.116,0,1,1,0,.231A.112.112,0,0,1,380.822,1142.77Zm445.646-10.406a10.206,10.206,0,1,1,10.212,10.212A10.214,10.214,0,0,1,826.469,1132.364Zm158.738,7.587a.714.714,0,1,1,1.429,0,.714.714,0,0,1-1.429,0Zm-126.926-11.174A10.217,10.217,0,1,1,868.494,1139,10.216,10.216,0,0,1,858.281,1128.777Zm-190.657,0a9.267,9.267,0,1,1,9.273,9.266A9.269,9.269,0,0,1,667.624,1128.775Zm-165.03-3.962a11.281,11.281,0,1,1,11.286,11.281A11.283,11.283,0,0,1,502.594,1124.813Zm596.137,10.856c0-.074.037-.126.11-.126a.115.115,0,0,1,.11.126.111.111,0,0,1-.11.113A.106.106,0,0,1,1098.73,1135.669Zm-87.888-5.491a5.587,5.587,0,1,1,5.581,5.583A5.582,5.582,0,0,1,1010.843,1130.178ZM633.5,1123.765a11.756,11.756,0,1,1,11.751,11.757A11.749,11.749,0,0,1,633.5,1123.765Zm257.966,0a8.671,8.671,0,1,1,8.673,8.667A8.672,8.672,0,0,1,891.468,1123.765Zm-484.215-2a10.448,10.448,0,1,1,10.448,10.451A10.443,10.443,0,0,1,407.253,1121.766Zm193.324-4.421a13.3,13.3,0,1,1,13.3,13.3A13.295,13.295,0,0,1,600.577,1117.344Zm-310.458,11.825a.108.108,0,0,1,.11-.123.114.114,0,0,1,.112.123.112.112,0,0,1-.112.116A.106.106,0,0,1,290.119,1129.169Zm62.249-2.233a.727.727,0,0,1,.725-.714.714.714,0,1,1-.725.714Zm569.539-9.589a9.613,9.613,0,1,1,9.607,9.621A9.614,9.614,0,0,1,921.907,1117.347ZM471.826,1113.1a12.232,12.232,0,1,1,12.238,12.238A12.234,12.234,0,0,1,471.826,1113.1Zm569.077,6.011a5.583,5.583,0,1,1,5.583,5.588A5.57,5.57,0,0,1,1040.9,1119.115Zm-470.549-9.592a12.466,12.466,0,1,1,12.46,12.463A12.464,12.464,0,0,1,570.354,1109.523Zm383.313-.005a8.91,8.91,0,1,1,8.912,8.9A8.9,8.9,0,0,1,953.667,1109.518Zm-414.111-9.211a12.587,12.587,0,1,1,12.587,12.587A12.586,12.586,0,0,1,539.556,1100.307Zm-96.3-.16a11.518,11.518,0,1,1,11.512,11.512A11.52,11.52,0,0,1,443.256,1100.146ZM768.6,1099.5a12.1,12.1,0,1,1,12.108,12.122A12.1,12.1,0,0,1,768.6,1099.5ZM264,1110.629a.113.113,0,0,1,.11-.124.12.12,0,0,1,.111.124.118.118,0,0,1-.111.121A.111.111,0,0,1,264,1110.629Zm536.474-12.256a12.234,12.234,0,1,1,12.24,12.227A12.238,12.238,0,0,1,800.473,1098.373Zm-63.194.757a11.4,11.4,0,1,1,11.4,11.4A11.4,11.4,0,0,1,737.278,1099.13Zm-411.742,10.9a.355.355,0,1,1,.709,0,.355.355,0,0,1-.709,0Zm60.452-3.326a3.439,3.439,0,1,1,3.449,3.444A3.449,3.449,0,0,1,385.988,1106.7Zm-182.443,2.225a.468.468,0,1,1,.476.478A.468.468,0,0,1,203.545,1108.929Zm780.685-8.623a9.021,9.021,0,1,1,9.019,9.027A9.025,9.025,0,0,1,984.229,1100.307Zm90.034,6.481a1.783,1.783,0,1,1,1.778,1.776A1.776,1.776,0,0,1,1074.264,1106.788Zm-240.675-11.061a11.043,11.043,0,1,1,11.05,11.042A11.046,11.046,0,0,1,833.589,1095.728Zm-125.559,1.511a8.672,8.672,0,1,1,8.672,8.669A8.676,8.676,0,0,1,708.03,1097.238Zm-32.914-3.4a9.735,9.735,0,1,1,9.733,9.742A9.738,9.738,0,0,1,675.116,1093.833Zm190.829-2.262a10.45,10.45,0,1,1,10.448,10.454A10.454,10.454,0,0,1,865.945,1091.571Zm-224.606-2.63a11.872,11.872,0,1,1,11.861,11.877A11.866,11.866,0,0,1,641.339,1088.941Zm-130.115.783a10.69,10.69,0,1,1,10.688,10.692A10.687,10.687,0,0,1,511.224,1089.725Zm588.358,3.47a5.466,5.466,0,1,1,5.465,5.465A5.461,5.461,0,0,1,1099.582,1093.195Zm-84.656-3.47a8.55,8.55,0,1,1,8.557,8.554A8.551,8.551,0,0,1,1014.926,1089.725Zm-600.737-3.783a11.872,11.872,0,1,1,11.872,11.872A11.876,11.876,0,0,1,414.188,1085.941Zm-58.92,4.558a6.534,6.534,0,1,1,6.539,6.531A6.538,6.538,0,0,1,355.269,1090.5Zm542.558-4.569a10.1,10.1,0,1,1,10.1,10.094A10.094,10.094,0,0,1,897.826,1085.931Zm-287.886-3.376a11.874,11.874,0,1,1,11.886,11.873A11.875,11.875,0,0,1,609.94,1082.555Zm-310.931,9.519a.357.357,0,0,1,.359-.354.355.355,0,0,1,0,.709A.359.359,0,0,1,299.01,1092.073Zm-60.423-.941a.107.107,0,0,1,.109-.118.117.117,0,0,1,.113.118.119.119,0,0,1-.113.121A.11.11,0,0,1,238.587,1091.132Zm241.25-13.328a12.349,12.349,0,1,1,12.351,12.348A12.355,12.355,0,0,1,479.837,1077.8Zm449.217,1a10.1,10.1,0,1,1,10.1,10.088A10.091,10.091,0,0,1,929.054,1078.809Zm-350.632-4.123a12.349,12.349,0,1,1,12.34,12.351A12.343,12.343,0,0,1,578.422,1074.686Zm467.3,3.116a7.483,7.483,0,1,1,7.483,7.477A7.48,7.48,0,0,1,1045.724,1077.8ZM386,1070.522a11.994,11.994,0,1,1,12,12A12,12,0,0,1,386,1070.522Zm745.554,7.869a1.9,1.9,0,1,1,1.9,1.894A1.895,1.895,0,0,1,1131.55,1078.391Zm-171.4-8.176a9.852,9.852,0,1,1,9.847,9.852A9.857,9.857,0,0,1,960.148,1070.215Zm-411.185-4.845a11.164,11.164,0,1,1,11.157,11.163A11.164,11.164,0,0,1,548.964,1065.37Zm-97.7-.814a11.757,11.757,0,1,1,11.763,11.754A11.754,11.754,0,0,1,451.266,1064.556Zm294.134-.891a11.281,11.281,0,1,1,11.286,11.281A11.284,11.284,0,0,1,745.4,1063.666Zm-412.084,9.523a1.544,1.544,0,1,1,1.55,1.54A1.55,1.55,0,0,1,333.315,1073.189Zm445.182-9.523a10.211,10.211,0,1,1,10.209,10.212A10.209,10.209,0,0,1,778.5,1063.666ZM273.215,1073.1a.35.35,0,1,1,.7,0,.35.35,0,1,1-.7,0Zm800.718-8.543a8.433,8.433,0,1,1,8.434,8.433A8.434,8.434,0,0,1,1073.933,1064.556Zm-263.917-2.488a10.687,10.687,0,1,1,10.687,10.688A10.689,10.689,0,0,1,810.016,1062.068Zm-95.775,0a10.45,10.45,0,1,1,10.451,10.451A10.448,10.448,0,0,1,714.24,1062.068Zm276.082-1.9a10.1,10.1,0,1,1,10.1,10.1A10.086,10.086,0,0,1,990.322,1060.168Zm-148.2-1.292a10.45,10.45,0,1,1,10.448,10.456A10.445,10.445,0,0,1,842.124,1058.876Zm-159.754,0a10.455,10.455,0,1,1,10.459,10.454A10.454,10.454,0,0,1,682.37,1058.878Zm-324.117-4.962a12.353,12.353,0,1,1,12.348,12.348A12.352,12.352,0,0,1,358.253,1053.916Zm160.18.69a11.519,11.519,0,1,1,11.525,11.526A11.522,11.522,0,0,1,518.433,1054.606Zm-220.716.182a10.927,10.927,0,1,1,10.932,10.921A10.921,10.921,0,0,1,297.717,1054.788Zm861.329,7.582a2.138,2.138,0,1,1,2.139,2.13A2.142,2.142,0,0,1,1159.046,1062.37ZM873.911,1054.1a10.329,10.329,0,1,1,10.335,10.333A10.33,10.33,0,0,1,873.911,1054.1Zm-222.976-.005a10.217,10.217,0,1,1,10.212,10.222A10.217,10.217,0,0,1,650.936,1054.1Zm-226.785-4.085a10.333,10.333,0,1,1,10.333,10.328A10.332,10.332,0,0,1,424.15,1050.014Zm480.084-2.249a11.4,11.4,0,1,1,11.4,11.4A11.4,11.4,0,0,1,904.234,1047.766Zm-285.521-.005a11.042,11.042,0,1,1,11.05,11.042A11.057,11.057,0,0,1,618.713,1047.76Zm403.293.943a8.311,8.311,0,1,1,8.317,8.313A8.316,8.316,0,0,1,1022.006,1048.7Zm82.723,1.311a6.175,6.175,0,1,1,6.182,6.174A6.181,6.181,0,0,1,1104.729,1050.014Zm-616.151-7.569a11.757,11.757,0,1,1,11.752,11.749A11.749,11.749,0,0,1,488.577,1042.445Zm-240.764,10.677a.719.719,0,0,1,.714-.715.713.713,0,1,1-.714.715Zm687.574-13.265a11.285,11.285,0,1,1,11.286,11.279A11.28,11.28,0,0,1,935.388,1039.857Zm-347.589.005a10.921,10.921,0,1,1,10.921,10.924A10.923,10.923,0,0,1,587.8,1039.863Zm-256.2-3.7a12.349,12.349,0,1,1,12.351,12.348A12.353,12.353,0,0,1,331.6,1036.164Zm854.478,9.022a2.137,2.137,0,1,1,2.139,2.136A2.14,2.14,0,0,1,1186.077,1045.186Zm-789.788-10.974a10.338,10.338,0,1,1,10.338,10.333A10.334,10.334,0,0,1,396.289,1034.212Zm654.929,1.624a8.434,8.434,0,1,1,8.433,8.428A8.437,8.437,0,0,1,1051.218,1035.835Zm-494.381-5.417A11.28,11.28,0,1,1,568.11,1041.7,11.282,11.282,0,0,1,556.837,1030.418ZM276.9,1035.329a6.291,6.291,0,1,1,6.3,6.289A6.3,6.3,0,0,1,276.9,1035.329Zm689.687-4.911a10.69,10.69,0,1,1,10.693,10.688A10.685,10.685,0,0,1,966.588,1030.418Zm165.521,3.794a6.651,6.651,0,1,1,6.657,6.649A6.654,6.654,0,0,1,1132.109,1034.212Zm-672.321-5.323a11.519,11.519,0,1,1,11.525,11.518A11.521,11.521,0,0,1,459.788,1028.889Zm295.158-.762a9.74,9.74,0,1,1,9.744,9.739A9.743,9.743,0,0,1,754.946,1028.127Zm32.025-.423a9.74,9.74,0,1,1,9.734,9.739A9.741,9.741,0,0,1,786.972,1027.7Zm-64.618-.849a10.327,10.327,0,1,1,10.333,10.333A10.332,10.332,0,0,1,722.354,1026.855Zm96.936-1.264a9.38,9.38,0,1,1,9.393,9.382A9.388,9.388,0,0,1,819.289,1025.592Zm-127.521-1.687a9.026,9.026,0,1,1,9.029,9.024A9.033,9.033,0,0,1,691.768,1023.905Zm-467.6,8.278a.115.115,0,0,1,.121-.116.119.119,0,0,1,.118.116.123.123,0,0,1-.118.124A.118.118,0,0,1,224.163,1032.184Zm302.566-12.718a11.281,11.281,0,1,1,11.292,11.281A11.29,11.29,0,0,1,526.729,1019.465Zm325.431,2.328a8.313,8.313,0,1,1,8.317,8.313A8.319,8.319,0,0,1,852.16,1021.793ZM305.6,1017.285a12.47,12.47,0,1,1,12.471,12.461A12.474,12.474,0,0,1,305.6,1017.285Zm691.557,2.175a10.212,10.212,0,1,1,10.212,10.212A10.208,10.208,0,0,1,997.158,1019.46Zm83.584,2.144a7.6,7.6,0,1,1,7.6,7.6A7.6,7.6,0,0,1,1080.742,1021.6Zm-712.4-4.435a11.16,11.16,0,1,1,11.164,11.163A11.164,11.164,0,0,1,368.346,1017.169Zm291.849,2.094a8.91,8.91,0,1,1,8.911,8.911A8.909,8.909,0,0,1,660.194,1019.263Zm553.1,7.592a1.19,1.19,0,1,1,1.19,1.188A1.184,1.184,0,0,1,1213.295,1026.855Zm-330.754-10.527a9.5,9.5,0,1,1,9.487,9.5A9.5,9.5,0,0,1,882.541,1016.329Zm-451.095-2.354A11.518,11.518,0,1,1,442.97,1025.5,11.522,11.522,0,0,1,431.446,1013.975Zm196.407-1a9.851,9.851,0,1,1,9.844,9.852A9.847,9.847,0,0,1,627.854,1012.974Zm-376.527,1.884a7.244,7.244,0,1,1,7.243,7.243A7.244,7.244,0,0,1,251.326,1014.857Zm909.806,2.317a4.751,4.751,0,1,1,4.75,4.753A4.751,4.751,0,0,1,1161.132,1017.174Zm-1049.768,3.3a.126.126,0,0,1,.11-.126.121.121,0,0,1,.124.126.115.115,0,0,1-.124.111A.119.119,0,0,1,111.364,1020.471Zm801.8-11.271a10.1,10.1,0,1,1,10.094,10.089A10.094,10.094,0,0,1,913.161,1009.2Zm-416.18-2.18a11.523,11.523,0,1,1,11.523,11.522A11.52,11.52,0,0,1,496.981,1007.021Zm530.41,0a9.5,9.5,0,1,1,9.5,9.5A9.5,9.5,0,0,1,1027.392,1007.021Zm-431.762-2a11.048,11.048,0,1,1,11.048,11.047A11.04,11.04,0,0,1,595.63,1005.016Zm513.095,1.012a7.6,7.6,0,1,1,7.6,7.6A7.6,7.6,0,0,1,1108.725,1006.027Zm-165.354-5.588a10.69,10.69,0,1,1,10.688,10.688A10.687,10.687,0,0,1,943.371,1000.439Zm-601.717-1.508a11.522,11.522,0,1,1,11.522,11.523A11.523,11.523,0,0,1,341.654,998.931Zm-140.9,11.4a.117.117,0,1,1,.233,0,.117.117,0,0,1-.233,0ZM404.2,997.751a11.159,11.159,0,1,1,11.16,11.158A11.164,11.164,0,0,1,404.2,997.751Zm-121.85-.438A10.69,10.69,0,1,1,293.035,1008,10.687,10.687,0,0,1,282.348,997.313Zm283.44-1.863a10.328,10.328,0,1,1,10.322,10.328A10.328,10.328,0,0,1,565.788,995.45Zm-421.043,8.606a.116.116,0,0,1,.11-.115.119.119,0,0,1,.124.115.122.122,0,0,1-.124.124A.12.12,0,0,1,144.745,1004.057ZM468.731,993.12a10.92,10.92,0,1,1,10.922,10.932A10.91,10.91,0,0,1,468.731,993.12Zm-244.39.268a10.45,10.45,0,1,1,10.451,10.454A10.454,10.454,0,0,1,224.342,993.388Zm832.138-.268a9.265,9.265,0,1,1,9.262,9.271A9.257,9.257,0,0,1,1056.479,993.12Zm-291.747-.628a7.963,7.963,0,1,1,7.968,7.958A7.961,7.961,0,0,1,764.732,992.492Zm426.292,6.434a1.186,1.186,0,1,1,1.192,1.19A1.181,1.181,0,0,1,1191.024,998.926Zm-458.771-7.333a8.428,8.428,0,1,1,8.423,8.434A8.43,8.43,0,0,1,732.253,991.593Zm242.61-1.54a9.5,9.5,0,1,1,9.5,9.5A9.5,9.5,0,0,1,974.863,990.054Zm-178.1,1.54a7.958,7.958,0,1,1,7.947,7.958A7.952,7.952,0,0,1,796.761,991.593Zm338.6-2.451a8.19,8.19,0,1,1,8.186,8.2A8.189,8.189,0,0,1,1135.359,989.142ZM700.571,988.9a8.2,8.2,0,1,1,8.193,8.194A8.2,8.2,0,0,1,700.571,988.9ZM90.3,996.338a.118.118,0,0,1,.121-.116.115.115,0,0,1,.11.116.113.113,0,0,1-.11.121A.116.116,0,0,1,90.3,996.338ZM829.732,988.9a6.894,6.894,0,1,1,6.894,6.889A6.893,6.893,0,0,1,829.732,988.9Zm-293.727-4.624a10.09,10.09,0,1,1,10.084,10.088A10.082,10.082,0,0,1,536.006,984.277Zm131.786.152a9.265,9.265,0,1,1,9.261,9.263A9.264,9.264,0,0,1,667.792,984.429Zm-290.768-4.207a11.519,11.519,0,1,1,11.517,11.523A11.515,11.515,0,0,1,377.024,980.223Zm484.423,4.2a6.894,6.894,0,1,1,6.895,6.891A6.9,6.9,0,0,1,861.447,984.421Zm-545.5-4.9A11.757,11.757,0,1,1,327.7,991.286,11.744,11.744,0,0,1,315.944,979.524ZM440,977.806a11.519,11.519,0,1,1,11.526,11.523A11.521,11.521,0,0,1,440,977.806Zm-182.652-1.521A11.519,11.519,0,1,1,268.859,987.8,11.521,11.521,0,0,1,257.348,976.285Zm-79.132,11.281a.12.12,0,0,1,.11-.116.115.115,0,0,1,.121.116.116.116,0,0,1-.121.121A.121.121,0,0,1,178.216,987.566Zm826.482-9.477a9.375,9.375,0,1,1,9.371,9.382A9.368,9.368,0,0,1,1004.7,978.089Zm79.672-.281a9.5,9.5,0,1,1,9.5,9.5A9.5,9.5,0,0,1,1084.37,977.809Zm-447.4.37a8.667,8.667,0,1,1,8.673,8.667A8.665,8.665,0,0,1,636.972,978.179Zm255.417,0a7.365,7.365,0,1,1,7.368,7.361A7.368,7.368,0,0,1,892.389,978.179Zm322.217,1.345a3.091,3.091,0,1,1,3.093,3.09A3.094,3.094,0,0,1,1214.605,979.524Zm-707.992-8a10.095,10.095,0,1,1,10.1,10.1A10.1,10.1,0,0,1,506.613,971.524ZM123.4,980.176a.121.121,0,1,1,.12.121A.122.122,0,0,1,123.4,980.176Zm482.326-10a8.905,8.905,0,1,1,8.912,8.906A8.91,8.91,0,0,1,605.724,970.179Zm556.144.822a8.073,8.073,0,1,1,8.068,8.073A8.076,8.076,0,0,1,1161.867,971ZM924,970.184a6.768,6.768,0,1,1,6.757,6.768A6.769,6.769,0,0,1,924,970.184Zm109.735-5.6a9.375,9.375,0,1,1,9.368,9.379A9.374,9.374,0,0,1,1033.736,964.583Zm-824.554,6.384a2.736,2.736,0,1,1,2.743,2.737A2.735,2.735,0,0,1,209.183,970.967Zm142-9.508a11.4,11.4,0,1,1,11.4,11.407A11.4,11.4,0,0,1,351.183,961.459Zm61.363-.347a11.642,11.642,0,1,1,11.646,11.633A11.646,11.646,0,0,1,412.546,961.113ZM291.349,959a11.762,11.762,0,1,1,11.762,11.762A11.761,11.761,0,0,1,291.349,959Zm821.666,2.1a8.19,8.19,0,1,1,8.187,8.2A8.192,8.192,0,0,1,1113.015,961.1Zm-537.569-.654a8.671,8.671,0,1,1,8.662,8.672A8.658,8.658,0,0,1,575.445,960.451Zm-97.259-3.195a9.857,9.857,0,1,1,9.857,9.857A9.858,9.858,0,0,1,478.187,957.256Zm476.794,3.195a6.3,6.3,0,1,1,6.306,6.294A6.294,6.294,0,0,1,954.98,960.451Zm-721.47-6.195a12.111,12.111,0,1,1,12.111,12.114A12.114,12.114,0,0,1,233.511,954.256Zm-76.925,9.7c0-.074.037-.126.113-.126s.11.052.11.126a.1.1,0,0,1-.11.11A.106.106,0,0,1,156.586,963.953Zm586.041-7.682a6.053,6.053,0,1,1,6.059,6.053A6.057,6.057,0,0,1,742.627,956.271ZM18.2,961.688a.112.112,0,0,1,.11-.116.115.115,0,0,1,.123.116.119.119,0,0,1-.123.121A.117.117,0,0,1,18.2,961.688Zm757.765-4.937a4.746,4.746,0,1,1,4.75,4.753A4.74,4.74,0,0,1,775.961,956.751ZM1240.384,959a1.9,1.9,0,1,1,1.9,1.9A1.9,1.9,0,0,1,1240.384,959Zm-529.7-5.128a6.059,6.059,0,1,1,6.059,6.059A6.06,6.06,0,0,1,710.686,953.872Zm97.739,1.437a4.276,4.276,0,1,1,4.272,4.28A4.269,4.269,0,0,1,808.425,955.309Zm254.185-5.759a8.788,8.788,0,1,1,8.782,8.788A8.781,8.781,0,0,1,1062.609,949.55Zm-517.09-.523a8.671,8.671,0,1,1,8.672,8.67A8.67,8.67,0,0,1,545.52,949.027Zm644.346,2.593a5.582,5.582,0,1,1,5.583,5.58A5.577,5.577,0,0,1,1189.865,951.621Zm-511.513-2.044a6.651,6.651,0,1,1,6.658,6.647A6.661,6.661,0,0,1,678.353,949.577Zm305.956-.549a6.894,6.894,0,1,1,6.894,6.889A6.891,6.891,0,0,1,984.309,949.027Zm-143.671,2.935a3.916,3.916,0,1,1,3.915,3.917A3.921,3.921,0,0,1,840.638,951.962ZM102.963,955.52a.118.118,0,0,1,.12-.129.116.116,0,0,1,.113.129.112.112,0,0,1-.113.11A.114.114,0,0,1,102.963,955.52Zm283.843-12.461a10.926,10.926,0,1,1,10.921,10.932A10.915,10.915,0,0,1,386.806,943.059Zm61.962-1.571a11.4,11.4,0,1,1,11.4,11.4A11.4,11.4,0,0,1,448.768,941.487Zm689.153,1.571a9.74,9.74,0,1,1,9.744,9.742A9.744,9.744,0,0,1,1137.921,943.059Zm-811.654-1.566a11.281,11.281,0,1,1,11.276,11.273A11.278,11.278,0,0,1,326.267,941.493Zm545.727,5.223a4.152,4.152,0,1,1,4.15,4.164A4.148,4.148,0,0,1,871.993,946.715Zm-225.781-3.334a7.365,7.365,0,1,1,7.369,7.364A7.368,7.368,0,0,1,646.212,943.381Zm-378.86-5.99A12.111,12.111,0,1,1,279.463,949.5,12.117,12.117,0,0,1,267.352,937.392ZM189.138,947.64a.836.836,0,0,1,.835-.83.83.83,0,0,1,0,1.661A.836.836,0,0,1,189.138,947.64ZM515.7,935.947a9.258,9.258,0,1,1,9.259,9.266A9.256,9.256,0,0,1,515.7,935.947Zm386.566,3.641a5.106,5.106,0,1,1,5.1,5.1A5.109,5.109,0,0,1,902.267,939.588Zm109.861-3.639a8.313,8.313,0,1,1,8.308,8.318A8.313,8.313,0,0,1,1012.128,935.949Zm-396.906-.62a7.365,7.365,0,1,1,7.361,7.364A7.363,7.363,0,0,1,615.222,935.329Zm474.952-2.28a8.672,8.672,0,1,1,8.678,8.67A8.666,8.666,0,0,1,1090.174,933.049Zm-876.1-1.8a9.265,9.265,0,1,1,9.271,9.258A9.27,9.27,0,0,1,214.072,931.244Zm1000.35-.181a5.587,5.587,0,1,1,5.594,5.583A5.584,5.584,0,0,1,1214.422,931.063Zm-281.409-.449a5.106,5.106,0,1,1,5.1,5.107A5.091,5.091,0,0,1,933.013,930.614ZM0,935.334a.117.117,0,1,1,.233,0,.114.114,0,0,1-.12.116A.115.115,0,0,1,0,935.334Zm422.472-11.073a10.689,10.689,0,1,1,10.688,10.692A10.682,10.682,0,0,1,422.472,924.261Zm-60.84-.536a10.566,10.566,0,1,1,10.561,10.566A10.568,10.568,0,0,1,361.632,923.725Zm222.189,1.715a8.306,8.306,0,1,1,8.308,8.308A8.313,8.313,0,0,1,583.821,925.44Zm-281.507-5.073a11.159,11.159,0,1,1,11.16,11.163A11.159,11.159,0,0,1,302.314,920.368Zm184.937.882a9.253,9.253,0,1,1,9.258,9.259A9.256,9.256,0,0,1,487.251,921.25Zm679.293,2.475a6.65,6.65,0,1,1,6.654,6.652A6.653,6.653,0,0,1,1166.544,923.725Zm-124.427-2.47a6.772,6.772,0,1,1,6.768,6.768A6.774,6.774,0,0,1,1042.117,921.255Zm-877.276,2.173A4.154,4.154,0,1,1,169,927.582,4.148,4.148,0,0,1,164.841,923.428Zm80.348-8.686a11.634,11.634,0,1,1,11.636,11.633A11.633,11.633,0,0,1,245.188,914.743Zm717.966,5.063a5.106,5.106,0,1,1,5.106,5.1A5.114,5.114,0,0,1,963.154,919.805Zm-210.272,1.059a3.8,3.8,0,1,1,3.8,3.8A3.809,3.809,0,0,1,752.882,920.864Zm33.094,0a2.731,2.731,0,1,1,2.73,2.734A2.731,2.731,0,0,1,785.976,920.864Zm-65.522-2.055a4.275,4.275,0,1,1,4.27,4.282A4.271,4.271,0,0,1,720.453,918.81Zm397.214-3.686a7.719,7.719,0,1,1,7.72,7.719A7.722,7.722,0,0,1,1117.667,915.124Zm-300.913,3.691a3.916,3.916,0,1,1,3.914,3.917A3.914,3.914,0,0,1,816.754,918.814Zm-262.4-5.088a7.958,7.958,0,1,1,7.958,7.963A7.96,7.96,0,0,1,554.354,913.726Zm134.331.988a4.276,4.276,0,1,1,4.272,4.277A4.273,4.273,0,0,1,688.686,914.714ZM190.541,907.3a11.517,11.517,0,1,1,11.522,11.518A11.518,11.518,0,0,1,190.541,907.3Zm658.566,7.419a3.329,3.329,0,1,1,3.329,3.32A3.325,3.325,0,0,1,849.107,914.722Zm-452.7-9.074A10.688,10.688,0,1,1,407.1,916.335,10.682,10.682,0,0,1,396.41,905.647Zm891.335,9.1a.83.83,0,1,1,.824.83A.829.829,0,0,1,1287.745,914.743Zm-828.8-9.768a9.973,9.973,0,1,1,9.973,9.973A9.974,9.974,0,0,1,458.945,904.975Zm-342.786,9.29a.127.127,0,0,1,.126-.121.121.121,0,0,1,.11.121.117.117,0,0,1-.11.113A.124.124,0,0,1,116.159,914.265Zm220.579-11.126a10.927,10.927,0,1,1,10.921,10.921A10.918,10.918,0,0,1,336.738,903.138Zm902.555,6.237a4.282,4.282,0,1,1,4.282,4.28A4.274,4.274,0,0,1,1239.293,909.375Zm-247.642-2.162a6.058,6.058,0,1,1,6.059,6.058A6.062,6.062,0,0,1,991.651,907.213ZM657.01,908.6a4.514,4.514,0,1,1,4.519,4.508A4.509,4.509,0,0,1,657.01,908.6Zm223.773,0a3.091,3.091,0,1,1,3.093,3.084A3.1,3.1,0,0,1,880.783,908.6Zm189.634-3.625a6.059,6.059,0,1,1,6.059,6.059A6.056,6.056,0,0,1,1070.417,904.975Zm119.6-1.841a7.719,7.719,0,1,1,7.719,7.721A7.71,7.71,0,0,1,1190.016,903.133Zm-666.021-2.869a9.26,9.26,0,1,1,9.262,9.266A9.257,9.257,0,0,1,523.994,900.264Zm-244.959-2.141a11.4,11.4,0,1,1,11.4,11.4A11.392,11.392,0,0,1,279.035,898.123Zm345.573,2.349a5.936,5.936,0,1,1,5.94,5.943A5.946,5.946,0,0,1,624.608,900.472Zm285.13-.005a5.1,5.1,0,1,1,5.1,5.113A5.111,5.111,0,0,1,909.738,900.466Zm233.481-4.639a7.72,7.72,0,1,1,7.721,7.718A7.723,7.723,0,0,1,1143.22,895.827ZM223.569,891.1a11.635,11.635,0,1,1,11.646,11.633A11.643,11.643,0,0,1,223.569,891.1Zm796.02,1.787a6.767,6.767,0,1,1,6.765,6.768A6.766,6.766,0,0,1,1019.589,892.89Zm-870.68,5.5a.115.115,0,0,1,.111-.118.117.117,0,0,1,.123.118.123.123,0,0,1-.123.121A.121.121,0,0,1,148.909,898.394Zm444.483-8a6.762,6.762,0,1,1,6.757,6.76A6.765,6.765,0,0,1,593.393,890.389ZM433.5,887.181a8.783,8.783,0,1,1,8.783,8.788A8.787,8.787,0,0,1,433.5,887.181Zm506.637,3.2a5.106,5.106,0,1,1,5.105,5.1A5.106,5.106,0,0,1,940.14,890.383Zm-567.7-4.706a9.618,9.618,0,1,1,9.618,9.616A9.614,9.614,0,0,1,372.442,885.678Zm124.295-.583a8.313,8.313,0,1,1,8.308,8.313A8.327,8.327,0,0,1,496.737,885.095Zm600.428,2.086a5.941,5.941,0,1,1,5.939,5.943A5.94,5.94,0,0,1,1097.165,887.181Zm-924.727-4.7a9.38,9.38,0,1,1,9.38,9.382A9.384,9.384,0,0,1,172.438,882.483Zm141.656-1.132a10.09,10.09,0,1,1,10.083,10.094A10.082,10.082,0,0,1,314.095,881.351Zm949.86,5.254a2.137,2.137,0,1,1,2.128,2.125A2.128,2.128,0,0,1,1263.955,886.605Zm-49.4-5.254a6.656,6.656,0,1,1,6.663,6.655A6.652,6.652,0,0,1,1214.553,881.351Zm-451.762,4.014a1.9,1.9,0,1,1,1.9,1.9A1.9,1.9,0,0,1,762.791,885.365Zm32.018-.549a1.9,1.9,0,1,1,1.9,1.9A1.905,1.905,0,0,1,794.809,884.816Zm-64.6-1.111a2.5,2.5,0,1,1,2.5,2.5A2.492,2.492,0,0,1,730.206,883.705Zm-472.8-8.888a11.047,11.047,0,1,1,11.047,11.042A11.048,11.048,0,0,1,257.41,874.817Zm568.7,7.238a2.5,2.5,0,1,1,2.5,2.491A2.488,2.488,0,0,1,826.114,882.055Zm-261.229-3.694a5.576,5.576,0,1,1,5.582,5.58A5.568,5.568,0,0,1,564.885,878.361Zm132.949,1.487a3.085,3.085,0,1,1,3.078,3.084A3.079,3.079,0,0,1,697.834,879.848Zm273.653-1.481a3.444,3.444,0,1,1,3.439,3.439A3.442,3.442,0,0,1,971.487,878.367Zm78.089-1.493a4.514,4.514,0,1,1,4.519,4.519A4.523,4.523,0,0,1,1049.576,876.874Zm119.937-1.671a5.936,5.936,0,1,1,5.933,5.94A5.937,5.937,0,0,1,1169.513,875.2Zm-310.8,1.895a1.545,1.545,0,1,1,1.55,1.544A1.545,1.545,0,0,1,858.713,877.1ZM203.158,866.51a11.523,11.523,0,1,1,11.523,11.523A11.527,11.527,0,0,1,203.158,866.51Zm204.272,1.417a9.264,9.264,0,1,1,9.269,9.261A9.266,9.266,0,0,1,407.431,867.926Zm61.592.333a8.789,8.789,0,1,1,8.783,8.783A8.786,8.786,0,0,1,469.022,868.259Zm197.828,5.552a2.614,2.614,0,1,1,2.614,2.609A2.609,2.609,0,0,1,666.851,873.811Zm-318.954-9.4a10.212,10.212,0,1,1,10.212,10.209A10.211,10.211,0,0,1,347.9,864.416Zm774.865,3.51a5.936,5.936,0,1,1,5.933,5.932A5.934,5.934,0,0,1,1122.762,867.926Zm-993.735,4.631a1.068,1.068,0,1,1,1.063,1.064A1.067,1.067,0,0,1,129.026,872.558Zm404.392-8.092a8.19,8.19,0,1,1,8.2,8.2A8.192,8.192,0,0,1,533.418,864.466Zm355.8,5.5a2.26,2.26,0,1,1,2.266,2.259A2.26,2.26,0,0,1,889.214,869.97ZM634.353,865.6a4.154,4.154,0,1,1,4.154,4.159A4.148,4.148,0,0,1,634.353,865.6Zm364.684-1.143a4.746,4.746,0,1,1,4.753,4.752A4.747,4.747,0,0,1,999.036,864.461Zm-707.3-6.043a10.09,10.09,0,1,1,10.084,10.1A10.081,10.081,0,0,1,291.734,858.418Zm-138.442-1.607a9.377,9.377,0,1,1,9.379,9.381A9.381,9.381,0,0,1,153.292,856.811Zm1083.753,1.616a6.53,6.53,0,1,1,6.528,6.534A6.528,6.528,0,0,1,1237.045,858.426Zm48.321,4.353a2.139,2.139,0,1,1,2.139,2.133A2.129,2.129,0,0,1,1285.366,862.779Zm-209.059-3.542a4.514,4.514,0,1,1,4.508,4.508A4.509,4.509,0,0,1,1076.308,859.238ZM919.4,860.7a2.736,2.736,0,1,1,2.729,2.74A2.734,2.734,0,0,1,919.4,860.7ZM236.222,850.495a11.4,11.4,0,1,1,11.4,11.4A11.394,11.394,0,0,1,236.222,850.495Zm366.856,4.792a5.106,5.106,0,1,1,5.107,5.107A5.105,5.105,0,0,1,603.078,855.287Zm591.012-1.968a4.746,4.746,0,1,1,4.75,4.747A4.743,4.743,0,0,1,1194.09,853.319Zm-750.432-3.5a7.958,7.958,0,1,1,7.957,7.958A7.953,7.953,0,0,1,443.658,849.822Zm-61.285-2.562a9.857,9.857,0,1,1,9.857,9.857A9.857,9.857,0,0,1,382.373,847.26Zm124.211,1.487a7.126,7.126,0,1,1,7.12,7.127A7.117,7.117,0,0,1,506.584,848.748ZM183.4,841.029a11.877,11.877,0,1,1,11.872,11.877A11.876,11.876,0,0,1,183.4,841.029Zm844.847,7.719a3.439,3.439,0,1,1,3.438,3.439A3.44,3.44,0,0,1,1028.249,848.748ZM325.1,841.917a10.211,10.211,0,1,1,10.212,10.212A10.218,10.218,0,0,1,325.1,841.917Zm624.363,7.44a2.614,2.614,0,1,1,2.614,2.606A2.624,2.624,0,0,1,949.461,849.357Zm-178.187.389a1.422,1.422,0,0,1,1.426-1.421,1.425,1.425,0,1,1,0,2.851A1.423,1.423,0,0,1,771.274,849.746Zm-32.717-1.2a2.139,2.139,0,1,1,2.139,2.133A2.136,2.136,0,0,1,738.558,848.55Zm411.637-1.3a2.97,2.97,0,1,1,2.97,2.969A2.963,2.963,0,0,1,1150.194,847.255Zm-346.916,1.3a1.423,1.423,0,1,1,1.416,1.429A1.42,1.42,0,0,1,803.278,848.55ZM574.5,842.907a4.159,4.159,0,1,1,4.153,4.159A4.155,4.155,0,0,1,574.5,842.907Zm260.124,2.063a1.9,1.9,0,1,1,1.9,1.9A1.9,1.9,0,0,1,834.621,844.97Zm-127.531-.005a1.782,1.782,0,1,1,1.783,1.789A1.788,1.788,0,0,1,707.09,844.964Zm-595.216,1.006a.358.358,0,1,1,.359.354A.358.358,0,0,1,111.874,845.971Zm158.065-11.555A10.69,10.69,0,1,1,280.633,845.1,10.685,10.685,0,0,1,269.939,834.416Zm833.187,5.606a3.323,3.323,0,1,1,3.318,3.329A3.321,3.321,0,0,1,1103.126,840.022Zm-427.978-1.012a2.252,2.252,0,1,1,2.254,2.254A2.259,2.259,0,0,1,675.148,839.011Zm190.944.005a1.894,1.894,0,1,1,1.9,1.9A1.9,1.9,0,0,1,866.093,839.016Zm111.159-3.063a3.919,3.919,0,1,1,3.914,3.915A3.917,3.917,0,0,1,977.252,835.953Zm-560.292-6.1a9.618,9.618,0,1,1,9.618,9.616A9.614,9.614,0,0,1,416.96,829.853Zm842.82,4.566a4.984,4.984,0,1,1,4.989,4.979A4.99,4.99,0,0,1,1259.78,834.418Zm47.153,3.55a.832.832,0,1,1,.838.838A.829.829,0,0,1,1306.934,837.968Zm-827.551-6.691a7.48,7.48,0,1,1,7.487,7.482A7.482,7.482,0,0,1,479.383,831.277Zm-263.316-6.059A11.874,11.874,0,1,1,227.94,837.1,11.869,11.869,0,0,1,216.066,825.218Zm142.667.037a10.216,10.216,0,1,1,10.22,10.212A10.215,10.215,0,0,1,358.733,825.255Zm857.541,4.968a4.751,4.751,0,1,1,4.75,4.752A4.746,4.746,0,0,1,1216.274,830.223Zm-1076.287.124a4.636,4.636,0,1,1,4.643,4.629A4.638,4.638,0,0,1,139.987,830.347Zm503.393.381a3.092,3.092,0,1,1,3.095,3.084A3.094,3.094,0,0,1,643.38,830.728Zm412.651.549a2.5,2.5,0,1,1,2.492,2.5A2.493,2.493,0,0,1,1056.031,831.277Zm-510.146-2.762a4.159,4.159,0,1,1,4.164,4.154A4.15,4.15,0,0,1,545.885,828.515Zm351.492,2.212a1.545,1.545,0,1,1,1.539,1.54A1.543,1.543,0,0,1,897.377,830.728Zm275.146-5.467a3.915,3.915,0,1,1,3.914,3.922A3.917,3.917,0,0,1,1172.523,825.26Zm-867.939-7.009a9.148,9.148,0,1,1,9.148,9.137A9.139,9.139,0,0,1,304.584,818.251Zm700.766,2.338a3.916,3.916,0,1,1,3.917,3.914A3.916,3.916,0,0,1,1005.35,820.589ZM168.614,814.7a8.428,8.428,0,1,1,8.433,8.431A8.428,8.428,0,0,1,168.614,814.7Zm444.66,5.446a2.972,2.972,0,1,1,2.974,2.969A2.972,2.972,0,0,1,613.274,820.145Zm514.629-.83a2.971,2.971,0,1,1,2.969,2.969A2.977,2.977,0,0,1,1127.9,819.315Zm-199.822.83a1.063,1.063,0,0,1,1.064-1.064,1.068,1.068,0,1,1-1.064,1.064ZM249.613,809.374a11.047,11.047,0,1,1,11.047,11.042A11.045,11.045,0,0,1,249.613,809.374Zm-154.5,9.306a.36.36,0,0,1,.362-.355.348.348,0,0,1,.347.355.354.354,0,0,1-.347.36A.366.366,0,0,1,95.11,818.679Zm359.558-6.55a6.529,6.529,0,1,1,6.529,6.529A6.53,6.53,0,0,1,454.668,812.129Zm-60.683-3.709a8.79,8.79,0,1,1,8.8,8.788A8.793,8.793,0,0,1,393.985,808.42Zm123.872,3.768a4.634,4.634,0,1,1,4.64,4.629A4.641,4.641,0,0,1,517.857,812.188Zm760.707-2.814a6.174,6.174,0,1,1,6.169,6.174A6.168,6.168,0,0,1,1278.564,809.374Zm-499.044,4.606a1.185,1.185,0,1,1,1.19,1.192A1.182,1.182,0,0,1,779.521,813.979Zm-31.9-.649a1.063,1.063,0,1,1,1.062,1.069A1.063,1.063,0,0,1,747.624,813.33Zm577.781-1.1a1.428,1.428,0,1,1,1.43,1.429A1.429,1.429,0,0,1,1325.405,812.235Zm-242.748-.111a1.54,1.54,0,1,1,1.54,1.54A1.546,1.546,0,0,1,1082.657,812.124Zm-271.056-.1a1.068,1.068,0,1,1,1.075,1.064A1.067,1.067,0,0,1,811.6,812.022ZM337.1,801.986a9.852,9.852,0,1,1,9.847,9.857A9.853,9.853,0,0,1,337.1,801.986Zm378.545,8.079a1.186,1.186,0,1,1,1.192,1.19A1.19,1.19,0,0,1,715.644,810.064Zm521.577-4.075a4.751,4.751,0,1,1,4.75,4.748A4.75,4.75,0,0,1,1237.221,805.99ZM120.6,803.134a7.126,7.126,0,1,1,7.133,7.133A7.131,7.131,0,0,1,120.6,803.134Zm77.833-4.088a11.047,11.047,0,1,1,11.047,11.042A11.051,11.051,0,0,1,198.438,799.046Zm386.324,8.294a2.132,2.132,0,1,1,2.139,2.139A2.138,2.138,0,0,1,584.762,807.34Zm371.964,0a1.779,1.779,0,1,1,1.778,1.784A1.774,1.774,0,0,1,956.726,807.34Zm-113.787.124a1.43,1.43,0,1,1,1.43,1.427A1.425,1.425,0,0,1,842.938,807.463Zm-159.378-3.244a1.782,1.782,0,1,1,1.789,1.789A1.79,1.79,0,0,1,683.561,804.219Zm350.412-.906a2.26,2.26,0,1,1,2.265,2.254A2.264,2.264,0,0,1,1033.973,803.313Zm161.386-1.333a3.084,3.084,0,1,1,3.09,3.09A3.094,3.094,0,0,1,1195.358,801.98Zm-912.015-8.506a10.095,10.095,0,1,1,10.094,10.088A10.089,10.089,0,0,1,283.344,793.474Zm591.051,6.867a1.19,1.19,0,1,1,1.19,1.18A1.19,1.19,0,0,1,874.395,800.341Zm-383.965-6.35a5.7,5.7,0,1,1,5.7,5.7A5.706,5.706,0,0,1,490.43,793.991Zm661.812,3.192a1.783,1.783,0,1,1,1.789,1.781A1.781,1.781,0,0,1,1152.241,797.184Zm-722.313-5.822a6.889,6.889,0,1,1,6.883,6.883A6.879,6.879,0,0,1,429.928,791.362Zm222.385,4.466a2.132,2.132,0,1,1,2.125,2.139A2.133,2.133,0,0,1,652.313,795.828Zm-500.741-8.249A8.428,8.428,0,1,1,160,796.015,8.436,8.436,0,0,1,151.571,787.579Zm403.921,4.8a3.089,3.089,0,1,1,3.09,3.089A3.093,3.093,0,0,1,555.492,792.378Zm428.827-.005a2.5,2.5,0,1,1,2.49,2.491A2.491,2.491,0,0,1,984.319,792.373Zm-753.4-9.006a11.042,11.042,0,1,1,11.047,11.047A11.055,11.055,0,0,1,230.915,783.367ZM371.51,785.61a8.789,8.789,0,1,1,8.785,8.783A8.786,8.786,0,0,1,371.51,785.61Zm734.935,5.756a2.137,2.137,0,1,1,2.139,2.133A2.134,2.134,0,0,1,1106.444,791.367Zm-201.512-.678a1.19,1.19,0,1,1,1.19,1.185A1.185,1.185,0,0,1,904.933,790.689Zm-282.741-5.746a2.137,2.137,0,1,1,2.136,2.139A2.139,2.139,0,0,1,622.191,784.943Zm-304.337-7.427a8.435,8.435,0,1,1,8.436,8.428A8.43,8.43,0,0,1,317.854,777.516Zm742.554,6.708a1.539,1.539,0,1,1,1.539,1.539A1.546,1.546,0,0,1,1060.408,784.224ZM1302,783.362a1.432,1.432,0,1,1,1.43,1.429A1.433,1.433,0,0,1,1302,783.362Zm-43.475-2.672a3.084,3.084,0,1,1,3.079,3.09A3.085,3.085,0,0,1,1258.527,780.69ZM184.093,772.023a8.19,8.19,0,1,1,8.2,8.2A8.2,8.2,0,0,1,184.093,772.023Zm1033.111,5.5a1.9,1.9,0,1,1,1.9,1.9A1.907,1.907,0,0,1,1217.2,777.521Zm-281.911,1.066a.47.47,0,0,1,.475-.476.477.477,0,1,1-.475.476Zm-146.947-.564a.364.364,0,0,1,.36-.365.353.353,0,0,1,.349.365.348.348,0,0,1-.349.35A.359.359,0,0,1,788.346,778.023Zm-32.007,0a.353.353,0,0,1,.35-.365.361.361,0,0,1,.357.365.357.357,0,0,1-.357.35A.348.348,0,0,1,756.339,778.023Zm-227.011-2.687a2.137,2.137,0,1,1,2.138,2.138A2.138,2.138,0,0,1,529.328,775.336Zm-419.451-.111a2.139,2.139,0,1,1,2.139,2.139A2.134,2.134,0,0,1,109.877,775.225Zm358.129-1.2a3.09,3.09,0,1,1,3.09,3.082A3.095,3.095,0,0,1,468.006,774.022Zm-202.314-6.363a8.783,8.783,0,1,1,8.782,8.783A8.78,8.78,0,0,1,265.691,767.659Zm747.532,7.677a.706.706,0,0,1,.7-.71.712.712,0,1,1-.7.71Zm-192.983-.189a.36.36,0,1,1,.359.352A.361.361,0,0,1,820.24,775.146Zm-95.8,0a.352.352,0,0,1,.35-.36.356.356,0,1,1,0,.712A.35.35,0,0,1,724.441,775.146Zm449.585-1.445a1.782,1.782,0,1,1,1.786,1.781A1.78,1.78,0,0,1,1174.026,773.7Zm-764.737-4.626a4.513,4.513,0,1,1,4.519,4.514A4.516,4.516,0,0,1,409.289,769.075ZM594,771.636a1.192,1.192,0,1,1,1.19,1.186A1.187,1.187,0,0,1,594,771.636Zm536.043-2.559a1.54,1.54,0,1,1,1.539,1.545A1.544,1.544,0,0,1,1130.047,769.078Zm-278.3.35a.359.359,0,0,1,.359-.355.358.358,0,0,1,0,.715A.362.362,0,0,1,851.748,769.427Zm-158.813,0a.35.35,0,0,1,.349-.355.357.357,0,1,1,0,.715A.353.353,0,0,1,692.935,769.427Zm-340.007-7.939a6.3,6.3,0,1,1,6.3,6.292A6.291,6.291,0,0,1,352.928,761.488Zm-216.213-1.766a7.48,7.48,0,1,1,7.482,7.488A7.484,7.484,0,0,1,136.715,759.722Zm78.605-3.266a9.265,9.265,0,1,1,9.261,9.271A9.259,9.259,0,0,1,215.32,756.457Zm748.288,7.65a.72.72,0,1,1,.715.715A.714.714,0,0,1,963.608,764.107Zm121.957-.707a.715.715,0,1,1,.721.714A.72.72,0,0,1,1085.565,763.4Zm-202.95-2.488a.36.36,0,1,1,.359.359A.364.364,0,0,1,882.615,760.913Zm-220.548,0a.356.356,0,0,1,.349-.36.36.36,0,1,1,0,.72A.354.354,0,0,1,662.067,760.913Zm-363.476-8.993a8.433,8.433,0,1,1,8.433,8.438A8.439,8.439,0,0,1,298.592,751.919Zm1018.782,4.537a3.439,3.439,0,1,1,3.439,3.444A3.439,3.439,0,0,1,1317.374,756.457Zm-42.952-2.067a5.459,5.459,0,1,1,5.454,5.459A5.457,5.457,0,0,1,1274.422,754.389ZM503.09,756.325a2.609,2.609,0,1,1,2.6,2.609A2.6,2.6,0,0,1,503.09,756.325ZM1361.1,758.22a.119.119,0,0,1,.121-.121.126.126,0,0,1,.12.121.121.121,0,0,1-.12.115A.115.115,0,0,1,1361.1,758.22Zm-795.4-2.212a1.544,1.544,0,1,1,1.55,1.545A1.548,1.548,0,0,1,565.7,756.007Zm473.282.313a.713.713,0,1,1,.714.715A.716.716,0,0,1,1038.986,756.32Zm-594.572-3.946a3.084,3.084,0,1,1,3.09,3.089A3.1,3.1,0,0,1,444.414,752.374Zm790.865-.457a3.084,3.084,0,1,1,3.09,3.092A3.089,3.089,0,0,1,1235.279,751.917ZM92.99,746.67a4.514,4.514,0,1,1,4.519,4.519A4.514,4.514,0,0,1,92.99,746.67Zm1101.263,2.3a1.9,1.9,0,1,1,1.9,1.9A1.9,1.9,0,0,1,1194.253,748.966ZM169.846,744.235a6.53,6.53,0,1,1,6.539,6.518A6.546,6.546,0,0,1,169.846,744.235Zm461.88,5.42a.713.713,0,1,1,.715.712A.712.712,0,0,1,631.726,749.655Zm280.753,0a.482.482,0,0,1,.476-.476.477.477,0,1,1-.476.476Zm-524-4.275a3.8,3.8,0,1,1,3.794,3.794A3.793,3.793,0,0,1,388.479,745.377Zm-139.288-4.5A7.713,7.713,0,1,1,256.9,748.6,7.708,7.708,0,0,1,249.19,740.88ZM990.9,747.351a.715.715,0,1,1,.715.709A.717.717,0,0,1,990.9,747.351Zm161.508-1.973a.723.723,0,0,1,.714-.72.715.715,0,1,1-.714.72Zm-44.122-4.424a.831.831,0,1,1,1.661,0,.831.831,0,0,1-1.661,0Zm-773.764-4.8a5.111,5.111,0,1,1,5.107,5.1A5.11,5.11,0,0,1,334.521,736.151Zm204.714,1.989a1.428,1.428,0,1,1,1.432,1.434A1.425,1.425,0,0,1,539.235,738.14Zm-416.475-6.952a6.889,6.889,0,1,1,6.894,6.888A6.893,6.893,0,0,1,122.761,731.188Zm356.4,4.243a2.259,2.259,0,1,1,2.254,2.259A2.265,2.265,0,0,1,479.164,735.431Zm-279.5-6.71a8.9,8.9,0,1,1,8.912,8.906A8.908,8.908,0,0,1,199.664,728.721Zm863.474,6.71a.83.83,0,1,1,.835.83A.83.83,0,0,1,1063.138,735.431Zm-460.018.333a.472.472,0,1,1,.479.476A.475.475,0,0,1,603.12,735.765Zm338.564.005a.116.116,0,0,1,.11-.126.121.121,0,1,1-.11.126ZM280.924,725.288a8.313,8.313,0,1,1,8.317,8.318A8.315,8.315,0,0,1,280.924,725.288Zm-229,7.737a.117.117,0,1,1,.234,0,.117.117,0,0,1-.234,0Zm1239.361-5.864a5.461,5.461,0,1,1,5.455,5.457A5.454,5.454,0,0,1,1291.288,727.161Zm-868.341,1.981a2.5,2.5,0,1,1,2.493,2.5A2.488,2.488,0,0,1,422.947,729.142Zm913.4-.425a.477.477,0,1,1,.478.478A.47.47,0,0,1,1336.351,728.716Zm-319.376-.294a.474.474,0,0,1,.476-.478.477.477,0,0,1,0,.954A.471.471,0,0,1,1016.975,728.422Zm236.448-3.134a2.735,2.735,0,1,1,2.74,2.743A2.736,2.736,0,0,1,1253.423,725.288Zm-884.911-4.953a3.792,3.792,0,1,1,3.794,3.794A3.8,3.8,0,0,1,368.512,720.335Zm845.4,2.722a1.067,1.067,0,1,1,2.135,0,1.067,1.067,0,0,1-2.135,0ZM155.275,715.7a6.529,6.529,0,1,1,6.528,6.534A6.523,6.523,0,0,1,155.275,715.7Zm77.771-2.479a7.72,7.72,0,1,1,7.722,7.713A7.711,7.711,0,0,1,233.046,713.221Zm939.567,7.109a.474.474,0,0,1,.476-.47.471.471,0,1,1,0,.943A.474.474,0,0,1,1172.613,720.33Zm-597.226-.982a.718.718,0,0,1,.715-.72.712.712,0,1,1-.715.72Zm-61.18-1.172a1.423,1.423,0,1,1,1.43,1.429A1.418,1.418,0,0,1,514.208,718.176Zm454.963,1.177a.117.117,0,0,1,.12-.126.116.116,0,0,1,.113.126.111.111,0,0,1-.113.11A.113.113,0,0,1,969.171,719.353Zm160.474-2.37a.715.715,0,1,1,.715.714A.719.719,0,0,1,1129.645,716.983Zm-1045.537.549a.123.123,0,0,1,.12-.126.116.116,0,0,1,.111.126.112.112,0,0,1-.111.11A.12.12,0,0,1,84.107,717.532Zm232.023-7.842a5.464,5.464,0,1,1,5.465,5.462A5.464,5.464,0,0,1,316.131,709.69Zm140.749,3.095a1.9,1.9,0,1,1,1.9,1.9A1.906,1.906,0,0,1,456.88,712.785Zm183.6,1.484a.115.115,0,0,1,.12-.118.112.112,0,0,1,.11.118.114.114,0,0,1-.11.121A.116.116,0,0,1,640.482,714.269Zm445.307-1.484a.823.823,0,0,1,.825-.825.833.833,0,0,1,.836.825.842.842,0,0,1-.836.838A.833.833,0,0,1,1085.789,712.785ZM110.7,702.029a5.7,5.7,0,1,1,5.707,5.7A5.7,5.7,0,0,1,110.7,702.029Zm930.827,5.417a.114.114,0,0,1,.12-.116.113.113,0,0,1,.113.116.115.115,0,0,1-.113.118A.116.116,0,0,1,1041.529,707.446Zm-638.74-2.992a2.259,2.259,0,1,1,2.268,2.265A2.265,2.265,0,0,1,402.789,704.454Zm902.707-5.381a6.649,6.649,0,1,1,6.645,6.655A6.654,6.654,0,0,1,1305.5,699.073Zm-1117,1.151a5.46,5.46,0,1,1,5.453,5.462A5.462,5.462,0,0,1,188.5,700.224Zm1077.41-2.512a6.525,6.525,0,1,1,6.528,6.528A6.523,6.523,0,0,1,1265.907,697.712Zm-999,0a6.056,6.056,0,1,1,6.049,6.053A6.052,6.052,0,0,1,266.907,697.712Zm1083.7,2.506a.83.83,0,1,1,.835.838A.836.836,0,0,1,1350.605,700.219Zm-800.765.3a.355.355,0,1,1,.35.36A.357.357,0,0,1,549.841,700.521Zm445.239,0a.115.115,0,0,1,.121-.116.113.113,0,0,1,.113.116.117.117,0,1,1-.234,0Zm234.648-4.458a2.492,2.492,0,1,1,2.492,2.5A2.492,2.492,0,0,1,1229.729,696.063Zm-738.965.179a1.544,1.544,0,1,1,1.539,1.545A1.545,1.545,0,0,1,490.764,696.241Zm-140.111-2.17a3.329,3.329,0,1,1,3.328,3.323A3.325,3.325,0,0,1,350.652,694.071Zm840.046-.005a.713.713,0,1,1,.715.715A.715.715,0,0,1,1190.7,694.066Zm-41.525-2.459a.715.715,0,1,1,.715.709A.72.72,0,0,1,1149.173,691.607ZM143.968,686.528a4.629,4.629,0,1,1,4.629,4.629A4.638,4.638,0,0,1,143.968,686.528Zm76.678-1.789a5.459,5.459,0,1,1,5.465,5.454A5.47,5.47,0,0,1,220.646,684.739Zm216.061,3.773a1.185,1.185,0,1,1,1.19,1.2A1.182,1.182,0,0,1,436.706,688.512Zm670.324,0a.472.472,0,1,1,.465.476A.471.471,0,0,1,1107.03,688.512ZM71.846,687.834a.355.355,0,1,1,.35.354A.361.361,0,0,1,71.846,687.834ZM299.7,682.2a5.459,5.459,0,1,1,5.465,5.467A5.464,5.464,0,0,1,299.7,682.2Zm763.637,2.375a.719.719,0,1,1,.715.715A.719.719,0,0,1,1063.34,684.574Zm-679.2-6.158a2.26,2.26,0,1,1,2.254,2.259A2.265,2.265,0,0,1,384.144,678.416Zm141.107,1.038a.826.826,0,0,1,.835-.831.83.83,0,1,1-.835.831Zm493.936,0a.124.124,0,0,1,.122-.124.125.125,0,0,1,.123.124.128.128,0,0,1-.123.115A.126.126,0,0,1,1019.187,679.454ZM98.541,672.3a5.941,5.941,0,1,1,5.94,5.94A5.945,5.945,0,0,1,98.541,672.3Zm153.189-3.042a6.534,6.534,0,1,1,6.534,6.523A6.528,6.528,0,0,1,251.73,669.257Zm-75.571,1.768a4.629,4.629,0,1,1,4.629,4.634A4.626,4.626,0,0,1,176.159,671.025Zm1145.726-.8a4.154,4.154,0,1,1,4.153,4.153A4.156,4.156,0,0,1,1321.885,670.222Zm-39.385-.97a4.629,4.629,0,1,1,4.629,4.624A4.627,4.627,0,0,1,1282.5,669.252Zm-812.726,3.224a1.068,1.068,0,1,1,1.074,1.066A1.072,1.072,0,0,1,469.774,672.476Zm894.117-1.45a.718.718,0,0,1,.714-.714.715.715,0,1,1,0,1.429A.719.719,0,0,1,1363.892,671.025Zm-119.16-2.932a3.086,3.086,0,1,1,3.082,3.09A3.085,3.085,0,0,1,1244.731,668.093ZM334.776,666.68a2.607,2.607,0,1,1,2.614,2.614A2.609,2.609,0,0,1,334.776,666.68Zm872.878,0a.355.355,0,1,1,.709,0,.354.354,0,1,1-.709,0Zm-40.38-1.739a.355.355,0,0,1,.35-.365.359.359,0,0,1,.359.365.348.348,0,0,1-.359.347A.344.344,0,0,1,1167.274,664.941Zm-749.834-2.2a1.429,1.429,0,1,1,1.43,1.424A1.433,1.433,0,0,1,417.44,662.745Zm708.724.005a.353.353,0,1,1,.357.349A.347.347,0,0,1,1126.164,662.75Zm-919.117-7.223a5.936,5.936,0,1,1,5.93,5.932A5.941,5.941,0,0,1,207.047,655.527Zm-74.788,1.222a4.516,4.516,0,1,1,4.519,4.519A4.517,4.517,0,0,1,132.259,656.749Zm952.154,3.206a.117.117,0,1,1,.233,0,.117.117,0,1,1-.233,0ZM285.781,653.77a4.634,4.634,0,1,1,4.64,4.629A4.64,4.64,0,0,1,285.781,653.77ZM60.746,657.661a.715.715,0,1,1,.715.717A.716.716,0,0,1,60.746,657.661Zm442.375-1.356a.832.832,0,1,1,.828.831A.83.83,0,0,1,503.121,656.305Zm-136.139-5.139a2.613,2.613,0,1,1,2.614,2.6A2.621,2.621,0,0,1,366.982,651.167Zm83.343-4.133a1.068,1.068,0,1,1,1.062,1.069A1.066,1.066,0,0,1,450.325,647.034Zm-362.356-4.96a5.937,5.937,0,1,1,5.931,5.935A5.934,5.934,0,0,1,87.969,642.074Zm150.681-2.054a6.528,6.528,0,1,1,6.529,6.528A6.536,6.536,0,0,1,238.649,640.02Zm-74.189,1.19a4.629,4.629,0,1,1,4.63,4.629A4.628,4.628,0,0,1,164.46,641.209Zm1131.6-1.19a4.152,4.152,0,1,1,4.15,4.153A4.149,4.149,0,0,1,1296.063,640.02Zm41.611.646a.724.724,0,0,1,.726-.709.712.712,0,1,1,0,1.424A.728.728,0,0,1,1337.674,640.666ZM319.6,638.283a2.97,2.97,0,1,1,2.975,2.969A2.971,2.971,0,0,1,319.6,638.283Zm940.687.954a1.429,1.429,0,1,1,1.43,1.429A1.431,1.431,0,0,1,1260.282,639.236Zm-723.378.736a.355.355,0,0,1,.35-.36.357.357,0,1,1,0,.715A.352.352,0,0,1,536.9,639.972Zm685.57-1.684a.354.354,0,0,1,.349-.362.358.358,0,1,1,0,.717A.352.352,0,0,1,1222.475,638.288Zm-39.111-1.174a.113.113,0,0,1,.11-.121.119.119,0,0,1,.124.121.117.117,0,0,1-.124.113A.111.111,0,0,1,1183.363,637.114Zm-782.716-1.484a1.185,1.185,0,1,1,1.18,1.19A1.181,1.181,0,0,1,400.647,635.629Zm742.8,0a.115.115,0,0,1,.123-.115.112.112,0,0,1,.11.115.116.116,0,0,1-.11.124A.118.118,0,0,1,1143.443,635.626Zm-40.625-1.881a.108.108,0,0,1,.113-.118.117.117,0,0,1,0,.234A.107.107,0,0,1,1102.818,633.746Zm-619.183-2.472a.355.355,0,1,1,.35.35A.347.347,0,0,1,483.636,631.273Zm-361.407-4.805a4.153,4.153,0,1,1,4.153,4.153A4.14,4.14,0,0,1,122.229,626.468Zm74.664-.807a4.514,4.514,0,1,1,4.52,4.505A4.514,4.514,0,0,1,196.893,625.662Zm-146.416,1.4a1.545,1.545,0,1,1,1.55,1.54A1.548,1.548,0,0,1,50.477,627.057Zm223.12-2.546a3.794,3.794,0,1,1,3.794,3.8A3.8,3.8,0,0,1,273.6,624.511ZM352.94,622.8a1.782,1.782,0,1,1,1.776,1.787A1.777,1.777,0,0,1,352.94,622.8Zm79.712-2.7a1.429,1.429,0,1,1,1.429,1.421A1.424,1.424,0,0,1,432.652,620.1Zm-278.4-9.248a4.634,4.634,0,1,1,4.629,4.629A4.637,4.637,0,0,1,154.248,610.852Zm74.295-.751a5.223,5.223,0,1,1,5.218,5.226A5.224,5.224,0,0,1,228.543,610.1Zm1041.4-.5a3.914,3.914,0,1,1,3.914,3.922A3.915,3.915,0,0,1,1269.94,609.6Zm-1186.8,1.789a1.544,1.544,0,1,1,1.55,1.55A1.548,1.548,0,0,1,83.144,611.391Zm1225.758-1.3a2.736,2.736,0,1,1,2.729,2.729A2.725,2.725,0,0,1,1308.9,610.093ZM306.639,609a2.968,2.968,0,1,1,2.961,2.974A2.963,2.963,0,0,1,306.639,609Zm1041.823,1.516a.72.72,0,0,1,.714-.72.715.715,0,1,1-.714.72ZM1234.362,609a1.429,1.429,0,1,1,1.43,1.427A1.426,1.426,0,0,1,1234.362,609Zm-37.338-.741a.352.352,0,0,1,.35-.366.363.363,0,0,1,.36.366.358.358,0,0,1-.36.347A.348.348,0,0,1,1197.024,608.259Zm-811.35-.943a1.2,1.2,0,1,1,1.19,1.19A1.195,1.195,0,0,1,385.675,607.316Zm772.73.005a.121.121,0,0,1,.123-.121.117.117,0,0,1,.11.121.111.111,0,0,1-.11.11A.116.116,0,0,1,1158.405,607.321Zm-39.4-1.206a.116.116,0,0,1,.126-.11.113.113,0,0,1,.108.11.118.118,0,0,1-.108.124A.12.12,0,0,1,1119.01,606.115Zm-653.491-1.566a.832.832,0,1,1,.838.83A.828.828,0,0,1,465.519,604.549Zm-352.62-8.84a4.519,4.519,0,1,1,4.52,4.519A4.518,4.518,0,0,1,112.9,595.709Zm74.857-.488a3.678,3.678,0,1,1,3.678,3.683A3.672,3.672,0,0,1,187.756,595.221Zm75.29-.7a3.089,3.089,0,1,1,3.09,3.09A3.09,3.09,0,0,1,263.046,594.521Zm77.592-1.035a1.19,1.19,0,0,1,2.38,0,1.19,1.19,0,1,1-2.38,0Zm77.194-1.65a1.19,1.19,0,1,1,1.19,1.185A1.188,1.188,0,0,1,417.832,591.836ZM218.344,579.581a5.7,5.7,0,1,1,5.693,5.7A5.7,5.7,0,0,1,218.344,579.581Zm-72.284.439a4.152,4.152,0,1,1,4.15,4.159A4.146,4.146,0,0,1,146.06,580.02Zm-71.329.317a2.137,2.137,0,1,1,2.137,2.139A2.134,2.134,0,0,1,74.73,580.337Zm220.722-1.39a3.091,3.091,0,1,1,3.09,3.084A3.1,3.1,0,0,1,295.452,578.947Zm986.5.342a2.254,2.254,0,1,1,2.254,2.259A2.253,2.253,0,0,1,1281.954,579.289Zm37.974.292a1.429,1.429,0,1,1,1.429,1.429A1.433,1.433,0,0,1,1319.928,579.581Zm37.348.239a1.064,1.064,0,1,1,1.064,1.069A1.066,1.066,0,0,1,1357.275,579.82Zm-111.49-.875a1.064,1.064,0,1,1,1.064,1.069A1.065,1.065,0,0,1,1245.785,578.945ZM373,577.973a1.069,1.069,0,1,1,1.063,1.064A1.064,1.064,0,0,1,373,577.973Zm835.89.536a.359.359,0,0,1,.359-.354.349.349,0,0,1,.35.354.355.355,0,0,1-.35.36A.365.365,0,0,1,1208.887,578.509Zm-37.677-.546a.115.115,0,0,1,.123-.116.118.118,0,0,1,0,.236A.116.116,0,0,1,1171.21,577.962Zm-38.31-.694a.127.127,0,0,1,.125-.121.125.125,0,0,1,.116.121.124.124,0,0,1-.116.116A.126.126,0,0,1,1132.9,577.269Zm-682.078-.919a.348.348,0,0,1,.349-.354.36.36,0,0,1,.36.354.366.366,0,0,1-.36.36A.355.355,0,0,1,450.822,576.349ZM105.764,564.577a4.157,4.157,0,1,1,4.15,4.154A4.153,4.153,0,0,1,105.764,564.577ZM252.9,563.92a3.8,3.8,0,1,1,3.794,3.8A3.8,3.8,0,0,1,252.9,563.92Zm-72.786.386a2.963,2.963,0,1,1,2.974,2.969A2.969,2.969,0,0,1,180.11,564.306Zm149.453-.957a1.427,1.427,0,1,1,1.43,1.421A1.433,1.433,0,0,1,329.563,563.35Zm75.688-.912a1.069,1.069,0,0,1,2.138,0,1.069,1.069,0,1,1-2.138,0ZM211.87,548.572a4.159,4.159,0,1,1,4.164,4.154A4.161,4.161,0,0,1,211.87,548.572ZM139.4,548.8a3.682,3.682,0,1,1,3.678,3.678A3.688,3.688,0,0,1,139.4,548.8Zm147.769-.555a2.259,2.259,0,1,1,2.255,2.254A2.265,2.265,0,0,1,287.171,548.243Zm-218.159.71a1.428,1.428,0,1,1,1.429,1.426A1.433,1.433,0,0,1,69.012,548.953Zm1295.684-.261a1.19,1.19,0,0,1,2.38,0,1.19,1.19,0,1,1-2.38,0Zm-36.163-.121a.83.83,0,1,1,.824.825A.828.828,0,0,1,1328.532,548.572Zm-36.523-.15a.72.72,0,1,1,.714.715A.723.723,0,0,1,1292.009,548.422Zm-929.71-.686a1.185,1.185,0,1,1,1.189,1.19A1.178,1.178,0,0,1,362.3,547.736Zm893.191.507a.476.476,0,1,1,.476.476A.479.479,0,0,1,1255.49,548.243Zm-36.81-.218a.355.355,0,1,1,.709,0,.355.355,0,0,1-.709,0Zm-36.889-.284a.117.117,0,0,1,.121-.124.114.114,0,0,1,.112.124.112.112,0,0,1-.112.116A.115.115,0,0,1,1181.792,547.742ZM437.87,546.9a.721.721,0,0,1,.725-.714.715.715,0,0,1,0,1.429A.721.721,0,0,1,437.87,546.9Zm706.532.476a.116.116,0,0,1,.11-.121.123.123,0,1,1-.11.121ZM99.752,533.121a4.152,4.152,0,1,1,4.151,4.154A4.15,4.15,0,0,1,99.752,533.121Zm73.633-.131a2.972,2.972,0,1,1,2.969,2.966A2.97,2.97,0,0,1,173.385,532.99Zm73.228-.187a2.492,2.492,0,1,1,2.49,2.5A2.485,2.485,0,0,1,246.612,532.8Zm74.216-.268a1.429,1.429,0,1,1,1.43,1.432A1.424,1.424,0,0,1,320.828,532.536Zm74.387-.426a.83.83,0,1,1,.836.825A.825.825,0,0,1,395.215,532.11ZM205.978,517.153a3.8,3.8,0,1,1,3.8,3.8A3.8,3.8,0,0,1,205.978,517.153Zm-71.189.094a2.73,2.73,0,1,1,2.73,2.738A2.741,2.741,0,0,1,134.788,517.248Zm145.379-.226a2.137,2.137,0,1,1,2.139,2.136A2.133,2.133,0,0,1,280.167,517.022Zm-215.8.3a1.063,1.063,0,1,1,1.061,1.062A1.063,1.063,0,0,1,64.367,517.324Zm1270.17-.17a1.068,1.068,0,1,1,1.074,1.069A1.069,1.069,0,0,1,1334.537,517.153Zm-980.524-.35a1.19,1.19,0,1,1,1.189,1.185A1.189,1.189,0,0,1,354.013,516.8Zm944.551.292a.825.825,0,1,1,.824.836A.825.825,0,0,1,1298.563,517.1Zm-35.94-.073a.469.469,0,0,1,.465-.479.477.477,0,1,1,0,.954A.471.471,0,0,1,1262.623,517.022Zm-36.281-.092a.36.36,0,0,1,.72,0,.36.36,0,0,1-.72,0Zm-36.264-.126a.116.116,0,0,1,.11-.121.118.118,0,0,1,.121.121.115.115,0,0,1-.121.121A.113.113,0,0,1,1190.078,516.8Zm-761.742-.35a.359.359,0,0,1,.359-.354.352.352,0,0,1,.35.354.347.347,0,0,1-.35.355A.354.354,0,0,1,428.336,516.454Zm725.085.2a.117.117,0,1,1,.233,0,.117.117,0,1,1-.233,0Zm-986.273-15.29a4.159,4.159,0,1,1,4.164,4.159A4.156,4.156,0,0,1,167.147,501.361Zm-71.564.047a3.8,3.8,0,1,1,3.8,3.8A3.8,3.8,0,0,1,95.583,501.408Zm145.3-.115a2.5,2.5,0,1,1,2.49,2.5A2.492,2.492,0,0,1,240.888,501.293Zm73.359-.1a1.42,1.42,0,1,1,1.427,1.424A1.424,1.424,0,0,1,314.247,501.2Zm73.21-.152a.835.835,0,0,1,1.67,0,.835.835,0,0,1-1.67,0ZM201.385,485.438a3.921,3.921,0,1,1,3.926,3.928A3.922,3.922,0,0,1,201.385,485.438Zm-70.818.034a2.97,2.97,0,1,1,2.972,2.961A2.966,2.966,0,0,1,130.566,485.472ZM274.7,485.4a2.492,2.492,0,1,1,2.48,2.5A2.488,2.488,0,0,1,274.7,485.4Zm73.475-.065a1.068,1.068,0,0,1,2.137,0,1.068,1.068,0,1,1-2.137,0Zm955.149.092a.83.83,0,1,1,.836.825A.832.832,0,0,1,1303.326,485.43Zm-1242.2.063a.715.715,0,1,1,.715.714A.719.719,0,0,1,61.127,485.493Zm1278.242-.053a.712.712,0,0,1,.712-.709.715.715,0,1,1-.712.709Zm-71.521-.032a.355.355,0,0,1,.35-.36.358.358,0,0,1,0,.715A.353.353,0,0,1,1267.849,485.409Zm-35.762-.034a.118.118,0,0,1,.124-.116.117.117,0,0,1,0,.234A.118.118,0,0,1,1232.087,485.375Zm-36.058-.034a.119.119,0,0,1,.123-.118.115.115,0,0,1,.11.118.118.118,0,0,1-.11.121A.121.121,0,0,1,1196.029,485.34Zm-36.114-.044a.114.114,0,0,1,.111-.121.116.116,0,0,1,.12.121.116.116,0,1,1-.231,0Zm-738.457-.063a.115.115,0,0,1,.121-.115.113.113,0,0,1,.11.115.116.116,0,1,1-.231,0ZM92.567,469.525a3.8,3.8,0,1,1,3.793,3.793A3.8,3.8,0,0,1,92.567,469.525Zm72.035-.016a3.328,3.328,0,1,1,3.328,3.326A3.323,3.323,0,0,1,164.6,469.509Zm72.336-.01a2.614,2.614,0,1,1,2.614,2.611A2.611,2.611,0,0,1,236.938,469.5Zm73.134-.029a1.19,1.19,0,1,1,1.19,1.192A1.184,1.184,0,0,1,310.072,469.47Zm72.295-.029a.713.713,0,1,1,.715.715A.718.718,0,0,1,382.367,469.44ZM198.818,453.53a3.8,3.8,0,1,1,3.8,3.8A3.8,3.8,0,0,1,198.818,453.53Zm-70.406,0a2.73,2.73,0,1,1,2.729,2.735A2.731,2.731,0,0,1,128.412,453.53Zm143.808,0a1.895,1.895,0,1,1,1.905,1.9A1.9,1.9,0,0,1,272.22,453.53Zm1033.739,0a1.069,1.069,0,1,1,1.063,1.064A1.072,1.072,0,0,1,1305.959,453.528Zm-961.367-.008a1.068,1.068,0,1,1,1.061,1.064A1.072,1.072,0,0,1,344.592,453.52Zm-285.259.021a.355.355,0,1,1,.709,0,.355.355,0,0,1-.709,0Zm1211.587-.015a.361.361,0,0,1,.357-.36.355.355,0,0,1,.352.36.347.347,0,0,1-.352.354A.353.353,0,0,1,1270.92,453.525Zm-35.525-.005a.115.115,0,0,1,.121-.116.112.112,0,0,1,.11.116.116.116,0,0,1-.11.121A.119.119,0,0,1,1235.395,453.52Zm-35.777-.005a.117.117,0,1,1,.234,0,.117.117,0,1,1-.234,0Zm-35.8-.005a.121.121,0,0,1,.121-.116.113.113,0,0,1,.11.116.114.114,0,0,1-.11.121A.122.122,0,0,1,1163.819,453.509ZM163.27,437.523a2.97,2.97,0,1,1,2.969,2.974A2.968,2.968,0,0,1,163.27,437.523Zm71.883,0a2.492,2.492,0,1,1,2.491,2.5A2.492,2.492,0,0,1,235.152,437.52Zm-142.8.011a2.5,2.5,0,1,1,2.5,2.491A2.511,2.511,0,0,1,92.349,437.531Zm215.987-.011a.715.715,0,1,1,.715.715A.71.71,0,0,1,308.336,437.52Zm71.657,0a.48.48,0,1,1,.485.481A.478.478,0,0,1,379.993,437.52Zm-182.2-16a3.921,3.921,0,1,1,3.918,3.915A3.919,3.919,0,0,1,197.8,421.515Zm-70.062,0a2.614,2.614,0,1,1,2.614,2.614A2.619,2.619,0,0,1,127.734,421.515Zm143.576,0a1.777,1.777,0,1,1,1.776,1.776A1.778,1.778,0,0,1,271.311,421.515Zm72.438,0a.71.71,0,0,1,.709-.714.715.715,0,1,1,0,1.429A.711.711,0,0,1,343.748,421.515Zm963.89,0a.355.355,0,0,1,.349-.36.366.366,0,0,1,.36.36.36.36,0,0,1-.36.354A.348.348,0,0,1,1307.638,421.513Zm-35.683,0a.355.355,0,0,1,.349-.36.365.365,0,0,1,.36.36.359.359,0,0,1-.36.354A.348.348,0,0,1,1271.955,421.513Zm-35.454,0a.115.115,0,0,1,.12-.118.12.12,0,0,1,0,.239A.116.116,0,0,1,1236.5,421.515Zm-71.37,0a.115.115,0,0,1,.112-.118.12.12,0,0,1,0,.239A.114.114,0,0,1,1165.131,421.515ZM163.157,405.5a3.085,3.085,0,1,1,3.081,3.09A3.077,3.077,0,0,1,163.157,405.5Zm72.234,0a2.253,2.253,0,1,1,2.252,2.265A2.255,2.255,0,0,1,235.392,405.492ZM92.714,405.5a2.137,2.137,0,1,1,2.139,2.136A2.139,2.139,0,0,1,92.714,405.5Zm215.272,0a1.064,1.064,0,1,1,1.064,1.072A1.068,1.068,0,0,1,307.986,405.5Zm72.133.01a.356.356,0,0,1,.359-.365.363.363,0,0,1,.35.365.352.352,0,0,1-.35.347A.347.347,0,0,1,380.119,405.51ZM199.648,389.5a2.971,2.971,0,1,1,2.975,2.969A2.975,2.975,0,0,1,199.648,389.5Zm-71,0a2.5,2.5,0,1,1,2.49,2.493A2.489,2.489,0,0,1,128.651,389.5Zm143.918.005a1.544,1.544,0,1,1,1.556,1.545A1.55,1.55,0,0,1,272.569,389.5Zm72.618,0a.472.472,0,1,1,.943,0,.472.472,0,1,1-.943,0Zm854.43.006a.116.116,0,0,1,.124-.116.112.112,0,0,1,.11.116.118.118,0,0,1-.11.123A.12.12,0,0,1,1199.617,389.514Zm-35.8.008a.123.123,0,0,1,.121-.124.115.115,0,0,1,.11.124.112.112,0,0,1-.11.115A.121.121,0,0,1,1163.819,389.521Zm71.575-.008a.119.119,0,0,1,.121-.121.12.12,0,0,1,0,.239A.118.118,0,0,1,1235.395,389.514Zm35.762-.011a.121.121,0,0,1,.121-.116.112.112,0,0,1,.112.116.118.118,0,0,1-.112.124A.126.126,0,0,1,1271.156,389.5ZM165.316,373.519a2.614,2.614,0,1,1,2.614,2.609A2.624,2.624,0,0,1,165.316,373.519Zm72.458.011a1.779,1.779,0,1,1,1.778,1.784A1.784,1.784,0,0,1,237.774,373.53Zm72.414.026a1.069,1.069,0,1,1,1.074,1.064A1.073,1.073,0,0,1,310.188,373.556ZM95.3,373.5a1.063,1.063,0,1,1,1.063,1.074A1.065,1.065,0,0,1,95.3,373.5Zm287.673.086a.113.113,0,0,1,.112-.118.107.107,0,0,1,.11.118.108.108,0,0,1-.11.116A.116.116,0,0,1,382.97,373.59Zm-180.628-16a2.969,2.969,0,1,1,2.969,2.974A2.963,2.963,0,0,1,202.342,357.585Zm-71.3-.029a2.5,2.5,0,1,1,2.5,2.5A2.49,2.49,0,0,1,131.037,357.556Zm144.616.071a1.54,1.54,0,1,1,1.529,1.544A1.536,1.536,0,0,1,275.653,357.627Zm73.109.063a.482.482,0,1,1,.479.476A.48.48,0,0,1,348.763,357.69Zm811.152.042a.114.114,0,0,1,.111-.119.12.12,0,1,1-.111.119Zm36.114-.045a.117.117,0,0,1,.123-.116.113.113,0,0,1,.11.116.118.118,0,0,1-.11.124A.121.121,0,0,1,1196.029,357.688Zm36.058-.029a.119.119,0,0,1,.124-.124.115.115,0,0,1,.11.124.116.116,0,0,1-.11.116A.121.121,0,0,1,1232.087,357.659Zm36-.031a.113.113,0,0,1,.11-.121.118.118,0,1,1,0,.236A.112.112,0,0,1,1268.088,357.627ZM167.873,341.669a3.439,3.439,0,1,1,3.438,3.439A3.44,3.44,0,0,1,167.873,341.669Zm73.619.063a1.893,1.893,0,1,1,1.889,1.9A1.892,1.892,0,0,1,241.492,341.733Zm73.706.1a.475.475,0,0,1,.476-.481.482.482,0,0,1,.478.481.473.473,0,0,1-.478.47A.466.466,0,0,1,315.2,341.833Zm72.973.155a.121.121,0,0,1,.124-.118.117.117,0,0,1,.11.118.114.114,0,0,1-.11.121A.119.119,0,0,1,388.171,341.987Zm-289.144-.36a.363.363,0,0,1,.359-.365.357.357,0,0,1,.35.365.353.353,0,0,1-.35.355A.36.36,0,0,1,99.027,341.627ZM206.813,325.87a2.969,2.969,0,1,1,2.97,2.969A2.968,2.968,0,0,1,206.813,325.87Zm-71.433-.084a2.139,2.139,0,1,1,2.139,2.136A2.141,2.141,0,0,1,135.38,325.786Zm145.735.221a1.185,1.185,0,1,1,1.19,1.192A1.185,1.185,0,0,1,281.115,326.006Zm73.728.223a.365.365,0,0,1,.359-.365.355.355,0,0,1,.35.365.346.346,0,0,1-.35.35A.356.356,0,0,1,354.843,326.229Zm871.748-.124a.114.114,0,0,1,.11-.121.12.12,0,0,1,0,.239A.113.113,0,0,1,1226.591,326.106Zm36.387-.094a.114.114,0,0,1,.11-.121.116.116,0,0,1,.121.121.117.117,0,0,1-.121.118A.115.115,0,0,1,1262.978,326.012ZM173.624,310.038a2.735,2.735,0,1,1,2.729,2.732A2.734,2.734,0,0,1,173.624,310.038Zm73.692.181A1.783,1.783,0,1,1,249.1,312,1.787,1.787,0,0,1,247.316,310.219Zm74.227.271a.714.714,0,1,1,.715.707A.72.72,0,0,1,321.543,310.49Zm74.384.433a.123.123,0,0,1,.124-.124.123.123,0,0,1,0,.245A.124.124,0,0,1,395.927,310.923ZM213.9,294.461a2.137,2.137,0,1,1,2.139,2.139A2.136,2.136,0,0,1,213.9,294.461Zm224.573,1.663a.122.122,0,0,1,.123-.126.118.118,0,0,1,.11.126.116.116,0,0,1-.11.116A.12.12,0,0,1,438.472,296.125ZM288.711,294.79a.714.714,0,1,1,.715.714A.718.718,0,0,1,288.711,294.79Zm74.657.5a.115.115,0,0,1,.109-.116.12.12,0,0,1,.124.116.121.121,0,0,1-.124.121A.117.117,0,0,1,363.368,295.289Zm-221.353-1.048a1.068,1.068,0,1,1,2.136,0,1.068,1.068,0,1,1-2.136,0Zm1076.9.772a.113.113,0,0,1,.11-.121.118.118,0,1,1,0,.236A.112.112,0,0,1,1218.92,295.013ZM254.914,279.1a1.783,1.783,0,1,1,1.787,1.784A1.78,1.78,0,0,1,254.914,279.1ZM406.2,280.6a.116.116,0,1,1,.231,0,.115.115,0,0,1-.121.113A.114.114,0,0,1,406.2,280.6ZM181.29,278.722a1.781,1.781,0,1,1,1.794,1.784A1.788,1.788,0,0,1,181.29,278.722Zm149.228.956a.476.476,0,1,1,.476.478A.477.477,0,0,1,330.518,279.678ZM221.423,263.447a2.613,2.613,0,1,1,2.614,2.614A2.609,2.609,0,0,1,221.423,263.447Zm75.929.641a1.19,1.19,0,0,1,2.38,0,1.19,1.19,0,1,1-2.38,0Zm76.6.978a.114.114,0,0,1,.11-.121.116.116,0,0,1,.121.121.118.118,0,0,1-.121.115A.115.115,0,0,1,373.95,265.066Zm-109-16.57a1.19,1.19,0,1,1,1.19,1.2A1.2,1.2,0,0,1,264.945,248.5Zm76.762,1.048a.115.115,0,0,1,.12-.119.12.12,0,0,1,0,.239A.115.115,0,0,1,341.707,249.544ZM189.655,247.8a1.784,1.784,0,1,1,1.778,1.784A1.781,1.781,0,0,1,189.655,247.8Zm197.1-12.1a.115.115,0,0,1,.11-.115.117.117,0,0,1,.121.115.119.119,0,0,1-.121.121A.117.117,0,0,1,386.755,235.707Zm-77.617-1.684a.47.47,0,1,1,.94,0,.47.47,0,1,1-.94,0Zm-76.917-1.093a1.54,1.54,0,1,1,1.54,1.54A1.538,1.538,0,0,1,232.221,232.93Zm-73.454-.751a.113.113,0,0,1,.11-.119.12.12,0,1,1,0,.239A.114.114,0,0,1,158.767,232.179Zm195.84-11.954a.112.112,0,0,1,.11-.116.115.115,0,0,1,.123.116.117.117,0,0,1-.123.124A.115.115,0,0,1,354.606,220.225Zm-78.646-1.713a1.429,1.429,0,1,1,1.43,1.429A1.433,1.433,0,0,1,275.961,218.512Zm-76.339-1.143a1.784,1.784,0,1,1,1.79,1.784A1.787,1.787,0,0,1,199.622,217.369Zm202.09-9.968a.119.119,0,0,1,.115-.124.122.122,0,0,1,0,.244A.118.118,0,0,1,401.712,207.4Zm-79.856-2.656a.714.714,0,1,1,.715.709A.72.72,0,0,1,321.855,204.746ZM244,203.009a1.185,1.185,0,1,1,1.181,1.185A1.179,1.179,0,0,1,244,203.009Zm125.247-11.142a.359.359,0,0,1,.359-.355.357.357,0,0,1,0,.714A.362.362,0,0,1,369.245,191.867Zm-80.963-2.6a2.132,2.132,0,1,1,2.139,2.136A2.139,2.139,0,0,1,288.282,189.263Zm-76.128-1.758a.83.83,0,1,1,.825.838A.833.833,0,0,1,212.154,187.505Zm206.6-7.222a.117.117,0,1,1,.113.118A.115.115,0,0,1,418.757,180.283Zm-81.727-3.93a.352.352,0,0,1,.36-.36.357.357,0,0,1,0,.714A.35.35,0,0,1,337.03,176.354Zm-80.313-2.572a1.544,1.544,0,1,1,1.545,1.54A1.548,1.548,0,0,1,256.717,173.781Zm214.02-3.226a.108.108,0,0,1,.112-.118.12.12,0,0,1,0,.239A.108.108,0,0,1,470.736,170.555Zm-84.687-5.948a.35.35,0,0,1,.349-.355.358.358,0,0,1,.36.355.363.363,0,0,1-.36.36A.354.354,0,0,1,386.049,164.607ZM304.1,160.834a1.069,1.069,0,1,1,1.064,1.064A1.063,1.063,0,0,1,304.1,160.834Zm133.672-6.31a.116.116,0,1,1,.231,0,.111.111,0,0,1-.11.11A.114.114,0,0,1,437.775,154.524Zm-84.509-5.562a.714.714,0,1,1,1.429,0,.714.714,0,0,1-1.429,0Zm-81.851-3.642a1.545,1.545,0,1,1,1.54,1.545A1.543,1.543,0,0,1,271.416,145.321Zm133.162-6.763a.471.471,0,1,1,.479.483A.472.472,0,0,1,404.578,138.558Zm-84.057-5.22a1.069,1.069,0,1,1,1.074,1.069A1.073,1.073,0,0,1,320.521,133.338Zm138.138-3.09a.13.13,0,0,1,.12-.129.121.121,0,0,1,.11.129.111.111,0,0,1-.11.11A.12.12,0,0,1,458.659,130.249Zm-86.832-7.556a.477.477,0,1,1,.476.47A.473.473,0,0,1,371.827,122.693Zm-83.071-4.958a.48.48,0,1,1,.485.476A.475.475,0,0,1,288.756,117.735Zm136.336-3.859a.352.352,0,0,1,.349-.352.361.361,0,0,1,.36.352.365.365,0,0,1-.36.362A.357.357,0,0,1,425.092,113.876Zm56.217-6.285a.112.112,0,0,1,.109-.115.118.118,0,1,1,0,.236A.113.113,0,0,1,481.309,107.591Zm-142.029-.709a.355.355,0,1,1,.709,0,.355.355,0,0,1-.709,0Zm52.633-9.227a.36.36,0,1,1,.36.354A.359.359,0,0,1,391.912,97.656Zm-85-6.547a.117.117,0,1,1,.234,0,.115.115,0,0,1-.122.113A.113.113,0,0,1,306.912,91.108Zm140.231-.452a.361.361,0,0,1,.36-.36.352.352,0,0,1,.35.36.348.348,0,0,1-.35.35A.357.357,0,0,1,447.144,90.657Zm58.439-3.949a.117.117,0,0,1,.11-.121.126.126,0,0,1,.121.121.121.121,0,0,1-.121.116A.113.113,0,0,1,505.583,86.708ZM358.754,81.54a.476.476,0,1,1,.476.476A.476.476,0,0,1,358.754,81.54Zm54.693-7.587a.36.36,0,1,1,.72,0,.36.36,0,0,1-.72,0Zm57.3-4.947a.348.348,0,0,1,.347-.354.358.358,0,0,1,.36.354.364.364,0,0,1-.36.36A.354.354,0,0,1,470.749,69.006Zm60.592-1.314a.118.118,0,1,1,.236,0,.118.118,0,0,1-.236,0ZM436.7,51.672a.114.114,0,0,1,.11-.121.116.116,0,1,1,0,.231A.111.111,0,0,1,436.7,51.672Zm121.761-1.017a.117.117,0,0,1,.234,0,.117.117,0,1,1-.234,0Zm-62.437-1.613a.114.114,0,0,1,.11-.121.116.116,0,0,1,.12.121.118.118,0,0,1-.12.115A.115.115,0,0,1,496.023,49.042Zm26.353-18.191a.117.117,0,0,1,.124-.121.12.12,0,0,1,0,.239A.118.118,0,0,1,522.376,30.851Zm93.763-7.974a.1.1,0,0,1,.109-.11.11.11,0,0,1,.11.11.116.116,0,0,1-.11.124A.11.11,0,0,1,616.139,22.877Zm-66.211-8.359a.115.115,0,0,1,.121-.121.113.113,0,0,1,.11.121.117.117,0,0,1-.11.121A.118.118,0,0,1,549.928,14.518ZM578.54.123A.12.12,0,0,1,578.65,0a.128.128,0,0,1,.121.123.122.122,0,0,1-.121.122A.114.114,0,0,1,578.54.123Z" transform="translate(0.004 -0.001)" fill="#f5f5f5" stroke="rgba(0,0,0,0)" stroke-width="1"/>
  </g>
</svg>
