<svg xmlns="http://www.w3.org/2000/svg" xmlns:xlink="http://www.w3.org/1999/xlink" width="1038.874" height="1143.147" viewBox="0 0 1038.874 1143.147">
  <defs>
    <clipPath id="clip-path">
      <rect id="Rect치ngulo_2699" data-name="Rect치ngulo 2699" width="1051.265" height="934.104" fill="#f5f5f5"/>
    </clipPath>
  </defs>
  <g id="Grupo_8048" data-name="Grupo 8048" transform="translate(928.987) rotate(84)" clip-path="url(#clip-path)">
    <path id="Uni칩n_3" data-name="Uni칩n 3" d="M-7770.075-3337.33a.09.09,0,0,1,.087-.1.09.09,0,0,1,.093.1.087.087,0,0,1-.093.085A.087.087,0,0,1-7770.075-3337.33Zm323.778-6.277a2.832,2.832,0,0,1,2.834-2.832,2.824,2.824,0,0,1,2.82,2.832,2.823,2.823,0,0,1-2.82,2.828A2.831,2.831,0,0,1-7446.3-3343.607Zm-24.625,0a2.827,2.827,0,0,1,2.829-2.832,2.825,2.825,0,0,1,2.828,2.832,2.825,2.825,0,0,1-2.828,2.828A2.826,2.826,0,0,1-7470.922-3343.607Zm-24.065-1.006a2.289,2.289,0,0,1,2.283-2.287,2.289,2.289,0,0,1,2.283,2.287,2.286,2.286,0,0,1-2.283,2.283A2.286,2.286,0,0,1-7494.988-3344.613Zm75.213,0a.918.918,0,0,1,.917-.911.912.912,0,0,1,.915.911.919.919,0,0,1-.915.917A.924.924,0,0,1-7419.775-3344.613Zm-224.829-.077a.821.821,0,0,1,.818-.822.822.822,0,0,1,.824.822.823.823,0,0,1-.824.822A.822.822,0,0,1-7644.6-3344.69Zm125.065-1.931a2.284,2.284,0,0,1,2.287-2.279,2.286,2.286,0,0,1,2.283,2.279,2.285,2.285,0,0,1-2.283,2.285A2.283,2.283,0,0,1-7519.538-3346.621Zm124.956,0a.271.271,0,0,1,.269-.273.276.276,0,0,1,.277.273.275.275,0,0,1-.277.273A.269.269,0,0,1-7394.582-3346.619Zm-149.672-3.006a2.556,2.556,0,0,1,2.558-2.56,2.555,2.555,0,0,1,2.551,2.56,2.554,2.554,0,0,1-2.551,2.556A2.555,2.555,0,0,1-7544.254-3349.625Zm174.118,0a.281.281,0,0,1,.269-.281.277.277,0,0,1,.277.281.268.268,0,0,1-.277.269A.271.271,0,0,1-7370.137-3349.625Zm-199.161-4.008a3.283,3.283,0,0,1,3.293-3.279,3.282,3.282,0,0,1,3.291,3.279,3.288,3.288,0,0,1-3.291,3.291A3.288,3.288,0,0,1-7569.3-3353.634Zm-98.119,1.147a.27.27,0,0,1,.269-.273.277.277,0,0,1,.276.273.28.28,0,0,1-.276.277A.272.272,0,0,1-7667.417-3352.486Zm-74.213-1.333a.094.094,0,0,1,.085-.1.094.094,0,0,1,.093.1.088.088,0,0,1-.093.089A.087.087,0,0,1-7741.629-3353.82Zm147.119-4.8a4.383,4.383,0,0,1,4.386-4.382,4.382,4.382,0,0,1,4.386,4.382,4.382,4.382,0,0,1-4.386,4.386A4.382,4.382,0,0,1-7594.511-3358.622Zm-95.769-2.56a.091.091,0,0,1,.095-.093.087.087,0,0,1,.085.093.087.087,0,0,1-.085.091A.09.09,0,0,1-7690.28-3361.182Zm73.334-3.408a2.928,2.928,0,0,1,2.925-2.921,2.926,2.926,0,0,1,2.925,2.921,2.928,2.928,0,0,1-2.925,2.926A2.93,2.93,0,0,1-7616.946-3364.59Zm-30.2-6.937a9.5,9.5,0,0,1,9.5-9.5,9.5,9.5,0,0,1,9.5,9.5,9.5,9.5,0,0,1-9.5,9.5A9.5,9.5,0,0,1-7647.147-3371.527Zm177.447.57a7.755,7.755,0,0,1,7.762-7.758,7.754,7.754,0,0,1,7.756,7.758,7.758,7.758,0,0,1-7.756,7.764A7.76,7.76,0,0,1-7469.7-3370.958Zm-25.353-.794a8.5,8.5,0,0,1,8.5-8.491,8.49,8.49,0,0,1,8.483,8.491,8.491,8.491,0,0,1-8.483,8.5A8.5,8.5,0,0,1-7495.052-3371.752Zm49.988.529a7.756,7.756,0,0,1,7.753-7.758,7.764,7.764,0,0,1,7.764,7.758,7.765,7.765,0,0,1-7.764,7.764A7.758,7.758,0,0,1-7445.064-3371.222Zm24.045-1.313a8.3,8.3,0,0,1,8.306-8.313,8.315,8.315,0,0,1,8.312,8.313,8.316,8.316,0,0,1-8.312,8.307A8.3,8.3,0,0,1-7421.02-3372.535Zm-99.145-1.055a9.042,9.042,0,0,1,9.045-9.037,9.037,9.037,0,0,1,9.045,9.037,9.038,9.038,0,0,1-9.045,9.041A9.043,9.043,0,0,1-7520.165-3373.59Zm-243.456,8.675a.089.089,0,0,1,.085-.095.091.091,0,0,1,.093.095.087.087,0,0,1-.093.085A.086.086,0,0,1-7763.62-3364.915Zm367.289-9.988a8.123,8.123,0,0,1,8.129-8.125,8.122,8.122,0,0,1,8.13,8.125,8.128,8.128,0,0,1-8.13,8.128A8.129,8.129,0,0,1-7396.332-3374.9Zm-147.923-1.572a8.679,8.679,0,0,1,8.677-8.679,8.68,8.68,0,0,1,8.679,8.679,8.679,8.679,0,0,1-8.679,8.675A8.678,8.678,0,0,1-7544.254-3376.475Zm-169.261,5.7a.636.636,0,0,1,.634-.638.637.637,0,0,1,.643.638.637.637,0,0,1-.643.638A.636.636,0,0,1-7713.515-3370.774Zm439.053-.754a.553.553,0,0,1,.55-.55.547.547,0,0,1,.549.55.545.545,0,0,1-.549.55A.55.55,0,0,1-7274.462-3371.527Zm-95.828-6.786a6.485,6.485,0,0,1,6.485-6.485,6.483,6.483,0,0,1,6.477,6.485,6.483,6.483,0,0,1-6.477,6.485A6.485,6.485,0,0,1-7370.29-3378.313Zm-198-2.091a8.4,8.4,0,0,1,8.4-8.4,8.4,8.4,0,0,1,8.4,8.4,8.4,8.4,0,0,1-8.4,8.4A8.4,8.4,0,0,1-7568.292-3380.4Zm-99.9.98a7.208,7.208,0,0,1,7.2-7.217,7.215,7.215,0,0,1,7.214,7.217,7.215,7.215,0,0,1-7.214,7.214A7.207,7.207,0,0,1-7668.19-3379.425Zm-213.024,5.071a.09.09,0,0,1,.1-.091.087.087,0,0,1,.085.091.086.086,0,0,1-.085.089A.09.09,0,0,1-7881.214-3374.354Zm287.879-11.014a9.317,9.317,0,0,1,9.322-9.322,9.315,9.315,0,0,1,9.313,9.322,9.318,9.318,0,0,1-9.313,9.313A9.319,9.319,0,0,1-7593.335-3385.368Zm-191.845,8.536c0-.053.089-.093.089-.093a.087.087,0,0,1,.091.093.092.092,0,0,1-.091.093A.1.1,0,0,1-7785.18-3376.833Zm441.03-5.927a4.572,4.572,0,0,1,4.57-4.566,4.567,4.567,0,0,1,4.568,4.566,4.567,4.567,0,0,1-4.568,4.568A4.573,4.573,0,0,1-7344.15-3382.76Zm93.486,3.335a.09.09,0,0,1,.085-.093.1.1,0,0,1,.095.093.1.1,0,0,1-.095.093A.09.09,0,0,1-7250.664-3379.425Zm-485.143-1.818a.639.639,0,0,1,.634-.638.641.641,0,0,1,.643.638.638.638,0,0,1-.643.638A.636.636,0,0,1-7735.807-3381.243Zm118.677-10.124a9.218,9.218,0,0,1,9.221-9.219,9.223,9.223,0,0,1,9.229,9.219,9.23,9.23,0,0,1-9.229,9.225A9.224,9.224,0,0,1-7617.13-3391.366Zm-70.31,3.1a3.465,3.465,0,0,1,3.467-3.467,3.465,3.465,0,0,1,3.475,3.467,3.47,3.47,0,0,1-3.475,3.471A3.47,3.47,0,0,1-7687.439-3388.265Zm369.59.02a2.283,2.283,0,0,1,2.283-2.283,2.283,2.283,0,0,1,2.283,2.283,2.282,2.282,0,0,1-2.283,2.287A2.282,2.282,0,0,1-7317.85-3388.245Zm-398.5-9.788a9.77,9.77,0,0,1,9.764-9.778,9.777,9.777,0,0,1,9.774,9.778,9.769,9.769,0,0,1-9.774,9.764A9.762,9.762,0,0,1-7716.348-3398.033Zm-184.386,8.661a.1.1,0,0,1,.1-.1.093.093,0,0,1,.087.1.087.087,0,0,1-.087.085A.091.091,0,0,1-7900.734-3389.373Zm94.458-.176a.093.093,0,0,1,.093-.089.087.087,0,0,1,.085.089.088.088,0,0,1-.085.095A.094.094,0,0,1-7806.276-3389.548Zm166.083-8.829a8.674,8.674,0,0,1,8.677-8.673,8.674,8.674,0,0,1,8.679,8.673,8.672,8.672,0,0,1-8.679,8.675A8.672,8.672,0,0,1-7640.193-3398.377Zm176.1.008a8.311,8.311,0,0,1,8.312-8.307,8.31,8.31,0,0,1,8.306,8.307,8.308,8.308,0,0,1-8.306,8.313A8.31,8.31,0,0,1-7464.09-3398.369Zm24.619-.548a8.315,8.315,0,0,1,8.312-8.313,8.31,8.31,0,0,1,8.313,8.313,8.311,8.311,0,0,1-8.313,8.307A8.316,8.316,0,0,1-7439.471-3398.916Zm-48.422,0a7.493,7.493,0,0,1,7.487-7.5,7.5,7.5,0,0,1,7.485,7.5,7.483,7.483,0,0,1-7.485,7.485A7.48,7.48,0,0,1-7487.893-3398.916Zm-25.49-1.661a8.4,8.4,0,0,1,8.406-8.4,8.4,8.4,0,0,1,8.4,8.4,8.407,8.407,0,0,1-8.4,8.4A8.4,8.4,0,0,1-7513.382-3400.577Zm-243.745,8a.087.087,0,0,1,.085-.093.1.1,0,0,1,.1.093.1.1,0,0,1-.1.085A.086.086,0,0,1-7757.127-3392.575Zm342.7-8a7.855,7.855,0,0,1,7.853-7.853,7.852,7.852,0,0,1,7.843,7.853,7.85,7.85,0,0,1-7.843,7.853A7.852,7.852,0,0,1-7414.431-3400.577Zm122.067,5.834a.553.553,0,0,1,.55-.55.547.547,0,0,1,.549.55.544.544,0,0,1-.549.546A.549.549,0,0,1-7292.364-3394.742Zm-97.6-8.592a7.856,7.856,0,0,1,7.853-7.849,7.853,7.853,0,0,1,7.861,7.849,7.858,7.858,0,0,1-7.861,7.861A7.862,7.862,0,0,1-7389.968-3403.335Zm-146.613,0a7.128,7.128,0,0,1,7.131-7.119,7.123,7.123,0,0,1,7.122,7.119,7.124,7.124,0,0,1-7.122,7.125A7.129,7.129,0,0,1-7536.581-3403.337Zm-126.906-3.047a8.677,8.677,0,0,1,8.679-8.673,8.671,8.671,0,0,1,8.671,8.673,8.671,8.671,0,0,1-8.671,8.675A8.677,8.677,0,0,1-7663.487-3406.383Zm458.421,8.348c0-.057.028-.1.085-.1a.089.089,0,0,1,.085.1.086.086,0,0,1-.085.087A.081.081,0,0,1-7205.066-3398.035Zm-67.584-4.222a4.292,4.292,0,0,1,4.292-4.289,4.294,4.294,0,0,1,4.3,4.289,4.3,4.3,0,0,1-4.3,4.293A4.293,4.293,0,0,1-7272.65-3402.258Zm-290.17-4.931a9.035,9.035,0,0,1,9.037-9.037,9.037,9.037,0,0,1,9.044,9.037,9.038,9.038,0,0,1-9.044,9.041A9.036,9.036,0,0,1-7562.82-3407.189Zm198.373,0a6.668,6.668,0,0,1,6.669-6.665,6.668,6.668,0,0,1,6.667,6.665,6.665,6.665,0,0,1-6.667,6.665A6.666,6.666,0,0,1-7364.448-3407.189Zm-372.355-1.538a8.031,8.031,0,0,1,8.035-8.035,8.031,8.031,0,0,1,8.035,8.035,8.033,8.033,0,0,1-8.035,8.037A8.032,8.032,0,0,1-7736.8-3408.727Zm148.664-3.4a10.223,10.223,0,0,1,10.229-10.225,10.225,10.225,0,0,1,10.229,10.225,10.229,10.229,0,0,1-10.229,10.229A10.228,10.228,0,0,1-7588.139-3412.127Zm-238.738,9.093a.083.083,0,0,1,.085-.095.088.088,0,0,1,.087.095.087.087,0,0,1-.087.089A.082.082,0,0,1-7826.877-3403.034Zm47.869-1.717a.56.56,0,0,1,.558-.55.553.553,0,0,1,.549.55.55.55,0,0,1-.549.549A.557.557,0,0,1-7779.008-3404.751Zm437.968-7.374a7.393,7.393,0,0,1,7.388-7.4,7.4,7.4,0,0,1,7.4,7.4,7.4,7.4,0,0,1-7.4,7.4A7.391,7.391,0,0,1-7341.041-3412.125Zm-346.106-3.263a9.408,9.408,0,0,1,9.411-9.4,9.406,9.406,0,0,1,9.4,9.4,9.408,9.408,0,0,1-9.4,9.411A9.41,9.41,0,0,1-7687.146-3415.388Zm437.612,4.623a4.283,4.283,0,0,1,4.293-4.283,4.289,4.289,0,0,1,4.293,4.283,4.3,4.3,0,0,1-4.293,4.3A4.293,4.293,0,0,1-7249.534-3410.765Zm-361.846-7.376a9.585,9.585,0,0,1,9.582-9.59,9.587,9.587,0,0,1,9.59,9.59,9.584,9.584,0,0,1-9.59,9.584A9.582,9.582,0,0,1-7611.38-3418.141Zm294.762,0a6.845,6.845,0,0,1,6.853-6.843,6.845,6.845,0,0,1,6.851,6.843,6.848,6.848,0,0,1-6.851,6.847A6.849,6.849,0,0,1-7316.618-3418.145Zm-318.446-7.083a9.678,9.678,0,0,1,9.679-9.679,9.682,9.682,0,0,1,9.679,9.679,9.685,9.685,0,0,1-9.679,9.679A9.682,9.682,0,0,1-7635.063-3425.228Zm-74.053-.123a8.858,8.858,0,0,1,8.853-8.861,8.859,8.859,0,0,1,8.861,8.861,8.857,8.857,0,0,1-8.861,8.853A8.857,8.857,0,0,1-7709.117-3425.352Zm250.187-.5a9.307,9.307,0,0,1,9.312-9.307,9.305,9.305,0,0,1,9.305,9.307,9.308,9.308,0,0,1-9.305,9.322A9.309,9.309,0,0,1-7458.93-3425.849Zm-388.033,8.558a.087.087,0,0,1,.085-.095.092.092,0,0,1,.085.095.09.09,0,0,1-.085.093A.085.085,0,0,1-7846.962-3417.291Zm412.541-9.425a9.411,9.411,0,0,1,9.413-9.41,9.4,9.4,0,0,1,9.4,9.41,9.4,9.4,0,0,1-9.4,9.4A9.409,9.409,0,0,1-7434.422-3426.715Zm-48.6.582a8.767,8.767,0,0,1,8.764-8.768,8.767,8.767,0,0,1,8.772,8.768,8.768,8.768,0,0,1-8.772,8.764A8.767,8.767,0,0,1-7483.018-3426.134Zm-316.624,8.382a.275.275,0,0,1,.269-.281.276.276,0,0,1,.276.281.267.267,0,0,1-.276.269A.266.266,0,0,1-7799.642-3417.751Zm46.487-2.558a2.652,2.652,0,0,1,2.652-2.648,2.638,2.638,0,0,1,2.637,2.648,2.642,2.642,0,0,1-2.637,2.649A2.656,2.656,0,0,1-7753.155-3420.309Zm-140.3,1.711a.356.356,0,0,1,.366-.362.353.353,0,0,1,.354.362.357.357,0,0,1-.354.368A.36.36,0,0,1-7893.451-3418.6Zm600.335-6.63a6.94,6.94,0,0,1,6.936-6.938,6.942,6.942,0,0,1,6.938,6.938,6.943,6.943,0,0,1-6.938,6.942A6.941,6.941,0,0,1-7293.116-3425.228Zm69.235,4.984a1.366,1.366,0,0,1,1.368-1.372,1.372,1.372,0,0,1,1.374,1.372,1.371,1.371,0,0,1-1.374,1.366A1.365,1.365,0,0,1-7223.881-3420.244Zm-185.075-8.505a8.494,8.494,0,0,1,8.5-8.5,8.493,8.493,0,0,1,8.487,8.5,8.492,8.492,0,0,1-8.487,8.491A8.493,8.493,0,0,1-7408.956-3428.75Zm-96.553,1.162a6.672,6.672,0,0,1,6.669-6.665,6.666,6.666,0,0,1,6.669,6.665,6.666,6.666,0,0,1-6.669,6.667A6.673,6.673,0,0,1-7505.509-3427.588Zm-25.31-2.618a7.488,7.488,0,0,1,7.485-7.485,7.485,7.485,0,0,1,7.487,7.485,7.481,7.481,0,0,1-7.487,7.491A7.484,7.484,0,0,1-7530.819-3430.206Zm146.745-1.74a8.039,8.039,0,0,1,8.035-8.032,8.035,8.035,0,0,1,8.037,8.032,8.033,8.033,0,0,1-8.037,8.039A8.037,8.037,0,0,1-7384.075-3431.946Zm-172.719-2.022a9.125,9.125,0,0,1,9.122-9.132,9.134,9.134,0,0,1,9.138,9.132,9.137,9.137,0,0,1-9.138,9.134A9.128,9.128,0,0,1-7556.794-3433.968Zm-100.056.6a8.217,8.217,0,0,1,8.218-8.219,8.217,8.217,0,0,1,8.223,8.219,8.222,8.222,0,0,1-8.223,8.222A8.222,8.222,0,0,1-7656.85-3433.366Zm452.439,2.669a4.2,4.2,0,0,1,4.2-4.2,4.2,4.2,0,0,1,4.2,4.2,4.206,4.206,0,0,1-4.2,4.2A4.205,4.205,0,0,1-7204.411-3430.7Zm-65.1-2.669a6.575,6.575,0,0,1,6.58-6.572,6.573,6.573,0,0,1,6.57,6.572,6.577,6.577,0,0,1-6.57,6.578A6.579,6.579,0,0,1-7269.511-3433.366Zm-461.958-2.909a9.133,9.133,0,0,1,9.129-9.13,9.129,9.129,0,0,1,9.13,9.13,9.129,9.129,0,0,1-9.13,9.13A9.133,9.133,0,0,1-7731.469-3436.275Zm-45.309,3.505a5.028,5.028,0,0,1,5.028-5.024,5.022,5.022,0,0,1,5.021,5.024,5.022,5.022,0,0,1-5.021,5.022A5.027,5.027,0,0,1-7776.778-3432.77Zm417.219-3.513a7.763,7.763,0,0,1,7.764-7.764,7.761,7.761,0,0,1,7.762,7.764,7.76,7.76,0,0,1-7.762,7.762A7.762,7.762,0,0,1-7359.559-3436.283Zm-221.38-2.6a9.131,9.131,0,0,1,9.14-9.13,9.127,9.127,0,0,1,9.122,9.13,9.125,9.125,0,0,1-9.122,9.13A9.129,9.129,0,0,1-7580.938-3438.879Zm-239.1,7.32a.275.275,0,0,1,.276-.273.269.269,0,0,1,.269.273.271.271,0,0,1-.269.273A.276.276,0,0,1-7820.04-3431.56Zm-46.464-.723a.083.083,0,0,1,.084-.091.09.09,0,0,1,.087.091.091.091,0,0,1-.087.093A.085.085,0,0,1-7866.5-3432.283Zm185.518-10.249a9.5,9.5,0,0,1,9.5-9.5,9.5,9.5,0,0,1,9.5,9.5,9.495,9.495,0,0,1-9.5,9.5A9.5,9.5,0,0,1-7680.986-3442.532Zm345.441.772a7.76,7.76,0,0,1,7.764-7.764,7.766,7.766,0,0,1,7.764,7.764,7.764,7.764,0,0,1-7.764,7.758A7.757,7.757,0,0,1-7335.545-3441.76Zm-269.63-3.17a9.492,9.492,0,0,1,9.489-9.5,9.5,9.5,0,0,1,9.5,9.5,9.5,9.5,0,0,1-9.5,9.5A9.491,9.491,0,0,1-7605.176-3444.93Zm359.349,2.4a5.751,5.751,0,0,1,5.754-5.748,5.746,5.746,0,0,1,5.754,5.748,5.745,5.745,0,0,1-5.754,5.75A5.75,5.75,0,0,1-7245.827-3442.534Zm-507.322-5.6a9.227,9.227,0,0,1,9.229-9.22,9.218,9.218,0,0,1,9.219,9.22,9.221,9.221,0,0,1-9.219,9.225A9.23,9.23,0,0,1-7753.149-3448.132Zm573.32,6.051a1.457,1.457,0,0,1,1.461-1.465,1.463,1.463,0,0,1,1.46,1.465,1.464,1.464,0,0,1-1.46,1.457A1.458,1.458,0,0,1-7179.829-3442.082Zm-131.8-6.287a7.58,7.58,0,0,1,7.572-7.584,7.581,7.581,0,0,1,7.58,7.584,7.578,7.578,0,0,1-7.58,7.576A7.577,7.577,0,0,1-7311.633-3448.369Zm-316.2-3.725a8.585,8.585,0,0,1,8.58-8.586,8.588,8.588,0,0,1,8.59,8.586,8.585,8.585,0,0,1-8.59,8.584A8.583,8.583,0,0,1-7627.829-3452.094Zm-75.128-.626a9.038,9.038,0,0,1,9.045-9.037,9.037,9.037,0,0,1,9.037,9.037,9.034,9.034,0,0,1-9.037,9.039A9.036,9.036,0,0,1-7702.957-3452.72Zm226.184-.685a8.677,8.677,0,0,1,8.679-8.675,8.669,8.669,0,0,1,8.671,8.675,8.669,8.669,0,0,1-8.671,8.675A8.677,8.677,0,0,1-7476.773-3453.405Zm-316.887,7.323a1.192,1.192,0,0,1,1.192-1.192,1.19,1.19,0,0,1,1.184,1.192,1.187,1.187,0,0,1-1.184,1.184A1.189,1.189,0,0,1-7793.66-3446.082Zm342.338-7.323a7.851,7.851,0,0,1,7.851-7.849,7.853,7.853,0,0,1,7.855,7.849,7.854,7.854,0,0,1-7.855,7.853A7.852,7.852,0,0,1-7451.321-3453.405Zm-388.554,7.255a.274.274,0,0,1,.269-.281.275.275,0,0,1,.269.281.269.269,0,0,1-.269.269A.267.267,0,0,1-7839.875-3446.15Zm615.74-6.57a6.486,6.486,0,0,1,6.485-6.483,6.482,6.482,0,0,1,6.485,6.483,6.485,6.485,0,0,1-6.485,6.485A6.489,6.489,0,0,1-7224.135-3452.72Zm-202.949-1.913a8.22,8.22,0,0,1,8.218-8.219,8.222,8.222,0,0,1,8.219,8.219,8.22,8.22,0,0,1-8.219,8.219A8.219,8.219,0,0,1-7427.084-3454.634Zm-73.649,0a8.034,8.034,0,0,1,8.037-8.031,8.027,8.027,0,0,1,8.035,8.031,8.032,8.032,0,0,1-8.035,8.037A8.039,8.039,0,0,1-7500.733-3454.634Zm212.3-1.461a7.756,7.756,0,0,1,7.764-7.762,7.761,7.761,0,0,1,7.764,7.762,7.768,7.768,0,0,1-7.764,7.764A7.763,7.763,0,0,1-7288.431-3456.094Zm-113.962-.994a8.032,8.032,0,0,1,8.035-8.031,8.039,8.039,0,0,1,8.037,8.031,8.039,8.039,0,0,1-8.037,8.041A8.032,8.032,0,0,1-7402.393-3457.088Zm-122.849,0a8.04,8.04,0,0,1,8.042-8.032,8.04,8.04,0,0,1,8.037,8.032,8.038,8.038,0,0,1-8.037,8.039A8.038,8.038,0,0,1-7525.241-3457.086Zm-249.242-3.816a9.5,9.5,0,0,1,9.5-9.5,9.506,9.506,0,0,1,9.5,9.5,9.5,9.5,0,0,1-9.5,9.5A9.495,9.495,0,0,1-7774.483-3460.9Zm123.176.531a8.86,8.86,0,0,1,8.863-8.853,8.852,8.852,0,0,1,8.853,8.853,8.854,8.854,0,0,1-8.853,8.863A8.863,8.863,0,0,1-7651.307-3460.371Zm-169.728.139a8.4,8.4,0,0,1,8.406-8.4,8.4,8.4,0,0,1,8.4,8.4,8.4,8.4,0,0,1-8.4,8.4A8.4,8.4,0,0,1-7821.034-3460.232Zm662.35,5.831a1.647,1.647,0,0,1,1.644-1.649,1.647,1.647,0,0,1,1.645,1.649,1.643,1.643,0,0,1-1.645,1.638A1.643,1.643,0,0,1-7158.684-3454.4Zm-219.265-6.356a7.944,7.944,0,0,1,7.948-7.938,7.935,7.935,0,0,1,7.938,7.938,7.937,7.937,0,0,1-7.938,7.946A7.945,7.945,0,0,1-7377.949-3460.757Zm-171.465,0a7.857,7.857,0,0,1,7.853-7.849,7.858,7.858,0,0,1,7.861,7.849,7.863,7.863,0,0,1-7.861,7.861A7.862,7.862,0,0,1-7549.414-3460.761Zm-174.395-3.142a7.945,7.945,0,0,1,7.946-7.942,7.94,7.94,0,0,1,7.946,7.942,7.937,7.937,0,0,1-7.946,7.942A7.943,7.943,0,0,1-7723.809-3463.9Zm369.178-1.729a8.769,8.769,0,0,1,8.764-8.772,8.771,8.771,0,0,1,8.772,8.772,8.765,8.765,0,0,1-8.772,8.764A8.763,8.763,0,0,1-7354.631-3465.632Zm-219.562,0a8.5,8.5,0,0,1,8.5-8.5,8.493,8.493,0,0,1,8.485,8.5,8.486,8.486,0,0,1-8.485,8.491A8.5,8.5,0,0,1-7574.193-3465.636Zm310.127.725a6.4,6.4,0,0,1,6.4-6.4,6.392,6.392,0,0,1,6.386,6.4,6.391,6.391,0,0,1-6.386,6.392A6.394,6.394,0,0,1-7264.066-3464.911Zm63.612,1.008a4.753,4.753,0,0,1,4.754-4.748,4.744,4.744,0,0,1,4.744,4.748,4.742,4.742,0,0,1-4.744,4.748A4.75,4.75,0,0,1-7200.454-3463.9Zm-473.812-5.82a9.034,9.034,0,0,1,9.037-9.041,9.042,9.042,0,0,1,9.045,9.041,9.04,9.04,0,0,1-9.045,9.035A9.033,9.033,0,0,1-7674.265-3469.723Zm-185.144,8.21a.553.553,0,0,1,.549-.55.546.546,0,0,1,.542.55.544.544,0,0,1-.542.547A.551.551,0,0,1-7859.409-3461.512Zm528.735-10.2a8.674,8.674,0,0,1,8.679-8.675,8.674,8.674,0,0,1,8.677,8.675,8.674,8.674,0,0,1-8.677,8.673A8.674,8.674,0,0,1-7330.674-3471.713Zm-267.291,0a8.4,8.4,0,0,1,8.4-8.406,8.4,8.4,0,0,1,8.4,8.406,8.4,8.4,0,0,1-8.4,8.4A8.4,8.4,0,0,1-7597.965-3471.709Zm-197.013-2.845a9.5,9.5,0,0,1,9.5-9.5,9.5,9.5,0,0,1,9.5,9.5,9.495,9.495,0,0,1-9.5,9.5A9.5,9.5,0,0,1-7794.979-3474.553Zm657.081,6.938a1.645,1.645,0,0,1,1.644-1.649,1.644,1.644,0,0,1,1.643,1.649,1.645,1.645,0,0,1-1.643,1.642A1.647,1.647,0,0,1-7137.9-3467.616Zm-607.336-8.439a7.947,7.947,0,0,1,7.95-7.946,7.952,7.952,0,0,1,7.95,7.946,7.955,7.955,0,0,1-7.95,7.946A7.949,7.949,0,0,1-7745.233-3476.054Zm503.631,1.249a6.488,6.488,0,0,1,6.485-6.489,6.493,6.493,0,0,1,6.485,6.489,6.486,6.486,0,0,1-6.485,6.481A6.481,6.481,0,0,1-7241.6-3474.806Zm-380.172-4.166a8.676,8.676,0,0,1,8.669-8.679,8.678,8.678,0,0,1,8.679,8.679,8.678,8.678,0,0,1-8.679,8.677A8.676,8.676,0,0,1-7621.774-3478.972Zm-215.267,3.776a4.842,4.842,0,0,1,4.847-4.839,4.832,4.832,0,0,1,4.829,4.839,4.828,4.828,0,0,1-4.829,4.836A4.838,4.838,0,0,1-7837.041-3475.2Zm530.359-3.776a8.216,8.216,0,0,1,8.223-8.215,8.217,8.217,0,0,1,8.218,8.215,8.219,8.219,0,0,1-8.218,8.219A8.218,8.218,0,0,1-7306.682-3478.972Zm127.283,2.917a5.117,5.117,0,0,1,5.12-5.115,5.114,5.114,0,0,1,5.109,5.115,5.109,5.109,0,0,1-5.109,5.113A5.113,5.113,0,0,1-7179.4-3476.054Zm-517-4.093a8.859,8.859,0,0,1,8.863-8.859,8.851,8.851,0,0,1,8.853,8.859,8.849,8.849,0,0,1-8.853,8.857A8.857,8.857,0,0,1-7696.4-3480.147Zm226.972-.586a7.493,7.493,0,0,1,7.493-7.491,7.493,7.493,0,0,1,7.487,7.491,7.491,7.491,0,0,1-7.487,7.489A7.491,7.491,0,0,1-7469.431-3480.733Zm24.627-.325a7.491,7.491,0,0,1,7.485-7.491,7.493,7.493,0,0,1,7.5,7.491,7.489,7.489,0,0,1-7.5,7.489A7.486,7.486,0,0,1-7444.8-3481.059Zm-49.69-.653a7.945,7.945,0,0,1,7.946-7.942,7.939,7.939,0,0,1,7.938,7.942,7.939,7.939,0,0,1-7.937,7.946A7.946,7.946,0,0,1-7494.495-3481.711Zm74.542-.972a7.219,7.219,0,0,1,7.223-7.214,7.207,7.207,0,0,1,7.2,7.214,7.208,7.208,0,0,1-7.2,7.215A7.219,7.219,0,0,1-7419.953-3482.683Zm-98.062-1.3a6.946,6.946,0,0,1,6.943-6.942,6.941,6.941,0,0,1,6.938,6.942,6.941,6.941,0,0,1-6.938,6.94A6.946,6.946,0,0,1-7518.015-3483.98Zm-359.581,6.366a.088.088,0,0,1,.093-.089.092.092,0,0,1,.091.089.094.094,0,0,1-.091.095A.09.09,0,0,1-7877.6-3477.614Zm232.669-9.78a8.682,8.682,0,0,1,8.683-8.679,8.673,8.673,0,0,1,8.667,8.679,8.67,8.67,0,0,1-8.667,8.675A8.678,8.678,0,0,1-7644.927-3487.394Zm250.252,1.79a6.4,6.4,0,0,1,6.4-6.4,6.4,6.4,0,0,1,6.388,6.4,6.39,6.39,0,0,1-6.388,6.392A6.392,6.392,0,0,1-7394.675-3485.6Zm-420.3-3.467a9.593,9.593,0,0,1,9.59-9.594,9.586,9.586,0,0,1,9.588,9.594,9.583,9.583,0,0,1-9.588,9.582A9.59,9.59,0,0,1-7814.971-3489.071Zm531.8,1.673a7.85,7.85,0,0,1,7.853-7.849,7.848,7.848,0,0,1,7.853,7.849,7.849,7.849,0,0,1-7.853,7.853A7.851,7.851,0,0,1-7283.174-3487.4Zm64.275,1.649a5.843,5.843,0,0,1,5.84-5.847,5.846,5.846,0,0,1,5.847,5.847,5.845,5.845,0,0,1-5.847,5.843A5.843,5.843,0,0,1-7218.9-3485.75Zm-547.823-3.41a8.585,8.585,0,0,1,8.584-8.586,8.584,8.584,0,0,1,8.578,8.586,8.585,8.585,0,0,1-8.578,8.584A8.586,8.586,0,0,1-7766.721-3489.16Zm224.427,1.61a6.851,6.851,0,0,1,6.853-6.847,6.849,6.849,0,0,1,6.851,6.847,6.852,6.852,0,0,1-6.851,6.853A6.854,6.854,0,0,1-7542.294-3487.55Zm425.327,5.839a.911.911,0,0,1,.916-.911.911.911,0,0,1,.915.911.911.911,0,0,1-.915.913A.912.912,0,0,1-7116.968-3481.711Zm-254.345-8.1a7.305,7.305,0,0,1,7.3-7.307,7.312,7.312,0,0,1,7.311,7.307,7.31,7.31,0,0,1-7.311,7.3A7.3,7.3,0,0,1-7371.312-3489.806Zm-346.886-1.81a8.86,8.86,0,0,1,8.861-8.859,8.858,8.858,0,0,1,8.853,8.859,8.859,8.859,0,0,1-8.853,8.861A8.861,8.861,0,0,1-7718.2-3491.617Zm151.034-.77a7.573,7.573,0,0,1,7.57-7.584,7.58,7.58,0,0,1,7.58,7.584,7.578,7.578,0,0,1-7.58,7.576A7.571,7.571,0,0,1-7567.164-3492.386Zm-289.544,1.449a5.57,5.57,0,0,1,5.57-5.57,5.571,5.571,0,0,1,5.572,5.57,5.572,5.572,0,0,1-5.572,5.57A5.571,5.571,0,0,1-7856.708-3490.938Zm699.628,1.782a3.654,3.654,0,0,1,3.652-3.659,3.656,3.656,0,0,1,3.655,3.659,3.655,3.655,0,0,1-3.655,3.655A3.653,3.653,0,0,1-7157.08-3489.156Zm-807.256,2.535a.1.1,0,0,1,.085-.1.093.093,0,0,1,.095.1.088.088,0,0,1-.095.085A.091.091,0,0,1-7964.336-3486.621Zm616.57-8.667a7.762,7.762,0,0,1,7.762-7.764,7.757,7.757,0,0,1,7.764,7.764,7.761,7.761,0,0,1-7.764,7.758A7.766,7.766,0,0,1-7347.766-3495.288Zm-320.036-1.677a8.858,8.858,0,0,1,8.861-8.857,8.86,8.86,0,0,1,8.861,8.857,8.863,8.863,0,0,1-8.861,8.861A8.862,8.862,0,0,1-7667.8-3496.964Zm407.878,0a7.3,7.3,0,0,1,7.3-7.307,7.3,7.3,0,0,1,7.3,7.307,7.3,7.3,0,0,1-7.3,7.3A7.3,7.3,0,0,1-7259.924-3496.964Zm-332.019-1.542a8.489,8.489,0,0,1,8.5-8.487,8.495,8.495,0,0,1,8.5,8.487,8.5,8.5,0,0,1-8.5,8.5A8.491,8.491,0,0,1-7591.943-3498.506Zm394.562.778a5.844,5.844,0,0,1,5.843-5.849,5.843,5.843,0,0,1,5.847,5.849,5.841,5.841,0,0,1-5.847,5.841A5.843,5.843,0,0,1-7197.381-3497.728Zm-127.154-4.3a8.218,8.218,0,0,1,8.219-8.219,8.216,8.216,0,0,1,8.223,8.219,8.218,8.218,0,0,1-8.223,8.219A8.219,8.219,0,0,1-7324.535-3502.025Zm-462.712-1.16a8.861,8.861,0,0,1,8.861-8.857,8.856,8.856,0,0,1,8.861,8.857,8.859,8.859,0,0,1-8.861,8.861A8.865,8.865,0,0,1-7787.247-3503.185Zm-108.35,8.768a.09.09,0,0,1,.087-.1.09.09,0,0,1,.093.1.087.087,0,0,1-.093.085A.087.087,0,0,1-7895.6-3494.417Zm156.444-9.675a8.585,8.585,0,0,1,8.582-8.59,8.589,8.589,0,0,1,8.58,8.59,8.581,8.581,0,0,1-8.58,8.58A8.578,8.578,0,0,1-7739.152-3504.092Zm-93.7-.337a8.218,8.218,0,0,1,8.219-8.219,8.222,8.222,0,0,1,8.223,8.219,8.224,8.224,0,0,1-8.223,8.219A8.219,8.219,0,0,1-7832.853-3504.429Zm217.962-1.432a7.942,7.942,0,0,1,7.938-7.946,7.949,7.949,0,0,1,7.946,7.946,7.945,7.945,0,0,1-7.946,7.942A7.938,7.938,0,0,1-7614.891-3505.862Zm-323.776,6.618a.089.089,0,0,1,.085-.089.091.091,0,0,1,.1.089.094.094,0,0,1-.1.095A.092.092,0,0,1-7938.667-3499.243Zm249.141-8.41a8.39,8.39,0,0,1,8.4-8.4,8.393,8.393,0,0,1,8.4,8.4,8.4,8.4,0,0,1-8.4,8.406A8.394,8.394,0,0,1-7689.526-3507.654Zm-187.932.206a8.039,8.039,0,0,1,8.037-8.037,8.038,8.038,0,0,1,8.035,8.037,8.034,8.034,0,0,1-8.035,8.039A8.036,8.036,0,0,1-7877.458-3507.448Zm639.9-.206a7.118,7.118,0,0,1,7.122-7.12,7.119,7.119,0,0,1,7.127,7.12,7.126,7.126,0,0,1-7.127,7.129A7.125,7.125,0,0,1-7237.556-3507.654Zm-224.35-.483a6.121,6.121,0,0,1,6.127-6.115,6.118,6.118,0,0,1,6.12,6.115,6.119,6.119,0,0,1-6.12,6.119A6.122,6.122,0,0,1-7461.906-3508.136Zm327.813,4.948a.908.908,0,0,1,.917-.911.907.907,0,0,1,.907.911.913.913,0,0,1-.907.915A.915.915,0,0,1-7134.093-3503.189Zm-352.789-5.639a6.483,6.483,0,0,1,6.477-6.485,6.485,6.485,0,0,1,6.485,6.485,6.482,6.482,0,0,1-6.485,6.485A6.48,6.48,0,0,1-7486.882-3508.827Zm186.564-1.184a7.307,7.307,0,0,1,7.3-7.3,7.3,7.3,0,0,1,7.3,7.3,7.3,7.3,0,0,1-7.3,7.307A7.309,7.309,0,0,1-7300.318-3510.011Zm-136.958,1.184a6.115,6.115,0,0,1,6.111-6.119,6.125,6.125,0,0,1,6.127,6.119,6.123,6.123,0,0,1-6.127,6.119A6.113,6.113,0,0,1-7437.276-3508.827Zm260.377-1.885a6.3,6.3,0,0,1,6.295-6.3,6.3,6.3,0,0,1,6.3,6.3,6.3,6.3,0,0,1-6.3,6.3A6.3,6.3,0,0,1-7176.9-3510.712Zm-334.346-.186a6.3,6.3,0,0,1,6.3-6.3,6.305,6.305,0,0,1,6.3,6.3,6.3,6.3,0,0,1-6.3,6.3A6.3,6.3,0,0,1-7511.245-3510.9Zm-469.292,5.719a.091.091,0,0,1,.093-.089.089.089,0,0,1,.085.089.087.087,0,0,1-.085.093A.089.089,0,0,1-7980.537-3505.179Zm568.615-5.719a5.3,5.3,0,0,1,5.3-5.3,5.3,5.3,0,0,1,5.3,5.3,5.3,5.3,0,0,1-5.3,5.3A5.3,5.3,0,0,1-7411.922-3510.9Zm-225.871-3.556a7.753,7.753,0,0,1,7.754-7.76,7.756,7.756,0,0,1,7.764,7.76,7.758,7.758,0,0,1-7.764,7.758A7.755,7.755,0,0,1-7637.793-3514.454Zm101.341.117a7.124,7.124,0,0,1,7.121-7.125,7.131,7.131,0,0,1,7.128,7.125,7.131,7.131,0,0,1-7.128,7.124A7.124,7.124,0,0,1-7536.452-3514.337Zm-223.6-3.235a8.855,8.855,0,0,1,8.856-8.853,8.856,8.856,0,0,1,8.859,8.853,8.86,8.86,0,0,1-8.859,8.861A8.86,8.86,0,0,1-7760.048-3517.571Zm372.515,3.229a5.3,5.3,0,0,1,5.3-5.3,5.3,5.3,0,0,1,5.3,5.3,5.3,5.3,0,0,1-5.3,5.3A5.3,5.3,0,0,1-7387.533-3514.343Zm-419.484-3.766a9.031,9.031,0,0,1,9.037-9.032,9.039,9.039,0,0,1,9.045,9.032,9.041,9.041,0,0,1-9.045,9.045A9.034,9.034,0,0,1-7807.018-3518.109Zm95.4-1.321a8.859,8.859,0,0,1,8.863-8.859,8.857,8.857,0,0,1,8.853,8.859,8.86,8.86,0,0,1-8.853,8.861A8.862,8.862,0,0,1-7711.62-3519.43Zm-140.458-1.17a8.86,8.86,0,0,1,8.853-8.861,8.862,8.862,0,0,1,8.863,8.861,8.858,8.858,0,0,1-8.863,8.855A8.856,8.856,0,0,1-7852.078-3520.6Zm-60.851,8.675a.092.092,0,0,1,.085-.089.088.088,0,0,1,.093.089.089.089,0,0,1-.093.093A.093.093,0,0,1-7912.929-3511.925Zm635.553-7.287a7.2,7.2,0,0,1,7.206-7.208,7.207,7.207,0,0,1,7.212,7.208,7.208,7.208,0,0,1-7.212,7.214A7.205,7.205,0,0,1-7277.375-3519.212Zm61.267-.216a7.307,7.307,0,0,1,7.3-7.3,7.309,7.309,0,0,1,7.311,7.3,7.309,7.309,0,0,1-7.311,7.3A7.307,7.307,0,0,1-7216.109-3519.428Zm-344.043.285a6.663,6.663,0,0,1,6.669-6.663,6.661,6.661,0,0,1,6.661,6.663,6.662,6.662,0,0,1-6.661,6.665A6.663,6.663,0,0,1-7560.152-3519.143Zm196.412,0a5.666,5.666,0,0,1,5.667-5.663,5.665,5.665,0,0,1,5.661,5.663,5.662,5.662,0,0,1-5.661,5.661A5.663,5.663,0,0,1-7363.74-3519.143Zm247.781,1.034a2.379,2.379,0,0,1,2.378-2.376,2.379,2.379,0,0,1,2.376,2.376,2.38,2.38,0,0,1-2.376,2.376A2.38,2.38,0,0,1-7115.959-3518.109Zm-544.437-6.152a7.764,7.764,0,0,1,7.764-7.76,7.757,7.757,0,0,1,7.762,7.76,7.758,7.758,0,0,1-7.762,7.764A7.765,7.765,0,0,1-7660.4-3524.26Zm-294.687,6.653a.094.094,0,0,1,.093-.091.094.094,0,0,1,.093.091.094.094,0,0,1-.093.093A.094.094,0,0,1-7955.083-3517.607Zm370.9-7.687a6.851,6.851,0,0,1,6.853-6.847,6.842,6.842,0,0,1,6.843,6.847,6.844,6.844,0,0,1-6.843,6.849A6.853,6.853,0,0,1-7584.181-3525.295Zm427.667.632a6.211,6.211,0,0,1,6.2-6.214,6.212,6.212,0,0,1,6.212,6.214,6.208,6.208,0,0,1-6.212,6.208A6.207,6.207,0,0,1-7156.515-3524.662Zm-182.916-.628a5.206,5.206,0,0,1,5.2-5.21,5.209,5.209,0,0,1,5.212,5.21,5.2,5.2,0,0,1-5.212,5.2A5.2,5.2,0,0,1-7339.431-3525.291Zm84.385-4.307a7.208,7.208,0,0,1,7.2-7.219,7.213,7.213,0,0,1,7.214,7.219,7.214,7.214,0,0,1-7.214,7.212A7.21,7.21,0,0,1-7255.045-3529.6Zm-634.07,4.909a2.1,2.1,0,0,1,2.109-2.1,2.1,2.1,0,0,1,2.1,2.1,2.1,2.1,0,0,1-2.1,2.105A2.109,2.109,0,0,1-7889.116-3524.689Zm109.2-7.311a8.768,8.768,0,0,1,8.764-8.768,8.77,8.77,0,0,1,8.764,8.768,8.769,8.769,0,0,1-8.764,8.772A8.768,8.768,0,0,1-7779.919-3532Zm47.188-.267a8.956,8.956,0,0,1,8.956-8.952,8.949,8.949,0,0,1,8.948,8.952,8.946,8.946,0,0,1-8.948,8.946A8.953,8.953,0,0,1-7732.732-3532.267Zm-93.2-1.624a9.044,9.044,0,0,1,9.044-9.041,9.048,9.048,0,0,1,9.045,9.041,9.049,9.049,0,0,1-9.045,9.045A9.045,9.045,0,0,1-7825.931-3533.891Zm631.85,1.618a6.3,6.3,0,0,1,6.295-6.3,6.305,6.305,0,0,1,6.3,6.3,6.3,6.3,0,0,1-6.3,6.3A6.3,6.3,0,0,1-7194.082-3532.273Zm-413.383-.5a6.658,6.658,0,0,1,6.661-6.661,6.666,6.666,0,0,1,6.675,6.661,6.673,6.673,0,0,1-6.675,6.669A6.665,6.665,0,0,1-7607.465-3532.776Zm-74.791-2.457a7.58,7.58,0,0,1,7.58-7.584,7.58,7.58,0,0,1,7.58,7.584,7.583,7.583,0,0,1-7.58,7.58A7.583,7.583,0,0,1-7682.255-3535.232Zm366.648,2.457a4.84,4.84,0,0,1,4.849-4.838,4.838,4.838,0,0,1,4.834,4.838,4.838,4.838,0,0,1-4.834,4.841A4.84,4.84,0,0,1-7315.607-3532.776Zm-554.8-4.764a9.316,9.316,0,0,1,9.313-9.318,9.315,9.315,0,0,1,9.313,9.318,9.314,9.314,0,0,1-9.313,9.315A9.315,9.315,0,0,1-7870.408-3537.54Zm-59.154,7.457c0-.057.028-.1.087-.1s.085.04.085.1a.081.081,0,0,1-.085.085A.081.081,0,0,1-7929.562-3530.083Zm450.657-5.907a4.658,4.658,0,0,1,4.659-4.659,4.656,4.656,0,0,1,4.651,4.659,4.655,4.655,0,0,1-4.651,4.655A4.657,4.657,0,0,1-7478.9-3535.99Zm-557.077,4.166a.086.086,0,0,1,.085-.089.088.088,0,0,1,.095.089.092.092,0,0,1-.095.093A.09.09,0,0,1-8035.981-3531.824Zm582.71-3.8a3.645,3.645,0,0,1,3.653-3.653,3.649,3.649,0,0,1,3.646,3.653,3.653,3.653,0,0,1-3.646,3.655A3.649,3.649,0,0,1-7453.271-3535.62Zm357.134,1.729a1.459,1.459,0,0,1,1.461-1.465,1.462,1.462,0,0,1,1.46,1.465,1.464,1.464,0,0,1-1.46,1.46A1.46,1.46,0,0,1-7096.137-3533.891Zm-407.33-3.944a4.659,4.659,0,0,1,4.659-4.655,4.658,4.658,0,0,1,4.659,4.655,4.655,4.655,0,0,1-4.659,4.659A4.656,4.656,0,0,1-7503.467-3537.834Zm75.16,1.1a3.283,3.283,0,0,1,3.285-3.285,3.284,3.284,0,0,1,3.291,3.285,3.293,3.293,0,0,1-3.291,3.291A3.292,3.292,0,0,1-7428.307-3536.729Zm195.464-4.428a6.753,6.753,0,0,1,6.754-6.758,6.76,6.76,0,0,1,6.762,6.758,6.757,6.757,0,0,1-6.762,6.758A6.75,6.75,0,0,1-7232.843-3541.158Zm-397.635-.4a6.667,6.667,0,0,1,6.669-6.661,6.667,6.667,0,0,1,6.667,6.661,6.668,6.668,0,0,1-6.667,6.667A6.669,6.669,0,0,1-7630.478-3541.56Zm495.493,1.994a4.289,4.289,0,0,1,4.293-4.289,4.292,4.292,0,0,1,4.291,4.289,4.291,4.291,0,0,1-4.291,4.291A4.288,4.288,0,0,1-7134.984-3539.566Zm-393.346-1.572a5.122,5.122,0,0,1,5.12-5.113,5.115,5.115,0,0,1,5.109,5.113,5.112,5.112,0,0,1-5.109,5.111A5.119,5.119,0,0,1-7528.331-3541.138Zm235.275-.422a5.3,5.3,0,0,1,5.3-5.293,5.3,5.3,0,0,1,5.3,5.293,5.3,5.3,0,0,1-5.3,5.3A5.3,5.3,0,0,1-7293.055-3541.56Zm-110.48,2.257a3.015,3.015,0,0,1,3.01-3.01,3.011,3.011,0,0,1,3.012,3.01,3.008,3.008,0,0,1-3.012,3.012A3.013,3.013,0,0,1-7403.536-3539.3Zm-567.262,2.735a.091.091,0,0,1,.093-.1.089.089,0,0,1,.087.1.086.086,0,0,1-.087.085A.088.088,0,0,1-7970.8-3536.568Zm218.271-9.582a8.394,8.394,0,0,1,8.4-8.394,8.4,8.4,0,0,1,8.406,8.394,8.4,8.4,0,0,1-8.406,8.406A8.4,8.4,0,0,1-7752.526-3546.15Zm47.648-1.208a8.769,8.769,0,0,1,8.766-8.772,8.762,8.762,0,0,1,8.762,8.772,8.761,8.761,0,0,1-8.762,8.764A8.769,8.769,0,0,1-7704.878-3547.358Zm529.949,1.208a7.493,7.493,0,0,1,7.493-7.483,7.488,7.488,0,0,1,7.487,7.483,7.49,7.49,0,0,1-7.487,7.491A7.5,7.5,0,0,1-7174.929-3546.15Zm-624.151-1.2a8.673,8.673,0,0,1,8.671-8.679,8.68,8.68,0,0,1,8.679,8.679,8.672,8.672,0,0,1-8.679,8.669A8.666,8.666,0,0,1-7799.08-3547.354Zm419.656,4.016a3.19,3.19,0,0,1,3.192-3.194,3.187,3.187,0,0,1,3.194,3.194,3.2,3.2,0,0,1-3.194,3.2A3.2,3.2,0,0,1-7379.424-3543.338Zm-173.623-2.564a5.666,5.666,0,0,1,5.667-5.659,5.663,5.663,0,0,1,5.661,5.659,5.661,5.661,0,0,1-5.661,5.663A5.664,5.664,0,0,1-7553.046-3545.9Zm-291.338-4.606a9.318,9.318,0,0,1,9.313-9.317,9.312,9.312,0,0,1,9.313,9.317,9.308,9.308,0,0,1-9.313,9.313A9.315,9.315,0,0,1-7844.385-3550.508Zm-60.146,7.881a.643.643,0,0,1,.643-.638.636.636,0,0,1,.634.638.636.636,0,0,1-.634.638A.643.643,0,0,1-7904.53-3542.627Zm251.123-8.992a7.117,7.117,0,0,1,7.12-7.119,7.117,7.117,0,0,1,7.119,7.119,7.119,7.119,0,0,1-7.119,7.125A7.119,7.119,0,0,1-7653.408-3551.619Zm297.264,2.8a3.928,3.928,0,0,1,3.925-3.927,3.929,3.929,0,0,1,3.927,3.927,3.926,3.926,0,0,1-3.927,3.926A3.926,3.926,0,0,1-7356.144-3548.819Zm84.482-2.8a6.392,6.392,0,0,1,6.388-6.392,6.4,6.4,0,0,1,6.4,6.392,6.4,6.4,0,0,1-6.4,6.4A6.39,6.39,0,0,1-7271.662-3551.617Zm-305.215-.477a5.662,5.662,0,0,1,5.661-5.661,5.663,5.663,0,0,1,5.667,5.661,5.664,5.664,0,0,1-5.667,5.663A5.662,5.662,0,0,1-7576.877-3552.094Zm365.231-1.753a6.664,6.664,0,0,1,6.673-6.665,6.667,6.667,0,0,1,6.665,6.665,6.67,6.67,0,0,1-6.665,6.667A6.667,6.667,0,0,1-7211.646-3553.847Zm-673.71-1.388a7.129,7.129,0,0,1,7.13-7.124,7.121,7.121,0,0,1,7.119,7.124,7.116,7.116,0,0,1-7.119,7.119A7.124,7.124,0,0,1-7885.356-3555.235Zm769.255-.139a4.294,4.294,0,0,1,4.3-4.287,4.29,4.29,0,0,1,4.291,4.287,4.3,4.3,0,0,1-4.291,4.293A4.3,4.3,0,0,1-7116.1-3555.375Zm-216.4-.345a3.915,3.915,0,0,1,3.925-3.926,3.921,3.921,0,0,1,3.928,3.926,3.929,3.929,0,0,1-3.928,3.927A3.923,3.923,0,0,1-7332.5-3555.72Zm-717.473,3.63a.09.09,0,0,1,.087-.095.089.089,0,0,1,.093.095.088.088,0,0,1-.093.089A.088.088,0,0,1-8049.974-3552.09Zm324.875-8.515a8.214,8.214,0,0,1,8.218-8.219,8.219,8.219,0,0,1,8.221,8.219,8.222,8.222,0,0,1-8.221,8.222A8.216,8.216,0,0,1-7725.1-3560.6Zm-46.786-.412a8.127,8.127,0,0,1,8.122-8.127,8.129,8.129,0,0,1,8.129,8.127,8.126,8.126,0,0,1-8.129,8.126A8.124,8.124,0,0,1-7771.885-3561.017Zm170.861,1.319a6.393,6.393,0,0,1,6.388-6.4,6.392,6.392,0,0,1,6.386,6.4,6.387,6.387,0,0,1-6.386,6.388A6.388,6.388,0,0,1-7601.024-3559.7Zm-216.475-3.9a8.581,8.581,0,0,1,8.582-8.586,8.585,8.585,0,0,1,8.58,8.586,8.585,8.585,0,0,1-8.58,8.584A8.58,8.58,0,0,1-7817.5-3563.6Zm142.213.679a7.118,7.118,0,0,1,7.119-7.121,7.116,7.116,0,0,1,7.111,7.121,7.116,7.116,0,0,1-7.111,7.12A7.118,7.118,0,0,1-7675.285-3562.92Zm522.367,1.9a5.116,5.116,0,0,1,5.117-5.113,5.115,5.115,0,0,1,5.111,5.113,5.113,5.113,0,0,1-5.111,5.115A5.114,5.114,0,0,1-7152.918-3561.017Zm-95.682-1.9a5.209,5.209,0,0,1,5.2-5.208,5.211,5.211,0,0,1,5.21,5.208,5.21,5.21,0,0,1-5.21,5.2A5.208,5.208,0,0,1-7248.6-3562.916Zm-674.613,1.671a3.19,3.19,0,0,1,3.194-3.192,3.19,3.19,0,0,1,3.194,3.192,3.192,3.192,0,0,1-3.194,3.194A3.192,3.192,0,0,1-7923.214-3561.246Zm61.786-6.679a8.945,8.945,0,0,1,8.948-8.948,8.95,8.95,0,0,1,8.946,8.948,8.948,8.948,0,0,1-8.946,8.946A8.944,8.944,0,0,1-7861.428-3567.925Zm552.105,3.893a3.933,3.933,0,0,1,3.927-3.927,3.928,3.928,0,0,1,3.926,3.927,3.926,3.926,0,0,1-3.926,3.925A3.931,3.931,0,0,1-7309.322-3564.031Zm-161.7.814a2.929,2.929,0,0,1,2.925-2.923,2.928,2.928,0,0,1,2.925,2.923,2.922,2.922,0,0,1-2.925,2.921A2.924,2.924,0,0,1-7471.019-3563.217Zm25.449,0a2.1,2.1,0,0,1,2.1-2.1,2.1,2.1,0,0,1,2.1,2.1,2.1,2.1,0,0,1-2.1,2.1A2.1,2.1,0,0,1-7445.57-3563.217Zm-50.386-1.58a3.284,3.284,0,0,1,3.283-3.283,3.286,3.286,0,0,1,3.291,3.283,3.29,3.29,0,0,1-3.291,3.293A3.289,3.289,0,0,1-7495.956-3564.8Zm305.452-2.834a5.938,5.938,0,0,1,5.936-5.938,5.933,5.933,0,0,1,5.936,5.938,5.93,5.93,0,0,1-5.936,5.936A5.935,5.935,0,0,1-7190.5-3567.632Zm-231.4,2.838a3.01,3.01,0,0,1,3.01-3.01,3.016,3.016,0,0,1,3.012,3.01,3.011,3.011,0,0,1-3.012,3.012A3.005,3.005,0,0,1-7421.9-3564.793Zm-201.781-3.913a6.121,6.121,0,0,1,6.12-6.115,6.121,6.121,0,0,1,6.12,6.115,6.12,6.12,0,0,1-6.12,6.123A6.12,6.12,0,0,1-7623.684-3568.706Zm103.3.76a3.286,3.286,0,0,1,3.285-3.287,3.287,3.287,0,0,1,3.291,3.287,3.29,3.29,0,0,1-3.291,3.289A3.289,3.289,0,0,1-7520.385-3567.947Zm-383.066-5.7a8.857,8.857,0,0,1,8.861-8.859,8.85,8.85,0,0,1,8.853,8.859,8.851,8.851,0,0,1-8.853,8.857A8.858,8.858,0,0,1-7903.451-3573.646Zm506.429,5.705a2.557,2.557,0,0,1,2.56-2.56,2.562,2.562,0,0,1,2.56,2.56,2.559,2.559,0,0,1-2.56,2.553A2.554,2.554,0,0,1-7397.022-3567.941Zm-348.118-6.978a8.214,8.214,0,0,1,8.219-8.215,8.215,8.215,0,0,1,8.218,8.215,8.22,8.22,0,0,1-8.218,8.219A8.219,8.219,0,0,1-7745.141-3574.919Zm685.424,6.994a.637.637,0,0,1,.634-.638.64.64,0,0,1,.643.638.638.638,0,0,1-.643.638A.636.636,0,0,1-7059.717-3567.925Zm-637.335-7.511a7.669,7.669,0,0,1,7.669-7.671,7.665,7.665,0,0,1,7.669,7.671,7.665,7.665,0,0,1-7.669,7.669A7.669,7.669,0,0,1-7697.052-3575.436Zm-263.6,7.144a.1.1,0,0,1,.1-.093.093.093,0,0,1,.085.093.09.09,0,0,1-.085.087A.1.1,0,0,1-7960.649-3568.292Zm169.623-8.556a8.4,8.4,0,0,1,8.4-8.4,8.4,8.4,0,0,1,8.407,8.4,8.4,8.4,0,0,1-8.407,8.4A8.4,8.4,0,0,1-7791.027-3576.848Zm694.052,4.8a3.287,3.287,0,0,1,3.293-3.283,3.291,3.291,0,0,1,3.292,3.283,3.3,3.3,0,0,1-3.292,3.291A3.291,3.291,0,0,1-7096.975-3572.052Zm-190.433-1.663a4.662,4.662,0,0,1,4.659-4.655,4.662,4.662,0,0,1,4.659,4.655,4.663,4.663,0,0,1-4.659,4.659A4.663,4.663,0,0,1-7287.408-3573.715Zm-257.335,1.065a3.468,3.468,0,0,1,3.475-3.471,3.467,3.467,0,0,1,3.467,3.471,3.468,3.468,0,0,1-3.467,3.467A3.468,3.468,0,0,1-7544.743-3572.65Zm172.079,0a2.382,2.382,0,0,1,2.378-2.382,2.381,2.381,0,0,1,2.376,2.382,2.379,2.379,0,0,1-2.376,2.372A2.379,2.379,0,0,1-7372.664-3572.648Zm145.826-2.788a4.657,4.657,0,0,1,4.659-4.655,4.656,4.656,0,0,1,4.659,4.655,4.655,4.655,0,0,1-4.659,4.659A4.655,4.655,0,0,1-7226.838-3575.436Zm91.969-1.416a5.928,5.928,0,0,1,5.936-5.932,5.934,5.934,0,0,1,5.936,5.932,5.939,5.939,0,0,1-5.936,5.938A5.934,5.934,0,0,1-7134.869-3576.852Zm-512.161-2.206a7.118,7.118,0,0,1,7.122-7.119,7.118,7.118,0,0,1,7.12,7.119,7.121,7.121,0,0,1-7.12,7.125A7.122,7.122,0,0,1-7647.03-3579.058ZM-7835.4-3580.7a8.761,8.761,0,0,1,8.764-8.768,8.764,8.764,0,0,1,8.764,8.768,8.767,8.767,0,0,1-8.764,8.764A8.764,8.764,0,0,1-7835.4-3580.7Zm265.741,1.806a4.572,4.572,0,0,1,4.568-4.566,4.565,4.565,0,0,1,4.562,4.566,4.566,4.566,0,0,1-4.562,4.57A4.573,4.573,0,0,1-7569.659-3578.9Zm219.261,0a3.931,3.931,0,0,1,3.925-3.925,3.925,3.925,0,0,1,3.925,3.925,3.929,3.929,0,0,1-3.925,3.932A3.935,3.935,0,0,1-7350.4-3578.9Zm179.544-3.568a5.939,5.939,0,0,1,5.938-5.936,5.932,5.932,0,0,1,5.936,5.936,5.932,5.932,0,0,1-5.936,5.936A5.939,5.939,0,0,1-7170.854-3582.47Zm-707.2-3.633a8.953,8.953,0,0,1,8.956-8.952,8.943,8.943,0,0,1,8.938,8.952,8.942,8.942,0,0,1-8.938,8.946A8.952,8.952,0,0,1-7878.052-3586.1Zm612.127,1.374a5.2,5.2,0,0,1,5.2-5.2,5.209,5.209,0,0,1,5.2,5.2,5.206,5.206,0,0,1-5.2,5.2A5.2,5.2,0,0,1-7265.925-3584.729Zm-669.54,4.232a.088.088,0,0,1,.085-.091.091.091,0,0,1,.1.091.1.1,0,0,1-.1.093A.093.093,0,0,1-7935.465-3580.5Zm341.8-6.156a5.2,5.2,0,0,1,5.2-5.208,5.206,5.206,0,0,1,5.2,5.208,5.2,5.2,0,0,1-5.2,5.2A5.2,5.2,0,0,1-7593.664-3586.653Zm-122.952-2.467a6.757,6.757,0,0,1,6.754-6.754,6.752,6.752,0,0,1,6.754,6.754,6.75,6.75,0,0,1-6.754,6.758A6.755,6.755,0,0,1-7716.616-3589.119Zm389.6,2.463a3.926,3.926,0,0,1,3.926-3.927,3.928,3.928,0,0,1,3.927,3.927,3.932,3.932,0,0,1-3.927,3.925A3.931,3.931,0,0,1-7327.02-3586.656Zm-436.551-3.618a7.393,7.393,0,0,1,7.4-7.4,7.394,7.394,0,0,1,7.4,7.4,7.4,7.4,0,0,1-7.4,7.394A7.394,7.394,0,0,1-7763.571-3590.275Zm95.581-.448a6.4,6.4,0,0,1,6.388-6.4,6.4,6.4,0,0,1,6.4,6.4,6.394,6.394,0,0,1-6.4,6.392A6.4,6.4,0,0,1-7667.99-3590.723Zm461.72,1.6a4.568,4.568,0,0,1,4.568-4.56,4.568,4.568,0,0,1,4.57,4.56,4.571,4.571,0,0,1-4.57,4.57A4.57,4.57,0,0,1-7206.27-3589.119Zm-711.1-3.612a7.215,7.215,0,0,1,7.212-7.219,7.213,7.213,0,0,1,7.214,7.219,7.215,7.215,0,0,1-7.214,7.214A7.217,7.217,0,0,1-7917.371-3592.731Zm108.931-.871a7.753,7.753,0,0,1,7.754-7.76,7.757,7.757,0,0,1,7.764,7.76,7.76,7.76,0,0,1-7.764,7.762A7.756,7.756,0,0,1-7808.44-3593.6Zm730.429,4.041a1.636,1.636,0,0,1,1.637-1.648,1.643,1.643,0,0,1,1.65,1.648,1.64,1.64,0,0,1-1.65,1.635A1.633,1.633,0,0,1-7078.011-3589.562ZM-7116-3593.6a5.115,5.115,0,0,1,5.124-5.111,5.118,5.118,0,0,1,5.113,5.111,5.124,5.124,0,0,1-5.113,5.117A5.121,5.121,0,0,1-7116-3593.6Zm-347.4,3.087a1.461,1.461,0,0,1,1.46-1.465,1.466,1.466,0,0,1,1.46,1.465,1.464,1.464,0,0,1-1.46,1.461A1.459,1.459,0,0,1-7463.4-3590.515Zm24.621-.422a1.465,1.465,0,0,1,1.46-1.465,1.459,1.459,0,0,1,1.458,1.465,1.458,1.458,0,0,1-1.458,1.461A1.464,1.464,0,0,1-7438.777-3590.937Zm-49.679-.854a1.916,1.916,0,0,1,1.923-1.911,1.915,1.915,0,0,1,1.917,1.911,1.921,1.921,0,0,1-1.917,1.921A1.922,1.922,0,0,1-7488.456-3591.792Zm-363.573-6.835a8.5,8.5,0,0,1,8.5-8.493,8.5,8.5,0,0,1,8.5,8.493,8.5,8.5,0,0,1-8.5,8.491A8.5,8.5,0,0,1-7852.029-3598.627Zm437.325,5.566a1.913,1.913,0,0,1,1.923-1.913,1.912,1.912,0,0,1,1.917,1.913,1.916,1.916,0,0,1-1.917,1.915A1.917,1.917,0,0,1-7414.7-3593.061Zm-200.882-2.841a4.282,4.282,0,0,1,4.293-4.289,4.28,4.28,0,0,1,4.283,4.289,4.287,4.287,0,0,1-4.283,4.291A4.289,4.289,0,0,1-7615.586-3595.9Zm102.236,1.144a2.368,2.368,0,0,1,2.368-2.372,2.375,2.375,0,0,1,2.378,2.372,2.377,2.377,0,0,1-2.378,2.372A2.369,2.369,0,0,1-7513.35-3594.758Zm210.436-1.139a2.646,2.646,0,0,1,2.645-2.653,2.653,2.653,0,0,1,2.653,2.653,2.651,2.651,0,0,1-2.653,2.645A2.645,2.645,0,0,1-7302.914-3595.9Zm60.049-1.148a3.479,3.479,0,0,1,3.475-3.471,3.471,3.471,0,0,1,3.467,3.471,3.471,3.471,0,0,1-3.467,3.475A3.479,3.479,0,0,1-7242.865-3597.045Zm92.229-1.285a4.566,4.566,0,0,1,4.562-4.57,4.568,4.568,0,0,1,4.568,4.57,4.57,4.57,0,0,1-4.568,4.568A4.568,4.568,0,0,1-7150.636-3598.33Zm-239,1.457a1.188,1.188,0,0,1,1.192-1.188,1.188,1.188,0,0,1,1.184,1.188,1.189,1.189,0,0,1-1.184,1.188A1.189,1.189,0,0,1-7389.636-3596.873Zm-504.112-8.142a8.864,8.864,0,0,1,8.861-8.857,8.858,8.858,0,0,1,8.861,8.857,8.862,8.862,0,0,1-8.861,8.861A8.867,8.867,0,0,1-7893.748-3605.015Zm157.083,1.089a7.125,7.125,0,0,1,7.127-7.124,7.117,7.117,0,0,1,7.12,7.124,7.119,7.119,0,0,1-7.12,7.121A7.128,7.128,0,0,1-7736.666-3603.926Zm47.363.256a6.757,6.757,0,0,1,6.754-6.758,6.759,6.759,0,0,1,6.762,6.758,6.759,6.759,0,0,1-6.762,6.754A6.757,6.757,0,0,1-7689.3-3603.669Zm152.127,4.269a2.006,2.006,0,0,1,2.01-2.01,2.012,2.012,0,0,1,2.01,2.01,2.016,2.016,0,0,1-2.01,2.006A2.011,2.011,0,0,1-7537.175-3599.4Zm-245.271-7.225a7.852,7.852,0,0,1,7.853-7.853,7.852,7.852,0,0,1,7.853,7.853,7.852,7.852,0,0,1-7.853,7.851A7.852,7.852,0,0,1-7782.447-3606.625Zm595.86,2.7a4.563,4.563,0,0,1,4.562-4.568,4.565,4.565,0,0,1,4.568,4.568,4.563,4.563,0,0,1-4.568,4.562A4.562,4.562,0,0,1-7186.586-3603.926Zm-764.168,3.562a.821.821,0,0,1,.816-.822.828.828,0,0,1,.826.822.825.825,0,0,1-.826.818A.818.818,0,0,1-7950.754-3600.364Zm310.971-6.222a6.3,6.3,0,0,1,6.3-6.3,6.3,6.3,0,0,1,6.293,6.3,6.3,6.3,0,0,1-6.293,6.3A6.3,6.3,0,0,1-7639.783-3606.587Zm273.6,4.233a1.738,1.738,0,0,1,1.742-1.733,1.737,1.737,0,0,1,1.733,1.733,1.736,1.736,0,0,1-1.733,1.737A1.737,1.737,0,0,1-7366.181-3602.354Zm-195.985-3.358a3.19,3.19,0,0,1,3.194-3.192,3.19,3.19,0,0,1,3.194,3.192,3.194,3.194,0,0,1-3.194,3.2A3.194,3.194,0,0,1-7562.166-3605.712Zm280.437-.879a3.65,3.65,0,0,1,3.655-3.649,3.641,3.641,0,0,1,3.645,3.649,3.643,3.643,0,0,1-3.645,3.655A3.652,3.652,0,0,1-7281.729-3606.591Zm-543.9-4.647a7.752,7.752,0,0,1,7.754-7.754,7.76,7.76,0,0,1,7.764,7.754,7.765,7.765,0,0,1-7.764,7.764A7.756,7.756,0,0,1-7825.634-3611.237Zm-106.46-1.236a7.214,7.214,0,0,1,7.212-7.219,7.215,7.215,0,0,1,7.21,7.219,7.211,7.211,0,0,1-7.21,7.214A7.211,7.211,0,0,1-7932.095-3612.474Zm833.391,1.242a5.019,5.019,0,0,1,5.02-5.022,5.02,5.02,0,0,1,5.022,5.022,5.023,5.023,0,0,1-5.022,5.024A5.022,5.022,0,0,1-7098.7-3611.231Zm37.159,3.348a1.637,1.637,0,0,1,1.645-1.643,1.642,1.642,0,0,1,1.645,1.643,1.642,1.642,0,0,1-1.645,1.64A1.637,1.637,0,0,1-7061.545-3607.884Zm-160.764-2.723a3.468,3.468,0,0,1,3.467-3.473,3.471,3.471,0,0,1,3.475,3.473,3.469,3.469,0,0,1-3.475,3.467A3.466,3.466,0,0,1-7222.309-3610.607Zm-120.661,1.125a2.1,2.1,0,0,1,2.1-2.1,2.106,2.106,0,0,1,2.109,2.1,2.109,2.109,0,0,1-2.109,2.107A2.105,2.105,0,0,1-7342.97-3609.482Zm-525.353-7.849a8.762,8.762,0,0,1,8.764-8.768,8.768,8.768,0,0,1,8.764,8.768,8.769,8.769,0,0,1-8.764,8.764A8.762,8.762,0,0,1-7868.323-3617.33Zm282.107,3.685a3.926,3.926,0,0,1,3.927-3.925,3.926,3.926,0,0,1,3.926,3.925,3.926,3.926,0,0,1-3.926,3.927A3.927,3.927,0,0,1-7586.215-3613.646Zm454.479-1.513a3.647,3.647,0,0,1,3.653-3.657,3.647,3.647,0,0,1,3.646,3.657,3.645,3.645,0,0,1-3.646,3.651A3.645,3.645,0,0,1-7131.736-3615.159Zm-577.072-2.689a6.116,6.116,0,0,1,6.119-6.119,6.118,6.118,0,0,1,6.12,6.119,6.123,6.123,0,0,1-6.12,6.119A6.121,6.121,0,0,1-7708.808-3617.848Zm-47.127-1.97a7.58,7.58,0,0,1,7.58-7.584,7.582,7.582,0,0,1,7.58,7.584,7.583,7.583,0,0,1-7.58,7.58A7.582,7.582,0,0,1-7755.935-3619.817Zm95.517,1.144a5.472,5.472,0,0,1,5.475-5.473,5.48,5.48,0,0,1,5.485,5.473,5.482,5.482,0,0,1-5.485,5.481A5.474,5.474,0,0,1-7660.418-3618.674Zm-248.522-5.936a9.132,9.132,0,0,1,9.129-9.132,9.134,9.134,0,0,1,9.138,9.132,9.137,9.137,0,0,1-9.138,9.134A9.135,9.135,0,0,1-7908.94-3624.609Zm649.675,5.936a2.645,2.645,0,0,1,2.645-2.649,2.645,2.645,0,0,1,2.645,2.649,2.645,2.645,0,0,1-2.645,2.645A2.644,2.644,0,0,1-7259.266-3618.674Zm-540.713-5.253a7.857,7.857,0,0,1,7.853-7.853,7.852,7.852,0,0,1,7.853,7.853,7.849,7.849,0,0,1-7.853,7.853A7.855,7.855,0,0,1-7799.979-3623.927Zm480.127,5.721a2.018,2.018,0,0,1,2.01-2.014,2.012,2.012,0,0,1,2.01,2.014,2.008,2.008,0,0,1-2.01,2A2.013,2.013,0,0,1-7319.852-3618.205Zm-137.023.3a1.093,1.093,0,0,1,1.1-1.093,1.105,1.105,0,0,1,1.1,1.093,1.107,1.107,0,0,1-1.1,1.1A1.1,1.1,0,0,1-7456.875-3617.906Zm-25.159-.919a1.643,1.643,0,0,1,1.645-1.646,1.648,1.648,0,0,1,1.645,1.646,1.645,1.645,0,0,1-1.645,1.64A1.64,1.64,0,0,1-7482.034-3618.825Zm316.543-1a2.278,2.278,0,0,1,2.283-2.279,2.281,2.281,0,0,1,2.285,2.279,2.278,2.278,0,0,1-2.285,2.283A2.275,2.275,0,0,1-7165.491-3619.822Zm-266.773,1a1.092,1.092,0,0,1,1.089-1.093,1.094,1.094,0,0,1,1.1,1.093,1.1,1.1,0,0,1-1.1,1.1A1.093,1.093,0,0,1-7432.264-3618.825Zm-175.93-4.34a3.2,3.2,0,0,1,3.194-3.2,3.2,3.2,0,0,1,3.2,3.2,3.205,3.205,0,0,1-3.2,3.2A3.2,3.2,0,0,1-7608.194-3623.165Zm200.032,1.586a1.462,1.462,0,0,1,1.46-1.465,1.462,1.462,0,0,1,1.461,1.465,1.462,1.462,0,0,1-1.461,1.461A1.461,1.461,0,0,1-7408.162-3621.579Zm-98.07,0a1.375,1.375,0,0,1,1.372-1.376,1.378,1.378,0,0,1,1.37,1.376,1.375,1.375,0,0,1-1.37,1.376A1.372,1.372,0,0,1-7506.232-3621.583Zm-457.712.774a.275.275,0,0,1,.276-.273.274.274,0,0,1,.275.273.276.276,0,0,1-.275.273A.276.276,0,0,1-7963.944-3620.809Zm121.55-8.885a8.216,8.216,0,0,1,8.223-8.22,8.217,8.217,0,0,1,8.218,8.22,8.219,8.219,0,0,1-8.218,8.219A8.218,8.218,0,0,1-7842.395-3629.695Zm640.708,4.311a2.554,2.554,0,0,1,2.552-2.556,2.556,2.556,0,0,1,2.56,2.556,2.559,2.559,0,0,1-2.56,2.56A2.558,2.558,0,0,1-7201.686-3625.383Zm-329.109-.778a1.738,1.738,0,0,1,1.733-1.737,1.732,1.732,0,0,1,1.731,1.737,1.731,1.731,0,0,1-1.731,1.733A1.737,1.737,0,0,1-7530.795-3626.161Zm146.833,0a1.458,1.458,0,0,1,1.461-1.465,1.451,1.451,0,0,1,1.452,1.465,1.452,1.452,0,0,1-1.452,1.461A1.459,1.459,0,0,1-7383.961-3626.157Zm85.48-2.356a3.013,3.013,0,0,1,3.01-3.01,3.016,3.016,0,0,1,3.018,3.01,3.013,3.013,0,0,1-3.018,3.01A3.01,3.01,0,0,1-7298.481-3628.513Zm-430.856-4.691a7.393,7.393,0,0,1,7.4-7.4,7.393,7.393,0,0,1,7.4,7.4,7.394,7.394,0,0,1-7.4,7.394A7.394,7.394,0,0,1-7729.338-3633.2Zm648.117,3.511a3.837,3.837,0,0,1,3.836-3.84,3.83,3.83,0,0,1,3.829,3.84,3.828,3.828,0,0,1-3.829,3.829A3.834,3.834,0,0,1-7081.221-3629.693Zm36.26,2.729a.637.637,0,0,1,.645-.634.635.635,0,0,1,.634.634.64.64,0,0,1-.634.645A.642.642,0,0,1-7044.961-3626.963Zm-636.375-5.146a5.754,5.754,0,0,1,5.758-5.754,5.752,5.752,0,0,1,5.748,5.754,5.755,5.755,0,0,1-5.748,5.754A5.757,5.757,0,0,1-7681.336-3632.109Zm-202.486-4.659a9.127,9.127,0,0,1,9.131-9.13,9.126,9.126,0,0,1,9.13,9.13,9.13,9.13,0,0,1-9.13,9.134A9.13,9.13,0,0,1-7883.822-3636.768Zm109.709.028a7.855,7.855,0,0,1,7.859-7.849,7.854,7.854,0,0,1,7.853,7.849,7.855,7.855,0,0,1-7.853,7.853A7.856,7.856,0,0,1-7774.113-3636.739Zm659.437,3.82a3.65,3.65,0,0,1,3.653-3.649,3.651,3.651,0,0,1,3.655,3.649,3.655,3.655,0,0,1-3.655,3.655A3.653,3.653,0,0,1-7114.677-3632.919Zm-827.649.095a3.566,3.566,0,0,1,3.57-3.56,3.564,3.564,0,0,1,3.56,3.56,3.565,3.565,0,0,1-3.56,3.56A3.568,3.568,0,0,1-7942.326-3632.824Zm387.1.293a2.379,2.379,0,0,1,2.38-2.376,2.379,2.379,0,0,1,2.375,2.376,2.377,2.377,0,0,1-2.375,2.372A2.377,2.377,0,0,1-7555.224-3632.531Zm317.323.422a1.917,1.917,0,0,1,1.917-1.915,1.917,1.917,0,0,1,1.923,1.915,1.918,1.918,0,0,1-1.923,1.921A1.918,1.918,0,0,1-7237.9-3632.109Zm-392.3-2.124a3.191,3.191,0,0,1,3.2-3.194,3.189,3.189,0,0,1,3.194,3.194,3.194,3.194,0,0,1-3.194,3.194A3.2,3.2,0,0,1-7630.2-3634.232Zm270.293,1.7a1.187,1.187,0,0,1,1.184-1.19,1.189,1.189,0,0,1,1.192,1.19,1.188,1.188,0,0,1-1.192,1.184A1.185,1.185,0,0,1-7359.9-3632.531Zm211.583-4.2a3.012,3.012,0,0,1,3.01-3.014,3.007,3.007,0,0,1,3.01,3.014,3.01,3.01,0,0,1-3.01,3.016A3.015,3.015,0,0,1-7148.32-3636.735Zm-667.433-5.39a7.028,7.028,0,0,1,7.035-7.031,7.026,7.026,0,0,1,7.035,7.031,7.029,7.029,0,0,1-7.035,7.026A7.031,7.031,0,0,1-7815.753-3642.125Zm538.879,1.8a3.012,3.012,0,0,1,3.012-3.01,3.011,3.011,0,0,1,3.01,3.01,3.014,3.014,0,0,1-3.01,3.01A3.014,3.014,0,0,1-7276.875-3640.327Zm-643.438-4.53a6.481,6.481,0,0,1,6.485-6.481,6.479,6.479,0,0,1,6.477,6.481,6.48,6.48,0,0,1-6.477,6.483A6.481,6.481,0,0,1-7920.312-3644.857Zm341.938,4.188a2.285,2.285,0,0,1,2.287-2.283,2.288,2.288,0,0,1,2.283,2.283,2.286,2.286,0,0,1-2.283,2.283A2.282,2.282,0,0,1-7578.375-3640.669Zm395.742-.638a2.289,2.289,0,0,1,2.283-2.287,2.286,2.286,0,0,1,2.287,2.287,2.285,2.285,0,0,1-2.287,2.283A2.288,2.288,0,0,1-7182.633-3641.307Zm-153.66.638a.817.817,0,0,1,.818-.818.826.826,0,0,1,.826.818.832.832,0,0,1-.826.824A.824.824,0,0,1-7336.293-3640.669Zm-521.732-8.283a8.494,8.494,0,0,1,8.5-8.5,8.5,8.5,0,0,1,8.5,8.5,8.5,8.5,0,0,1-8.5,8.491A8.49,8.49,0,0,1-7858.025-3648.952Zm-118.811,7.156a.277.277,0,0,1,.279-.273.268.268,0,0,1,.267.273.272.272,0,0,1-.267.277A.282.282,0,0,1-7976.836-3641.8Zm276.5-5.037a5.021,5.021,0,0,1,5.021-5.024,5.02,5.02,0,0,1,5.021,5.024,5.02,5.02,0,0,1-5.021,5.02A5.021,5.021,0,0,1-7700.341-3646.833Zm-46.665-2.853a6.762,6.762,0,0,1,6.764-6.758,6.76,6.76,0,0,1,6.754,6.758,6.757,6.757,0,0,1-6.754,6.758A6.759,6.759,0,0,1-7747.005-3649.685Zm95.256,2.9a3.568,3.568,0,0,1,3.568-3.566,3.565,3.565,0,0,1,3.56,3.566,3.567,3.567,0,0,1-3.56,3.56A3.57,3.57,0,0,1-7651.749-3646.788Zm584.973-2.164a4.743,4.743,0,0,1,4.744-4.75,4.75,4.75,0,0,1,4.751,4.75,4.751,4.751,0,0,1-4.751,4.748A4.744,4.744,0,0,1-7066.776-3648.952Zm-383.758,3.542a.909.909,0,0,1,.916-.911.906.906,0,0,1,.907.911.915.915,0,0,1-.907.917A.917.917,0,0,1-7450.534-3645.41Zm-24.528-.5a.817.817,0,0,1,.816-.822.818.818,0,0,1,.818.822.822.822,0,0,1-.818.822A.821.821,0,0,1-7475.062-3645.909Zm444.305-.843a1.1,1.1,0,0,1,1.1-1.091,1.1,1.1,0,0,1,1.1,1.091,1.1,1.1,0,0,1-1.1,1.1A1.1,1.1,0,0,1-7030.756-3646.752Zm-186.669-.085a1.188,1.188,0,0,1,1.184-1.19,1.184,1.184,0,0,1,1.184,1.19,1.183,1.183,0,0,1-1.184,1.184A1.187,1.187,0,0,1-7217.426-3646.837Zm-208.438-.079a.82.82,0,0,1,.826-.818.818.818,0,0,1,.816.818.817.817,0,0,1-.816.818A.819.819,0,0,1-7425.864-3646.915Zm-364.886-7.718a7.577,7.577,0,0,1,7.572-7.58,7.575,7.575,0,0,1,7.58,7.58,7.578,7.578,0,0,1-7.58,7.58A7.58,7.58,0,0,1-7790.75-3654.633Zm291.1,6.212a.915.915,0,0,1,.917-.911.913.913,0,0,1,.907.911.915.915,0,0,1-.907.915A.917.917,0,0,1-7499.655-3648.42Zm401.086-3.134a3.653,3.653,0,0,1,3.652-3.653,3.654,3.654,0,0,1,3.655,3.653,3.651,3.651,0,0,1-3.655,3.651A3.65,3.65,0,0,1-7098.569-3651.554Zm-858.662-2.2a5.484,5.484,0,0,1,5.485-5.481,5.477,5.477,0,0,1,5.475,5.481,5.48,5.48,0,0,1-5.475,5.485A5.487,5.487,0,0,1-7957.231-3653.75Zm59.853-3.144a8.5,8.5,0,0,1,8.5-8.5,8.5,8.5,0,0,1,8.5,8.5,8.5,8.5,0,0,1-8.5,8.491A8.5,8.5,0,0,1-7897.378-3656.894Zm297.078,6.378a1.644,1.644,0,0,1,1.645-1.648,1.641,1.641,0,0,1,1.634,1.648,1.64,1.64,0,0,1-1.634,1.645A1.643,1.643,0,0,1-7600.3-3650.516Zm286.035,0a1.364,1.364,0,0,1,1.368-1.365,1.368,1.368,0,0,1,1.368,1.365,1.37,1.37,0,0,1-1.368,1.372A1.366,1.366,0,0,1-7314.266-3650.516Zm-87.5.095a1.1,1.1,0,0,1,1.1-1.095,1.1,1.1,0,0,1,1.1,1.095,1.1,1.1,0,0,1-1.1,1.1A1.1,1.1,0,0,1-7401.766-3650.421Zm-122.56-2.495a1.377,1.377,0,0,1,1.376-1.372,1.372,1.372,0,0,1,1.366,1.372,1.369,1.369,0,0,1-1.366,1.376A1.374,1.374,0,0,1-7524.326-3652.916Zm269.462-.7a1.741,1.741,0,0,1,1.742-1.738,1.739,1.739,0,0,1,1.733,1.738,1.734,1.734,0,0,1-1.733,1.733A1.736,1.736,0,0,1-7254.864-3653.613Zm124.1-1.024a2.379,2.379,0,0,1,2.376-2.372,2.372,2.372,0,0,1,2.368,2.372,2.369,2.369,0,0,1-2.368,2.376A2.376,2.376,0,0,1-7130.76-3654.637Zm-701.327-6.542a7.758,7.758,0,0,1,7.762-7.764,7.765,7.765,0,0,1,7.764,7.764,7.762,7.762,0,0,1-7.764,7.758A7.755,7.755,0,0,1-7832.087-3661.178Zm454.51,5.281a.916.916,0,0,1,.915-.915.91.91,0,0,1,.915.915.91.91,0,0,1-.915.907A.915.915,0,0,1-7377.577-3655.9Zm-295.264-4.883a4.388,4.388,0,0,1,4.386-4.382,4.382,4.382,0,0,1,4.386,4.382,4.383,4.383,0,0,1-4.386,4.386A4.389,4.389,0,0,1-7672.841-3660.781Zm508.924,2.455a1.369,1.369,0,0,1,1.376-1.368,1.363,1.363,0,0,1,1.366,1.368,1.366,1.366,0,0,1-1.366,1.37A1.372,1.372,0,0,1-7163.917-3658.326Zm-555.449-4.477a5.29,5.29,0,0,1,5.293-5.293,5.3,5.3,0,0,1,5.3,5.293,5.3,5.3,0,0,1-5.3,5.293A5.29,5.29,0,0,1-7719.366-3662.8Zm171.01,3.434a1.641,1.641,0,0,1,1.634-1.648,1.649,1.649,0,0,1,1.645,1.648,1.649,1.649,0,0,1-1.645,1.645A1.64,1.64,0,0,1-7548.355-3659.368Zm-385.062-6.344a6.487,6.487,0,0,1,6.485-6.485,6.486,6.486,0,0,1,6.477,6.485,6.481,6.481,0,0,1-6.477,6.487A6.482,6.482,0,0,1-7933.418-3665.712Zm310.609,3.691a2.379,2.379,0,0,1,2.376-2.376,2.377,2.377,0,0,1,2.375,2.376,2.378,2.378,0,0,1-2.375,2.376A2.38,2.38,0,0,1-7622.809-3662.021Zm329.762,0a1.916,1.916,0,0,1,1.915-1.913,1.918,1.918,0,0,1,1.925,1.913,1.917,1.917,0,0,1-1.925,1.915A1.915,1.915,0,0,1-7293.047-3662.025Zm-579.357-6.925a8.5,8.5,0,0,1,8.5-8.5,8.495,8.495,0,0,1,8.487,8.5,8.494,8.494,0,0,1-8.487,8.5A8.5,8.5,0,0,1-7872.4-3668.95Zm108.115,1.725a6.757,6.757,0,0,1,6.756-6.758,6.758,6.758,0,0,1,6.762,6.758,6.757,6.757,0,0,1-6.762,6.754A6.756,6.756,0,0,1-7764.289-3667.225Zm565.154,4.427a1.641,1.641,0,0,1,1.645-1.646,1.646,1.646,0,0,1,1.643,1.646,1.643,1.643,0,0,1-1.643,1.64A1.638,1.638,0,0,1-7199.134-3662.8Zm-154.959-.521a.911.911,0,0,1,.916-.911.916.916,0,0,1,.915.911.915.915,0,0,1-.915.911A.91.91,0,0,1-7354.094-3663.32Zm-217.424-4.418a1.644,1.644,0,0,1,1.643-1.645,1.646,1.646,0,0,1,1.645,1.645,1.646,1.646,0,0,1-1.645,1.645A1.645,1.645,0,0,1-7571.518-3667.738Zm-234.031-5.711a6.483,6.483,0,0,1,6.487-6.485,6.487,6.487,0,0,1,6.485,6.485,6.486,6.486,0,0,1-6.485,6.481A6.482,6.482,0,0,1-7805.549-3673.45Zm571.013,5.158a1.189,1.189,0,0,1,1.184-1.188,1.189,1.189,0,0,1,1.184,1.188,1.181,1.181,0,0,1-1.184,1.184A1.182,1.182,0,0,1-7234.536-3668.292Zm185.783-.663a1.1,1.1,0,0,1,1.1-1.095,1.105,1.105,0,0,1,1.1,1.095,1.106,1.106,0,0,1-1.1,1.1A1.1,1.1,0,0,1-7048.753-3668.955Zm-33.432-2.055a2.373,2.373,0,0,1,2.368-2.376,2.378,2.378,0,0,1,2.376,2.376,2.377,2.377,0,0,1-2.376,2.376A2.372,2.372,0,0,1-7082.185-3671.009Zm-826.225-6.665a6.308,6.308,0,0,1,6.3-6.3,6.3,6.3,0,0,1,6.293,6.3,6.3,6.3,0,0,1-6.293,6.307A6.31,6.31,0,0,1-7908.409-3677.674Zm794.448,4.229a1.466,1.466,0,0,1,1.46-1.465,1.46,1.46,0,0,1,1.461,1.465,1.46,1.46,0,0,1-1.461,1.46A1.467,1.467,0,0,1-7113.961-3673.446Zm-216.786.82a.362.362,0,0,1,.365-.366.367.367,0,0,1,.366.366.37.37,0,0,1-.366.368A.364.364,0,0,1-7330.747-3672.625Zm-113-.434a.28.28,0,0,1,.277-.281.271.271,0,0,1,.269.281.267.267,0,0,1-.269.269A.276.276,0,0,1-7443.748-3673.06Zm-24.613,0a.271.271,0,0,1,.269-.281.278.278,0,0,1,.275.281.274.274,0,0,1-.275.269A.267.267,0,0,1-7468.36-3673.06Zm-174.568-2.067a1.644,1.644,0,0,1,1.645-1.649,1.648,1.648,0,0,1,1.643,1.649,1.642,1.642,0,0,1-1.643,1.645A1.638,1.638,0,0,1-7642.929-3675.126Zm-322.551-.085a1.641,1.641,0,0,1,1.645-1.645,1.646,1.646,0,0,1,1.645,1.645,1.649,1.649,0,0,1-1.645,1.645A1.643,1.643,0,0,1-7965.48-3675.211Zm275.4-.925a2.38,2.38,0,0,1,2.376-2.376,2.379,2.379,0,0,1,2.376,2.376,2.372,2.372,0,0,1-2.376,2.37A2.373,2.373,0,0,1-7690.084-3676.137Zm-155.577-4.893a6.752,6.752,0,0,1,6.753-6.754,6.752,6.752,0,0,1,6.754,6.754,6.747,6.747,0,0,1-6.754,6.754A6.747,6.747,0,0,1-7845.661-3681.03Zm574.841,5.9a.542.542,0,0,1,.542-.546.548.548,0,0,1,.547.546.551.551,0,0,1-.547.55A.546.546,0,0,1-7270.82-3675.126Zm-148.4-.146a.277.277,0,0,1,.277-.277.276.276,0,0,1,.277.277.275.275,0,0,1-.277.271A.276.276,0,0,1-7419.221-3675.272Zm-73.667,0a.27.27,0,0,1,.269-.277.276.276,0,0,1,.277.277.275.275,0,0,1-.277.271A.269.269,0,0,1-7492.889-3675.272Zm345.724-1.111a1.369,1.369,0,0,1,1.374-1.368,1.365,1.365,0,0,1,1.368,1.368,1.368,1.368,0,0,1-1.368,1.37A1.372,1.372,0,0,1-7147.165-3676.383Zm-588.072-3.558a3.472,3.472,0,0,1,3.475-3.465,3.467,3.467,0,0,1,3.467,3.465,3.466,3.466,0,0,1-3.467,3.471A3.471,3.471,0,0,1-7735.237-3679.941Zm142.043,1.97a.912.912,0,0,1,.915-.911.918.918,0,0,1,.917.911.917.917,0,0,1-.917.911A.911.911,0,0,1-7593.193-3677.971Zm412.209-1.968a1.188,1.188,0,0,1,1.184-1.188,1.181,1.181,0,0,1,1.184,1.188,1.183,1.183,0,0,1-1.184,1.188A1.189,1.189,0,0,1-7180.984-3679.939Zm-214.008.269a.277.277,0,0,1,.277-.273.268.268,0,0,1,.269.273.27.27,0,0,1-.269.277A.279.279,0,0,1-7394.992-3679.67Zm-122.125,0a.269.269,0,0,1,.269-.273.275.275,0,0,1,.277.273.277.277,0,0,1-.277.277A.272.272,0,0,1-7517.118-3679.67Zm-261.46-6.105a4.838,4.838,0,0,1,4.843-4.841,4.836,4.836,0,0,1,4.84,4.841,4.841,4.841,0,0,1-4.84,4.839A4.843,4.843,0,0,1-7778.578-3685.775Zm-166.265-1.358a5.756,5.756,0,0,1,5.754-5.754,5.755,5.755,0,0,1,5.751,5.754,5.756,5.756,0,0,1-5.751,5.758A5.757,5.757,0,0,1-7944.843-3687.133Zm60.447-2.511a7.12,7.12,0,0,1,7.121-7.119,7.127,7.127,0,0,1,7.128,7.119,7.129,7.129,0,0,1-7.128,7.13A7.123,7.123,0,0,1-7884.4-3689.644Zm575.423,5.883a.548.548,0,0,1,.549-.542.545.545,0,0,1,.558.542.549.549,0,0,1-.558.55A.553.553,0,0,1-7308.973-3683.761Zm93.783-.543a.547.547,0,0,1,.554-.542.545.545,0,0,1,.545.542.552.552,0,0,1-.545.55A.554.554,0,0,1-7215.189-3684.3Zm-156.066-1.913a.28.28,0,0,1,.277-.277.279.279,0,0,1,.277.277.28.28,0,0,1-.277.277A.281.281,0,0,1-7371.256-3686.218Zm-169.6,0a.274.274,0,0,1,.269-.277.28.28,0,0,1,.277.277.279.279,0,0,1-.277.277A.273.273,0,0,1-7540.854-3686.218Zm-279.507-6.916a6.489,6.489,0,0,1,6.485-6.483,6.484,6.484,0,0,1,6.485,6.483,6.486,6.486,0,0,1-6.485,6.489A6.491,6.491,0,0,1-7820.361-3693.133Zm783.429,3.489a2.645,2.645,0,0,1,2.645-2.648,2.645,2.645,0,0,1,2.645,2.648,2.648,2.648,0,0,1-2.645,2.649A2.648,2.648,0,0,1-7036.932-3689.644Zm-33.03-1.59a4.2,4.2,0,0,1,4.194-4.2,4.193,4.193,0,0,1,4.2,4.2,4.2,4.2,0,0,1-4.2,4.2A4.2,4.2,0,0,1-7069.962-3691.234Zm-593.143,1.489a2,2,0,0,1,2-2.01,2.006,2.006,0,0,1,2.01,2.01,2.006,2.006,0,0,1-2.01,2.006A2,2,0,0,1-7663.1-3689.745Zm659.8,1.457a.091.091,0,0,1,.093-.093.1.1,0,0,1,.093.093.093.093,0,0,1-.093.089A.088.088,0,0,1-7003.3-3688.289Zm-611.651-1.7a1.191,1.191,0,0,1,1.192-1.188,1.189,1.189,0,0,1,1.184,1.188,1.188,1.188,0,0,1-1.184,1.188A1.19,1.19,0,0,1-7614.956-3689.99Zm363.947.24a.551.551,0,0,1,.549-.55.552.552,0,0,1,.547.55.552.552,0,0,1-.547.55A.551.551,0,0,1-7251.009-3689.749Zm-457.217-3.034a2.38,2.38,0,0,1,2.376-2.378,2.373,2.373,0,0,1,2.368,2.378,2.373,2.373,0,0,1-2.368,2.376A2.38,2.38,0,0,1-7708.226-3692.784Zm608.164-.352a2.375,2.375,0,0,1,2.376-2.368,2.368,2.368,0,0,1,2.368,2.368,2.368,2.368,0,0,1-2.368,2.378A2.375,2.375,0,0,1-7100.062-3693.135Zm-878.4-4.034a3.471,3.471,0,0,1,3.475-3.471,3.471,3.471,0,0,1,3.467,3.471,3.473,3.473,0,0,1-3.467,3.475A3.473,3.473,0,0,1-7978.466-3697.17Zm846.856,1.766a1.46,1.46,0,0,1,1.46-1.465,1.466,1.466,0,0,1,1.46,1.465,1.463,1.463,0,0,1-1.46,1.461A1.456,1.456,0,0,1-7131.61-3695.4Zm-787.755-3.638a5.034,5.034,0,0,1,5.029-5.033,5.02,5.02,0,0,1,5.014,5.033,5.007,5.007,0,0,1-5.014,5.012A5.02,5.02,0,0,1-7919.365-3699.042Zm355.179,4.168a.548.548,0,0,1,.549-.545.547.547,0,0,1,.547.545.549.549,0,0,1-.547.548A.549.549,0,0,1-7564.186-3694.875Zm215.895,0a.371.371,0,0,1,.366-.366.364.364,0,0,1,.366.366.362.362,0,0,1-.366.368A.369.369,0,0,1-7348.292-3694.877Zm-402.948-3.287a2.917,2.917,0,0,1,2.917-2.921,2.918,2.918,0,0,1,2.925,2.921,2.919,2.919,0,0,1-2.925,2.917A2.917,2.917,0,0,1-7751.24-3698.164Zm-107.111-3.459a5.927,5.927,0,0,1,5.927-5.936,5.929,5.929,0,0,1,5.936,5.936,5.936,5.936,0,0,1-5.936,5.938A5.934,5.934,0,0,1-7858.351-3701.623Zm570.364,4.976a.551.551,0,0,1,.55-.548.551.551,0,0,1,.549.548.548.548,0,0,1-.549.545A.548.548,0,0,1-7287.986-3696.646Zm124.2-1.517a.556.556,0,0,1,.549-.553.547.547,0,0,1,.54.553.543.543,0,0,1-.54.546A.552.552,0,0,1-7163.79-3698.164Zm-33.929-3.4a.642.642,0,0,1,.643-.642.64.64,0,0,1,.634.642.634.634,0,0,1-.634.634A.636.636,0,0,1-7197.718-3701.566Zm-595.014-3.693a3.93,3.93,0,0,1,3.927-3.925,3.931,3.931,0,0,1,3.934,3.925,3.933,3.933,0,0,1-3.934,3.926A3.931,3.931,0,0,1-7792.732-3705.259Zm157.422,1.53a1.1,1.1,0,0,1,1.1-1.089,1.091,1.091,0,0,1,1.095,1.089,1.1,1.1,0,0,1-1.095,1.1A1.1,1.1,0,0,1-7635.31-3703.729Zm-320.263-5.346a5.3,5.3,0,0,1,5.3-5.3,5.294,5.294,0,0,1,5.293,5.3,5.294,5.294,0,0,1-5.293,5.3A5.3,5.3,0,0,1-7955.573-3709.075Zm274.069,3.263a1.742,1.742,0,0,1,1.733-1.738,1.742,1.742,0,0,1,1.742,1.738,1.739,1.739,0,0,1-1.742,1.737A1.739,1.739,0,0,1-7681.5-3705.812Zm-214.931-5.16a6.85,6.85,0,0,1,6.853-6.851,6.851,6.851,0,0,1,6.842,6.851,6.849,6.849,0,0,1-6.842,6.849A6.848,6.848,0,0,1-7896.435-3710.972Zm664,5.16a.638.638,0,0,1,.643-.638.637.637,0,0,1,.634.638.637.637,0,0,1-.634.638A.638.638,0,0,1-7232.437-3705.812Zm-353.747.257a.36.36,0,0,1,.368-.366.358.358,0,0,1,.358.366.363.363,0,0,1-.358.366A.365.365,0,0,1-7586.183-3705.556Zm260.351,0a.089.089,0,0,1,.085-.1.09.09,0,0,1,.093.1.091.091,0,0,1-.093.089A.089.089,0,0,1-7325.832-3705.552Zm-508.116-8.061a6.394,6.394,0,0,1,6.4-6.39,6.392,6.392,0,0,1,6.388,6.39,6.389,6.389,0,0,1-6.388,6.4A6.391,6.391,0,0,1-7833.948-3713.613Zm-176.1,5.95a.092.092,0,0,1,.093-.095.092.092,0,0,1,.087.095.088.088,0,0,1-.087.089A.088.088,0,0,1-8010.043-3707.663Zm953.052-4.509a4.193,4.193,0,0,1,4.194-4.2,4.2,4.2,0,0,1,4.2,4.2,4.2,4.2,0,0,1-4.2,4.2A4.193,4.193,0,0,1-7056.992-3712.172Zm-667.742,1.523a1.913,1.913,0,0,1,1.917-1.909,1.913,1.913,0,0,1,1.923,1.909,1.919,1.919,0,0,1-1.923,1.923A1.919,1.919,0,0,1-7724.733-3710.649Zm702.394-.327a.366.366,0,0,1,.368-.366.369.369,0,0,1,.366.366.365.365,0,0,1-.366.368A.362.362,0,0,1-7022.34-3710.976Zm-245.6-.226a.365.365,0,0,1,.366-.368.37.37,0,0,1,.366.368.367.367,0,0,1-.366.366A.362.362,0,0,1-7267.935-3711.2Zm181.825-2.41a2.1,2.1,0,0,1,2.107-2.095,2.1,2.1,0,0,1,2.1,2.095,2.107,2.107,0,0,1-2.1,2.109A2.109,2.109,0,0,1-7086.11-3713.613Zm-680.484-3.808a2.919,2.919,0,0,1,2.917-2.925,2.919,2.919,0,0,1,2.915,2.925,2.916,2.916,0,0,1-2.915,2.917A2.916,2.916,0,0,1-7766.594-3717.421Zm650.1,2.093a.829.829,0,0,1,.816-.826.826.826,0,0,1,.826.826.82.82,0,0,1-.826.818A.823.823,0,0,1-7116.495-3715.328Zm-814.075-5.657a5.016,5.016,0,0,1,5.02-5.02,5.018,5.018,0,0,1,5.021,5.02,5.022,5.022,0,0,1-5.021,5.024A5.021,5.021,0,0,1-7930.569-3720.985Zm59.8-1.907a5.93,5.93,0,0,1,5.938-5.936,5.934,5.934,0,0,1,5.936,5.936,5.936,5.936,0,0,1-5.936,5.931A5.931,5.931,0,0,1-7870.765-3722.892Zm722.514,5.467a.364.364,0,0,1,.366-.362.36.36,0,0,1,.368.362.36.36,0,0,1-.368.364A.365.365,0,0,1-7148.251-3717.425Zm-459.258-.756a.552.552,0,0,1,.55-.553.547.547,0,0,1,.547.553.542.542,0,0,1-.547.542A.547.547,0,0,1-7607.509-3718.181Zm-47.046-.9a1.09,1.09,0,0,1,1.1-1.089,1.088,1.088,0,0,1,1.089,1.089,1.09,1.09,0,0,1-1.089,1.1A1.092,1.092,0,0,1-7654.555-3719.082Zm349.859.905a.09.09,0,0,1,.093-.1.089.089,0,0,1,.087.1.086.086,0,0,1-.087.085A.087.087,0,0,1-7304.7-3718.177Zm123.4-1.822a.553.553,0,0,1,.55-.55.553.553,0,0,1,.549.55.553.553,0,0,1-.549.549A.553.553,0,0,1-7181.293-3720Zm-804,.422a.1.1,0,0,1,.093-.1.088.088,0,0,1,.085.1.085.085,0,0,1-.085.085A.093.093,0,0,1-7985.3-3719.577Zm178.423-6.031a4.2,4.2,0,0,1,4.2-4.2,4.2,4.2,0,0,1,4.2,4.2,4.2,4.2,0,0,1-4.2,4.2A4.2,4.2,0,0,1-7806.874-3725.607Zm108.234,2.38a1.465,1.465,0,0,1,1.46-1.461,1.46,1.46,0,0,1,1.461,1.461,1.457,1.457,0,0,1-1.461,1.461A1.462,1.462,0,0,1-7698.64-3723.227Zm141.187,1.141a.088.088,0,0,1,.093-.091.087.087,0,0,1,.085.091.087.087,0,0,1-.085.093A.089.089,0,0,1-7557.453-3722.086Zm342.435-1.141a.633.633,0,0,1,.634-.634.64.64,0,0,1,.643.634.647.647,0,0,1-.643.645A.64.64,0,0,1-7215.018-3723.227Zm-749.828-8.271a4.384,4.384,0,0,1,4.388-4.386,4.382,4.382,0,0,1,4.384,4.386,4.385,4.385,0,0,1-4.384,4.386A4.388,4.388,0,0,1-7964.846-3731.5Zm715.792,4.166a.088.088,0,0,1,.093-.089.086.086,0,0,1,.087.089.088.088,0,0,1-.087.091A.089.089,0,0,1-7249.053-3727.333Zm-491.182-2.3a1.742,1.742,0,0,1,1.744-1.733,1.738,1.738,0,0,1,1.731,1.733,1.738,1.738,0,0,1-1.731,1.741A1.742,1.742,0,0,1-7740.235-3729.634Zm694.169-4.138a5.116,5.116,0,0,1,5.109-5.115,5.119,5.119,0,0,1,5.117,5.115,5.12,5.12,0,0,1-5.117,5.117A5.117,5.117,0,0,1-7046.066-3733.771Zm-858.957.885a4.2,4.2,0,0,1,4.194-4.206,4.2,4.2,0,0,1,4.2,4.206,4.2,4.2,0,0,1-4.2,4.2A4.2,4.2,0,0,1-7905.023-3732.886Zm828.513-1.931a5.016,5.016,0,0,1,5.021-5.024,5.015,5.015,0,0,1,5.015,5.024,5.015,5.015,0,0,1-5.015,5.02A5.016,5.016,0,0,1-7076.51-3734.818Zm-768.216,0a4.653,4.653,0,0,1,4.651-4.659,4.658,4.658,0,0,1,4.663,4.659,4.658,4.658,0,0,1-4.663,4.655A4.653,4.653,0,0,1-7844.726-3734.818Zm833.348,1.927a.635.635,0,0,1,.643-.634.631.631,0,0,1,.634.634.64.64,0,0,1-.634.645A.643.643,0,0,1-7011.378-3732.89Zm-615.776.232a.274.274,0,0,1,.269-.277.275.275,0,0,1,.277.277.273.273,0,0,1-.277.277A.273.273,0,0,1-7627.154-3732.658Zm342.382,0a.088.088,0,0,1,.093-.089.087.087,0,0,1,.087.089.092.092,0,0,1-.087.095A.093.093,0,0,1-7284.772-3732.658Zm180.441-3.428a1.916,1.916,0,0,1,1.917-1.913,1.916,1.916,0,0,1,1.915,1.913,1.92,1.92,0,0,1-1.915,1.919A1.92,1.92,0,0,1-7104.331-3736.086Zm-568.253.137a1.188,1.188,0,0,1,1.184-1.184,1.19,1.19,0,0,1,1.192,1.184,1.188,1.188,0,0,1-1.192,1.188A1.186,1.186,0,0,1-7672.584-3735.949Zm-107.744-1.669a2.557,2.557,0,0,1,2.56-2.558,2.556,2.556,0,0,1,2.56,2.558,2.558,2.558,0,0,1-2.56,2.556A2.56,2.56,0,0,1-7780.328-3737.618Zm645.983,0a.55.55,0,0,1,.55-.547.549.549,0,0,1,.547.547.551.551,0,0,1-.547.55A.552.552,0,0,1-7134.344-3737.622Zm-31.932-1.891a.554.554,0,0,1,.549-.554.554.554,0,0,1,.55.554.552.552,0,0,1-.55.545A.552.552,0,0,1-7166.276-3739.513Zm-772.988-3.905a3.567,3.567,0,0,1,3.56-3.56,3.565,3.565,0,0,1,3.56,3.56,3.567,3.567,0,0,1-3.56,3.56A3.568,3.568,0,0,1-7939.265-3743.418Zm58.963-1.376a4.206,4.206,0,0,1,4.2-4.2,4.2,4.2,0,0,1,4.194,4.2,4.2,4.2,0,0,1-4.194,4.194A4.2,4.2,0,0,1-7880.3-3744.794Zm166.148,2.9a.909.909,0,0,1,.915-.907.907.907,0,0,1,.907.907.912.912,0,0,1-.907.919A.914.914,0,0,1-7714.153-3741.893Zm515.47,0a.362.362,0,0,1,.357-.366.365.365,0,0,1,.368.366.364.364,0,0,1-.368.366A.361.361,0,0,1-7198.684-3741.893Zm-796.042-.521a.277.277,0,0,1,.269-.277.277.277,0,0,1,.277.277.275.275,0,0,1-.277.273A.275.275,0,0,1-7994.726-3742.414Zm175.219-4.333a4.2,4.2,0,0,1,4.2-4.2,4.2,4.2,0,0,1,4.194,4.2,4.2,4.2,0,0,1-4.194,4.2A4.206,4.206,0,0,1-7819.507-3746.747Zm587.226,1.826a.553.553,0,0,1,.549-.543.548.548,0,0,1,.556.543.55.55,0,0,1-.556.55A.555.555,0,0,1-7232.281-3744.921Zm-522.292-4.735a1.742,1.742,0,0,1,1.733-1.738,1.742,1.742,0,0,1,1.742,1.738,1.738,1.738,0,0,1-1.742,1.737A1.738,1.738,0,0,1-7754.573-3749.656Zm108.509.8a.636.636,0,0,1,.643-.638.642.642,0,0,1,.642.638.643.643,0,0,1-.642.638A.637.637,0,0,1-7646.064-3748.859Zm379.83,0a.1.1,0,0,1,.093-.095.1.1,0,0,1,.095.095.1.1,0,0,1-.095.089A.1.1,0,0,1-7266.234-3748.859Zm-707.963-5.5a4.572,4.572,0,0,1,4.568-4.566,4.572,4.572,0,0,1,4.57,4.566,4.573,4.573,0,0,1-4.57,4.568A4.572,4.572,0,0,1-7974.2-3754.36Zm117.8-2.339a5.02,5.02,0,0,1,5.024-5.024,5.027,5.027,0,0,1,5.024,5.024,5.024,5.024,0,0,1-5.024,5.016A5.017,5.017,0,0,1-7856.4-3756.7Zm-58.113,1.36a3.557,3.557,0,0,1,3.56-3.56,3.562,3.562,0,0,1,3.56,3.56,3.563,3.563,0,0,1-3.56,3.564A3.558,3.558,0,0,1-7914.51-3755.34Zm881.047-.618a3.2,3.2,0,0,1,3.194-3.2,3.2,3.2,0,0,1,3.194,3.2,3.2,3.2,0,0,1-3.194,3.194A3.194,3.194,0,0,1-7033.463-3755.958Zm-30.286-.746a3.557,3.557,0,0,1,3.56-3.56,3.563,3.563,0,0,1,3.56,3.56,3.559,3.559,0,0,1-3.56,3.556A3.554,3.554,0,0,1-7063.75-3756.7Zm-624.975,2.479a.824.824,0,0,1,.826-.818.817.817,0,0,1,.816.818.82.82,0,0,1-.816.82A.827.827,0,0,1-7688.724-3754.224Zm687.563-1.115a.553.553,0,0,1,.549-.55.56.56,0,0,1,.558.55.56.56,0,0,1-.558.55A.553.553,0,0,1-7001.161-3755.34Zm-91.632-2.255a2.372,2.372,0,0,1,2.37-2.372,2.379,2.379,0,0,1,2.376,2.372,2.378,2.378,0,0,1-2.376,2.376A2.372,2.372,0,0,1-7092.793-3757.594Zm-699.743-1.087a2.006,2.006,0,0,1,2.01-2.008,2,2,0,0,1,2,2.008,2.008,2.008,0,0,1-2,2.01A2.009,2.009,0,0,1-7792.536-3758.681Zm671.231,0a.272.272,0,0,1,.277-.277.272.272,0,0,1,.269.277.267.267,0,0,1-.269.273A.268.268,0,0,1-7121.305-3758.681Zm-31.052-1.337a.273.273,0,0,1,.269-.281.275.275,0,0,1,.276.281.267.267,0,0,1-.276.267A.264.264,0,0,1-7152.357-3760.019Zm-576.611-1.689a1.1,1.1,0,0,1,1.1-1.095,1.1,1.1,0,0,1,1.1,1.095,1.094,1.094,0,0,1-1.1,1.095A1.1,1.1,0,0,1-7728.968-3761.708Zm545,0a.267.267,0,0,1,.275-.273.266.266,0,0,1,.269.273.266.266,0,0,1-.269.269A.267.267,0,0,1-7183.97-3761.7Zm-706.788-5.554a4.568,4.568,0,0,1,4.56-4.57,4.571,4.571,0,0,1,4.57,4.57,4.564,4.564,0,0,1-4.57,4.562A4.561,4.561,0,0,1-7890.758-3767.257Zm-57.511.939a3.473,3.473,0,0,1,3.475-3.463,3.468,3.468,0,0,1,3.471,3.463,3.471,3.471,0,0,1-3.471,3.475A3.476,3.476,0,0,1-7948.269-3766.318Zm732.193,2.465a.089.089,0,0,1,.093-.093.088.088,0,0,1,.087.093.087.087,0,0,1-.087.091A.088.088,0,0,1-7216.076-3763.853Zm-614.136-4.756a3.568,3.568,0,0,1,3.568-3.56,3.566,3.566,0,0,1,3.56,3.56,3.562,3.562,0,0,1-3.56,3.56A3.564,3.564,0,0,1-7830.212-3768.609Zm-173.049,2.992a.551.551,0,0,1,.55-.546.551.551,0,0,1,.549.546.552.552,0,0,1-.549.552A.552.552,0,0,1-8003.261-3765.617Zm340.18-1.042a.638.638,0,0,1,.637-.638.638.638,0,0,1,.642.638.638.638,0,0,1-.642.638A.638.638,0,0,1-7663.081-3766.659Zm-104.688-3.952a2.015,2.015,0,0,1,2.01-2.014,2.009,2.009,0,0,1,2.008,2.014,2.007,2.007,0,0,1-2.008,2A2.012,2.012,0,0,1-7767.77-3770.611Zm64.089-3.178a.82.82,0,0,1,.816-.82.822.822,0,0,1,.826.82.828.828,0,0,1-.826.822A.825.825,0,0,1-7703.68-3773.789Zm-278.647-3.814a4.563,4.563,0,0,1,4.56-4.57,4.565,4.565,0,0,1,4.57,4.57,4.567,4.567,0,0,1-4.57,4.564A4.564,4.564,0,0,1-7982.327-3777.6Zm115.871-1.58a5.026,5.026,0,0,1,5.021-5.029,5.025,5.025,0,0,1,5.02,5.029,5.02,5.02,0,0,1-5.02,5.02A5.02,5.02,0,0,1-7866.456-3779.183Zm-57.051.915a3.559,3.559,0,0,1,3.56-3.56,3.564,3.564,0,0,1,3.56,3.56,3.56,3.56,0,0,1-3.56,3.56A3.555,3.555,0,0,1-7923.507-3778.268Zm870.186-.915a3.191,3.191,0,0,1,3.192-3.2,3.193,3.193,0,0,1,3.194,3.2,3.2,3.2,0,0,1-3.194,3.194A3.193,3.193,0,0,1-7053.321-3779.183Zm32,.5a.556.556,0,0,1,.558-.545.549.549,0,0,1,.55.545.553.553,0,0,1-.55.55A.56.56,0,0,1-7021.322-3778.686Zm-782.888-1.832a2.285,2.285,0,0,1,2.287-2.285,2.28,2.28,0,0,1,2.281,2.285,2.277,2.277,0,0,1-2.281,2.283A2.282,2.282,0,0,1-7804.209-3780.518Zm723.375.733a1.1,1.1,0,0,1,1.1-1.093,1.1,1.1,0,0,1,1.1,1.093,1.1,1.1,0,0,1-1.1,1.1A1.1,1.1,0,0,1-7080.835-3779.785Zm-556.267.566a.273.273,0,0,1,.269-.277.278.278,0,0,1,.277.277.276.276,0,0,1-.277.273A.271.271,0,0,1-7637.1-3779.219Zm527.193-1.295a.272.272,0,0,1,.269-.279.28.28,0,0,1,.277.279.279.279,0,0,1-.277.273A.271.271,0,0,1-7109.909-3780.514Zm-30.076-.9a.088.088,0,0,1,.085-.093.091.091,0,0,1,.1.093.09.09,0,0,1-.1.087A.086.086,0,0,1-7139.985-3781.417Zm-601.9-1.142a.908.908,0,0,1,.907-.911.909.909,0,0,1,.915.911.914.914,0,0,1-.915.915A.913.913,0,0,1-7741.882-3782.559Zm571.2,0a.088.088,0,0,1,.095-.089.086.086,0,0,1,.085.089.089.089,0,0,1-.085.095A.091.091,0,0,1-7170.683-3782.561Zm-31.24-1.447a.083.083,0,0,1,.087-.091.087.087,0,0,1,.085.091.086.086,0,0,1-.085.089A.082.082,0,0,1-7201.922-3784.007Zm-476.143-1.9a.267.267,0,0,1,.269-.273.269.269,0,0,1,.277.273.267.267,0,0,1-.277.269A.265.265,0,0,1-7678.065-3785.908Zm-277.917-3.7a3.184,3.184,0,0,1,3.194-3.194,3.189,3.189,0,0,1,3.194,3.194,3.194,3.194,0,0,1-3.194,3.194A3.189,3.189,0,0,1-7955.982-3789.6Zm57.416-.62a3.471,3.471,0,0,1,3.475-3.471,3.466,3.466,0,0,1,3.467,3.471,3.464,3.464,0,0,1-3.467,3.465A3.47,3.47,0,0,1-7898.566-3790.224Zm-112.592,1.073a1.191,1.191,0,0,1,1.192-1.188,1.189,1.189,0,0,1,1.184,1.188,1.188,1.188,0,0,1-1.184,1.184A1.19,1.19,0,0,1-8011.158-3789.151Zm171.576-1.958a2.922,2.922,0,0,1,2.917-2.925,2.923,2.923,0,0,1,2.917,2.925,2.918,2.918,0,0,1-2.917,2.921A2.917,2.917,0,0,1-7839.583-3791.109Zm61.015-1.317a1.367,1.367,0,0,1,1.366-1.368,1.374,1.374,0,0,1,1.375,1.368,1.373,1.373,0,0,1-1.375,1.374A1.366,1.366,0,0,1-7778.568-3792.426Zm61.3-2.075a1.1,1.1,0,0,1,1.1-1.095,1.1,1.1,0,0,1,1.1,1.095,1.1,1.1,0,0,1-1.1,1.093A1.1,1.1,0,0,1-7717.271-3794.5Zm-214.089-7.111a3.566,3.566,0,0,1,3.56-3.562,3.566,3.566,0,0,1,3.568,3.562,3.563,3.563,0,0,1-3.568,3.56A3.563,3.563,0,0,1-7931.359-3801.612Zm57.131-.578a4.017,4.017,0,0,1,4.012-4.024,4.024,4.024,0,0,1,4.021,4.024,4.023,4.023,0,0,1-4.021,4.019A4.016,4.016,0,0,1-7874.228-3802.19Zm800.82-.384a3.011,3.011,0,0,1,3.01-3.01,3.006,3.006,0,0,1,3.01,3.01,3.007,3.007,0,0,1-3.01,3.016A3.012,3.012,0,0,1-7073.408-3802.574Zm-912.63,1.376a1.19,1.19,0,0,1,1.192-1.188,1.189,1.189,0,0,1,1.184,1.188,1.19,1.19,0,0,1-1.184,1.192A1.192,1.192,0,0,1-7986.038-3801.2Zm942.59-1a2.1,2.1,0,0,1,2.1-2.1,2.1,2.1,0,0,1,2.109,2.1,2.1,2.1,0,0,1-2.109,2.1A2.1,2.1,0,0,1-7043.448-3802.2Zm-770.726-.843a2.279,2.279,0,0,1,2.277-2.281,2.281,2.281,0,0,1,2.287,2.281,2.285,2.285,0,0,1-2.287,2.287A2.282,2.282,0,0,1-7814.173-3803.038Zm801.147,1.166a.554.554,0,0,1,.549-.554.547.547,0,0,1,.542.554.545.545,0,0,1-.542.545A.552.552,0,0,1-7013.026-3801.873Zm-87.741-1.164a1.1,1.1,0,0,1,1.1-1.095,1.1,1.1,0,0,1,1.1,1.095,1.1,1.1,0,0,1-1.1,1.1A1.1,1.1,0,0,1-7100.767-3803.036Zm-28.712-.57a.27.27,0,0,1,.269-.281.278.278,0,0,1,.277.281.275.275,0,0,1-.277.267A.267.267,0,0,1-7129.479-3803.606Zm-623.917-.725a.919.919,0,0,1,.916-.911.922.922,0,0,1,.923.911.919.919,0,0,1-.923.915A.916.916,0,0,1-7753.4-3804.331Zm594.218,0a.093.093,0,0,1,.095-.093.09.09,0,0,1,.085.093.085.085,0,0,1-.085.085A.089.089,0,0,1-7159.177-3804.327Zm-30.294-.927a.088.088,0,0,1,.1-.085.086.086,0,0,1,.083.085.091.091,0,0,1-.083.095A.092.092,0,0,1-7189.471-3805.255Zm-502.526-1.2a.636.636,0,0,1,.645-.634.633.633,0,0,1,.634.634.636.636,0,0,1-.634.638A.64.64,0,0,1-7692-3806.459Zm-271.16-6.8a3.474,3.474,0,0,1,3.475-3.467,3.473,3.473,0,0,1,3.475,3.467,3.479,3.479,0,0,1-3.475,3.475A3.48,3.48,0,0,1-7963.157-3813.257Zm57.564-.376a2.823,2.823,0,0,1,2.828-2.826,2.825,2.825,0,0,1,2.829,2.826,2.826,2.826,0,0,1-2.829,2.832A2.825,2.825,0,0,1-7905.593-3813.633Zm57.9-.538a2.376,2.376,0,0,1,2.376-2.372,2.375,2.375,0,0,1,2.375,2.372,2.377,2.377,0,0,1-2.375,2.376A2.379,2.379,0,0,1-7847.7-3814.17Zm59.667-.8a.908.908,0,0,1,.915-.907.911.911,0,0,1,.915.907.918.918,0,0,1-.915.915A.914.914,0,0,1-7788.029-3814.966Zm59.362-1.269a.913.913,0,0,1,.915-.911.912.912,0,0,1,.915.911.919.919,0,0,1-.915.911A.92.92,0,0,1-7728.667-3816.235Zm-153.4-9.425a4.379,4.379,0,0,1,4.378-4.386,4.391,4.391,0,0,1,4.386,4.386,4.389,4.389,0,0,1-4.386,4.386A4.377,4.377,0,0,1-7882.071-3825.659Zm-55.586.337a3.189,3.189,0,0,1,3.192-3.192,3.189,3.189,0,0,1,3.194,3.192,3.2,3.2,0,0,1-3.194,3.2A3.2,3.2,0,0,1-7937.657-3825.322Zm-54.851.244a1.641,1.641,0,0,1,1.643-1.646,1.641,1.641,0,0,1,1.645,1.646,1.647,1.647,0,0,1-1.645,1.645A1.647,1.647,0,0,1-7992.507-3825.078Zm169.731-1.069a2.381,2.381,0,0,1,2.376-2.382,2.382,2.382,0,0,1,2.378,2.382,2.377,2.377,0,0,1-2.378,2.372A2.376,2.376,0,0,1-7822.776-3826.146Zm758.606.263a1.733,1.733,0,0,1,1.733-1.733,1.731,1.731,0,0,1,1.733,1.733,1.731,1.731,0,0,1-1.733,1.737A1.733,1.733,0,0,1-7064.17-3825.884Zm29.2.224a1.1,1.1,0,0,1,1.1-1.095,1.1,1.1,0,0,1,1.1,1.095,1.1,1.1,0,0,1-1.1,1.1A1.1,1.1,0,0,1-7034.969-3825.659Zm28.72.184a.82.82,0,0,1,.818-.822.818.818,0,0,1,.818.822.821.821,0,0,1-.818.822A.822.822,0,0,1-7006.249-3825.476Zm-85.734-.673a.819.819,0,0,1,.818-.82.818.818,0,0,1,.818.82.821.821,0,0,1-.818.822A.822.822,0,0,1-7091.983-3826.148Zm-671.162-.748a.827.827,0,0,1,.818-.826.833.833,0,0,1,.827.826.825.825,0,0,1-.827.818A.819.819,0,0,1-7763.145-3826.9Zm642.788.412a.276.276,0,0,1,.276-.273.268.268,0,0,1,.269.273.273.273,0,0,1-.269.277A.281.281,0,0,1-7120.357-3826.484Zm-28.973-.42a.089.089,0,0,1,.1-.089.086.086,0,0,1,.085.089.087.087,0,0,1-.085.093A.09.09,0,0,1-7149.331-3826.9Zm-29.459-.533a.1.1,0,0,1,.1-.093.1.1,0,0,1,.089.093.1.1,0,0,1-.089.089A.1.1,0,0,1-7178.79-3827.437Zm-524.508-.707a.268.268,0,0,1,.269-.273.276.276,0,0,1,.277.273.281.281,0,0,1-.277.277A.273.273,0,0,1-7703.3-3828.144Zm-265.345-9.053a3.194,3.194,0,0,1,3.192-3.2,3.2,3.2,0,0,1,3.2,3.2,3.2,3.2,0,0,1-3.2,3.194A3.193,3.193,0,0,1-7968.644-3837.2Zm113.144-.5a2.922,2.922,0,0,1,2.917-2.921,2.92,2.92,0,0,1,2.925,2.921,2.913,2.913,0,0,1-2.925,2.921A2.915,2.915,0,0,1-7855.5-3837.7Zm-55.972.3a2.283,2.283,0,0,1,2.287-2.287,2.281,2.281,0,0,1,2.271,2.287,2.278,2.278,0,0,1-2.271,2.283A2.28,2.28,0,0,1-7911.472-3837.405Zm114.927-.735a1.1,1.1,0,0,1,1.1-1.1,1.1,1.1,0,0,1,1.095,1.1,1.1,1.1,0,0,1-1.095,1.093A1.1,1.1,0,0,1-7796.544-3838.141Zm58.2-.7a.82.82,0,0,1,.818-.818.828.828,0,0,1,.826.818.83.83,0,0,1-.826.822A.822.822,0,0,1-7738.342-3838.842Zm-148.707-10.663a3.2,3.2,0,0,1,3.2-3.194,3.192,3.192,0,0,1,3.194,3.194,3.2,3.2,0,0,1-3.194,3.194A3.2,3.2,0,0,1-7887.049-3849.5Zm-55.727.174a2.836,2.836,0,0,1,2.828-2.838,2.837,2.837,0,0,1,2.834,2.838,2.83,2.83,0,0,1-2.834,2.828A2.829,2.829,0,0,1-7942.776-3849.331Zm113.632-.426a1.742,1.742,0,0,1,1.733-1.737,1.742,1.742,0,0,1,1.741,1.737,1.736,1.736,0,0,1-1.741,1.733A1.736,1.736,0,0,1-7829.144-3849.757Zm-167.762.546a1.1,1.1,0,0,1,1.1-1.1,1.1,1.1,0,0,1,1.1,1.1,1.1,1.1,0,0,1-1.1,1.1A1.1,1.1,0,0,1-7996.905-3849.212Zm996.362-.2a.907.907,0,0,1,.907-.911.914.914,0,0,1,.923.911.922.922,0,0,1-.923.915A.915.915,0,0,1-7000.543-3849.412Zm-27.809-.093a.637.637,0,0,1,.634-.641.639.639,0,0,1,.643.641.637.637,0,0,1-.643.634A.635.635,0,0,1-7028.352-3849.5Zm-28.086-.115a.556.556,0,0,1,.549-.548.553.553,0,0,1,.558.548.555.555,0,0,1-.558.55A.558.558,0,0,1-7056.438-3849.62Zm-714.934-.527a.906.906,0,0,1,.915-.907.9.9,0,0,1,.907.907.91.91,0,0,1-.907.915A.912.912,0,0,1-7771.372-3850.147Zm686.852.39a.369.369,0,0,1,.366-.37.369.369,0,0,1,.366.37.366.366,0,0,1-.366.366A.366.366,0,0,1-7084.52-3849.757Zm-28.306-.168a.28.28,0,0,1,.269-.281.282.282,0,0,1,.276.281.275.275,0,0,1-.276.269A.273.273,0,0,1-7112.826-3849.925Zm-28.367-.218a.09.09,0,0,1,.093-.095.088.088,0,0,1,.086.095.087.087,0,0,1-.086.089A.088.088,0,0,1-7141.193-3850.143Zm-572.065-.645a.555.555,0,0,1,.558-.55.546.546,0,0,1,.541.55.546.546,0,0,1-.541.55A.555.555,0,0,1-7713.258-3850.788Zm543.313.366a.09.09,0,0,1,.085-.093.091.091,0,0,1,.093.093.092.092,0,0,1-.093.095A.09.09,0,0,1-7169.945-3850.422Zm-803.321-10.964a3.191,3.191,0,0,1,3.192-3.2,3.188,3.188,0,0,1,3.194,3.2,3.189,3.189,0,0,1-3.194,3.194A3.193,3.193,0,0,1-7973.266-3861.386Zm56.622-.1a2.285,2.285,0,0,1,2.283-2.283,2.283,2.283,0,0,1,2.287,2.283,2.282,2.282,0,0,1-2.287,2.281A2.284,2.284,0,0,1-7916.644-3861.487Zm56.312-.143a1.911,1.911,0,0,1,1.915-1.913,1.917,1.917,0,0,1,1.917,1.913,1.919,1.919,0,0,1-1.917,1.921A1.913,1.913,0,0,1-7860.333-3861.63Zm57.071-.206a1.1,1.1,0,0,1,1.1-1.091,1.094,1.094,0,0,1,1.1,1.091,1.1,1.1,0,0,1-1.1,1.1A1.1,1.1,0,0,1-7803.262-3861.836Zm57.2-.327a.635.635,0,0,1,.643-.634.633.633,0,0,1,.634.634.633.633,0,0,1-.634.635A.635.635,0,0,1-7746.06-3862.164Zm-145.521-11.5a2.924,2.924,0,0,1,2.925-2.917,2.924,2.924,0,0,1,2.925,2.917,2.928,2.928,0,0,1-2.925,2.926A2.928,2.928,0,0,1-7891.58-3873.665Zm-54.744.073a2.108,2.108,0,0,1,2.1-2.1,2.1,2.1,0,0,1,2.1,2.1,2.1,2.1,0,0,1-2.1,2.105A2.107,2.107,0,0,1-7946.324-3873.593Zm111.794-.174a1.641,1.641,0,0,1,1.645-1.649,1.644,1.644,0,0,1,1.643,1.649,1.645,1.645,0,0,1-1.643,1.642A1.642,1.642,0,0,1-7834.53-3873.766Zm-165.947.232a.818.818,0,0,1,.816-.822.818.818,0,0,1,.818.822.817.817,0,0,1-.818.816A.817.817,0,0,1-8000.477-3873.534Zm976.743-.131a.822.822,0,0,1,.826-.818.814.814,0,0,1,.816.818.815.815,0,0,1-.816.822A.823.823,0,0,1-7023.734-3873.665Zm-754.01-.269a.914.914,0,0,1,.915-.915.919.919,0,0,1,.916.915.915.915,0,0,1-.916.911A.911.911,0,0,1-7777.744-3873.934Zm726.346.224a.628.628,0,0,1,.634-.634.626.626,0,0,1,.634.634.633.633,0,0,1-.634.643A.635.635,0,0,1-7051.4-3873.71Zm-27.637-.056a.36.36,0,0,1,.357-.368.369.369,0,0,1,.374.368.371.371,0,0,1-.374.365A.362.362,0,0,1-7079.035-3873.766Zm-27.9-.071a.277.277,0,0,1,.277-.275.277.277,0,0,1,.277.275.273.273,0,0,1-.277.269A.273.273,0,0,1-7106.935-3873.837Zm-27.886-.1a.09.09,0,0,1,.085-.093.091.091,0,0,1,.093.093.089.089,0,0,1-.093.093A.087.087,0,0,1-7134.821-3873.934Zm-585.769-.269a.276.276,0,0,1,.276-.273.271.271,0,0,1,.269.273.267.267,0,0,1-.269.273A.272.272,0,0,1-7720.59-3874.2Zm557.58.152a.09.09,0,0,1,.087-.091.09.09,0,0,1,.093.091.089.089,0,0,1-.093.093A.089.089,0,0,1-7163.01-3874.051Zm-758.43-11.758a3.2,3.2,0,0,1,3.2-3.194,3.189,3.189,0,0,1,3.194,3.194,3.193,3.193,0,0,1-3.194,3.2A3.2,3.2,0,0,1-7921.44-3885.809Zm-55.032.036a2.924,2.924,0,0,1,2.925-2.921,2.918,2.918,0,0,1,2.917,2.921,2.922,2.922,0,0,1-2.917,2.921A2.928,2.928,0,0,1-7976.472-3885.773Zm111.737-.089a1.916,1.916,0,0,1,1.915-1.913,1.919,1.919,0,0,1,1.926,1.913,1.926,1.926,0,0,1-1.926,1.923A1.924,1.924,0,0,1-7864.735-3885.862Zm56.412-.075a1.1,1.1,0,0,1,1.1-1.1,1.092,1.092,0,0,1,1.087,1.1,1.089,1.089,0,0,1-1.087,1.095A1.092,1.092,0,0,1-7808.323-3885.936Zm56.3-.117a.637.637,0,0,1,.642-.638.642.642,0,0,1,.643.638.643.643,0,0,1-.643.638A.638.638,0,0,1-7752.025-3886.053Zm-143.086-12a3.016,3.016,0,0,1,3.019-3.01,3.016,3.016,0,0,1,3.012,3.01,3.018,3.018,0,0,1-3.012,3.02A3.018,3.018,0,0,1-7895.112-3898.054Zm-54.458.026a2.281,2.281,0,0,1,2.285-2.283,2.283,2.283,0,0,1,2.283,2.283,2.279,2.279,0,0,1-2.283,2.277A2.277,2.277,0,0,1-7949.57-3898.028Zm110.838-.052a1.913,1.913,0,0,1,1.907-1.917,1.917,1.917,0,0,1,1.925,1.917,1.922,1.922,0,0,1-1.925,1.919A1.919,1.919,0,0,1-7838.732-3898.08Zm56.5-.051a.817.817,0,0,1,.818-.816.823.823,0,0,1,.824.816.828.828,0,0,1-.824.826A.822.822,0,0,1-7782.231-3898.131Zm734.5.071a.64.64,0,0,1,.643-.645.638.638,0,0,1,.634.645.635.635,0,0,1-.634.634A.637.637,0,0,1-7047.735-3898.06Zm-955.233.049a.553.553,0,0,1,.549-.55.553.553,0,0,1,.55.55.553.553,0,0,1-.55.549A.553.553,0,0,1-8002.968-3898.011Zm982.95-.041a.547.547,0,0,1,.547-.545.556.556,0,0,1,.558.545.56.56,0,0,1-.558.553A.552.552,0,0,1-7020.019-3898.052Zm-55-.024a.273.273,0,0,1,.269-.277.267.267,0,0,1,.269.277.265.265,0,0,1-.269.273A.271.271,0,0,1-7075.017-3898.076Zm-27.5-.026a.09.09,0,0,1,.1-.089.086.086,0,0,1,.084.089.087.087,0,0,1-.084.091A.091.091,0,0,1-7102.517-3898.1Zm-27.728-.026a.091.091,0,0,1,.095-.091.088.088,0,0,1,.085.091.09.09,0,0,1-.085.093A.093.093,0,0,1-7130.245-3898.129Zm-27.771-.034a.088.088,0,0,1,.085-.093.089.089,0,0,1,.093.093.091.091,0,0,1-.093.091A.09.09,0,0,1-7158.016-3898.163Zm-567.863-.049a.088.088,0,0,1,.093-.089.087.087,0,0,1,.085.089.093.093,0,0,1-.085.093A.094.094,0,0,1-7725.879-3898.212Zm-252.913-12.079a2.92,2.92,0,0,1,2.917-2.925,2.929,2.929,0,0,1,2.926,2.925,2.926,2.926,0,0,1-2.926,2.917A2.917,2.917,0,0,1-7978.792-3910.291Zm55.394-.012a2.556,2.556,0,0,1,2.56-2.556,2.556,2.556,0,0,1,2.56,2.556,2.559,2.559,0,0,1-2.56,2.558A2.559,2.559,0,0,1-7923.4-3910.3Zm55.626-.008a2.007,2.007,0,0,1,2.01-2,2,2,0,0,1,2.01,2,2.008,2.008,0,0,1-2.01,2.008A2.014,2.014,0,0,1-7867.771-3910.311Zm56.239-.022a.91.91,0,0,1,.915-.907.915.915,0,0,1,.915.907.92.92,0,0,1-.915.917A.915.915,0,0,1-7811.533-3910.333Zm55.594-.022a.552.552,0,0,1,.55-.55.552.552,0,0,1,.547.55.552.552,0,0,1-.547.55A.552.552,0,0,1-7755.939-3910.355Zm-141.146-12.235a2.922,2.922,0,0,1,2.925-2.921,2.919,2.919,0,0,1,2.917,2.921,2.922,2.922,0,0,1-2.917,2.926A2.925,2.925,0,0,1-7897.085-3922.59Zm-54.142,0a2.1,2.1,0,0,1,2.1-2.1,2.1,2.1,0,0,1,2.1,2.1,2.1,2.1,0,0,1-2.1,2.1A2.1,2.1,0,0,1-7951.227-3922.59Zm110.586,0a1.459,1.459,0,0,1,1.465-1.465,1.455,1.455,0,0,1,1.449,1.465,1.46,1.46,0,0,1-1.449,1.461A1.465,1.465,0,0,1-7840.641-3922.59Zm794.931,0a.825.825,0,0,1,.818-.824.826.826,0,0,1,.826.824.819.819,0,0,1-.826.818A.819.819,0,0,1-7045.71-3922.592Zm-739.278-.006a.824.824,0,0,1,.816-.826.826.826,0,0,1,.827.826.821.821,0,0,1-.827.818A.818.818,0,0,1-7784.988-3922.6Zm-219.36.016a.276.276,0,0,1,.277-.281.273.273,0,0,1,.269.281.269.269,0,0,1-.269.269A.272.272,0,0,1-8004.348-3922.582Zm931.693-.012a.278.278,0,0,1,.275-.277.273.273,0,0,1,.271.277.267.267,0,0,1-.271.273A.272.272,0,0,1-7072.655-3922.594Zm-27.318,0a.088.088,0,0,1,.093-.089.086.086,0,0,1,.084.089.09.09,0,0,1-.084.093A.092.092,0,0,1-7099.973-3922.6Zm-27.512,0a.089.089,0,0,1,.093-.091.089.089,0,0,1,.087.091.092.092,0,0,1-.087.093A.092.092,0,0,1-7127.485-3922.6Zm-27.528,0a.093.093,0,0,1,.093-.089.086.086,0,0,1,.085.089.088.088,0,0,1-.085.093A.094.094,0,0,1-7155.014-3922.606Zm-769.408-12.293a2.282,2.282,0,0,1,2.283-2.277,2.28,2.28,0,0,1,2.285,2.277,2.282,2.282,0,0,1-2.285,2.287A2.284,2.284,0,0,1-7924.422-3934.9Zm55.277,0a1.916,1.916,0,0,1,1.915-1.913,1.917,1.917,0,0,1,1.917,1.913,1.919,1.919,0,0,1-1.917,1.923A1.918,1.918,0,0,1-7869.145-3934.9Zm-109.814.008a1.931,1.931,0,0,1,1.926-1.921,1.923,1.923,0,0,1,1.917,1.921,1.917,1.917,0,0,1-1.917,1.915A1.924,1.924,0,0,1-7978.959-3934.894Zm166.091-.008a.546.546,0,0,1,.549-.542.546.546,0,0,1,.55.542.548.548,0,0,1-.55.55A.548.548,0,0,1-7812.868-3934.9Zm55.1,0a.368.368,0,0,1,.374-.364.366.366,0,0,1,.366.364.37.37,0,0,1-.366.37A.372.372,0,0,1-7757.765-3934.9Zm-140.106-12.308a3.013,3.013,0,0,1,3.012-3.012,3.014,3.014,0,0,1,3.019,3.012,3.013,3.013,0,0,1-3.019,3.01A3.013,3.013,0,0,1-7897.872-3947.209Zm-53.876,0a2.014,2.014,0,0,1,2.01-2.01,2.014,2.014,0,0,1,2.01,2.01,2.015,2.015,0,0,1-2.01,2.01A2.016,2.016,0,0,1-7951.748-3947.209Zm110.408,0a1.367,1.367,0,0,1,1.366-1.368,1.368,1.368,0,0,1,1.368,1.368,1.365,1.365,0,0,1-1.368,1.366A1.364,1.364,0,0,1-7841.34-3947.209Zm55.7,0a.546.546,0,0,1,.545-.549.553.553,0,0,1,.553.549.553.553,0,0,1-.553.55A.547.547,0,0,1-7785.637-3947.209Zm741.217,0a.273.273,0,0,1,.269-.277.281.281,0,0,1,.277.277.276.276,0,0,1-.277.273A.268.268,0,0,1-7044.419-3947.211Zm-27.439,0a.273.273,0,0,1,.269-.277.281.281,0,0,1,.277.277.276.276,0,0,1-.277.273A.268.268,0,0,1-7071.859-3947.211Zm-27.264,0a.089.089,0,0,1,.093-.091.087.087,0,0,1,.085.091.087.087,0,0,1-.085.093A.089.089,0,0,1-7099.123-3947.209Zm-54.883,0a.089.089,0,0,1,.087-.091.083.083,0,0,1,.085.091.083.083,0,0,1-.085.093A.088.088,0,0,1-7154.005-3947.209Zm-770.5-12.318a2.366,2.366,0,0,1,2.37-2.368,2.373,2.373,0,0,1,2.376,2.368,2.376,2.376,0,0,1-2.376,2.376A2.369,2.369,0,0,1-7924.509-3959.527Zm55.547,0a1.734,1.734,0,0,1,1.731-1.733,1.734,1.734,0,0,1,1.733,1.733,1.732,1.732,0,0,1-1.733,1.741A1.732,1.732,0,0,1-7868.961-3959.531Zm-109.717.006a1.645,1.645,0,0,1,1.645-1.645,1.643,1.643,0,0,1,1.642,1.645,1.64,1.64,0,0,1-1.642,1.642A1.641,1.641,0,0,1-7978.678-3959.525Zm165.542,0a.821.821,0,0,1,.818-.818.815.815,0,0,1,.818.818.819.819,0,0,1-.818.824A.825.825,0,0,1-7813.137-3959.525Zm55.469.008a.274.274,0,0,1,.276-.281.279.279,0,0,1,.269.281.271.271,0,0,1-.269.267A.266.266,0,0,1-7757.668-3959.517Zm-138.779-12.314a2.288,2.288,0,0,1,2.287-2.287,2.289,2.289,0,0,1,2.283,2.287,2.281,2.281,0,0,1-2.283,2.283A2.28,2.28,0,0,1-7896.447-3971.831Zm-54.6,0a1.914,1.914,0,0,1,1.915-1.915,1.916,1.916,0,0,1,1.925,1.915,1.919,1.919,0,0,1-1.925,1.917A1.917,1.917,0,0,1-7951.043-3971.831Zm110.671,0a1.192,1.192,0,0,1,1.2-1.188,1.186,1.186,0,0,1,1.18,1.188,1.186,1.186,0,0,1-1.18,1.188A1.192,1.192,0,0,1-7840.372-3971.826Zm55.842,0a.364.364,0,0,1,.357-.365.366.366,0,0,1,.368.365.367.367,0,0,1-.368.372A.365.365,0,0,1-7784.53-3971.823Zm657.044,0a.089.089,0,0,1,.1-.089.086.086,0,0,1,.085.089.091.091,0,0,1-.085.095A.093.093,0,0,1-7127.485-3971.818Zm-27.528.006a.094.094,0,0,1,.093-.095.088.088,0,0,1,.085.095.087.087,0,0,1-.085.089A.093.093,0,0,1-7155.014-3971.812Zm55.041-.006a.092.092,0,0,1,.093-.093.09.09,0,0,1,.086.093.089.089,0,0,1-.086.091A.091.091,0,0,1-7099.973-3971.818Zm27.5-.008a.093.093,0,0,1,.093-.089.086.086,0,0,1,.086.089.091.091,0,0,1-.086.095A.1.1,0,0,1-7072.473-3971.826Zm-850.375-12.292a2.018,2.018,0,0,1,2.01-2.014,2.012,2.012,0,0,1,2.01,2.014,2.008,2.008,0,0,1-2.01,2.006A2.014,2.014,0,0,1-7922.848-3984.118Zm55.719.008a1.372,1.372,0,0,1,1.368-1.37,1.368,1.368,0,0,1,1.368,1.37,1.363,1.363,0,0,1-1.368,1.372A1.367,1.367,0,0,1-7867.129-3984.11Zm55.685.02a.825.825,0,0,1,.826-.824.819.819,0,0,1,.818.824.818.818,0,0,1-.818.818A.824.824,0,0,1-7811.444-3984.09Zm-165.249-.04a.819.819,0,0,1,.818-.818.818.818,0,0,1,.816.818.821.821,0,0,1-.816.826A.822.822,0,0,1-7976.692-3984.13Zm221.216.067a.087.087,0,0,1,.087-.091.082.082,0,0,1,.084.091.083.083,0,0,1-.084.089A.089.089,0,0,1-7755.476-3984.063Zm-138.9-12.308a2.279,2.279,0,0,1,2.283-2.279,2.277,2.277,0,0,1,2.283,2.279,2.283,2.283,0,0,1-2.283,2.287A2.284,2.284,0,0,1-7894.376-3996.371Zm-54.832-.022a1.915,1.915,0,0,1,1.923-1.911,1.913,1.913,0,0,1,1.917,1.911,1.921,1.921,0,0,1-1.917,1.921A1.922,1.922,0,0,1-7949.208-3996.393Zm111.208.055a1.181,1.181,0,0,1,1.176-1.188,1.188,1.188,0,0,1,1.192,1.188,1.189,1.189,0,0,1-1.192,1.188A1.182,1.182,0,0,1-7838-3996.338Zm56.22.048a.369.369,0,0,1,.368-.368.371.371,0,0,1,.374.368.373.373,0,0,1-.374.366A.372.372,0,0,1-7781.78-3996.29Zm623.765.032a.087.087,0,0,1,.085-.091.089.089,0,0,1,.093.091.089.089,0,0,1-.093.093A.087.087,0,0,1-7158.016-3996.258Zm27.771-.034a.09.09,0,0,1,.095-.089.086.086,0,0,1,.085.089.091.091,0,0,1-.085.095A.093.093,0,0,1-7130.245-3996.292Zm27.728-.022a.091.091,0,0,1,.1-.095.088.088,0,0,1,.084.095.089.089,0,0,1-.084.089A.093.093,0,0,1-7102.517-3996.314Zm27.684-.024a.087.087,0,0,1,.084-.093.1.1,0,0,1,.1.093.1.1,0,0,1-.1.089A.086.086,0,0,1-7074.833-3996.338Zm-846.05-12.271a2.646,2.646,0,0,1,2.645-2.649,2.646,2.646,0,0,1,2.645,2.649,2.644,2.644,0,0,1-2.645,2.645A2.644,2.644,0,0,1-7920.882-4008.61Zm56.612.049a1.454,1.454,0,0,1,1.453-1.461,1.456,1.456,0,0,1,1.458,1.461,1.462,1.462,0,0,1-1.458,1.465A1.461,1.461,0,0,1-7864.27-4008.561Zm56.679.077a.365.365,0,0,1,.366-.37.371.371,0,0,1,.368.37.364.364,0,0,1-.368.362A.358.358,0,0,1-7807.591-4008.484Zm56.115.119a.093.093,0,0,1,.1-.091.089.089,0,0,1,.084.091.087.087,0,0,1-.084.093A.091.091,0,0,1-7751.476-4008.365Zm-222.348-.277a.28.28,0,0,1,.277-.281.274.274,0,0,1,.269.281.271.271,0,0,1-.269.273A.277.277,0,0,1-7973.824-4008.642Zm82.886-12.118a2.282,2.282,0,0,1,2.283-2.279,2.277,2.277,0,0,1,2.283,2.279,2.281,2.281,0,0,1-2.283,2.283A2.286,2.286,0,0,1-7890.938-4020.76Zm-54.931-.065a1.647,1.647,0,0,1,1.645-1.648,1.647,1.647,0,0,1,1.645,1.648,1.647,1.647,0,0,1-1.645,1.643A1.647,1.647,0,0,1-7945.869-4020.824Zm112.069.17a.911.911,0,0,1,.915-.911.909.909,0,0,1,.907.911.911.911,0,0,1-.907.917A.912.912,0,0,1-7833.8-4020.655Zm56.695.172a.281.281,0,0,1,.277-.281.273.273,0,0,1,.269.281.266.266,0,0,1-.269.269A.274.274,0,0,1-7777.105-4020.483Zm670.362-.095a.088.088,0,0,1,.085-.093.084.084,0,0,1,.087.093.084.084,0,0,1-.087.091A.087.087,0,0,1-7106.743-4020.578Zm27.981-.073a.088.088,0,0,1,.085-.093.089.089,0,0,1,.093.093.09.09,0,0,1-.093.091A.088.088,0,0,1-7078.762-4020.65Zm-837.7-12.283a2.1,2.1,0,0,1,2.1-2.1,2.1,2.1,0,0,1,2.107,2.1,2.1,2.1,0,0,1-2.107,2.1A2.1,2.1,0,0,1-7916.46-4032.934Zm56.669.139a1.374,1.374,0,0,1,1.374-1.368,1.367,1.367,0,0,1,1.368,1.368,1.368,1.368,0,0,1-1.368,1.372A1.375,1.375,0,0,1-7859.791-4032.794Zm57.079.208a.554.554,0,0,1,.55-.554.554.554,0,0,1,.549.554.55.55,0,0,1-.549.543A.55.55,0,0,1-7802.712-4032.586Zm57.2.333a.1.1,0,0,1,.1-.095.092.092,0,0,1,.084.095.092.092,0,0,1-.084.093A.1.1,0,0,1-7745.512-4032.253Zm-139.977-12.659a1.643,1.643,0,0,1,1.645-1.646,1.646,1.646,0,0,1,1.643,1.646,1.647,1.647,0,0,1-1.643,1.645A1.643,1.643,0,0,1-7885.489-4044.912Zm172.693,1.279a.094.094,0,0,1,.1-.1.091.091,0,0,1,.084.1.089.089,0,0,1-.084.089A.093.093,0,0,1-7712.8-4043.633Zm-115.164-1.026a.552.552,0,0,1,.549-.55.553.553,0,0,1,.549.55.553.553,0,0,1-.549.55A.552.552,0,0,1-7827.959-4044.659Zm57.41.384a.089.089,0,0,1,.084-.089.093.093,0,0,1,.1.089.093.093,0,0,1-.1.093A.09.09,0,0,1-7770.549-4044.276Zm-170.217-.806a.818.818,0,0,1,.816-.822.825.825,0,0,1,.826.822.828.828,0,0,1-.826.822A.82.82,0,0,1-7940.766-4045.082Zm828.124.594a.087.087,0,0,1,.085-.093.091.091,0,0,1,.095.093.09.09,0,0,1-.095.089A.086.086,0,0,1-7112.642-4044.488Zm-741.307-12.235a1.369,1.369,0,0,1,1.374-1.368,1.368,1.368,0,0,1,1.368,1.368,1.37,1.37,0,0,1-1.368,1.372A1.371,1.371,0,0,1-7853.949-4056.722Zm116.34,1.147a.091.091,0,0,1,.085-.1.092.092,0,0,1,.093.1.089.089,0,0,1-.093.087A.087.087,0,0,1-7737.609-4055.575Zm-172.956-1.44a1.375,1.375,0,0,1,1.38-1.366,1.369,1.369,0,0,1,1.36,1.366,1.368,1.368,0,0,1-1.36,1.372A1.373,1.373,0,0,1-7910.565-4057.015Zm114.754.735a.367.367,0,0,1,.366-.366.367.367,0,0,1,.366.366.37.37,0,0,1-.366.368A.37.37,0,0,1-7795.811-4056.28Zm-83.892-12.481a2.006,2.006,0,0,1,2.01-2.01,2.011,2.011,0,0,1,2.008,2.01,2.014,2.014,0,0,1-2.008,2.01A2.009,2.009,0,0,1-7879.7-4068.761Zm58.388.493a.91.91,0,0,1,.915-.913.914.914,0,0,1,.915.913.922.922,0,0,1-.915.915A.918.918,0,0,1-7821.315-4068.268Zm58.9.751a.087.087,0,0,1,.084-.093.089.089,0,0,1,.093.093.091.091,0,0,1-.093.089A.089.089,0,0,1-7762.412-4067.517Zm-83.824-12.742a.915.915,0,0,1,.916-.909.908.908,0,0,1,.915.909.918.918,0,0,1-.915.919A.925.925,0,0,1-7846.235-4080.259Zm59.029.806a.089.089,0,0,1,.093-.091.087.087,0,0,1,.087.091.088.088,0,0,1-.087.093A.089.089,0,0,1-7787.207-4079.453Zm-116.926-1.339a1.37,1.37,0,0,1,1.368-1.368,1.373,1.373,0,0,1,1.376,1.368,1.371,1.371,0,0,1-1.376,1.372A1.368,1.368,0,0,1-7904.132-4080.792Zm151.567-9.3a.089.089,0,0,1,.085-.089.09.09,0,0,1,.093.089.091.091,0,0,1-.093.093A.09.09,0,0,1-7752.565-4090.094Zm-59.687-1.295a.359.359,0,0,1,.357-.362.362.362,0,0,1,.366.362.363.363,0,0,1-.366.368A.361.361,0,0,1-7812.252-4091.388Zm-59.148-.841a1.183,1.183,0,0,1,1.184-1.188,1.188,1.188,0,0,1,1.184,1.188,1.186,1.186,0,0,1-1.184,1.184A1.181,1.181,0,0,1-7871.4-4092.229Zm-56.485-.578a.087.087,0,0,1,.085-.091.089.089,0,0,1,.1.091.09.09,0,0,1-.1.093A.087.087,0,0,1-7927.885-4092.807Zm150.6-9.192a.086.086,0,0,1,.085-.089.089.089,0,0,1,.095.089.09.09,0,0,1-.095.1A.088.088,0,0,1-7777.287-4102Zm-60.477-1.317a1.1,1.1,0,0,1,1.1-1.095,1.1,1.1,0,0,1,1.1,1.095,1.1,1.1,0,0,1-1.1,1.1A1.1,1.1,0,0,1-7837.764-4103.316Zm-58.7-.878a1.374,1.374,0,0,1,1.376-1.368,1.369,1.369,0,0,1,1.368,1.368,1.371,1.371,0,0,1-1.368,1.372A1.377,1.377,0,0,1-7896.467-4104.195Zm155.4-7.665a.091.091,0,0,1,.089-.1.09.09,0,0,1,.093.1.089.089,0,0,1-.093.093A.091.091,0,0,1-7741.063-4111.86Zm-61.408-2.042a.554.554,0,0,1,.549-.554.554.554,0,0,1,.549.554.549.549,0,0,1-.549.545A.549.549,0,0,1-7802.472-4113.9Zm-59.871-1.335a.906.906,0,0,1,.907-.907.907.907,0,0,1,.915.907.91.91,0,0,1-.915.911A.909.909,0,0,1-7862.343-4115.238Zm96.313-8.568a.276.276,0,0,1,.277-.273.268.268,0,0,1,.269.273.27.27,0,0,1-.269.276A.278.278,0,0,1-7766.03-4123.806Zm-62.259-2a1.644,1.644,0,0,1,1.645-1.648,1.641,1.641,0,0,1,1.634,1.648,1.643,1.643,0,0,1-1.634,1.643A1.647,1.647,0,0,1-7828.289-4125.808Zm-58.542-1.352a.641.641,0,0,1,.634-.642.644.644,0,0,1,.643.642.639.639,0,0,1-.643.645A.636.636,0,0,1-7886.831-4127.16Zm158.875-5.554a.088.088,0,0,1,.087-.089.088.088,0,0,1,.093.089.088.088,0,0,1-.093.091A.088.088,0,0,1-7727.956-4132.713Zm-62.847-3.022a.271.271,0,0,1,.277-.277.274.274,0,0,1,.267.277.272.272,0,0,1-.267.272A.269.269,0,0,1-7790.8-4135.735Zm-61.76-1.978a1.191,1.191,0,0,1,1.188-1.192,1.189,1.189,0,0,1,1.188,1.192,1.188,1.188,0,0,1-1.187,1.184A1.189,1.189,0,0,1-7852.562-4137.713Zm164.578-2.481a.084.084,0,0,1,.087-.091.088.088,0,0,1,.085.091.087.087,0,0,1-.085.093A.083.083,0,0,1-7687.985-4140.194Zm-65.124-4.574a.269.269,0,0,1,.269-.273.275.275,0,0,1,.277.273.279.279,0,0,1-.277.277A.273.273,0,0,1-7753.108-4144.768Zm-63.015-2.9a.818.818,0,0,1,.818-.818.824.824,0,0,1,.826.818.824.824,0,0,1-.826.818A.818.818,0,0,1-7816.123-4147.669Zm102.792-4.853a.1.1,0,0,1,.093-.1.094.094,0,0,1,.085.1.086.086,0,0,1-.085.085A.087.087,0,0,1-7713.331-4152.522Zm-64.986-4.277a.554.554,0,0,1,.549-.554.554.554,0,0,1,.55.554.547.547,0,0,1-.55.545A.547.547,0,0,1-7778.317-4156.8Zm-62.942-2.8a1.187,1.187,0,0,1,1.184-1.188,1.188,1.188,0,0,1,1.192,1.188,1.191,1.191,0,0,1-1.192,1.188A1.189,1.189,0,0,1-7841.259-4159.6Zm102.4-5.2a.363.363,0,0,1,.368-.362.361.361,0,0,1,.357.362.363.363,0,0,1-.357.372A.365.365,0,0,1-7738.859-4164.8Zm-64.639-4.014a.825.825,0,0,1,.826-.822.818.818,0,0,1,.818.822.822.822,0,0,1-.818.822A.829.829,0,0,1-7803.5-4168.813Zm106.226-2.376a.1.1,0,0,1,.093-.1.093.093,0,0,1,.085.1.085.085,0,0,1-.085.085A.093.093,0,0,1-7697.272-4171.189Zm-66.772-5.81a.364.364,0,0,1,.366-.362.364.364,0,0,1,.368.362.365.365,0,0,1-.368.361A.365.365,0,0,1-7764.044-4177Zm-63.881-3.812a.366.366,0,0,1,.374-.364.364.364,0,0,1,.366.364.367.367,0,0,1-.366.366A.369.369,0,0,1-7827.925-4180.812Zm104.84-2.968a.271.271,0,0,1,.269-.271.277.277,0,0,1,.277.271.281.281,0,0,1-.277.279A.275.275,0,0,1-7723.085-4183.78Zm43.23-4.833a.086.086,0,0,1,.084-.089.09.09,0,0,1,.1.089.091.091,0,0,1-.1.093A.087.087,0,0,1-7679.855-4188.612Zm-109.218-.545a.279.279,0,0,1,.269-.281.277.277,0,0,1,.277.281.268.268,0,0,1-.277.269A.27.27,0,0,1-7789.073-4189.158Zm40.474-7.1a.276.276,0,0,1,.277-.277.277.277,0,0,1,.277.277.278.278,0,0,1-.277.272A.276.276,0,0,1-7748.6-4196.253Zm-65.364-5.035a.09.09,0,0,1,.087-.1.09.09,0,0,1,.093.1.088.088,0,0,1-.093.087A.088.088,0,0,1-7813.963-4201.288Zm107.836-.347a.277.277,0,0,1,.277-.277.27.27,0,0,1,.269.277.267.267,0,0,1-.269.269A.274.274,0,0,1-7706.127-4201.635Zm44.939-3.037a.09.09,0,0,1,.085-.093.1.1,0,0,1,.093.093.093.093,0,0,1-.093.089A.087.087,0,0,1-7661.188-4204.671Zm-112.909-3.974a.366.366,0,0,1,.366-.368.37.37,0,0,1,.366.368.368.368,0,0,1-.366.366A.364.364,0,0,1-7774.1-4208.646Zm42.058-5.834a.276.276,0,0,1,.277-.277.278.278,0,0,1,.277.277.281.281,0,0,1-.277.273A.279.279,0,0,1-7732.039-4214.48Zm44.064-3.8a.268.268,0,0,1,.267-.272.275.275,0,0,1,.277.272.28.28,0,0,1-.277.277A.273.273,0,0,1-7687.975-4218.284Zm46.594-1.01a.091.091,0,0,1,.089-.1.09.09,0,0,1,.093.1.087.087,0,0,1-.093.085A.089.089,0,0,1-7641.381-4219.294Zm-72.777-12.319a.088.088,0,0,1,.085-.093.094.094,0,0,1,.093.093.093.093,0,0,1-.093.085A.086.086,0,0,1-7714.158-4231.614Zm93.632-.782a.089.089,0,0,1,.093-.089.088.088,0,0,1,.087.089.092.092,0,0,1-.087.095A.092.092,0,0,1-7620.526-4232.4Zm-48.014-1.241a.087.087,0,0,1,.085-.093.089.089,0,0,1,.093.093.091.091,0,0,1-.093.089A.089.089,0,0,1-7668.54-4233.636Zm20.265-13.988a.09.09,0,0,1,.1-.093.087.087,0,0,1,.085.093.088.088,0,0,1-.085.091A.091.091,0,0,1-7648.274-4247.625Zm72.1-6.132a.08.08,0,0,1,.084-.084.085.085,0,0,1,.085.084.089.089,0,0,1-.085.1A.085.085,0,0,1-7576.172-4253.756Zm-50.915-6.428a.089.089,0,0,1,.093-.093.087.087,0,0,1,.085.093.09.09,0,0,1-.085.093A.091.091,0,0,1-7627.087-4260.185Zm22-11.069a.092.092,0,0,1,.085-.095.1.1,0,0,1,.093.095.094.094,0,0,1-.093.093A.088.088,0,0,1-7605.085-4271.254Z" transform="translate(8049.978 4271.348)" fill="#f5f5f5" stroke="rgba(0,0,0,0)" stroke-width="1"/>
  </g>
</svg>
