<?xml version="1.0" encoding="utf-8"?>
<!-- Generator: Adobe Illustrator 25.4.1, SVG Export Plug-In . SVG Version: 6.00 Build 0)  -->
<svg version="1.1" id="Capa_1" xmlns="http://www.w3.org/2000/svg" xmlns:xlink="http://www.w3.org/1999/xlink" x="0px" y="0px"
	 viewBox="0 0 1080 1080" style="enable-background:new 0 0 1080 1080;" xml:space="preserve">
<style type="text/css">
	.st0{fill:none;stroke:#B6BDC7;stroke-miterlimit:10;}
	.st1{fill:none;}
	.st2{fill:#9A979C;}
	.st3{fill:#FFFFFF;}
	.st4{fill:#5C595F;}
	.st5{fill:#B6BDC7;}
	.st6{fill:#D96849;}
</style>
<line class="st0" x1="132.1" y1="824.46" x2="532.33" y2="824.46"/>
<line class="st0" x1="688.89" y1="824.46" x2="954.49" y2="824.46"/>
<g>
	<g>
		<path class="st1" d="M666.35,740.64c-1.17,0.64-2.38,1.25-3.68,1.81c-0.05,0.81-0.16,1.61-0.37,2.4
			c4.83-1.01,10.19-1.58,15.84-1.58c0.26,0,0.52,0.01,0.78,0.01c0.09-0.34,0.17-0.68,0.25-1.03
			C674.64,742.12,670.31,741.58,666.35,740.64z"/>
		<path class="st1" d="M677.16,646.08c0,0.72-0.07,1.43-0.18,2.13c3.07-0.45,6.23-0.81,9.46-1.08c-3.2-0.46-6.31-1.05-9.32-1.74
			C677.13,645.62,677.16,645.85,677.16,646.08z"/>
		<path class="st2" d="M810.85,577.99c1.03,0.03,2.06,0.05,3.1,0.05c40.38,0,73.11-21.46,73.11-47.93
			c0-25.99-31.57-47.14-70.94-47.89c-2.82-24.45-40.72-43.82-87.08-43.82c-48.19,0-87.26,20.93-87.26,46.74
			c0,19.45,22.18,36.11,53.73,43.15c-1.42,1.14-2.58,2.36-3.4,3.67c-34.22,5.46-58.59,19.52-58.59,36.02
			c0,7.4,4.92,14.31,13.42,20.18c-8.27,6.24-13.15,13.86-13.15,22.09c0,3.71,1,7.3,2.84,10.69c-2.36-0.19-4.78-0.3-7.24-0.3
			c-26.38,0-47.76,11.39-47.76,25.44c0,11.32,13.88,20.91,33.07,24.21c-4.44,4.53-7.12,10.36-7.12,16.71
			c0,6.02,2.42,11.55,6.45,15.97c-11.01,4.37-18.24,11.71-18.24,20.03c0,1.35,0.2,2.67,0.56,3.96c-7.23,3.77-11.72,9.03-11.72,14.85
			c0,9.25,11.35,17.09,27.03,19.79c-3.63,3.7-5.82,8.47-5.82,13.66c0,4.92,1.98,9.44,5.27,13.05c-9,3.57-14.91,9.57-14.91,16.37
			c0,10.42,13.88,18.96,31.51,19.76c-2.67-8.18-7.86-26.27-4.28-33.61c4.69-9.62,8.52-10.76,8.52-10.76s-5.74,13.23,1.42,13.55
			c7.16,0.32,4.64-10.91,7.9-19.17c3.25-8.25,15.37-10.75,15.37-10.75s-12.42,17.75-6.22,23.95c1.65,1.65,3.68,2.17,5.79,1.75
			l0.07-0.24c0.24-0.77,1-1.19,1.71-0.93c0.2,0.07,0.38,0.2,0.52,0.35c5.08-2.59,9.96-10.24,10.51-20.59
			c0.86-16.25-1.47-22.63-1.47-22.63s4.92,11.77,10.17,1.16c0.52-1.05,0.92-2.15,1.22-3.27c-0.26,0-0.52-0.01-0.78-0.01
			c-5.65,0-11.01,0.57-15.84,1.58c0.22-0.78,0.33-1.59,0.37-2.4c1.29-0.56,2.51-1.17,3.68-1.81c3.97,0.93,8.29,1.48,12.82,1.61
			c2.13-10-3.06-21.56-3.06-21.56s6.96,7.41,10.9,21.35c17.92-1.58,31.62-10.17,31.62-20.53c0-0.17-0.02-0.34-0.03-0.51
			c1.19-0.92,2.29-1.89,3.28-2.91c5.28,1.85,11.61,2.94,18.44,2.94c18.37,0,33.26-7.8,33.26-17.41c0-4.18-2.81-8.01-7.5-11.01
			c2.5-2.03,4.5-4.18,5.93-6.44c0.84,0.02,1.69,0.04,2.54,0.04c33.01,0,59.77-17.54,59.77-39.18c0-14.72-12.38-27.52-30.69-34.22
			c5.72-3.67,9.15-8.35,9.15-13.45c0-5.11-3.44-9.8-9.17-13.47C806.66,583.39,809.1,580.75,810.85,577.99z M628.77,770.22
			c-0.5,0.6-1.36,0.64-1.91,0.1l-2.66-2.64c-0.55-0.55-0.59-1.48-0.09-2.08c0.5-0.6,1.36-0.64,1.91-0.1l2.66,2.64
			C629.24,768.69,629.28,769.62,628.77,770.22z M656.95,755.95l-1.14,3.72c-0.24,0.77-1,1.19-1.71,0.93
			c-0.71-0.26-1.09-1.09-0.85-1.86l1.14-3.72c0.24-0.77,1-1.19,1.71-0.93C656.81,754.35,657.19,755.18,656.95,755.95z
			 M685.15,721.42l-3.5,0.89c-0.73,0.19-1.45-0.31-1.62-1.1c-0.17-0.79,0.28-1.58,1.01-1.77l3.5-0.89c0.73-0.19,1.45,0.31,1.62,1.1
			C686.33,720.45,685.88,721.24,685.15,721.42z M680.46,691.06l1.14-3.72c0.24-0.77,1-1.19,1.71-0.93c0.71,0.26,1.09,1.09,0.85,1.86
			l-1.14,3.72c-0.24,0.77-1,1.19-1.71,0.93C680.6,692.67,680.22,691.83,680.46,691.06z M676.97,648.21c0.11-0.7,0.18-1.41,0.18-2.13
			c0-0.23-0.02-0.46-0.04-0.7c3.01,0.69,6.11,1.28,9.32,1.74C683.2,647.4,680.04,647.77,676.97,648.21z M697.53,737.64
			c-0.5,0.6-1.36,0.64-1.91,0.1l-2.66-2.64c-0.55-0.55-0.59-1.48-0.09-2.08s1.36-0.64,1.91-0.1l2.66,2.64
			C697.99,736.11,698.03,737.04,697.53,737.64z"/>
		<path class="st2" d="M687.66,766.34c0.48,0.13,0.88,0.53,1,1.09c0.17,0.79-0.28,1.58-1.01,1.77l-1.25,0.32
			c-2.6,5.8-5.64,9.5-3.07,14.7c0.57,1.16,1.2,1.98,1.86,2.52l1.07-3.5c0.24-0.77,1-1.19,1.71-0.93c0.71,0.26,1.09,1.09,0.85,1.86
			l-1.05,3.45c2.95-0.15,5.97-3.56,7.4-5.41c0.51-0.73,0.84-1.16,0.84-1.16s-0.31,0.47-0.84,1.16c-2.44,3.49-8.95,14.03-2.84,19.11
			c1.3,1.08,2.67,1.67,4.03,1.92c4.88-3.68,7.81-8.39,7.81-13.53c0-4.88-2.64-9.36-7.08-12.95c11.7-3.07,19.61-8.9,19.61-15.58
			c0-8.39-12.44-15.43-29.22-17.36c0.56,2.22,1.04,4.58,1.41,7.1C689.84,757.51,689.01,762.41,687.66,766.34z"/>
		<path class="st3" d="M679.16,742.25c-0.07,0.35-0.16,0.69-0.25,1.03c2.95,0.03,5.81,0.2,8.56,0.52c-0.15-0.6-0.31-1.19-0.47-1.76
			c-1.95,0.17-3.94,0.26-5.97,0.26C680.4,742.3,679.79,742.26,679.16,742.25z"/>
		<path class="st3" d="M709.14,797.98c0.02-0.02,0.03-0.03,0.03-0.03S709.16,797.96,709.14,797.98z"/>
		<path class="st3" d="M695.16,782.21c0.53-0.69,0.84-1.16,0.84-1.16S695.67,781.47,695.16,782.21z"/>
		<path class="st3" d="M679.16,742.25c0.62,0.02,1.24,0.05,1.87,0.05c2.03,0,4.03-0.09,5.97-0.26c-3.94-13.94-10.9-21.35-10.9-21.35
			S681.29,732.25,679.16,742.25z"/>
		<path class="st3" d="M677.7,746.55c-5.25,10.61-10.17-1.16-10.17-1.16s2.33,6.38,1.47,22.63c-0.55,10.36-5.44,18.01-10.51,20.59
			c0.35,0.38,0.5,0.96,0.33,1.5l-1.14,3.72c-0.24,0.77-1,1.19-1.71,0.93c-0.71-0.26-1.09-1.09-0.85-1.86l1.06-3.48
			c-2.11,0.42-4.14-0.1-5.79-1.75c-6.2-6.2,6.22-23.95,6.22-23.95s-12.11,2.5-15.37,10.75c-3.25,8.25-0.74,19.49-7.9,19.17
			c-7.16-0.32-1.42-13.55-1.42-13.55s-3.83,1.15-8.52,10.76c-3.58,7.33,1.61,25.42,4.28,33.61c0.9,0.04,1.8,0.07,2.72,0.07
			c15.38,0,28.38-5.88,32.7-13.97c2.21,0.28,4.49,0.42,6.82,0.42c10.63,0,20.14-3.02,26.41-7.75c-1.37-0.25-2.73-0.84-4.03-1.92
			c-6.11-5.08,0.4-15.62,2.84-19.11c-1.43,1.85-4.45,5.26-7.4,5.41l-0.08,0.27c-0.24,0.77-1,1.19-1.71,0.93
			c-0.71-0.26-1.09-1.09-0.85-1.86l0.07-0.22c-0.66-0.54-1.29-1.36-1.86-2.52c-2.56-5.21,0.47-8.91,3.07-14.7l-2.25,0.57
			c-0.73,0.19-1.45-0.31-1.62-1.1c-0.17-0.79,0.28-1.58,1.01-1.77l3.5-0.89c0.21-0.05,0.43-0.04,0.63,0.01
			c1.35-3.94,2.19-8.83,1.23-15.45c-0.36-2.52-0.85-4.88-1.41-7.1c-2.75-0.32-5.62-0.5-8.56-0.52
			C678.62,744.4,678.22,745.5,677.7,746.55z"/>
		<path class="st3" d="M694.78,732.92c-0.55-0.55-1.4-0.5-1.91,0.1s-0.46,1.53,0.09,2.08l2.66,2.64c0.55,0.55,1.4,0.5,1.91-0.1
			c0.5-0.6,0.46-1.53-0.09-2.08L694.78,732.92z"/>
		<path class="st3" d="M626.02,765.51c-0.55-0.55-1.4-0.5-1.91,0.1c-0.5,0.6-0.46,1.53,0.09,2.08l2.66,2.64
			c0.55,0.55,1.4,0.5,1.91-0.1c0.5-0.6,0.46-1.53-0.09-2.08L626.02,765.51z"/>
		<path class="st3" d="M684.54,718.56l-3.5,0.89c-0.73,0.19-1.18,0.98-1.01,1.77c0.17,0.79,0.9,1.28,1.62,1.1l3.5-0.89
			c0.73-0.19,1.18-0.98,1.01-1.77C685.99,718.87,685.26,718.38,684.54,718.56z"/>
		<path class="st3" d="M709.36,772.73l-3.5,0.89c-0.73,0.19-1.18,0.98-1.01,1.77c0.17,0.79,0.9,1.28,1.62,1.1l3.5-0.89
			c0.73-0.19,1.18-0.98,1.01-1.77S710.09,772.55,709.36,772.73z"/>
		<path class="st3" d="M688.66,767.43c-0.12-0.56-0.52-0.96-1-1.09c-0.39,1.13-0.82,2.18-1.26,3.17l1.25-0.32
			C688.37,769.01,688.83,768.22,688.66,767.43z"/>
		<path class="st3" d="M687.03,766.34l-3.5,0.89c-0.73,0.19-1.18,0.98-1.01,1.77c0.17,0.79,0.9,1.28,1.62,1.1l2.25-0.57
			c0.44-0.99,0.87-2.04,1.26-3.17C687.46,766.29,687.25,766.28,687.03,766.34z"/>
		<path class="st3" d="M683.02,691.99l1.14-3.72c0.24-0.77-0.15-1.6-0.85-1.86c-0.71-0.26-1.47,0.16-1.71,0.93l-1.14,3.72
			c-0.24,0.77,0.15,1.6,0.85,1.86C682.02,693.18,682.78,692.76,683.02,691.99z"/>
		<path class="st3" d="M687.96,782.3c-0.71-0.26-1.47,0.16-1.71,0.93l-1.07,3.5c0.82,0.67,1.7,0.92,2.58,0.88l1.05-3.45
			C689.05,783.39,688.67,782.56,687.96,782.3z"/>
		<path class="st3" d="M685.19,786.74l-0.07,0.22c-0.24,0.77,0.15,1.6,0.85,1.86c0.71,0.26,1.47-0.16,1.71-0.93l0.08-0.27
			C686.88,787.66,686.01,787.41,685.19,786.74z"/>
		<path class="st3" d="M656.1,754.09c-0.71-0.26-1.47,0.16-1.71,0.93l-1.14,3.72c-0.24,0.77,0.15,1.6,0.85,1.86
			c0.71,0.26,1.47-0.16,1.71-0.93l1.14-3.72C657.19,755.18,656.81,754.35,656.1,754.09z"/>
		<path class="st3" d="M657.97,788.26c-0.71-0.26-1.47,0.16-1.71,0.93l-0.07,0.24c0.76-0.15,1.53-0.43,2.3-0.82
			C658.34,788.46,658.17,788.33,657.97,788.26z"/>
		<path class="st3" d="M655.98,794.76c0.71,0.26,1.47-0.16,1.71-0.93l1.14-3.72c0.17-0.55,0.02-1.12-0.33-1.5
			c-0.77,0.39-1.54,0.67-2.3,0.82l-1.06,3.48C654.89,793.67,655.27,794.51,655.98,794.76z"/>
	</g>
	<g>
		<path class="st4" d="M816.12,482.23c-2.82-24.45-40.72-43.82-87.08-43.82c-48.19,0-87.26,20.93-87.26,46.74
			c0,19.45,22.18,36.11,53.73,43.15c-1.42,1.14-2.58,2.36-3.4,3.67c-34.22,5.46-58.59,19.52-58.59,36.02c0,1.89,0.33,3.76,0.95,5.58
			c8.86-6.69,21.76-10.91,36.13-10.91c6.79,0,13.26,0.95,19.12,2.65c-0.44-1.84-0.68-3.73-0.68-5.65
			c0-19.89,24.55-36.02,54.84-36.02c30.29,0,54.84,16.13,54.84,36.02c0,1.56-0.17,3.1-0.46,4.61c8.1,2.42,14.62,7.42,17.96,13.75
			c39.32-0.79,70.84-21.92,70.84-47.89C887.06,504.12,855.49,482.98,816.12,482.23z"/>
		<path class="st2" d="M737.9,508.62c17.37,0,32.2,9.55,38.12,23.01c1.78-4.04,2.76-8.42,2.76-13.01c0-19.89-18.3-36.02-40.88-36.02
			c-22.58,0-40.88,16.13-40.88,36.02c0,4.59,0.98,8.97,2.76,13.01C705.7,518.17,720.53,508.62,737.9,508.62z"/>
		<path class="st2" d="M796.14,534.31c7.8,0,14.46,4.29,17.12,10.33c0.8-1.81,1.24-3.78,1.24-5.84c0-8.93-8.22-16.17-18.35-16.17
			c-10.14,0-18.35,7.24-18.35,16.17c0,2.06,0.44,4.03,1.24,5.84C781.69,538.59,788.34,534.31,796.14,534.31z"/>
		<path class="st4" d="M803.62,612.8c4.39-2.82,7.42-6.24,8.59-9.99c-4.72,4.91-11.65,8.4-19.64,9.49
			c11.67,8.44,19.4,23.08,19.4,39.73c0,11.19-3.49,21.46-9.32,29.56c18.83-6.6,31.65-19.6,31.65-34.57
			C834.31,632.3,821.93,619.49,803.62,612.8z"/>
	</g>
	<path class="st4" d="M758.84,559.65c17.37,0,32.2,9.55,38.12,23.01c1.78-4.04,2.76-8.42,2.76-13.01c0-19.89-18.3-36.02-40.88-36.02
		c-22.58,0-40.88,16.13-40.88,36.02c0,4.59,0.98,8.97,2.76,13.01C726.64,569.2,741.47,559.65,758.84,559.65z"/>
	<path class="st4" d="M703.93,624.32c17.37,0,32.2,9.55,38.12,23.01c1.78-4.04,2.76-8.42,2.76-13.01c0-19.89-18.3-36.02-40.88-36.02
		c-22.58,0-40.88,16.13-40.88,36.02c0,4.59,0.98,8.97,2.76,13.01C671.73,633.87,686.56,624.32,703.93,624.32z"/>
	<path class="st4" d="M730.87,659.27c11.14,0,20.66,6.13,24.46,14.76c1.14-2.59,1.77-5.4,1.77-8.35c0-12.76-11.74-23.11-26.23-23.11
		c-14.49,0-26.23,10.35-26.23,23.11c0,2.94,0.63,5.76,1.77,8.35C710.21,665.4,719.73,659.27,730.87,659.27z"/>
</g>
<ellipse class="st4" cx="-7.59" cy="1159.91" rx="9.89" ry="4.95"/>
<g>
	<path class="st1" d="M603.25,700.5c2-1.83,3.9-3.75,5.72-5.72c32.37-34.97,38.26-86.91,14.55-128.25
		c-29.95-52.2-96.54-70.25-148.75-40.3c-52.2,29.95-70.25,96.54-40.3,148.75c29.95,52.2,96.54,70.25,148.75,40.3
		c7.21-4.15,13.94-9.11,20.04-14.77L603.25,700.5z"/>
	<path class="st5" d="M508.19,459.44c16.5-2.03,33.21-1.51,49.55,1.52c-18.33-31.46-38.57-58.36-53.3-70.86
		c-15.05-12.76-22.15-8.67-18.62,10.74C490.72,421.25,498.25,440.95,508.19,459.44z"/>
	<path class="st5" d="M359.62,473.65c-15.04-12.75-22.14-8.65-18.61,10.75c3.46,19.04,16.65,49.98,34.72,81.6
		c5.55-15.67,13.46-30.4,23.47-43.67C388.15,504.47,374.85,488.11,359.62,473.65z"/>
	<path class="st5" d="M429.59,491.95c11.23-8.93,23.72-16.15,37.07-21.4l0,0c-26.78-45.2-53.74-83.88-72.19-103.68
		c-20.19-21.66-27.29-17.57-18.61,10.75C383.8,403.5,403.85,446.18,429.59,491.95z"/>
	<path class="st6" d="M604.79,702.15l-0.01-0.01c2.04-1.87,3.98-3.83,5.84-5.84c33.03-35.68,39.05-88.69,14.86-130.87
		c-30.56-53.28-98.51-71.69-151.79-41.14c-53.28,30.56-71.69,98.51-41.14,151.79c30.56,53.28,98.51,71.69,151.79,41.14
		C591.7,712.98,598.56,707.92,604.79,702.15z M434.47,674.98c-29.95-52.2-11.91-118.8,40.3-148.75
		c52.2-29.95,118.8-11.91,148.75,40.3c23.71,41.33,17.82,93.27-14.55,128.25c-1.83,1.98-3.72,3.89-5.72,5.72l0.01,0.01
		c-6.1,5.66-12.82,10.62-20.04,14.77C531.02,745.23,464.42,727.19,434.47,674.98z"/>
	<path class="st6" d="M590.26,821.92c9.09,0.63,21.22-1.3,25.46,3.12c4.24,4.42,11.52,10.07,11.52,10.07s22.43-13.91,32.13-13.24
		c0.29,0.02,0.6,0.04,0.94,0.06c3.82-5.33,6.87-11.18,8.99-17.41c4.18-11.87,6.08-24.42,5.61-36.99c-0.56-20.41-3.55-40.69-8.9-60.4
		c-8.12,13.02-18.06,24.81-29.52,35.02c1.97,9.93,3.11,20.01,3.41,30.12c0.11,29.31-10.61,42.45-41.32,23.84
		c-9.18-5.66-17.85-12.12-25.91-19.29c-15.24,4.29-31.03,6.31-46.86,6.01c14.85,15.35,31.5,28.83,49.58,40.18
		C581.88,822.24,587.49,821.73,590.26,821.92z"/>
	<path class="st6" d="M624.38,723.24c2.54-2.38,4.98-4.83,7.32-7.37c52.09-56.5,48.52-144.54-7.99-196.63
		c-56.5-52.09-144.54-48.52-196.63,7.99c-52.09,56.5-48.52,144.54,7.99,196.63C488.61,773.22,571.16,772.95,624.38,723.24z
		 M432.55,676.08c-30.56-53.28-12.14-121.24,41.14-151.79c53.28-30.56,121.24-12.14,151.79,41.14
		c24.19,42.18,18.17,95.19-14.86,130.87c-1.86,2.01-3.8,3.97-5.84,5.84l0.01,0.01c-6.23,5.78-13.09,10.83-20.45,15.07
		C531.06,747.77,463.1,729.35,432.55,676.08z"/>
	<path class="st6" d="M626.32,725.35L626.32,725.35c2.6-2.42,5.09-4.93,7.47-7.51c53.17-57.66,49.52-147.5-8.13-200.66
		c-57.66-53.17-147.5-49.52-200.66,8.13c-53.17,57.66-49.52,147.5,8.13,200.66C487.76,776.36,572.01,776.09,626.32,725.35z
		 M427.08,527.23c52.09-56.5,140.13-60.08,196.63-7.99c56.5,52.09,60.08,140.13,7.99,196.63c-2.34,2.53-4.78,4.99-7.32,7.37
		c-53.22,49.71-135.77,49.98-189.31,0.62C378.56,671.76,374.99,583.73,427.08,527.23z"/>
</g>
<path style="fill:#D96849;" d="M172.86,958.83c0.11,0.07,0.22,0.14,0.33,0.21c0.12-0.1,0.25-0.2,0.37-0.29
	C173.33,958.77,173.1,958.8,172.86,958.83z"/>
<g>
	<path class="st0" d="M810.02,378.52c-6.15-2.4-12.56-3.97-18.97-1.64c-19.15,6.96-12.19,19.15-24.38,24.38s-40.05-22.64-50.5-13.93
		c-10.45,8.71-13.93,22.64-20.89,26.12c-6.96,3.48-20.9-8.71-27.86,0c-6.96,8.71-6.96,8.71-6.96,8.71h201.88"/>
	<path class="st0" d="M921.03,347.38c-11.59-9.82-24.31-17-35.95-15.77c-33.08,3.48-31.34,27.86-43.53,47.01
		c-2.03,3.19-4.25,5.07-6.63,6.03"/>
	<path class="st0" d="M881.67,422.15h120.08c0,0,5.22-19.15-8.71-27.86c-13.93-8.71-17.41,1.74-33.08-1.74
		c0,0-10.66-16.43-25.47-32.25"/>
</g>
<g>
	<path class="st0" d="M125.86,411.26h230.82c0,0,4.76-17.45-7.93-25.38c-12.69-7.93-15.86,1.59-30.14-1.59
		c0,0-38.07-58.7-68.21-55.52c-4.8,0.51-8.8,1.49-12.16,2.87"/>
	<path class="st0" d="M224.99,342.36c-5.87,8.53-8.13,19.61-14.26,29.25c-11.1,17.45-28.55-7.93-46.01-1.59
		c-17.45,6.35-11.11,17.45-22.21,22.21c-11.1,4.76-36.49-20.62-46.01-12.69c-9.52,7.93-12.69,20.62-19.04,23.8
		c-6.35,3.17-19.04-7.93-25.38,0c-6.35,7.93-6.35,7.93-6.35,7.93h64.46"/>
</g>
<ellipse class="st4" cx="846.88" cy="462.13" rx="15.3" ry="7.65"/>
<path class="st4" d="M904.74,534.53c6.63,0,12.01-2.69,12.01-6.01c0-3.32-5.38-6.01-12.01-6.01c-6.63,0-12.01,2.69-12.01,6.01
	C892.73,531.84,898.11,534.53,904.74,534.53z"/>
<g>
	<path class="st6" d="M122.43,697.13v-26.67L258.11,482.6h42.13v184h38.65v30.54h-38.65v62.23h-34.79v-62.23H122.43z M267,519.32
		L163.02,666.6H267V519.32z"/>
</g>
<g>
	<path class="st6" d="M714.74,697.13v-26.67L850.42,482.6h42.13v184h38.65v30.54h-38.65v62.23h-34.79v-62.23H714.74z M859.31,519.32
		L755.33,666.6h103.98V519.32z"/>
</g>
<g>
	<path class="st0" d="M489.26,198.52c-8.35-2.38-16.9-3.16-25.45-0.05c-34.19,12.43-21.76,34.19-43.52,43.52
		c-21.76,9.33-71.5-40.41-90.15-24.87c-18.65,15.54-24.87,40.41-37.3,46.63c-12.43,6.22-37.3-15.54-49.74,0
		c-12.43,15.54-12.43,15.54-12.43,15.54h367.18"/>
	<path class="st0" d="M619.14,279.29h220.79c0,0,9.33-34.19-15.54-49.74c-24.87-15.54-31.09,3.11-59.06-3.11
		c0,0-74.6-115.01-133.67-108.8c-59.06,6.22-55.95,49.74-77.71,83.93c-12.04,18.92-27.89,12.14-45.44,4.42"/>
</g>
<path class="st6" d="M684.3,824.74c-0.34-0.05-0.65-0.1-0.93-0.14c-8.88-1.41-29.67,8.62-32.77,10.14
	c-0.57,1.36-1.46,2.63-2.63,3.78c7.79,0.79,15.82,0.28,22.99-3.05c2.82-1.32,5.45-3.01,7.83-5.03l-0.03,0.05
	C680.71,828.69,682.56,826.76,684.3,824.74z"/>
<path class="st6" d="M618.69,841.12c0,0-8.01-4.56-12.84-8.32c-4.83-3.77-16.56-0.12-25.65,0.56c-2.66,0.2-7.85,1.42-13.86,3.04
	c-0.11,0.11-0.22,0.23-0.32,0.34c0.46,0.21,0.92,0.43,1.38,0.63c11.51,5.07,23.87,7.93,36.44,8.43c4.33,0.07,8.93-0.08,13.51-0.68
	c0.88-1.39,1.45-2.83,1.69-4.29C618.82,841.02,618.69,841.12,618.69,841.12z"/>
<g>
	<path class="st1" d="M526.27,768.72c-0.2-0.72-0.31-1.47-0.31-2.22c0-0.55,0.06-1.09,0.17-1.63c-1.39,0.44-2.86,0.8-4.39,1.1
		c-0.12,0.56-0.25,1.22-0.38,1.98C523.05,768.15,524.7,768.4,526.27,768.72z"/>
	<path class="st1" d="M563.88,800.56c0.12,0.05,0.23,0.1,0.34,0.14c-0.05-0.13-0.1-0.26-0.14-0.38
		C564.01,800.4,563.95,800.48,563.88,800.56z"/>
	<path class="st1" d="M513.1,767.58c0.5-0.01,1.01-0.02,1.52-0.02c1.54,0,3.05,0.08,4.52,0.19c0.58-0.47,1.1-1.03,1.54-1.58
		c-2.59,0.44-5.33,0.69-8.19,0.69c-0.03,0-0.06,0-0.09,0C512.65,767.13,512.87,767.37,513.1,767.58z"/>
	<path class="st2" d="M574.74,813.76c0.06-0.4,0.09-0.81,0.09-1.21c0-3.42-2.05-6.56-5.47-9.04c1.08,1.4,2.26,3.15,3.49,5.35
		C573.85,810.65,574.44,812.28,574.74,813.76z"/>
	<path class="st2" d="M513.1,767.58c2.28,2.14,4.4,1.51,6.05,0.17c-1.48-0.11-2.98-0.19-4.52-0.19
		C514.11,767.57,513.61,767.57,513.1,767.58z"/>
	<path class="st2" d="M498.13,802.17c-0.27-0.77,0.17-1.6,0.98-1.86c0.81-0.26,1.68,0.16,1.95,0.93l1.22,3.5
		c0.76-0.54,1.48-1.36,2.13-2.52c2.93-5.21-0.54-8.91-3.51-14.7l-1.43-0.32c-0.83-0.19-1.34-0.98-1.15-1.77
		c0.14-0.56,0.59-0.96,1.14-1.09c-1.45-3.69-2.37-8.24-1.57-14.25c-7.03,2.38-11.6,6.23-11.6,10.57c0,4.9,5.81,9.16,14.41,11.41
		c-3.26,2.63-5.2,5.92-5.2,9.49c0,1.01,0.16,2,0.46,2.96c1.09,0.61,2.24,1.04,3.38,1.09L498.13,802.17z"/>
	<path class="st2" d="M583.34,766.5c0-8.41-12.84-15.23-28.69-15.23c-5.38,0-10.42,0.79-14.72,2.16c0.13-0.59,0.2-1.19,0.2-1.8
		c0-5.28-4.88-9.94-12.29-12.67c14.66-4.12,24.33-11.18,24.33-19.21c0-11.18-18.76-20.5-43.64-22.58
		c22.29-3.22,38.68-14.09,38.68-27c0-15.45-23.47-27.98-52.42-27.98c-27.85,0-50.61,11.59-52.31,26.23
		c-23.65,0.45-42.61,13.11-42.61,28.67c0,15.84,19.66,28.69,43.92,28.69c0.63,0,1.25-0.01,1.86-0.03c1.05,1.65,2.52,3.23,4.36,4.72
		c-3.44,2.2-5.51,5-5.51,8.06c0,7.04,10.94,12.75,24.44,12.75c6.53,0,12.46-1.34,16.84-3.52c-0.59,1.24-0.9,2.53-0.9,3.87
		c0,5.68,5.64,10.62,13.99,13.24c4-17.05,13.8-26.18,13.8-26.18s-7.82,15.25-1.82,25.86c0.53,0.94,1.06,1.69,1.58,2.31
		c0.03,0,0.06,0,0.09,0c2.85,0,5.6-0.25,8.19-0.69c1.11-1.39,1.77-2.77,1.77-2.77s-0.34,0.81-0.73,2.58c1.53-0.3,3-0.67,4.39-1.1
		c-0.11,0.54-0.17,1.08-0.17,1.63c0,0.75,0.11,1.5,0.31,2.22c-1.56-0.33-3.21-0.58-4.91-0.77c-0.59,3.58-1.1,9.43-0.58,18.07
		c0.63,10.36,6.21,18.01,12.01,20.59c0.16-0.15,0.36-0.28,0.59-0.35c0.81-0.26,1.68,0.16,1.95,0.93l0.08,0.24
		c2.41,0.42,4.73-0.1,6.61-1.75c7.08-6.2-7.11-23.95-7.11-23.95s13.84,2.5,17.56,10.75c3.72,8.25,0.84,19.49,9.02,19.17
		c5.85-0.23,4.16-7.07,2.72-10.94c-0.12-0.05-0.23-0.1-0.34-0.14c0.07-0.08,0.13-0.16,0.2-0.24c-0.51-1.33-0.96-2.23-0.96-2.23
		s0.71,0.2,1.91,1.04c1.72-2.37,2.73-5.15,2.73-8.13c0-0.8-0.09-1.59-0.23-2.36c-0.29-0.07-0.57-0.19-0.79-0.41
		c-0.57-0.6-0.53-1.52,0.09-2.07c-0.73-1.91-1.87-3.66-3.36-5.16C575,779.02,583.34,773.28,583.34,766.5z M493.4,753.1l-3.04,2.64
		c-0.63,0.55-1.61,0.5-2.18-0.1c-0.57-0.6-0.53-1.53,0.1-2.08l3.04-2.64c0.63-0.55,1.61-0.5,2.18,0.1
		C494.07,751.63,494.03,752.55,493.4,753.1z M504.44,704.42c0.81-0.26,1.68,0.16,1.95,0.93l1.3,3.72c0.27,0.77-0.17,1.6-0.98,1.86
		c-0.81,0.26-1.68-0.16-1.95-0.93l-1.3-3.72C503.2,705.51,503.63,704.68,504.44,704.42z M508.18,739.22
		c-0.19,0.79-1.02,1.28-1.85,1.1l-4-0.89c-0.83-0.19-1.34-0.98-1.15-1.77c0.19-0.79,1.02-1.28,1.85-1.1l4,0.89
		C507.86,737.64,508.37,738.43,508.18,739.22z M537.79,778.6c-0.81,0.26-1.68-0.16-1.95-0.93l-1.3-3.72
		c-0.27-0.77,0.17-1.6,0.98-1.86c0.81-0.26,1.68,0.16,1.95,0.93l1.3,3.72C539.03,777.51,538.6,778.35,537.79,778.6z"/>
	<path class="st3" d="M490.88,800.21c-0.58-0.73-0.97-1.16-0.97-1.16S490.28,799.52,490.88,800.21z"/>
	<path class="st3" d="M474.92,815.98c-0.02-0.02-0.04-0.03-0.04-0.03S474.89,815.96,474.92,815.98z"/>
	<path class="st3" d="M512.42,766.86c-4.93-0.01-9.55-0.73-13.55-1.99c-0.3,1.3-0.58,2.64-0.81,4.03c-0.07,0.41-0.12,0.8-0.17,1.2
		c4.31-1.46,9.54-2.37,15.22-2.51C512.87,767.37,512.65,767.13,512.42,766.86z"/>
	<path class="st3" d="M564.22,800.7c1.93,0.79,3.67,1.73,5.14,2.8c-1.75-2.26-3.25-3.6-4.34-4.37c-0.3,0.41-0.61,0.81-0.95,1.19
		C564.13,800.45,564.17,800.57,564.22,800.7z"/>
	<path class="st3" d="M519.15,767.75c0.74,0.06,1.48,0.12,2.21,0.2c0.13-0.76,0.25-1.41,0.38-1.98c-0.34,0.07-0.69,0.13-1.04,0.19
		C520.24,766.72,519.72,767.28,519.15,767.75z"/>
	<path class="st3" d="M561.5,811.64c-8.18,0.32-5.3-10.91-9.02-19.17c-3.72-8.25-17.56-10.75-17.56-10.75s14.19,17.75,7.11,23.95
		c-1.89,1.65-4.21,2.17-6.61,1.75l1.21,3.48c0.27,0.77-0.17,1.6-0.98,1.86c-0.81,0.26-1.68-0.16-1.95-0.93l-1.3-3.72
		c-0.19-0.55-0.02-1.12,0.38-1.5c-5.8-2.59-11.38-10.24-12.01-20.59c-0.52-8.64-0.02-14.48,0.58-18.07
		c-0.72-0.08-1.46-0.15-2.21-0.2c-1.64,1.35-3.76,1.98-6.05-0.17c-5.68,0.14-10.91,1.05-15.22,2.51c-0.8,6.01,0.12,10.56,1.57,14.25
		c0.23-0.05,0.47-0.06,0.71-0.01l4,0.89c0.83,0.19,1.34,0.98,1.15,1.77c-0.19,0.79-1.02,1.28-1.85,1.1l-2.57-0.57
		c2.97,5.8,6.44,9.5,3.51,14.7c-0.65,1.16-1.37,1.98-2.13,2.52l0.08,0.22c0.27,0.77-0.17,1.6-0.98,1.86
		c-0.81,0.26-1.68-0.16-1.95-0.93l-0.09-0.27c-1.14-0.05-2.29-0.48-3.38-1.09c2.23,7.19,12.43,12.63,24.69,12.63
		c1.72,0,3.39-0.11,5.01-0.31c3.17,5.92,12.73,10.23,24.03,10.23c13.18,0,23.98-5.86,25.05-13.31c-0.3-1.48-0.89-3.12-1.89-4.9
		c-1.23-2.21-2.4-3.95-3.49-5.35c-1.48-1.07-3.21-2.01-5.14-2.8C565.66,804.58,567.36,811.42,561.5,811.64z"/>
	<path class="st3" d="M564.08,800.32c0.34-0.38,0.65-0.78,0.95-1.19c-1.19-0.84-1.91-1.04-1.91-1.04S563.57,798.99,564.08,800.32z"
		/>
	<path class="st3" d="M522.46,763.39c0,0-0.66,1.38-1.77,2.77c0.35-0.06,0.7-0.12,1.04-0.19
		C522.12,764.21,522.46,763.39,522.46,763.39z"/>
	<path class="st3" d="M510.84,764.55c-6-10.61,1.82-25.86,1.82-25.86s-9.8,9.13-13.8,26.18c4,1.25,8.62,1.98,13.55,1.99
		C511.9,766.24,511.37,765.49,510.84,764.55z"/>
	<path class="st3" d="M491.32,750.93l-3.04,2.64c-0.63,0.55-0.68,1.48-0.1,2.08c0.57,0.6,1.55,0.64,2.18,0.1l3.04-2.64
		c0.63-0.55,0.68-1.48,0.1-2.08C492.93,750.43,491.95,750.38,491.32,750.93z"/>
	<path class="st3" d="M568.92,788.32l3.04-2.64c0.63-0.55,0.68-1.48,0.1-2.08c-0.57-0.6-1.55-0.64-2.18-0.1l-3.04,2.64
		c0,0-0.01,0.01-0.01,0.01c0.31,0.8,0.54,1.63,0.7,2.48C568.01,788.75,568.53,788.66,568.92,788.32z"/>
	<path class="st3" d="M566.74,788.22c0.22,0.23,0.5,0.35,0.79,0.41c-0.15-0.85-0.39-1.68-0.7-2.48
		C566.21,786.71,566.17,787.63,566.74,788.22z"/>
	<path class="st3" d="M507.03,737.46l-4-0.89c-0.83-0.19-1.66,0.31-1.85,1.1c-0.19,0.79,0.32,1.58,1.15,1.77l4,0.89
		c0.83,0.19,1.66-0.31,1.85-1.1S507.86,737.64,507.03,737.46z"/>
	<path class="st3" d="M473.96,793.6l4,0.89c0.83,0.19,1.66-0.31,1.85-1.1c0.19-0.79-0.32-1.58-1.15-1.77l-4-0.89
		c-0.83-0.19-1.66,0.31-1.85,1.1S473.13,793.41,473.96,793.6z"/>
	<path class="st3" d="M498.32,785.43c-0.19,0.79,0.32,1.58,1.15,1.77l1.43,0.32c-0.51-0.99-1-2.04-1.44-3.17
		C498.91,784.48,498.46,784.88,498.32,785.43z"/>
	<path class="st3" d="M503.47,788.09c0.83,0.19,1.66-0.31,1.85-1.1c0.19-0.79-0.32-1.58-1.15-1.77l-4-0.89
		c-0.24-0.05-0.49-0.04-0.71,0.01c0.44,1.13,0.93,2.18,1.44,3.17L503.47,788.09z"/>
	<path class="st3" d="M504.76,709.99c0.27,0.77,1.14,1.19,1.95,0.93c0.81-0.26,1.25-1.09,0.98-1.86l-1.3-3.72
		c-0.27-0.77-1.14-1.19-1.95-0.93c-0.81,0.26-1.25,1.09-0.98,1.86L504.76,709.99z"/>
	<path class="st3" d="M499.11,800.31c-0.81,0.26-1.25,1.09-0.98,1.86l1.2,3.45c1.01,0.04,2.01-0.21,2.94-0.88l-1.22-3.5
		C500.79,800.47,499.92,800.05,499.11,800.31z"/>
	<path class="st3" d="M499.34,805.62l0.09,0.27c0.27,0.77,1.14,1.19,1.95,0.93c0.81-0.26,1.25-1.09,0.98-1.86l-0.08-0.22
		C501.34,805.41,500.34,805.66,499.34,805.62z"/>
	<path class="st3" d="M537.47,773.03c-0.27-0.77-1.14-1.19-1.95-0.93c-0.81,0.26-1.25,1.09-0.98,1.86l1.3,3.72
		c0.27,0.77,1.14,1.19,1.95,0.93c0.81-0.26,1.25-1.09,0.98-1.86L537.47,773.03z"/>
	<path class="st3" d="M535.33,807.19c-0.27-0.77-1.14-1.19-1.95-0.93c-0.23,0.07-0.43,0.2-0.59,0.35c0.88,0.39,1.76,0.67,2.63,0.82
		L535.33,807.19z"/>
	<path class="st3" d="M532.41,808.12l1.3,3.72c0.27,0.77,1.14,1.19,1.95,0.93c0.81-0.26,1.25-1.09,0.98-1.86l-1.21-3.48
		c-0.87-0.15-1.75-0.43-2.63-0.82C532.39,806.99,532.22,807.57,532.41,808.12z"/>
	<ellipse class="st4" cx="482.04" cy="616.33" rx="23.38" ry="11.69"/>
	<path class="st4" d="M438,608.39c-6.27,0-11.36-2.54-11.36-5.68c0-3.14,5.09-5.68,11.36-5.68c6.27,0,11.36,2.54,11.36,5.68
		C449.36,605.85,444.27,608.39,438,608.39z"/>
	<path class="st4" d="M438.35,654.64c-6.27,0-11.36-2.54-11.36-5.68c0-3.14,5.09-5.68,11.36-5.68s11.36,2.54,11.36,5.68
		C449.71,652.1,444.63,654.64,438.35,654.64z"/>
	<path class="st4" d="M449.09,670.58c6.73,0,13.06,1.49,18.6,4.1c2.3-14.78,16.73-26.17,34.2-26.17c19.07,0,34.52,13.57,34.52,30.31
		c0,3.86-0.83,7.55-2.33,10.95c-5-11.33-17.52-19.37-32.19-19.37c-10.09,0-19.17,3.81-25.48,9.87c7.41,6.28,12.03,15.09,12.03,24.85
		c0,4.4-0.95,8.6-2.66,12.47c-5.7-12.91-19.97-22.07-36.69-22.07c-16.72,0-30.99,9.16-36.69,22.07c-1.71-3.87-2.66-8.07-2.66-12.47
		C409.74,686.05,427.36,670.58,449.09,670.58z"/>
</g>
</svg>
