<?xml version="1.0" encoding="iso-8859-1"?>
<!-- Generator: Adobe Illustrator 19.0.0, SVG Export Plug-In . SVG Version: 6.00 Build 0)  -->
<svg version="1.1" id="Layer_1" xmlns="http://www.w3.org/2000/svg" xmlns:xlink="http://www.w3.org/1999/xlink" x="0px"
     y="0px"
     viewBox="0 0 448 448" style="enable-background:new 0 0 448 448;" xml:space="preserve">
<rect x="216" y="156" style="fill:#FFC600;" width="16" height="8"/>
    <path style="fill:#CC9966;" d="M256,372v-16h-24v16H256z M280.8,370.4L292,396H156l10.4-24H216v-16h-48v-40h112v51.2
	C280,368,280,369.6,280.8,370.4z"/>
    <rect x="211" y="151" style="fill:#FFC600;" width="26" height="18"/>
    <polygon style="fill:#2FB4C2;" points="347,343 347,361 379,361 379,367 347,367 347,401 413,401 413,343 "/>
    <g>
	<path style="fill:#FF9900;" d="M244.8,95h-41.6c-9.2,0-16.2,7-16.2,16.2V145h74v-33.8C261,102,254,95,244.8,95z"/>
        <rect x="35" y="375" style="fill:#FF9900;" width="90" height="26"/>
</g>
    <path style="fill:#FFF8EF;" d="M35,39v178h29.5l4-36.3l-2.6-1.7c-8.2-5.2-12.9-13.6-12.9-23c0-14.9,12.1-27,27-27
	c6.5,0,13.4,2.5,18.3,6.8l2.3,2l80.8-32.3l0.8-2c3.4-8.9,11.4-14.4,20.9-14.4h41.6c12.4,0,22.2,9.8,22.2,22.2V148c0,1.2-1.8,3-3,3
	h-21v21c0,1.2-1.8,3-3,3h-32c-1.2,0-3-1.8-3-3v-21h-21c-1.2,0-3-1.8-3-3v-35.4l-76.5,30.8l1.1,4.2c0.7,3,1.5,5.8,1.5,8.4
	c0,14.9-12.1,27-27,27h-5.2l-4.5,34H413V39H35z"/>
    <g>
	<path style="fill:#CC9966;" d="M11,247v45c0,7.2,5.8,13,13,13h29.2l7.7-58H11z"/>
        <path style="fill:#CC9966;" d="M16,292c0,4.8,4,8,8,8h24.8l6.4-48H16V292z"/>
</g>
    <rect x="11" y="407" style="fill:#996632;" width="426" height="26"/>
    <path style="fill:#E4C6A1;" d="M424,15H24.8C17.4,15,11,21.1,11,28v213h50.3l1.8-18H32c-2,0-3-1.8-3-3V36c0-2,1-3,3-3h384
	c1.2,0,3,1,3,3v184.8c0,1.2-1.8,3-3,3H69.1l-1.8,18H437v-213C437,20.9,431.4,15,424,15z"/>
    <path style="fill:#D9CDC1;"
          d="M40,44l324,14.4c15.2,0.8,28,13.6,28,28.8v81.6c0,15.2-12,28-27.2,28.8L168,212h240V44H40z"/>
    <path style="fill:#CC9966;" d="M66.8,247l-7.7,58H424c7.2,0,13-5.8,13-13v-45H66.8z M224,287c-6.1,0-11-4.9-11-11s4.9-11,11-11
	s11,4.9,11,11S230.1,287,224,287z"/>
    <g>
	<path style="fill:#B37D4D;"
          d="M424,252v35.2c0,2.4-2.4,4.8-4.8,4.8H66.4l-0.8,8H160h64h64h136c4.8,0,8-4,8-8v-40H424z"/>
        <path style="fill:#B37D4D;" d="M24,300h24.8l0.8-8H28.8c-2.4,0-4.8-2.4-4.8-4.8V252h-8v40C16,296,20,300,24,300z"/>
        <path style="fill:#B37D4D;" d="M280,316l-88,6.4c-9.6,0.8-16.8,7.2-19.2,16.8L168,356v-40H280z"/>
</g>
    <path style="fill:#42210B;" d="M232,356h24v16h-24V356z M224,260c8.8,0,16,7.2,16,16s-7.2,16-16,16c-8.8,0-16-7.2-16-16
	S215.2,260,224,260z M64,156c0,8.8,7.2,16,16,16s16-7.2,16-16s-7.2-16-16-16S64,147.2,64,156z M408,396v-48h-56v8h32v16h-32v24H408z
	 M152,365.6V316H63.2l-6.4,48H128c4,0,8,4,8,8v24h2.4L152,365.6z M232,156h-16v8h16V156z M292,396l-11.2-25.6
	c-0.8-0.8-0.8-2.4-0.8-3.2V316H168v40h48v16h-49.6L156,396H292z M288,300h136c4.8,0,8-4,8-8v-40H224H71.2l-6.4,48H160h64H288z
	 M208,140h32h16v-28.8c0-6.4-4.8-11.2-11.2-11.2h-41.6c-6.4,0-11.2,4.8-11.2,11.2V140H208z M24.8,300h24.8l6.4-48H16v40
	C16,296,20,300,24.8,300z M128,412H32H16v16h416v-16h-16h-72h-40H144H128z M40,380v16h80v-16H40z M32,364h8.8l6.4-48H24.8
	C11.2,316,0,304.8,0,292V28.8C0,15.2,11.2,4,24.8,4H424c13.6,0,24,11.2,24,24.8V292c0,13.6-11.2,24-24,24H296v49.6l13.6,30.4H336
	v-56c0-4,4-8,8-8h72c4,0,8,4,8,8v56h16c4,0,8,4,8,8v32c0,4-4,8-8,8H8c-4.8,0-8-4-8-8v-32c0-4,3.2-8,8-8h16v-24
	C24,368,27.2,364,32,364z M32,28h384c4,0,8,3.2,8,8v184c0,4-4,8-8,8H74.4l-0.8,8H432V28c0-4-4-8-8-8H24.8C20,20,16,24,16,28.8v208
	h40.8l0.8-8H32c-4.8,0-8-4-8-8V36C24,31.2,27.2,28,32,28z M408,44H40v168h20l3.2-28.8c-9.6-5.6-15.2-16-15.2-27.2
	c0-17.6,14.4-32,32-32c8,0,16,3.2,21.6,8l76-30.4c4-10.4,13.6-17.6,25.6-17.6h41.6C260,84,272,96,272,111.2V148c0,4-4,8-8,8h-16v16
	c0,4-4,8-8,8h-32c-4,0-8-4-8-8v-16h-16c-4,0-8-4-8-8v-28l-65.6,26.4c0.8,3.2,1.6,6.4,1.6,9.6c0,17.6-14.4,32-32,32h-0.8L76,212h332
	L408,44L408,44z"/>
    <g>
</g>
    <g>
</g>
    <g>
</g>
    <g>
</g>
    <g>
</g>
    <g>
</g>
    <g>
</g>
    <g>
</g>
    <g>
</g>
    <g>
</g>
    <g>
</g>
    <g>
</g>
    <g>
</g>
    <g>
</g>
    <g>
</g>
</svg>
