<?xml version="1.0" encoding="utf-8"?>
<!-- Generator: Adobe Illustrator 25.4.1, SVG Export Plug-In . SVG Version: 6.00 Build 0)  -->
<svg version="1.1" id="Capa_1" xmlns="http://www.w3.org/2000/svg" xmlns:xlink="http://www.w3.org/1999/xlink" x="0px" y="0px"
	 viewBox="0 0 32 32" style="enable-background:new 0 0 32 32;" xml:space="preserve">
<style type="text/css">
	.st0{fill:#B6BDC7;}
	.st1{fill:#D9684A;}
</style>
<g>
	<g id="beyond-ales" transform="translate(0 58.014)">
		<path class="st0" d="M8.2-38.4c-0.5,2.1-0.8,4-0.7,5.1C7.6-32.1,8-32,8.7-32.9c0.6-1,1.1-2.2,1.5-3.4C9.4-36.9,8.8-37.6,8.2-38.4z
			 M20.2-35.2c-0.9,0.4-1.8,0.7-2.8,0.8c-0.3,1.2-0.4,2.5-0.4,3.7c0.1,1.1,0.5,1.2,1.2,0.3C18.9-31.3,19.6-33.2,20.2-35.2z M12.4-35
			c-0.7,3-1.2,5.8-1.3,7.3c-0.1,1.7,0.4,1.8,1.2,0.3c0.7-1.4,1.6-4,2.6-7C14.1-34.4,13.2-34.7,12.4-35L12.4-35z"/>
	</g>
	<g id="beyond-circle">
		<path class="st1" d="M16.4,5.9c-0.2,0-0.4,0-0.6,0c-4.5,0.2-8,4-7.8,8.5s4,8,8.5,7.8c4.5-0.2,8-4,7.8-8.5
			C24.1,9.5,20.6,6,16.4,5.9z M16.3,7.8c0.5,0,1,0.1,1.4,0.2c3.4,0.9,5.4,4.4,4.5,7.9c-0.9,3.4-4.4,5.4-7.9,4.5
			C11,19.5,8.9,16,9.8,12.5c0.7-2.7,3.2-4.6,6-4.7C16,7.8,16.2,7.8,16.3,7.8L16.3,7.8z M19.5,0.3c-0.5,0-1,0.2-1.5,0.4
			C17.2,1,16.7,1.4,16.2,2c-0.8,0.9-1.5,1.8-2.2,2.9c0.9-0.2,1.7-0.3,2.7-0.2c0.3-0.5,0.7-0.9,1.1-1.4C19.1,2,20.1,1.9,20.5,4
			c0.1,0.6,0.2,1.2,0.3,1.8c0.8,0.4,1.5,1,2.2,1.7c0-1.3-0.1-2.6-0.4-3.8c-0.2-0.7-0.5-1.4-0.9-2.1c-0.4-0.5-0.9-1.1-1.6-1.3
			C19.8,0.3,19.6,0.3,19.5,0.3L19.5,0.3z M16.4,5.7c-0.2,0-0.4,0-0.6,0c-4.6,0.2-8.2,4.1-8,8.7c0.2,4.6,4.1,8.2,8.7,8s8.2-4.1,8-8.7
			C24.3,9.4,20.7,5.9,16.4,5.7L16.4,5.7z M16.3,7.6c0.5,0,1,0.1,1.4,0.2c3.5,1,5.7,4.6,4.6,8.1c-0.9,3.5-4.5,5.5-8,4.6
			s-5.5-4.5-4.6-8c0.7-2.8,3.2-4.7,6.1-4.8C16,7.6,16.2,7.6,16.3,7.6L16.3,7.6z"/>
	</g>
</g>
</svg>
