<?xml version="1.0" encoding="iso-8859-1"?>
<!-- Generator: Adobe Illustrator 19.0.0, SVG Export Plug-In . SVG Version: 6.00 Build 0)  -->
<svg version="1.1" id="Layer_1" xmlns="http://www.w3.org/2000/svg" xmlns:xlink="http://www.w3.org/1999/xlink" x="0px"
     y="0px"
     viewBox="0 0 512 512" style="enable-background:new 0 0 512 512;" xml:space="preserve">
<g>
	<path style="fill:#2D2D2D;" d="M384,512H128c-8.448,0-15.36-6.912-15.36-15.36V15.36C112.64,6.912,119.552,0,128,0h256
		c8.448,0,15.36,6.912,15.36,15.36v481.28C399.36,505.088,392.448,512,384,512z"/>
    <rect x="128" y="40.96" style="fill:#2D2D2D;" width="256" height="409.6"/>
</g>
    <g>
	<path style="fill:#999999;" d="M286.72,25.76h-61.44c-2.816,0-5.12-2.304-5.12-5.12l0,0c0-2.816,2.304-5.12,5.12-5.12h61.44
		c2.816,0,5.12,2.304,5.12,5.12l0,0C291.84,23.456,289.536,25.76,286.72,25.76z"/>
        <path style="fill:#999999;" d="M286.72,481.28h-61.44c-2.816,0-5.12-2.304-5.12-5.12l0,0c0-2.816,2.304-5.12,5.12-5.12h61.44
		c2.816,0,5.12,2.304,5.12,5.12l0,0C291.84,478.976,289.536,481.28,286.72,481.28z"/>
</g>
    <polygon style="fill:#FFFFFF;" points="262,425.752 250,425.752 250,323.032 177,323.032 177,238.368 337,238.368 337,121.208
	217.088,121.208 217.088,109.208 349,109.208 349,250.368 189,250.368 189,311.032 262,311.032 "/>
    <path style="fill:#DB2B42;" d="M217.12,202.912l-5.808-7.672c-4.272-5.584-41.664-55.504-41.664-80.368
	c0-29.832,18.624-49.112,47.472-49.112s47.472,19.28,47.472,49.112c0,24.832-37.392,74.744-41.624,80.368L217.12,202.912z"/>
    <circle style="fill:#FFFFFF;" cx="217.12" cy="115.208" r="15.376"/>
    <g>
</g>
    <g>
</g>
    <g>
</g>
    <g>
</g>
    <g>
</g>
    <g>
</g>
    <g>
</g>
    <g>
</g>
    <g>
</g>
    <g>
</g>
    <g>
</g>
    <g>
</g>
    <g>
</g>
    <g>
</g>
    <g>
</g>
</svg>
