<?xml version="1.0" encoding="utf-8"?>
<!-- Generator: Adobe Illustrator 25.4.1, SVG Export Plug-In . SVG Version: 6.00 Build 0)  -->
<svg version="1.1" id="Capa_1" xmlns="http://www.w3.org/2000/svg" xmlns:xlink="http://www.w3.org/1999/xlink" x="0px" y="0px"
	 viewBox="0 0 1210.42 535.25" style="enable-background:new 0 0 1210.42 535.25;" xml:space="preserve">
<style type="text/css">
	.st0{fill:#B6BDC7;}
	.st1{opacity:0.3;fill:#DB733A;}
	.st2{fill:#C86042;}
	.st3{fill:#5D5A60;}
	.st4{fill:#D96849;}
</style>
<path class="st0" d="M1179.17,397.09c0-0.67-36.3-1.29-98.08-1.8c-0.43,0.9-2.43,1.15-3.28,1.77c-0.68,0.49-2.16,1.37-2.86,1.77
	C1139.17,398.31,1179.17,397.77,1179.17,397.09z"/>
<path class="st0" d="M79.19,395.79c-30.8,0.39-47.96,0.83-47.96,1.29c0,0.48,18.27,0.93,50.94,1.33
	C81.15,397.61,80.15,396.74,79.19,395.79z"/>
<polygon class="st1" points="131.09,283.54 112.34,291.17 112.34,313.13 93.46,304.66 93.46,281.93 110.8,276.21 "/>
<path class="st0" d="M273.19,267.15c0-0.05-0.01-0.1-0.01-0.15c0-0.05,0-0.1-0.01-0.15c0,0,0-0.01,0-0.01
	c-0.01-0.04-0.03-0.07-0.04-0.11c-0.02-0.05-0.03-0.11-0.06-0.16c-0.02-0.04-0.05-0.08-0.08-0.12c-0.03-0.04-0.05-0.09-0.09-0.13
	c-0.04-0.04-0.08-0.07-0.12-0.11c-0.03-0.03-0.05-0.06-0.09-0.08c0,0-0.01,0-0.01-0.01c-0.04-0.03-0.09-0.05-0.14-0.07
	c-0.04-0.02-0.08-0.05-0.12-0.06c-0.01,0-0.01-0.01-0.02-0.01l-25.33-8.35c-0.05,0.78-0.24,1.55-0.54,2.26l22.32,7.36l-103.71,46.53
	l-98.6-47.06l27.52-8.77c0.04-0.92,0.3-1.84,0.81-2.69l-31.82,10.14c-0.01,0-0.01,0.01-0.02,0.01c-0.03,0.01-0.06,0.03-0.09,0.04
	c-0.06,0.03-0.12,0.05-0.18,0.09c-0.01,0-0.01,0-0.02,0.01c-0.03,0.02-0.05,0.04-0.07,0.06c-0.05,0.04-0.09,0.07-0.13,0.12
	c-0.03,0.03-0.05,0.07-0.08,0.11c-0.03,0.04-0.06,0.08-0.09,0.13c-0.02,0.04-0.04,0.09-0.05,0.13c-0.01,0.04-0.03,0.07-0.04,0.11
	c0,0.01,0,0.02,0,0.04c-0.01,0.04-0.01,0.09-0.02,0.14c-0.01,0.05-0.01,0.11-0.01,0.16c0,0.01,0,0.02,0,0.04l8.67,123.68
	c0.02,0.36,0.21,0.68,0.51,0.88l93.62,62.42c0.1,0.07,0.21,0.11,0.32,0.15c0,0,0.01,0,0.01,0c0.1,0.03,0.21,0.04,0.31,0.04
	c0.1,0,0.2-0.02,0.3-0.04c0.03-0.01,0.06-0.02,0.09-0.04c0.05-0.02,0.11-0.03,0.16-0.06c0.01-0.01,0.02-0.02,0.03-0.02
	c0.01-0.01,0.02-0.01,0.03-0.01l98.83-61.26c0.32-0.2,0.52-0.54,0.54-0.91L273.19,267.15C273.19,267.16,273.19,267.16,273.19,267.15
	z M73.19,389.54L64.7,268.41l99.27,47.38l0.57,134.65L73.19,389.54z M263.41,390.68l-96.56,59.86l-0.57-134.73l104.49-46.88
	L263.41,390.68z"/>
<polygon class="st1" points="112.72,395.59 95.39,384.8 95.54,404.45 112.34,415.62 "/>
<path class="st1" d="M133.93,200.76c-1.34-1.05-4.89-0.97-6.7-1.3c-2.16-0.39-4.23-1.14-6.03-2.34v13.63l14.16,4.62l0.79-13.38
	C135.37,201.71,134.62,201.29,133.93,200.76z"/>
<path class="st0" d="M251.41,185.48c0-0.02,0-0.04,0-0.06c0-0.01-0.01-0.01-0.01-0.02c-0.02-0.11-0.05-0.21-0.1-0.31
	c-0.01-0.02-0.02-0.04-0.03-0.05c-0.04-0.07-0.09-0.14-0.15-0.21c-0.02-0.03-0.05-0.05-0.08-0.07c-0.03-0.02-0.05-0.05-0.08-0.07
	c-0.03-0.02-0.07-0.04-0.1-0.06c-0.03-0.02-0.06-0.04-0.09-0.05c-0.09-0.04-0.19-0.08-0.28-0.1c-0.01,0-0.01-0.01-0.02-0.01
	l-11.39-1.93c-0.06,0.38-0.13,0.77-0.25,1.18c-0.11,0.38-0.24,0.73-0.4,1.05l7.06,1.2l-68.85,22.71l-22.39-5.52
	c-0.84,0.81-2,1.35-3.46,1.43c-0.04,0.02-0.08,0.05-0.13,0.07l24.86,6.13l-0.37,86.45l-79.03-28.84L92,190.18l45.71,11.27
	c-0.31-0.18-0.62-0.36-0.93-0.53c-0.05-0.02-0.17-0.08-0.29-0.14c0,0,0,0,0,0c-0.05,0-0.11,0.01-0.19,0.02
	c-2.32,0.19-4.22-1.37-5.15-3.35l-35.39-8.73l15.79-3.63c-0.75-0.5-1.33-1.19-1.72-1.98l-19.32,4.44c-0.17,0.04-0.33,0.12-0.46,0.23
	c0,0-0.01,0-0.02,0.01c0,0,0,0,0,0.01c-0.13,0.11-0.23,0.24-0.3,0.4c-0.01,0.01-0.01,0.02-0.02,0.04c0,0.01-0.01,0.02-0.01,0.02
	c-0.06,0.15-0.08,0.3-0.07,0.45c0,0.01-0.01,0.02-0.01,0.03l4.24,80.52c0.02,0.46,0.32,0.87,0.76,1.03l81.29,29.67
	c0.13,0.05,0.26,0.07,0.4,0.07h0c0,0,0,0,0,0c0.15,0,0.3-0.04,0.44-0.1c0.02-0.01,0.04,0,0.06-0.01l71.28-33.9
	c0.39-0.19,0.64-0.57,0.66-1l2.7-79.37C251.43,185.59,251.42,185.54,251.41,185.48z M246.44,264.23l-68.98,32.81l0.37-86.33
	l71.22-23.49L246.44,264.23z"/>
<polygon class="st1" points="119.76,277.02 133.99,282.21 134.01,267.96 119.76,263.34 "/>
<polygon class="st1" points="217.14,116.83 130.06,128.2 129.68,143.8 117.35,138.02 117.54,123.19 204.04,112.21 "/>
<path class="st0" d="M241.41,124.58c-0.01-0.13-0.04-0.26-0.08-0.38c-0.01-0.03-0.03-0.05-0.04-0.08c-0.05-0.11-0.12-0.21-0.21-0.3
	c-0.02-0.02-0.02-0.04-0.04-0.06c-0.01-0.01-0.03-0.02-0.05-0.03c-0.11-0.09-0.23-0.17-0.37-0.22l-0.01,0h0L188.46,106
	c-0.16-0.05-0.32-0.07-0.48-0.05l-90.78,9.14c0,0,0,0-0.01,0c-0.1,0.01-0.2,0.04-0.3,0.07c-0.03,0.01-0.05,0.03-0.08,0.04
	c-0.05,0.03-0.11,0.05-0.16,0.08c-0.01,0.01-0.02,0.02-0.03,0.02c-0.03,0.02-0.06,0.05-0.09,0.08c-0.05,0.04-0.09,0.09-0.13,0.14
	c-0.02,0.03-0.04,0.06-0.07,0.1c-0.03,0.05-0.06,0.11-0.09,0.17c-0.01,0.02-0.02,0.04-0.03,0.06c-0.01,0.02-0.01,0.04-0.01,0.06
	c-0.02,0.06-0.03,0.12-0.04,0.19c0,0.04-0.01,0.08-0.01,0.12c0,0.02-0.01,0.03-0.01,0.05l1.19,60.96c0.01,0.4,0.22,0.76,0.56,0.97
	l46.98,28.57c0.04,0.03,0.09,0.04,0.14,0.06c0.03,0.02,0.07,0.03,0.1,0.04c0.12,0.04,0.24,0.06,0.36,0.06c0.07,0,0.13-0.01,0.2-0.02
	l92.37-16.38c0.54-0.1,0.93-0.55,0.95-1.1l2.39-64.77c0-0.01-0.01-0.02-0.01-0.03C241.4,124.61,241.41,124.6,241.41,124.58z
	 M145.65,134.11l-43.49-17.2l85.8-8.64l46.98,15.79L145.65,134.11z M98.5,117.95l45.83,18.12v67.64l-44.68-27.18L98.5,117.95z
	 M146.65,204.39v-68.07l92.4-10.4l-2.31,62.49L146.65,204.39z"/>
<polygon class="st1" points="115.33,186.07 127.63,193.56 127.65,179.92 115.33,174.14 "/>
<rect x="-12.23" y="-3021.96" style="fill:none;" width="1298.72" height="146.05"/>
<text transform="matrix(1 0 0 1 -12.2265 -2877.6646)" style="font-family:'Poppins-Regular'; font-size:195px;">to be defined</text>
<g>
	<polygon class="st2" points="1042.61,411.33 1042.61,396.99 1058.78,390.83 1058.61,404.33 	"/>
	<path class="st0" d="M1090.43,333.43c0-0.01,0-0.02,0-0.04c0-0.01-0.01-0.02-0.01-0.03c-0.02-0.13-0.06-0.25-0.12-0.36
		c-0.01-0.02-0.02-0.04-0.03-0.05c-0.06-0.09-0.13-0.18-0.23-0.25c-0.01-0.01-0.03-0.01-0.04-0.02c-0.01,0-0.01-0.01-0.02-0.02
		l-6.42-4.19c-0.34,0.58-0.8,1.1-1.33,1.52l4.89,3.2l-8.17,2.6c-0.06,0.36-0.16,0.73-0.32,1.12c-0.18,0.46-0.38,0.87-0.58,1.26
		l10.33-3.29l-1.93,57.26l-82.72,32.57l-1.29-62.48l34.57-11c-1.12-0.31-2.26-0.62-3.48-0.86c-0.08-0.02-0.15-0.04-0.23-0.06
		l-31.62,10.06l-24.97-23.5c-0.77,0.34-1.61,0.5-2.44,0.45l26.15,24.61l1.27,61.39l-44.61-53.53v-48.66l1.27,1.2
		c-0.28-0.59-0.44-1.17-0.49-1.73c-0.34-1.01-0.38-2.13-0.12-3.16l-1.87,0.4c-0.02,0-0.04,0.02-0.06,0.03
		c-0.04,0.01-0.09,0.02-0.13,0.03c-0.05,0.02-0.09,0.06-0.14,0.08c-0.02,0.02-0.05,0.03-0.07,0.04c-0.1,0.08-0.18,0.17-0.24,0.27
		c0,0.01-0.01,0.01-0.01,0.01c-0.01,0.01-0.01,0.03-0.02,0.05c-0.05,0.09-0.08,0.19-0.1,0.29c0,0.03-0.01,0.06-0.01,0.1
		c0,0.02-0.01,0.05-0.01,0.07v51.33c0,0.23,0.08,0.46,0.23,0.64l46.67,56c0,0,0,0,0,0c0.09,0.11,0.2,0.19,0.33,0.26
		c0,0,0.01,0,0.01,0c0.13,0.06,0.28,0.1,0.43,0.1c0.12,0,0.24-0.02,0.35-0.06c0,0,0,0,0.01,0c0,0,0.01,0,0.01,0l84.67-33.33
		c0.37-0.15,0.62-0.5,0.63-0.9l2-59.33C1090.44,333.49,1090.44,333.46,1090.43,333.43z"/>
	<polygon class="st2" points="1089.28,304.99 1088.61,321.49 1082.94,330.49 1082.94,310.33 	"/>
	<path class="st0" d="M1151.86,213.67c-0.29-0.33-0.76-0.43-1.16-0.25l-45.89,20.55l11.24-32.31c0.1-0.29,0.06-0.61-0.1-0.86
		c-0.16-0.26-0.44-0.43-0.74-0.46l-95.5-10c-0.41-0.04-0.79,0.16-0.98,0.52l-17.34,31.78l-33.55-35.99
		c-0.31-0.33-0.79-0.41-1.19-0.21l-53.5,27.5c-0.28,0.14-0.47,0.41-0.53,0.71c-0.06,0.31,0.04,0.62,0.24,0.85l26.88,29.51
		l-20.52-2.67c-0.47-0.06-0.93,0.22-1.08,0.68c-0.15,0.46,0.05,0.96,0.47,1.19l31.22,17.25l8.61,72.82
		c0.05,0.42,0.36,0.77,0.78,0.86l106,23.33c0.07,0.02,0.14,0.02,0.21,0.02c0,0,0,0,0,0c0,0,0,0,0,0l0,0c0,0,0,0,0,0
		c0.1,0,0.19-0.02,0.29-0.05c0.03-0.01,0.05-0.02,0.08-0.03c0.07-0.03,0.13-0.06,0.2-0.11c0.01-0.01,0.03-0.01,0.05-0.03
		c0.01,0,0.01-0.01,0.02-0.02c0.08-0.06,0.15-0.14,0.21-0.23l32.67-50.17c0.1-0.15,0.16-0.33,0.16-0.52l1.27-43.02l28.13-12.09
		c0.19-0.08,0.35-0.22,0.46-0.39l23-37C1152.19,214.48,1152.15,214,1151.86,213.67z M966.89,188.56l33.19,35.6l-35.16,24.13
		l-22.1-2.88l-27.6-30.29L966.89,188.56z M1113.75,202.19l-11.32,32.55l-99.23-11.24l16.97-31.11L1113.75,202.19z M1101.15,236.61
		l-32.42,38.72l-14.56-15.19c-0.16-0.16-0.37-0.27-0.59-0.3l-85.67-11.16l33.97-23.31L1101.15,236.61z M1052.97,261.77l13.11,13.68
		L951.1,259.86L924.2,245L1052.97,261.77z M951.92,261.99l115.82,15.7l-3.25,78.57l-104.14-22.92L951.92,261.99z M1066.59,353.89
		l3.16-76.4l28.6-12.29l-1.23,41.81L1066.59,353.89z M1072.24,274.25l31.49-37.61l44.8-20.07l-21.11,33.96L1072.24,274.25z"/>
	<g>
		<rect x="1000.72" y="224.33" class="st0" width="2" height="30.25"/>
	</g>
</g>
<path class="st3" d="M575.17,306.49v14.43h-59.09v45.82h47.97v14.43h-47.97v61.23h-17.74V306.49H575.17z"/>
<g>
	<path d="M1471.52-3141.8v6.88h-17.67v57.93h-8.46v-57.93h-17.76v-6.88H1471.52z"/>
	<path d="M1494.85-3080.57c-4.96-2.82-8.88-6.76-11.76-11.81c-2.88-5.05-4.32-10.74-4.32-17.06c0-6.32,1.44-12.01,4.32-17.06
		c2.88-5.05,6.8-8.99,11.76-11.81c4.96-2.82,10.44-4.23,16.46-4.23c6.07,0,11.59,1.41,16.55,4.23c4.96,2.82,8.86,6.74,11.72,11.76
		c2.85,5.02,4.28,10.72,4.28,17.11c0,6.39-1.43,12.09-4.28,17.11c-2.85,5.02-6.76,8.94-11.72,11.76
		c-4.96,2.82-10.48,4.23-16.55,4.23C1505.3-3076.34,1499.81-3077.75,1494.85-3080.57z M1523.54-3086.85
		c3.63-2.11,6.48-5.11,8.55-9.02c2.08-3.91,3.11-8.43,3.11-13.58c0-5.21-1.04-9.75-3.11-13.62c-2.08-3.87-4.91-6.86-8.51-8.97
		c-3.6-2.11-7.69-3.16-12.27-3.16c-4.59,0-8.68,1.05-12.27,3.16c-3.6,2.11-6.43,5.1-8.51,8.97c-2.08,3.87-3.11,8.41-3.11,13.62
		c0,5.15,1.04,9.67,3.11,13.58c2.08,3.91,4.93,6.91,8.55,9.02c3.63,2.11,7.7,3.16,12.23,3.16
		C1515.83-3083.69,1519.91-3084.74,1523.54-3086.85z"/>
	<path d="M1618.75-3107.49c1.95,1.55,3.5,3.47,4.65,5.76c1.15,2.29,1.72,4.74,1.72,7.35c0,3.29-0.84,6.25-2.51,8.88
		c-1.67,2.64-4.11,4.71-7.3,6.23c-3.19,1.52-6.96,2.28-11.3,2.28h-24.17v-64.81h23.24c4.4,0,8.15,0.73,11.25,2.19
		c3.1,1.46,5.42,3.43,6.97,5.9c1.55,2.48,2.32,5.27,2.32,8.37c0,3.84-1.04,7.02-3.11,9.53c-2.08,2.51-4.82,4.32-8.23,5.44
		C1614.64-3110,1616.79-3109.04,1618.75-3107.49z M1588.3-3113.81h14.23c3.97,0,7.03-0.93,9.2-2.79c2.17-1.86,3.25-4.43,3.25-7.72
		c0-3.28-1.09-5.86-3.25-7.72c-2.17-1.86-5.3-2.79-9.39-2.79h-14.04V-3113.81z M1613.12-3086.94c2.35-1.98,3.53-4.74,3.53-8.28
		c0-3.59-1.24-6.43-3.72-8.51c-2.48-2.08-5.8-3.11-9.95-3.11h-14.69v22.87h14.97C1607.48-3083.97,1610.76-3084.96,1613.12-3086.94z"
		/>
	<path d="M1645.29-3134.92v21.66h23.62v6.97h-23.62v22.31h26.41v6.97h-34.87v-64.9h34.87v6.97H1645.29z"/>
	<path d="M1747.89-3137.85c5.17,2.64,9.14,6.4,11.9,11.3c2.76,4.9,4.14,10.66,4.14,17.29c0,6.63-1.38,12.38-4.14,17.25
		c-2.76,4.87-6.73,8.59-11.9,11.16c-5.18,2.57-11.3,3.86-18.36,3.86h-20.18v-64.81h20.18
		C1736.6-3141.8,1742.72-3140.48,1747.89-3137.85z M1748.68-3090.61c4.4-4.43,6.6-10.65,6.6-18.64c0-8.06-2.22-14.35-6.65-18.87
		c-4.43-4.52-10.8-6.79-19.11-6.79h-11.72v50.95h11.72C1737.9-3083.97,1744.28-3086.18,1748.68-3090.61z"/>
	<path d="M1783.55-3134.92v21.66h23.62v6.97h-23.62v22.31h26.41v6.97h-34.87v-64.9h34.87v6.97H1783.55z"/>
	<path d="M1859.42-3141.8v6.88h-28.17v21.85h22.87v6.88h-22.87v29.2h-8.46v-64.81H1859.42z"/>
	<path d="M1878.11-3141.8v64.81h-8.46v-64.81H1878.11z"/>
	<path d="M1943.47-3076.99h-8.46l-34.03-51.6v51.6h-8.46v-64.9h8.46l34.03,51.51v-51.51h8.46V-3076.99z"/>
	<path d="M1966.34-3134.92v21.66h23.62v6.97h-23.62v22.31h26.41v6.97h-34.87v-64.9h34.87v6.97H1966.34z"/>
	<path d="M2044.12-3137.85c5.17,2.64,9.14,6.4,11.9,11.3c2.76,4.9,4.14,10.66,4.14,17.29c0,6.63-1.38,12.38-4.14,17.25
		c-2.76,4.87-6.73,8.59-11.9,11.16c-5.18,2.57-11.3,3.86-18.36,3.86h-20.18v-64.81h20.18
		C2032.82-3141.8,2038.94-3140.48,2044.12-3137.85z M2044.91-3090.61c4.4-4.43,6.6-10.65,6.6-18.64c0-8.06-2.22-14.35-6.65-18.87
		c-4.43-4.52-10.8-6.79-19.11-6.79h-11.72v50.95h11.72C2034.12-3083.97,2040.51-3086.18,2044.91-3090.61z"/>
</g>
<path class="st3" d="M345.53,312.78c10.85,5.53,19.17,13.42,24.96,23.69c5.78,10.27,8.68,22.36,8.68,36.27
	c0,13.91-2.89,25.97-8.68,36.17c-5.79,10.21-14.11,18.01-24.96,23.4c-10.86,5.4-23.69,8.09-38.51,8.09H264.7V304.49h42.31
	C321.84,304.49,334.68,307.25,345.53,312.78z M347.19,411.84c9.23-9.29,13.85-22.33,13.85-39.1c0-16.9-4.65-30.09-13.94-39.58
	c-9.3-9.49-22.65-14.23-40.07-14.23h-24.57v106.86h24.57C324.57,425.78,337.96,421.13,347.19,411.84z"/>
<path class="st3" d="M966.05,315.03c10.85,5.53,19.17,13.42,24.96,23.69c5.78,10.27,8.68,22.36,8.68,36.27
	c0,13.91-2.89,25.97-8.68,36.17c-5.79,10.21-14.11,18.01-24.96,23.4c-10.86,5.4-23.69,8.09-38.51,8.09h-42.31V306.74h42.31
	C942.36,306.74,955.2,309.51,966.05,315.03z M967.71,414.09c9.23-9.29,13.85-22.33,13.85-39.1c0-16.9-4.65-30.09-13.94-39.58
	c-9.3-9.49-22.65-14.23-40.07-14.23h-24.57v106.86h24.57C945.09,428.03,958.48,423.39,967.71,414.09z"/>
<path class="st3" d="M614.47,306.32v135.92h-17.74V306.32H614.47z"/>
<path class="st3" d="M751.55,442.24h-17.75l-71.37-108.23v108.23h-17.74V306.13h17.74l71.37,108.03V306.13h17.75V442.24z"/>
<path class="st3" d="M799.52,320.75v45.44h49.53v14.62h-49.53v46.8h55.38v14.62h-73.12V306.13h73.12v14.62H799.52z"/>
<g>
	<g>
		<path class="st3" d="M665.22,205.58c4.09,3.25,7.34,7.28,9.75,12.09c2.4,4.81,3.61,9.95,3.61,15.41c0,6.89-1.75,13.1-5.27,18.62
			c-3.51,5.53-8.61,9.88-15.31,13.06c-6.7,3.19-14.59,4.78-23.69,4.78h-50.7V133.63h48.75c9.23,0,17.09,1.53,23.59,4.58
			c6.5,3.06,11.37,7.18,14.62,12.38c3.25,5.2,4.88,11.05,4.88,17.55c0,8.06-2.18,14.72-6.53,19.99
			c-4.36,5.27-10.11,9.07-17.26,11.41C656.6,200.32,661.12,202.34,665.22,205.58z M601.35,192.32h29.84c8.32,0,14.75-1.95,19.3-5.85
			c4.55-3.9,6.83-9.29,6.83-16.19c0-6.89-2.28-12.29-6.83-16.19c-4.55-3.9-11.11-5.85-19.69-5.85h-29.45V192.32z M653.42,248.68
			c4.94-4.16,7.41-9.94,7.41-17.35c0-7.54-2.6-13.49-7.8-17.84c-5.2-4.35-12.16-6.53-20.87-6.53h-30.81v47.97h31.4
			C641.59,254.92,648.48,252.84,653.42,248.68z"/>
		<path class="st3" d="M720.89,148.06v45.44h49.53v14.62h-49.53v46.8h55.38v14.62h-73.12V133.43h73.12v14.62H720.89z"/>
	</g>
	<g>
		<path class="st3" d="M352.97,133.53v14.43h-37.05v121.48h-17.75V147.96h-37.25v-14.43H352.97z"/>
		<g id="beyond-ales_00000081611499284930357290000003878594640094021544_" transform="translate(0 58.014)">
			<path class="st0" d="M370.35,187.76c-4.6,17.43-6.93,33.93-6.15,43.47c0.8,9.73,4.72,10.79,10.28,2.76
				c5.43-8.87,9.69-18.39,12.68-28.35C380.68,200.57,375.01,194.55,370.35,187.76z M470.84,214.71c-7.43,3.54-15.35,5.93-23.5,7.07
				c-2.39,10.12-3.46,20.5-3.19,30.9c0.8,9.73,4.72,10.78,10.28,2.75C459.88,247.55,466.09,232.1,470.84,214.71z M405.59,216.29
				c-6.45,25.2-10.55,48.18-11.02,61.57c-0.52,14.65,3.4,15.7,10.28,2.75c6.28-11.84,14.2-33.8,21.22-58.83
				C419,220.98,412.1,219.13,405.59,216.29L405.59,216.29z"/>
		</g>
		<g id="beyond-circle_00000092432898804943095760000001475727222873014433_">
			<path class="st4" d="M438.84,130.64c-1.72-0.06-3.44-0.05-5.14,0.02c-38.02,1.54-67.58,33.61-66.04,71.63
				c1.54,38.02,33.61,67.58,71.63,66.04c38.02-1.54,67.58-33.61,66.04-71.63C503.86,160.67,474.87,131.86,438.84,130.64z
				 M438.28,145.98c4.12,0.15,8.21,0.77,12.18,1.85c28.76,7.79,45.76,37.42,37.96,66.18s-37.42,45.76-66.18,37.96
				c-28.76-7.79-45.76-37.42-37.96-66.18c6.17-22.77,26.41-38.89,49.99-39.8C435.6,145.94,436.93,145.93,438.28,145.98
				L438.28,145.98z M464.75,83.09c-4.58,0.2-9.07,1.35-13.18,3.37c-5.62,2.69-10.68,6.42-14.91,10.98
				c-6.95,7.34-13,15.49-18.03,24.26c7.4-1.72,15.01-2.36,22.59-1.93c2.79-4.17,5.91-8.09,9.35-11.74
				c10.22-10.3,18.57-11.15,22.81,6.12c1.23,5.2,2.01,10.49,2.32,15.82c6.84,3.83,13.07,8.65,18.51,14.3
				c0.18-10.88-0.99-21.75-3.49-32.34c-1.4-6.07-3.93-11.82-7.45-16.95c-3.39-4.69-7.96-9.69-13.97-11.3
				c-1.49-0.39-3.03-0.59-4.57-0.58L464.75,83.09z M438.9,129.21c-1.76-0.06-3.51-0.05-5.24,0.02c-38.8,1.57-68.97,34.3-67.4,73.09
				s34.3,68.97,73.09,67.4s68.97-34.3,67.4-73.09C505.26,159.87,475.67,130.47,438.9,129.21L438.9,129.21z M438.31,144.88
				c4.2,0.16,8.37,0.79,12.43,1.88c29.35,7.95,46.69,38.19,38.74,67.54c-7.95,29.35-38.19,46.69-67.54,38.74
				c-29.35-7.95-46.69-38.19-38.74-67.54c6.3-23.23,26.96-39.68,51.01-40.61C435.58,144.83,436.94,144.83,438.31,144.88
				L438.31,144.88z"/>
		</g>
	</g>
</g>
<g>
	<path class="st3" d="M439.93,306.13h-16.84c-1.69,5.18-3.41,10.07-5.13,14.62H442c-0.56-1.32-1.02-2.93-1.38-4.83
		C440.25,312.66,440.03,309.4,439.93,306.13z"/>
	<path class="st3" d="M398.41,354.2v88.03h73.12v-14.62h-55.38v-46.8h49.53v-14.62h-49.53v-40.81c-2.71,6.78-5.42,12.64-8.02,17.31
		C404.39,349.41,401.09,353.23,398.41,354.2z"/>
	<path class="st3" d="M456.62,317.96c-0.78,1.04-1.53,1.97-2.28,2.79h17.19v-14.62h-7.9C461.32,310.81,458.95,314.82,456.62,317.96z
		"/>
</g>
</svg>
